<?xml version="1.0" encoding="UTF-8"?>
<svg id="Layer_2" data-name="Layer 2" xmlns="http://www.w3.org/2000/svg" xmlns:xlink="http://www.w3.org/1999/xlink" viewBox="0 0 510.21 577.51">
  <defs>
    <style>
      .cls-1 {
        fill: url(#linear-gradient-2);
      }

      .cls-2 {
        fill: url(#linear-gradient);
      }
    </style>
    <linearGradient id="linear-gradient" x1="248.46" y1="580.68" x2="247.65" y2="85.02" gradientUnits="userSpaceOnUse">
      <stop offset="0" stop-color="#fff"/>
      <stop offset="0" stop-color="#f8c249"/>
      <stop offset=".24" stop-color="#e9ab22"/>
      <stop offset=".84" stop-color="#fef6be"/>
    </linearGradient>
    <linearGradient id="linear-gradient-2" x1="439" y1="453.56" x2="510.21" y2="453.56" xlink:href="#linear-gradient"/>
  </defs>
  <g id="Layer_1-2" data-name="Layer 1">
    <path class="cls-2" d="M495.17,209.33c-.24-3.85-.3-12.28-5-13.99-.49-.18-1.42.16-2,0-.52-1.96-1.42-1.93-2,0h-1c-2.49-.84-4.39.63-5.99,1-3.41.78-8.06,2.57-10.99,3-6.54-1.43-16.5-1.37-22.98,0-6.3-.94-10.56-5.92-14.98-9.99-2.29-2.1-5.37-6.99-8.06-8.42-2.36-1.26-6.54-1.36-8.92-2.57-.81-.41-10.91-13.15-11.42-14.06-4.35-7.7-7.48-17.98-10.56-25.9-.2-.52-1.7-1.42-2.07-2.38-1.16-3.03-1.01-6.55-3.92-8.61-3.5-7.91-8.92-14.54-12.99-21.98-1.95-3.57-4.11-7.35-5.99-10.99-1.27-2.46-2.66-5.31-4-7.99-1.85-3.73-2.61-4.57-3-8.99-.38-.86-.72-.87-1,0-.09-1.32.09-2.67,0-4,1.6-5.44.58-11.94-4-15.98-.12-.28.12-.72,0-1h-1c-1.42-3.32-2.12-4.77-4.99-6.99-1.52-1.18-1.74-1.77-4-2-3.08-1.39-9.84-.1-12.99,1-2.32-.05-4.68.11-6.99,0-7.3-.34-14.93-1.27-21.98-3-4.04-2.38-13.66-5.45-18.98-6.99v-1c-1.11-.27-1.93-2-4.44-2.05-4.07-.08-14.02,3.17-16.01,7.11-.76,1.5-.3,3.52-.52,3.93-.32.61-2.23,2.84-3,4-.3.46-.15,1.72-.9,2.55-2.67,2.95-8.15,1.22-11.09-.55-.59-.36-1.93-2.21-3-3-1.21-.45-2.9-.48-4-1-.99-.47-2.01-1.38-3-2-2.76-1.71-4.75-4.14-8.97-5.52-6.04-1.97-17.3-1.24-21.01-5.96-4.68-5.95,1.86-19.07.77-24.88-.35-1.85-5.64-5.28-7.75-5.61,1.21-1.42-1.4-3.97-3-3v-1c-7.77-1.74-10.25,1.11-16.98,3-3.08.86-4.49,1.7-7.99,2-7.98.69-16.85-.4-24.98,0-3.1.68-4.43,1.68-4,3-1.52-2.19-8.03-.01-9.99,2l1-2c-1.57.23-3.39-.17-5,0,.22,1.49,1.71,1.89,3,1.99-.63.3-1.35,1.49-2,2-6.02,1.7-11.13,5-18.48,5h-15.98c-3.41,0-10.42,2.13-13.49,4-1.85,1.13-1.92,1.97-3,3-1.05,1-1.99,2.02-3,3-2.14,2.07-4.98,4.86-6.99,6.99-1.98,2.09-3.88,3.46-5.99,5.99-6.5,7.78-9.69,14.96-16.98,22.98-1.34,1.48-2.9,2.47-5,4.99-1.69,2.03-3.34,3.9-5,5.99-2.35,2.04-4.35,4.37-5.99,6.99-3.04,3.03-8.87,6.17-8.99,10.99-.31.35-.68.65-1,1-1.44,1.59-2.62,3.35-4,4.99-4.04,1.84-5.92,6.6-9.99,8.99-1.56.56-1.6,2.55,0,3-.43,1.92-1.65,3.12-2,5-.36,1.93-.73,5.03-1,6.99-.53.39-.56.72,0,1-.23,1.84.1,6.31,0,7.99-.03.43-.01.87,0,1.3.22.74.29,1.53.2,2.3.32.63.77,1.16.8,1.39-.2.12-.36.29-.51.47.39,1.07.44,2.27.15,3.37.11.06.22.13.37.16.15,3.98-.1,8.01,0,11.99-1.14,1.3-1.47,3.3-1,5.99-.28,1.2-1.3,2.46-1,4-.08.39-.61.68-.86.86-.06.43-.18.84-.34,1.24l.2-.1c-2.58,7.5-2.09,15.64,1,22.98.76,9.36-.3,10.04,4,18.98.56.39,1.58.59,2,1,4.73,4.61,7.41,11.78,11.99,15.98.34.31.68.67,1,1,.9,3.84,4.87,5.58,6.99,7.99,6.35,7.21,8.33,11.44,16.98,16.98,2.91,1.87,7.21,4.47,9.99,5.99,3.42,1.87,7.27,2.76,10.99,4.99,2.34,1.47,4.01,1.8,5,1,5.18,2.4,13.07,1.71,18.98,1,1.16-.08,2.15-.04,3-1,3.76-.35,4.83-1.06,7.99-2,7.24-2.15,14.97-4.38,20.98-7.99,9.36-5.63,12.57-7.59,23.98-5,.48.11,2.92,1.54,4,2,1.65,2.99,4.62,4.76,6.99,6.99.2.19.27,1.37,1,2,2.25.62,4.5,1.21,6.75,1.81-2.35-.32-4.65-.8-6.75-1.81,4.24,3.69,11.75,3.96,17.17,4.52,1.94.49,3.87,1,5.81,1.47.19.16,1.87,4.07,1.95,4.54,2.04,12.41-4.97,15.01-6.94,25.43-4.87,3.75-2.79,9.45,0,13.99,1.21,3.89,15.29,16.31,18.98,19.98.88.88,1.35,2.56,3,3,.95,4.28,6,7.74,7.99,10.99,6.59,10.78,14.92,31.91,14.06,44.44-.09,1.31-2.31,8.09-3.07,8.5v2c-1.57,1.46-2.72,3.3-4,4.99-2.02,2.67-5.06,5.45-5,8.99-2.37,3.92-4.67,26.15-4.03,31.5,1.07,8.93,6.29,14.53,9.02,21.45,4.82,12.23,7.11,22.37,9.99,34.97,1.1,4.81,1.92,6.08,4,9.99,4.44,8.36,10.29,16.19,13.99,24.98.29.68.72,1.31,1,2,1.26,3.16,3.97,12.38,4.06,15.52.16,5.51-5.72,14.45-1.48,20.36,2.58,3.59,5.88,3.07,8.67,4.14.91.35.73,1.74,1.44,1.91,3.52.84,37.52.7,41.7-.04,4.6-.81,14.09-8.59,16.54-12.93,1.55-1.42,3.52-4.28,5-5.99-.1-.21-.11-.41-.09-.61.06.14.1.34.09.61,3.37-.44,4.97-2.96,6.99-5,4.57-2.91,8.82-6.55,12.99-9.99,3.62-2.99,7.11-4.4,9.99-8.99.62-.98,2.65-5.01,2.77-5.76.62-3.9.34-8.96,1.23-14.22.16-.91-.1-2.03,0-3,2.02-.85,2.69-2.99,3-4.99,3.65-4.31,6.03-6.9,9.99-10.99,15.62-16.16,5.08-30.56,10.99-49.95,3.8-4.89,6.33-4.55,10.91-7.57,8.16-5.39,13.21-8.31,22.06-12.41,5.49-2.54,7.19-2.7,11.99-6.99.35-.31.7-.65,1-1,1.47-1.7,1.89-.64,3-4,3.56-4.82,4.02-15.76,2.96-21.44-.86-4.59-8.41-16.25-9.95-21.52-.04-.17-.08-.34-.12-.51-.44-2.55.57-7.06.06-9.93-.46-2.58-3.47-6.11-3.72-9.28-.27-3.33,1.7-8.39.78-12.25,3.76-19.76,6.31-23.19,18.98-37.96,6.82-7.95,14.47-15.22,21.5-22.96,1.13-1.24,2.5-2.04,2.48-4.01.25-.14.72.13,1,0,5.01-2.3,17.99-20.61,21.98-25.97,3.8-5.1,11.73-22.46,12.94-28.52.47-2.35-.96-5.69,1.05-7.44.77-.63.51-1.22,0-2ZM7.69,146.85c-.05,1.01-.23,2.12-.48,3.27.2-1.68.35-3.33.43-4.97.05.55.08,1.11.05,1.7ZM80.52,168.57c.08.02.17.03.26.06,1.18.71,2.42,1.35,3.62,1.93.08.06.16.13.24.19-1.35-.63-2.78-1.36-4.12-2.17ZM229.44,207.33c.42.5.87.95,1.36,1.36-.5-.37-.96-.82-1.36-1.36ZM413.25,351.19c.19-.7.36-1.43.52-2.16-.12.73-.27,1.46-.52,2.16ZM463.2,202.34l6.98.69c-1.58-.11-3.9-.34-6.98-.69ZM472.41,203.07c.95-.12,1.42-.25,1.43-.4.01-.31-2-.68-6.02-1.13.11.03.22.05.35.07.12.02.23.03.35.04-.16-.04-.38-.1-.64-.15-2.5-.49-5.41.18-5.49.9-.12,1.23,8,3.72,8.76,2.36.33-.58-.71-1.82-2.05-3.1-.48-.62-1.25-.95-2.02-.85-1.14.15-1.64,1.13-1.68,1.21,4.85.43,7.27.75,7.27.96,0,.04-.09.07-.26.11Z"/>
    <path class="cls-1" d="M510.19,422.66c.11-3.92-.45-21-1.25-23.8-.08-.28-2.75-4.35-2.99-4.49-7.76-4.48-9.48,12.73-10.79,15.76-1.17,2.71-15.95,12.06-18.73,12.74-5.23,1.29-11.06-.03-17.24,2.24-5.79,2.12-8.36,10.68-8.06,16.48.12,2.44,1.72,3.98,2.03,6.07,1.02,6.93-6.21,19.72-8.95,26.4-.31.41-1.58.81-2.41,2.05-3.74,5.57-3.75,29.48-.04,34.87,2.42,3.52,17.59,3.47,20.43-.95,2.15-.72,4.1-1.8,5.99-3,3.91-2.48,3.25-2.14,5.99-5.99,3.93-5.51,5.36-9.26,7.99-14.99,1.37-2.98,2.63-6.02,4-8.99,2.98-6.5,5.03-12.83,8.99-18.98,1.67-2.6,5.51-5.29,5.99-8.99.32-.34.67-.66,1-1,.09-.09,1.24.3,2.05-.66,1.15-1.36,1.46-3.99,2.94-5.33,1.45-.78,1.59-1.7,0-2,.06-.65-.1-1.39,0-2,.81-4.73,2.88-9.86,3.03-15.44Z"/>
  </g>
</svg>