<?xml version="1.0" encoding="UTF-8"?>
<svg id="Layer_2" data-name="Layer 2" xmlns="http://www.w3.org/2000/svg" viewBox="0 0 194.14 350.59">
  <defs>
    <style>
      .cls-1 {
        fill: #d78f2c;
      }

      .cls-2 {
        fill: #e1a445;
      }

      .cls-3 {
        fill: #a8762c;
      }

      .cls-4 {
        fill: #482f0e;
      }

      .cls-5 {
        fill: #e09e31;
      }

      .cls-6 {
        fill: #dfa644;
      }

      .cls-7 {
        fill: #dfa140;
      }

      .cls-8 {
        fill: #cd953d;
      }

      .cls-9 {
        fill: #a5701d;
      }

      .cls-10 {
        fill: #513106;
      }

      .cls-11 {
        fill: #eca223;
      }

      .cls-12 {
        fill: #eea72f;
      }

      .cls-13 {
        fill: #bb812e;
      }

      .cls-14 {
        fill: #c68d34;
      }

      .cls-15 {
        fill: #b87f27;
      }

      .cls-16 {
        fill: #cc8120;
      }

      .cls-17 {
        fill: #b37d2d;
      }

      .cls-18 {
        fill: #b1761f;
      }

      .cls-19 {
        fill: #e4b76b;
      }

      .cls-20 {
        fill: #a16718;
      }

      .cls-21 {
        fill: #cc8927;
      }

      .cls-22 {
        fill: #ca8c38;
      }

      .cls-23 {
        fill: #dd9930;
      }

      .cls-24 {
        fill: #e6b260;
      }

      .cls-25 {
        fill: #e09e3a;
      }

      .cls-26 {
        fill: #c18933;
      }

      .cls-27 {
        fill: #6a4c26;
      }

      .cls-28 {
        fill: #4f3106;
      }

      .cls-29 {
        fill: #e79d2c;
      }

      .cls-30 {
        fill: #754c15;
      }

      .cls-31 {
        fill: #d99833;
      }

      .cls-32 {
        fill: #be852f;
      }

      .cls-33 {
        fill: #a87223;
      }

      .cls-34 {
        fill: #895305;
      }

      .cls-35 {
        fill: #e8bd71;
      }

      .cls-36 {
        fill: #cf923c;
      }

      .cls-37 {
        fill: #cc9035;
      }

      .cls-38 {
        fill: #e3be79;
      }

      .cls-39 {
        fill: #734d11;
      }

      .cls-40 {
        fill: #e0a13e;
      }

      .cls-41 {
        fill: #d49739;
      }

      .cls-42 {
        fill: #443725;
      }

      .cls-43 {
        fill: #563810;
      }

      .cls-44 {
        fill: #744e0c;
      }

      .cls-45 {
        fill: #916522;
      }

      .cls-46 {
        fill: #e4b464;
      }

      .cls-47 {
        fill: #eabe73;
      }

      .cls-48 {
        fill: #442a03;
      }

      .cls-49 {
        fill: #d1831d;
      }

      .cls-50 {
        fill: #b57f2d;
      }

      .cls-51 {
        fill: #ae7725;
      }

      .cls-52 {
        fill: #dca54d;
      }

      .cls-53 {
        fill: #e1b66b;
      }

      .cls-54 {
        fill: #e49721;
      }

      .cls-55 {
        fill: #b98230;
      }

      .cls-56 {
        fill: #db9124;
      }

      .cls-57 {
        fill: #efae34;
      }

      .cls-58 {
        fill: #f0a52f;
      }

      .cls-59 {
        fill: #b68236;
      }

      .cls-60 {
        fill: #664209;
      }

      .cls-61 {
        fill: #dc9926;
      }

      .cls-62 {
        fill: #805713;
      }

      .cls-63 {
        fill: #b17c2c;
      }

      .cls-64 {
        fill: #7a4d0e;
      }

      .cls-65 {
        fill: #a98040;
      }

      .cls-66 {
        fill: #d38e33;
      }

      .cls-67 {
        fill: #9a661b;
      }

      .cls-68 {
        fill: #e2ba72;
      }

      .cls-69 {
        fill: #ab711b;
      }

      .cls-70 {
        fill: #a26e23;
      }

      .cls-71 {
        fill: #965f19;
      }

      .cls-72 {
        fill: #e3ad54;
      }

      .cls-73 {
        fill: #d5993b;
      }

      .cls-74 {
        fill: #e6ad45;
      }

      .cls-75 {
        fill: #53370a;
      }

      .cls-76 {
        fill: #e8a730;
      }

      .cls-77 {
        fill: #e6af57;
      }

      .cls-78 {
        fill: #dba44b;
      }

      .cls-79 {
        fill: #e6ba74;
      }

      .cls-80 {
        fill: #e09e2c;
      }

      .cls-81 {
        fill: #835c18;
      }

      .cls-82 {
        fill: #b5802c;
      }

      .cls-83 {
        fill: #efaa2b;
      }

      .cls-84 {
        fill: #65410b;
      }

      .cls-85 {
        fill: #db9a37;
      }

      .cls-86 {
        fill: #af7a27;
      }

      .cls-87 {
        fill: #362f2e;
      }

      .cls-88 {
        fill: #dc9b2d;
      }

      .cls-89 {
        fill: #c68d35;
      }

      .cls-90 {
        fill: #e8b150;
      }

      .cls-91 {
        fill: #e4b563;
      }

      .cls-92 {
        fill: #98620b;
      }

      .cls-93 {
        fill: #593806;
      }

      .cls-94 {
        fill: #c88b2c;
      }

      .cls-95 {
        fill: #d29646;
      }

      .cls-96 {
        fill: #e6bc73;
      }

      .cls-97 {
        fill: #b06d19;
      }

      .cls-98 {
        fill: #e5a441;
      }

      .cls-99 {
        fill: #cc8b31;
      }

      .cls-100 {
        fill: #8d6013;
      }

      .cls-101 {
        fill: #ae7421;
      }

      .cls-102 {
        fill: #ddb166;
      }

      .cls-103 {
        fill: #575c68;
      }

      .cls-104 {
        fill: #bc8732;
      }

      .cls-105 {
        fill: #dda75c;
      }

      .cls-106 {
        fill: #d48a20;
      }

      .cls-107 {
        fill: #cb8923;
      }

      .cls-108 {
        fill: #d29641;
      }

      .cls-109 {
        fill: #4c2f03;
      }

      .cls-110 {
        fill: #cd801f;
      }

      .cls-111 {
        fill: #cb9d53;
      }

      .cls-112 {
        fill: #eda938;
      }

      .cls-113 {
        fill: #bf852f;
      }

      .cls-114 {
        fill: #c1872e;
      }

      .cls-115 {
        fill: #e4a738;
      }

      .cls-116 {
        fill: #bf852e;
      }

      .cls-117 {
        fill: #c3954b;
      }

      .cls-118 {
        fill: #936316;
      }

      .cls-119 {
        fill: #b8801e;
      }

      .cls-120 {
        fill: #b88534;
      }

      .cls-121 {
        fill: #de9b32;
      }

      .cls-122 {
        fill: #7e4c0f;
      }

      .cls-123 {
        fill: #dcac5c;
      }

      .cls-124 {
        fill: #794d09;
      }

      .cls-125 {
        fill: #c88e36;
      }

      .cls-126 {
        fill: #d7a153;
      }

      .cls-127 {
        fill: #694109;
      }

      .cls-128 {
        fill: #9f712b;
      }

      .cls-129 {
        fill: #b18544;
      }

      .cls-130 {
        fill: #d49630;
      }

      .cls-131 {
        fill: #93641d;
      }

      .cls-132 {
        fill: #c1893a;
      }

      .cls-133 {
        fill: #a57319;
      }

      .cls-134 {
        fill: #b47d2c;
      }

      .cls-135 {
        fill: #c6923f;
      }

      .cls-136 {
        fill: #dba655;
      }

      .cls-137 {
        fill: #d39440;
      }

      .cls-138 {
        fill: #d8a34b;
      }

      .cls-139 {
        fill: #dc9e3b;
      }

      .cls-140 {
        fill: #aa6e20;
      }

      .cls-141 {
        fill: #e4aa4e;
      }

      .cls-142 {
        fill: #d5922d;
      }

      .cls-143 {
        fill: #d7901e;
      }

      .cls-144 {
        fill: #b68233;
      }

      .cls-145 {
        fill: #6b4f25;
      }

      .cls-146 {
        fill: #c47f22;
      }

      .cls-147 {
        fill: #a57024;
      }

      .cls-148 {
        fill: #664006;
      }

      .cls-149 {
        fill: #805716;
      }

      .cls-150 {
        fill: #a36d1f;
      }

      .cls-151 {
        fill: #775216;
      }

      .cls-152 {
        fill: #d79a3d;
      }

      .cls-153 {
        fill: #ba7a24;
      }

      .cls-154 {
        fill: #e6ae55;
      }

      .cls-155 {
        fill: #714609;
      }

      .cls-156 {
        fill: #d48f32;
      }

      .cls-157 {
        fill: #cb9035;
      }

      .cls-158 {
        fill: #dfab56;
      }

      .cls-159 {
        fill: #c28830;
      }

      .cls-160 {
        fill: #d6a75a;
      }

      .cls-161 {
        fill: #d89f45;
      }

      .cls-162 {
        fill: #daa147;
      }

      .cls-163 {
        fill: #e1a342;
      }

      .cls-164 {
        fill: #ecc987;
      }

      .cls-165 {
        fill: #d99f43;
      }

      .cls-166 {
        fill: #c1872f;
      }

      .cls-167 {
        fill: #dbae63;
      }

      .cls-168 {
        fill: #d28618;
      }

      .cls-169 {
        fill: #794d0d;
      }

      .cls-170 {
        fill: #e0a03b;
      }

      .cls-171 {
        fill: #b66d13;
      }

      .cls-172 {
        fill: #c9842b;
      }

      .cls-173 {
        fill: #c37715;
      }

      .cls-174 {
        fill: #d58f2b;
      }

      .cls-175 {
        fill: #553603;
      }

      .cls-176 {
        fill: #462c04;
      }

      .cls-177 {
        fill: #dfa44a;
      }

      .cls-178 {
        fill: #ce8f3a;
      }

      .cls-179 {
        fill: #c78b32;
      }

      .cls-180 {
        fill: #b17b2a;
      }

      .cls-181 {
        fill: #dca248;
      }

      .cls-182 {
        fill: #e0ad60;
      }

      .cls-183 {
        fill: #945c10;
      }

      .cls-184 {
        fill: #e3ac58;
      }

      .cls-185 {
        fill: #e49b1e;
      }

      .cls-186 {
        fill: #e7b665;
      }

      .cls-187 {
        fill: #8c6019;
      }

      .cls-188 {
        fill: #603d04;
      }

      .cls-189 {
        fill: #be8834;
      }

      .cls-190 {
        fill: #dc9728;
      }

      .cls-191 {
        fill: #e6bf7a;
      }

      .cls-192 {
        fill: #5f3e08;
      }

      .cls-193 {
        fill: #935e11;
      }

      .cls-194 {
        fill: #b5802b;
      }

      .cls-195 {
        fill: #d59330;
      }

      .cls-196 {
        fill: #dea64b;
      }

      .cls-197 {
        fill: #c0771d;
      }

      .cls-198 {
        fill: #e2ad59;
      }

      .cls-199 {
        fill: #98621a;
      }

      .cls-200 {
        fill: #cb923e;
      }

      .cls-201 {
        fill: #e6b25e;
      }

      .cls-202 {
        fill: #7a520f;
      }

      .cls-203 {
        fill: #313033;
      }

      .cls-204 {
        fill: #e5a946;
      }

      .cls-205 {
        fill: #d09d4d;
      }

      .cls-206 {
        fill: #e4a330;
      }

      .cls-207 {
        fill: #b87d26;
      }

      .cls-208 {
        fill: #e5b15c;
      }

      .cls-209 {
        fill: #925f0d;
      }

      .cls-210 {
        fill: #d79c49;
      }

      .cls-211 {
        fill: #e0a236;
      }

      .cls-212 {
        fill: #8d5f17;
      }
    </style>
  </defs>
  <g id="Layer_1-2" data-name="Layer 1">
    <g>
      <path class="cls-103" d="M0,197.5c0,1.15,0,2.31,0,3.46l.15-.16-.16-3.3Z"/>
      <path class="cls-10" d="M115.16,255.68l2.77.7c4.05,6.16,7.76,12.45,11.14,18.88-.44-3.89.58-5.42,3.08-4.59,1.79,1.33,2.12,1,1-1-2.77-.83-2.47-3.86,0-4.99.32-.2.63-.35.92-.31,2.05.29,8.67,1.26,8.78,2.36-3.75,4.65-4.98,9.29-3.71,13.93-.99,3.11-.91,6.12.24,9.01.19.4.38.81.57,1.21.26,1.61.82,3.68,2.06,5.81.33.57.68,1.08,1.03,1.55-.08.58-.27.94-.56,1.07-.89.4-2.77-1.37-5.64-5.33,2.07,1.43,4.14,2.87,6.21,4.3,2.04,3.99,4.17,8.04,6.39,12.15,1.89,3.48,3.78,6.88,5.67,10.2,5.42,3.66,10.15,10.77,12.99,16.98,3.11,2.83,7.3,10.18,3,12.99-4.52-5.02-10.97-9.66-15.5-14.97-10.23-11.99-19.62-30.98-27.46-44.97-7.37-4.55-8.47-7.29-3.3-8.22-4.48-5.05-8.04-10.64-10.69-16.76-.73-1.55-2.31-3.4-3-4.99-2.67-2.61-8.83-21.24-8.03-22.72.99-1.85,4.02.89,4.85,2.6l7.18,15.12Z"/>
      <path class="cls-48" d="M93.18,187.75c5,2.57,6.21,5.95,3.62,10.13l.38,2.86,2.05,1.3c2.39,15.45,5.83,30.68,14.48,44.12,2.59,3.77,3.07,6.95,1.45,9.52-1.23-2-2.91-3.35-4.21-6.28-1.48-3.32-1.41-9.59-6.77-10.7,1.45,7.68,3.91,14.83,6.99,21.97-5.3-3.6-5.15-10.94-7.22-16.26-4.62-11.88-9.28-23.59-13.45-35.5-1.28-3.67-2.19-7.46-3.31-11.18l.57-2.51c-4.04-17.7-7.06-36.44-5.57-54.43-1.52-2.45-2.12-16.15-.72-18.48.56-.94,1.6-1.6,2.72-1.5-1.06,15.32,2.74,53.69,8.99,66.93Z"/>
      <path class="cls-176" d="M98.18,263.67c5.96,3.71,12.62,6.06,18.49,9.98.78-1.97-1.48-5.8-2.51-7.98l12.49,15.98.5,2.99-4.99.5c.98,1.71,5.01,2.71,5.77,3.75.48.65.08,1.51.22,1.75-5.97-2.87-11.28-7.25-17.08-10.39-2.68-1.45-5.79-2.01-8.89-3.59.94-1.96.15-3.85-2.38-5.68-2.85-2.7-3.72-5.14-2.62-7.31h1Z"/>
      <path class="cls-109" d="M82.19,140.8c.53,18.25,3.64,35.95,7.22,53.22.63,3.06,3.08,6.44,1.28,9.71-2.3-1.21-.94-4.98-1.63-5.9-.33-.44-1.63.07-1.87-.09-1.72-1.16-1.1-3.52-2.24-4.76-1.95-2.13-14.71-6.49-17.74-9.22,3.76-1.86,7.67-.93,11.74,2.79-1.74-2.98-1.99-5.24-.75-6.78l2.99.99c.04-3.98-.04-8,0-11.98-1.23-8.63-1.25-17.29-1-25.97.3-2.3.97-2.96,2-2Z"/>
      <path class="cls-97" d="M101.17,59.88l1,6.99c1.3.89,1.27,2.09,0,3,.93,3.3-.05,6.79-1,9.99,1.14,1.35.13,5.41-1,6.99-1.05,10.19-7.71,18.11-14.3,25.72-1.18,2.34-2.08,4.76-2.68,7.25-.84,4.84-4.34,4.58-5.57-.64l-2.42-1.36c-1.29-1.39-2.58-2.36-4-4-.96-.72-1.29-1.39-1-2-.98-2.72-.98-4.71,0-5.99,1.57-.05,3.45.24,5.67.87,3.85-1.85,6.48-1.49,7.89,1.09,1.73-2.69,3.54-4.01,5.42-3.96,1.45-6.5,4.11-12.16,7.99-16.98l2-6.99c-1-.69-1-2.02,0-4-.48-5.59-.14-11.26,1-16.98.28-.87.62-.86,1,0,.87.33.87.67,0,1Z"/>
      <path class="cls-64" d="M61.21,33.9l.55,1.12c-6.05,11.22-8.59,22.77-7.62,34.64l-1.92,2.2c1.88,8.63,3.92,17.14,6.13,25.52,1.98,1.48,2.6,2.96,1.86,4.45,3.87,2.28,6.87,5.27,8.99,8.99.86-.42,1.16-.04,1,1,.89.95.87,1.85,1,2-6.04-3.18-11.73-8.36-15.23-14.24-4.77-8.01-9.97-23.75-8.51-32.98,1.33-8.4,8.86-27.69,13.75-34.7.6.4.6,1.07,0,2Z"/>
      <path class="cls-118" d="M48.23,113.82c14.06,12.8,22.42,26.41,23.98,45.95.81,1.78.81,3.11,0,4-.28.87-.62.86-1,0-1.22-.49-1.22-1.49,0-3l-1-5c-1.69-3.1-2.69-6.76-3-10.99-2.82.64-4.21-2.13-2-4-3.25-6.41-7.24-12.41-11.99-17.98-3.68-3-7.68-5.33-11.99-6.99-2.51-.45-5.38-1.74-8.63-3.88-3.58-.37-5.03-1.41-4.36-3.12-3.18,1.23-4.51.57-4-2-5.22-.67-9.74-1.75-14.68-4.01-2.24-4.54-3.53-3.05-4.3,1.02.81.32.7,1.47,0,2-7.37-14.79,5.43-10.46,13.44-4.15,10.16,3.1,19.9,7.53,29.52,12.15Z"/>
      <path class="cls-44" d="M141.17,81.55c-.55,1-1.51,1.82-2.96,2.2-1.03.27-2,.63-2.94,1.04-.45.36-.84.72-1.13,1.06-.25-.04-.47-.1-.68-.17-1.49.81-2.92,1.75-4.38,2.73-.3.2-.59.35-.88.48-.39,1.45-.81,2.86-1.27,4.23-2.22,6.59-14.09,16.39-16.51,24.45-2.44,8.14-1.96,26.89-1.2,35.66.16,1.82,1.67,3.57,1.97,6.02.41,3.27-.34,7.15-.03,10.52,2.4-.68,2.65-4.45,1-5.99.85-.47.89-.81,0-1,.81-4.97.81-9.96,0-14.99,1.46-1.21,1.08-3.87-1-4-.78-6.65-.6-13.32,0-19.98l2.1-.93c.93-4.5,2.22-8.86,3.9-13.06,2.86.74,4.17-.18,3-3l6.99-9.99c2.66,1.55,7.59-3.06,6.99-5.99,2.91,1.76,8.51-4.73,7.99-6.99,2.8-2.88,1.43-3.14-.96-2.3Z"/>
      <path class="cls-4" d="M109.17,174.76c.67,3.77,1.22,4.61,1.66,2.52l2.34.48,1.46,1.83c-2.76,8.12-5.6,13.61-14,16.44-.75,2.52-1.9,4.09-3.45,4.7-2.42-1.67-.07-5.27-.5-7.13-.52-2.25-2.77-2.37-3.26-3.13-.66-1.04-.05-2.31-.25-2.73,6.77,3.79,13-10.02,15.98-14.99,1.54.15,1.87,1.65,0,2Z"/>
      <path class="cls-42" d="M98.18,263.67h-1c-.13,2.67-1.04,2.49-2,0-4.95,3.18-8.51-5.89-9.99-9.99-2.76.11-3.65-1.28-2.67-4.15l-7.32-14.83c-3.27,1.09-4.41-2.57-4.69-5.08l-3.3-3.92c-3.05-2.17-6.85-5.05-8.99-7.99-6.49-3.39-13.15-6.05-19.98-7.99-.87-.28-.86-.62,0-1-.87-.28-.86-.62,0-1,28.72,5.83,34.55,18.96,46.76,42.65,3.38,6.56,7.22,9.58,13.18,13.3Z"/>
      <path class="cls-1" d="M23.25,247.69c2.33-.8,4.97.77,7.93,4.73.54-1.94,1.56-2.85,3.06-2.73-1.48-2.01-.81-2.34,2-1-1.03-1.94,6.63.16,7.08.91.29.48-.52,1.44-1.09,2.08.34,2.91-1.62,4.3-4.36,4.77,3.47,2.02,6.25,4.43,8.35,7.22l1,1c1.76-1.99,3.89-1.94,4,1,2.07-1.76,4.51-.58,5,2,.87.28.86.62,0,1-.25,1.07-.66,1.31-1.5,1.13-11.15-2.4-19.6-5.23-26.47-15.11-3.08-2.84-2.87-3.06-5-5.99v-1Z"/>
      <path class="cls-87" d="M19.37,101.22c-5.53-2.21-10.38-9.6-15.45-5.95-.32,1.05-.89,1.8-1.59,2.33.04.85-.1,1.71-.43,2.49l4.37,15.74c.44-2.63.44-5.29,0-7.99.83-.85.11-2.14-1-2-4.25-16.36,7.01-6.18,13.76-3.27,2.76,1.19,5.94,1.5,8.42,2.57,6.82,2.93,13.26,7.56,20.78,8.69-6.79-6.18-20.35-9.21-28.86-12.6Z"/>
      <path class="cls-127" d="M78.2,179.76c1.44,3.27,6.8,11.75-.78,8.3-4.05-1.84-2.06-3.65-10.21-4.31-1.3-.1-3.29.56-4-1,9.98-.4,11.1-8.59,8.99-16.98-.72-.63-.73-1.34,0-2-.05-1.32.1-2.68,0-4,2.43,3.58,1.33,8.55,2.22,12.26.56,2.34,2.71,5.31,3.77,7.72Z"/>
      <path class="cls-175" d="M97.18,263.67c2.93,4.32,5.57,9.41,10.98,11.01l-5.99,1.98c-5.3-2.71-10.69-7.56-16.98-7.99-.3-1.86,5.19-3.33,7.42-2.11.23-1.66.65-2.84,2.57-2.88.43.18,1.39-.12,2,0Z"/>
      <path class="cls-84" d="M101.17,86.85c-.28.87-.62.86-1,0,.34-1.32.67-5.01,1-6.99,1.32-3.37,1.65-6.7,1-9.99-.02-.99.09-2.02,0-3l-1-6.99c-.02-.33.03-.67,0-1-1.52-5.97-3.18-11.97-5-17.98-1.72,1.33-2.93-1.34-2-3l-3.14-9.13,1.14-.86c10.36,22.46,15.35,34.11,8.99,58.94Z"/>
      <path class="cls-16" d="M28.25,254.68c3.28,3.02,10.85,9.82,15.05,11.46,1.88.74,10.25,1.95,12.92,2.52,5.22.12,10.22.79,14.99,2,1.12,1.14.56,1.49-1,1-8.84,2.3-19.07.85-26.97-4-6.01-2.59-12.28-6.78-14.99-12.99Z"/>
      <path class="cls-39" d="M85.19,253.68c2.63,4.75,5.39,8.02,9.99,9.99-1.03,8.21-2.49,3.95-7.59,3.93-1.64,0-1.98.94-2.4,1.06-5.59,1.67-9.04,3.16-14.99,4-.87-.28-.86-.62,0-1,.47-.06.91-.51,1-1,.1-.92.45-.86,1,0l6.26-2.83c6.65-.73,9.56-3.12,8.73-7.16-2.85-1.23-5.68-4.61-2-6.99Z"/>
      <path class="cls-188" d="M101.17,86.85c-1.67,6.51-2.13,11.16-6.1,17.14-4.14,6.23-10.08,7.04-10.88,15.82-.28.87-.62.86-1,0-.31-8.61,7.81-14.47,11.79-21.68,1.32-2.4,4.61-9.04,5.19-11.29h1Z"/>
      <path class="cls-199" d="M14.26,136.8l.81.87c3.71,8.35,7.77,16.71,12.18,25.1l1.99.32c2.38,5.31,6.51,8.84,12,10.67,1.16-1.11,3.34.65,4,2,.87.28.86.62,0,1-2.58-1.11-6.12-1.21-8.99-2.5-6.38-2.85-18.5-19.42-19.98-25.48-1.75-4.44-2.75-8.77-3-12.99.28-.87.62-.86,1,0,.89.27.87.6,0,1Z"/>
      <path class="cls-181" d="M67.21,177.76c1.88,1.93-.12,2.93-5.99,3-4.55,1.06-9.22.06-13.99-3-.68-.28-1.32-.71-2-1v-1c-.15-.87.51-.87,2,0l1.79-1.57c6.53,2.42,15.21,1.97,14.19-6.42,3.53.69,4.86,4.02,4,9.99Z"/>
      <path class="cls-28" d="M75.2,117.82c3.06-.44,4.18.99,4.01,4l3.99-2h1c-.03.33.02.67,0,1-2.62,5.53-2.18,13.81-2,19.98l-2,2c-.78-5.29-1.11-10.62-1-15.98-.9-4.47-1.11-5.87-4-8.99Z"/>
      <path class="cls-60" d="M82.19,5.93c-3.28-.74-4.52.22-5.99,3,1.87,1.93.57,3.81-2,3-.36,1.46-.76,3.02-2,4,2.48,1.67.72,4.25-2,4-1.9,5.19-4.23,8.19-6.99,8.99L78.16.4c2.45-1.91,4.89,3.57,4.03,5.53Z"/>
      <path class="cls-48" d="M80.19,142.79c.52,8.65,1.09,17.07,1,25.97-.98-3.76-1.9-9.61-2.04-13.45-.12-3.32.92-6.55.84-9.03-.21-6.51-2.33-12.95-.8-19.48,1.22,6.05.64,10,1,15.98Z"/>
      <path class="cls-145" d="M38.24,207.73v1c-9.84-.21-19.54-1.42-29.09-3.61-1.31.31-2.27,1.18-2.87,2.61-.25-.7-2.35-1.75-1.94-3.39,4.21-5.4,11.34.4,16.48,1.34s11.58.87,17.43,2.05Z"/>
      <path class="cls-149" d="M76.2,8.93c.08-1.75,3.42-7.26,4.98-5.99-.22,1.23.44,2.03,1.01,3,2.92,4.96,3.29,7.89,5,12.99.98,1.17.98,1.84,0,2-4.32-1.58-9.4-5.88-7.85-11.59-1.18.45-2.23.32-3.14-.4Z"/>
      <path class="cls-169" d="M120.61,175.1c.21-.26.46-.52.76-.77.13-.13.26-.27.39-.39.23-.21.47-.4.71-.59.14-.58.26-1.17.43-1.75,6.01-5.59-3.17-3.51-6.74-.83l-1.39-.89c1.86-2.45,2.11-6.11-1.61-6.1-.38-.86-.72-.87-1,0-.06,3.81,1.14,2.15-1,5.99-.45.81-1.36,1.92-2,3-.09.64.13,1.43,0,2-.98,5.8,3.21,3.89,4.99,0,2.55-.61,4.26-.03,5.14,1.72.15-.14.3-.29.44-.44.29-.31.58-.63.87-.94Z"/>
      <path class="cls-200" d="M14.26,224.71c1.56-.13,1.9,1.2,1,4,3.27,2.56,7.33,10.88,5.99,14.99,2.86-1.42,4.91,2.39,2,4v1c-2.64-3.65-6.39-8.88-7.99-12.99-2.25-4.16-3.25-8.15-3-11.99v-2c.9-.87,1.57.12,2,3Z"/>
      <path class="cls-118" d="M72.2,165.77c.75,2.19,2.33,9.55,2.04,11.32-.12.74-1.6.7-2.04,1.4-.65,1.03-.53,2.63-1.65,3.36-1.85,1.21-5.16.84-7.34.91-1.99.06-4-.04-5.99,0-.32-.43-.56-.84-.52-1.23.05-.48,8.44-.49,9.52.24.32-1.32,1.74-3.02,3-2,1.13-4.25,1.47-8.47,1.01-12.83l1.99-1.16Z"/>
      <path class="cls-131" d="M70.2,271.66v1c-8.68,1.22-20.18,1.43-26.97-5,8.66,3.73,17.6,5.18,26.97,4Z"/>
      <path class="cls-203" d="M8.27,121.81c2.04,3.95,4.66,9.71,5,13.99,1.25,4.22,1.96,8.73,3,12.99l-9.75-25.74c-.56-1.71-.09-3.51-.24-5.23.28-.87.62-.86,1,0,.33,1.14.67,2.47,1,4Z"/>
      <path class="cls-145" d="M12.26,223.71c.66,2.81,2.21,9.97,3,11.99-5.27-7.9-5.37-17.64-7.99-25.97.28-.87.62-.86,1,0,1.91,4.21,3.24,8.88,4,13.99Z"/>
      <path class="cls-151" d="M92.18,27.91l2,9.99c-1.82-.2-2.84-3.15-3-5-1.67-2.75-3.99-7.31-4.94-10.61-.1-.34.34-.84.94-1.38-.18-.52.18-1.47,0-2,2.7,1.76,3.57,5.9,5,8.99Z"/>
      <path class="cls-63" d="M61.21,180.76c1.99-.66,6.18-1.42,5,1-1.88.31-4.46-.11-6.56-.04-1.3.05-2.3,1.03-2.43,1.04-3.23.06-7.4-3.94-9.99-5,5.34,1.46,8.28,2.74,13.99,3Z"/>
      <path class="cls-149" d="M67.21,27.91c.42.86.04,1.16-1,1-1.44,2.52-3.1,4.19-5,5,.14-.55-.1-1.36,0-2,.64-.92,1.19-1.85,2-3,.27-.38,1.65-.96,2.44-2.02,1.67-2.23,1.89-5.67,4.55-6.98.82,2.26-.18,4.93-3,7.99Z"/>
      <path class="cls-65" d="M38.24,208.73v1c-.24.53-.9.53-2,0-.57.86-1.9.86-4,0-1.61,1.03-5.41.14-6.99-1-6.15-1.48-11.82-1.48-16.98,0,.45.29.43.62,0,1h-1c-.12-.38-.7-1.17-1-2-1.06-4.2,2.77-3.27,5.53-3.04,3.24.27,5.31,1.57,8.05,1.95,6.09.83,12.32,1.08,18.39,2.09Z"/>
      <path class="cls-27" d="M7.27,117.82h-1c-.06-.65,0-1.34,0-2-.03-2.66.02-5.33,0-7.99,2.01,1.72,1.57,7.28,1,9.99Z"/>
      <path class="cls-124" d="M131.14,250.69c2.61.61,4.27,3.3,4.99,8.09v2.28c6.34-4.63,8.84-4.49,7.52.44l1.56.75c6.82-.56,8.45.25,4.91,2.43-2.63,1.28-5.29,2.95-7.99,5,1,1.62.78,3.8-.66,6.54.91,3.77.46,6.26-1.34,7.45-2.44.49-2.82-1.61-1-3-.57-1.41-2.22-2.11-2.02-4.41.16-1.91,5.3-8.34,4.01-9.57-4.05,1.15-4.99.81-7.99-2-.95-4.66-2.04-9.32-3-13.99.28-.87.62-.86,1,0Z"/>
      <path class="cls-30" d="M138.14,291.64c1.55,2.65,2.46,4.06,4,6.99-1.54,2.84-1.9.14-2.6-.86-1.42-2.01-2.67-3.99-3.89-6.15h2.49Z"/>
      <path class="cls-34" d="M133.14,269.67c.06.08,1.72-.38,2.01.65,1.77,6.47-3.21,11.62-3,.35,0-.23.74-.7,1-1Z"/>
      <path class="cls-146" d="M99.18,79.86c-.5,2.42-1.17,4.75-2,6.99-1.33,5.86-4.68,11.96-7.99,16.98-4.55,1.51-2.88-3.97-1.09-6.47l-3.58.36c-1.65,6.45-6.72,12.34-12.32,7.1,2.03-1.61,3.01-3.51,2.93-5.68l2.07-1.31c1.7-1.31,2.35-3.3,1.95-5.97l2.04-1.03c3.58-.15,7-.97,10.29-2.48,2.5-3.97,4.7-8.06,6.6-12.28l1.09-.23c-.1,1.32.09,2.68,0,4Z"/>
      <path class="cls-197" d="M72.2,104.83c8.3,4.66,9.21-7.54,11.18-8.8,1-.64,5.6-.43,7.29-1.21,2.12,3.62-5.08,5.6-1.48,9.01-1.36,2.06-2.89,5.65-5.52,6.05-1.9.29-1.28-1.88-2.7-2.38-2.94-1.02-5.35,1.57-10.76-1.67-1.54,1.18-2.02.65-1-1-.92-1.08-.92-1.74,0-2,.3-.57.63-.56,1,0,2.46-.96,2.68-.46,2,2Z"/>
      <path class="cls-20" d="M57.22,85.85c.51,6.87,3.4,11.3,8.65,13.3l3.34,5.68c.25.19.43.66,1,1,.83,2.04.83,3.96,0,5.99-.32-.34-.67-.66-1-1-2.14-3.69-5.14-6.68-8.99-8.99-2.11-2.51-3.95-3.74-4.76-7.73-1.47-7.15-2.87-14.95-3.23-22.24l2.32-.33,2.67,14.31Z"/>
      <path class="cls-178" d="M82.19,66.87l.54.54c-1.58,3.93,5.17,25.65,6.34,12.94,3.33,0,6.04-1.17,8.11-3.49-1.85-1.36-1.52-3.69,1-6.99-.45-4.68-.45-9.35,0-13.99.28-.87.62-.86,1,0,1.29-.38,1.63,1.91,1,3,.42,5.9-.54,11.22-1,16.98-2.56,3.02-3.49,11.84-6.44,14.04-2.77,2.08-8.76,3.82-11.55.94-2.76-.68-2.95-6.48,0-6.99-.14-6.41-.47-12.74-1-18.98-1-1.38-1.55-.28-1.64,3.3l-2.35-.31c-.86-.45-.64-1.23,0-2-2.14-.88,3.22-21.96,4.36-17.85,1.57,5.68,2.19,13.16,1.63,18.85Z"/>
      <path class="cls-151" d="M101.17,58.88h-1c-.09-1.19-.88-2.2-1-3-2.01-4.28-4.8-10.96-3-14.99,3.32,6.56,4.33,10.6,5,17.98Z"/>
      <path class="cls-197" d="M97.18,86.85c.49-2.18-.23-5.2,2-6.99-.16,2.44.5,5.39-2,6.99Z"/>
      <path class="cls-151" d="M102.17,66.87c-1.83-1.4-.85-4.78-1-6.99,1.86,1.41.81,4.79,1,6.99Z"/>
      <path class="cls-151" d="M101.17,79.86c.51-3.11.74-6.8,1-9.99,0,.13,1.06,1,1.04,2.41-.02,1.98-.89,5.85-2.04,7.58Z"/>
      <path class="cls-147" d="M61.21,37.9c.86.33.86.66,0,1-3.77,8.28-6.48,19.26-5,27.97l2.11,14.97-1.11,2.01c.52.76.82,1.46,0,2-2.28-4.5-1.32-10.08-5-13.99-.91-18.58,5.1-22.75,8.99-37.96,1.34-2.14,3.33-3.4,5-5,.4.33.76.69.98,1.11.4.74-4.9,6.89-5.98,7.88Z"/>
      <path class="cls-183" d="M69.21,110.83c-3.16-3.33-6.38-5.88-8.99-8.99,4.13,1.76,8.38,4.02,8.99,8.99Z"/>
      <path class="cls-7" d="M53.22,123.81c4.79,4.91,9.4,10.51,11.99,16.98.42.74,1.65,3.21,2,4l2.52,14.28c1.51,2.96,1.21,7.77-1.52,3.7-3.93-2.27-5.89-9.46-5.99-13.99-1.17-5.95-3.19-11.43-6.04-16.45l-1.95,1.47c1.87.31,1.76,1.1,0,2,1.43,2.88,2.87,8.3,0,9.99-.28.87-.62.86-1,0-.88-.33-.88-.66,0-1-1.94-3.18-1.39-6.82-.25-9.87-.92-5.26-3.5-9.96-7.74-14.1-1.61.7-3.94-1.3-4-3-.44-.31-.42-.64,0-1,4.69-.71,9.03,3.66,11.99,6.99Z"/>
      <path class="cls-23" d="M24.25,106.83c-.6,1.28-1.98,1.93-4.16,1.93-1.72,4.64-4.82,8.07-9.82,8.06-.26-3.39-.93-6.39-2-8.99-1.37.66-2.51-1.71-2-3,.52-1.13.59-1.58,0-1-.28.87-.62.86-1,0,.29-7.62,1.54-4,6-2.5,5.3,1.79,8.01,3.22,12.98,5.5Z"/>
      <path class="cls-170" d="M24.25,106.83c1.48.68,2.82,1.46,4,2l.14,1.46c-2.47,1.55-3.8,3.02-5.13,5.54l-1.55,1.52c-1.7-.72-3.05-1.08-4.44.47-2.78.85-5.44,1.52-7.99,2-.45.43-.78.09-1-1-.66-.33-.66-.67,0-1,.33-1.84.59-2.38,2-1,1.56-.92,3.81-2.21,4.99-3.51,3.81-4.18,1.21-7.97,9-6.48Z"/>
      <path class="cls-162" d="M41.23,115.82c.87.28.86.62,0,1v1l-1.26.41c-7.71-3.68-17.96-8.03-6.22,3.21l-.51,2.37c.84.28.83.62,0,1-5.1-1.35-7.76-3.68-7.99-6.99-1.25-.59-1.91-1.26-2-2-1.98-3.55,2.31-5.42,5-6.99,2.76,1.26,12.27,6.8,12.99,6.99Z"/>
      <path class="cls-63" d="M68.21,165.77l3-2h1c.02.66,0,1.33,0,2-.04,5.49,1.23,9.95-3,13.99-1.77-.51-1.47-3.29-1-5-.48-.24-.89-.51-1.01-.87-1.2-3.62-2.03-5.78-3.99-9.12-.77-2.82,1.27-3.24,3-1,1.03-.59,1.69.08,2,2Z"/>
      <path class="cls-157" d="M65.21,140.8c-3.18-5.64-8.65-11.24-11.99-16.98-.5-.3-.49-.64,0-1,4.98,5.1,10.66,10.54,11.99,17.98Z"/>
      <path class="cls-56" d="M53.22,122.81v1l-11.99-6.99v-1c1.59.42,3.67-.5,5.97.52,1.8.79,4.5,4.92,6.02,6.48Z"/>
      <path class="cls-31" d="M70.2,155.78l1,5c.02,1-.01,2,0,3v3c-1.31.25-2.01-.36-3-1-1.4-1.88-1.4-2.88,0-3,3.28.21,1.66-1.04,1.28-2.76-1.11-5.04-2.76-9.94-2.28-15.22,1.63,3.72,2.19,7.08,3,10.99Z"/>
      <path class="cls-33" d="M6.27,104.83c.09.33,1.83,2.95,2,3,2.19,2.43,1.87,7.3,0,9.99.01.33-.02.67,0,1,.67,1.03,1.02,2.27,0,3-1.5-.69-.97-2.68-1-4-.09-4.12-.43-6.27-1-9.99-.08-.55-.86-1.34-1-2-.11-.53-.02-1.38,0-2h1c.88.2.85.54,0,1Z"/>
      <path class="cls-63" d="M71.2,160.78c-1.62-.85-.94-3.39-1-5,.37,1.82.95,2.21,1,5Z"/>
      <path class="cls-26" d="M151.12,82.85c-1.71,3.49-4.71,6.49-8.99,8.99.9,1.1.35,1.53-1,1-1.68,2.75-3.68,4.08-5.99,4-7.79,6.17-8.86,8.31-1.46,16.01,2.71,6.07-2.5,6.45-4.19.72-1.28.16-2.31-.82-3.11-2.95-3.26,4.11-5.67,8.51-7.22,13.2l-2,6.99c1.44.69,1.4,2.27,0,3-1.35,2.78-1.68,6.33-1,10.64l-2,1.35c.87.28.86.62,0,1-.56-.17-1.04-.38-1.22-.75-1.74-3.4-1.47-24.44,3.08-27.31-1.21-3.38-1.12-5.86,1.14-8.91,1.09-1.27,2.24-2.13,3-3l6.99-9.99c2.78-2.99,4.22-3.66,6.99-5.99,1.3-.61,2.3-.53,3.43-.02-.14-1.82,12.4-10.08,12.93-9.43.32.39.49.9.62,1.46Z"/>
      <path class="cls-13" d="M157.12,69.87c2.1-.69,3.77-.69,5,0l2.44-1.32c6.25-.62,4.06,18.12,3.56,22.3,1.6,2.98,1.38,6.92,0,9.99-.28.87-.62.86-1,0-.4-1.79-.74-3.79-1-5.99l-.78-.7c.26-2.87-.59-16.13-3.76-15.36-3.63,2.19-7.11,3.55-10.44,4.08-3.82-1.01-3.37,3.12-6.06,4.47-1.15.58-3.09.21-3.72.74-.95.81-1.96,8.16-7.21,2.78,2.52-2.12,5.58-5.2,7.99-6.99,1.72-3.29,3.72-4.29,5.99-3l.08-2.42c2.57-1.29,3.54-2.82,2.91-4.58,1.64-1.28,4.73-2.44,5.99-4Z"/>
      <path class="cls-86" d="M114.16,146.79c2.75,1.09,1.18,4.87,0,6.99,1.8,1.02,1.8,1.69,0,2-.06,3.2.67,5.11,2.18,5.74l-1.18,2.25c-.44,1.93-.9,1.49-2,0h-1c0-.33,0-.67,0-1,.81-4.96.81-9.96,0-14.99-.27-1.28-.7-2.62-1-4-.79-6.66-.6-13.31,0-19.98,1.09-6.73,1.44-8.67,5.99-13.99-2.13,3.26,1.4,7.28.87,9.28-.29,1.11-2.45,2.63-3.21,4.86-2.82,8.25-.92,15.21-.66,22.82Z"/>
      <path class="cls-169" d="M111.16,143.79c-1.61-7.46-1.21-12.53,0-19.98v19.98Z"/>
      <path class="cls-100" d="M134.64,85.08c-.18.24-.35.5-.5.77.7-.36,2.05-1.14,3.5-1.93-1.05.31-2.05.7-3,1.16Z"/>
      <path class="cls-100" d="M145.13,78.86c-1.07.71-2.32,1.27-3.58,1.82-.2.67-.56,1.29-1.08,1.81,1.25-.56,2.29-.89,2.66-.63l-1,1.99c1.09-.81,4.84-2.18,5.99-3,3.01-3.58.45-4.48-3-2Z"/>
      <path class="cls-86" d="M120.15,106.83c1.38-3.98,4.3-7.09,6.99-9.99-.86,4.6-4.44,7.06-6.99,9.99Z"/>
      <path class="cls-93" d="M109.17,174.76c1.74,3.8,2.62,1.23,5,0,2.78.45,2.4.83,0,2-.41.21-.66.73-1,1-1.91,1.51-2.97,5.21-5.99,4.99-.88-3.28,1.35-5.26,1.99-7.99Z"/>
      <path class="cls-70" d="M85.19,253.68c-.21,2.67,1.2,4.72,2,6.99,2.44,5.16-3.25,6.17-6.99,5.99-2.2-2.28.46-4.61,3-3,2.26-1.94,1.64-3.54-1-4-1.73-.95-2.73-1.95-3-3l-5.99-4c-1.11.97-1.66.4-1-1-16.86-4.1-10.96-17.98,0-5,2.39-2.07,3.91-1.07,4,2,2.44-.09,3.77-.76,4-2-1.43-.73-1.77-1.4-1-2-2.9-2.21-8.26-7.35-4-9.99,4.6,6.82,6.35,12.41,9.99,18.98Z"/>
      <path class="cls-49" d="M75.2,234.7c.21,3.62,2.43,6.77,4,9.99-6.86,1.96-15.05-7.9-11.33-14.56l.34-2.42c-1.46,1.29-2.01.71-1-1v-1c3.88,3.84,4.38,3.64,7.99,8.99Z"/>
      <path class="cls-120" d="M38.24,209.73c9.12,1.23,12.67,2.98,19.98,7.99.06.78-.61.78-2,0-2.34,2.23-5.96-.33-6.99-3-.48.41-.93.71-1.28.62-2.59-.67-10.3-3.9-11.71-5.61.65.08,1.35-.09,2,0Z"/>
      <path class="cls-174" d="M58.22,217.72c4.51,3.09,5.34,4.38,8.99,7.99v1c-3.24,1.65-11.11-5.83-10.99-8.99h2Z"/>
      <path class="cls-108" d="M68.21,257.68c1.46-1.3,1.99-.74,1,1,2.4.81,4.66,1.67,6.77,2.58,3.01-2.36,12.08-1.87,7.21,2.42-1.09.69-2.29,1.88-3,3-.7,1.5-1.53,1.61-2,0-2.26,1.53-4.26,2.19-5.99,2-2.49-3.09-6.05-4.62-10.66-4.6-2.53-2.5-5.06-1.91-7.58,1.77l-2.74-.17c-1.12-.41-2.47-.07-4-1-.37-.49-.85-1.33-.73-1.88,1.37-6.27,15.94-8.08,21.71-5.12Z"/>
      <path class="cls-210" d="M51.22,265.67l6.46-6.05c1.49,0,2.94,2.11,4.51,2.57,5.38,1.58,9.83-.56,10.01,6.48-.2,1.66-3.33,1.54-4,0-2.19-.01-4.19-.34-5.99-1-.59,1.89-4.51.95-5.99,0-3.46-.42-3.33-1.39-5-2Z"/>
      <path class="cls-99" d="M46.23,243.69c.03,1.68-1.06,2.61-3.27,2.79l14.14,2.02,1.12,2.18c-.27,2.54-1.97,2.57-4.21,2.55-2.25,2.5-5.54,4.75-8.78,5.44-2.22,5.68-6.59-3.86-3-6.99-1.24-3.11-1.89-3.82-5.99-3-11.11-2.18,6.79-8.85,9.99-5Z"/>
      <path class="cls-25" d="M33.24,243.69c-1.05,2.09-.72,4.09,1,5.99-.33.54-.82,4.02-1.3,5.03-.22.45.72,1.92-1.19.99l-8.49-8.01c-.01-1.71-1.32-2.72-2-4-.87-2.84-.52-3.28,2.25-3.82.55-.11,10.11,2.31,9.74,3.82Z"/>
      <path class="cls-156" d="M42.23,251.68c1.26,3.15.45,4.08.96,6.37.25,1.1,1.92.5,2.04.63.66.33.66.66,0,1,3.23-.3,2.33,2,1,4-3.04-1.49-10.18-4.54-10.84-7.63-.53-2.5,2.15-1.24,3.38-1.84,1.32-.64,2.2-1.8,3.46-2.52Z"/>
      <path class="cls-36" d="M68.21,257.68c-.61-.17-7.4-.7-8.35-.65-2.27.12-14.04,3.59-12.63,7.64-.38-.23-.77-.62-1-1-.96-1.55-.61-2.72-1-4,4.5-4.71,15.6-9.3,21.55-4.91,1.03.76,1.68,1.25,1.43,2.91Z"/>
      <path class="cls-66" d="M78.2,266.67c-.42,1.82-2.41,3.16-5.99,4-.33.04-.67-.02-1,0-6.75.49-9.08-.73-14.99-2v-1c1.83.22,4.06-.03,5.99,0,1.9.63,3.9.96,5.99,1,1.28-.13,2.82.21,4,0,.64-.12,4.07-1.5,5.99-2Z"/>
      <path class="cls-195" d="M50.22,234.7c1.2.59,6.75,4.56,6.95,5.46,1.31,5.97-7.95,7.16-10.95,3.53-3.29-2.03-18.98,2.29-9.99,5-.31.06-1.94.9-2,1-3.08-1.46-4.57-4.5-1-5.99l.15-1.35c4.66-1.28,9.42-2.08,14.29-2.4-1.96-2.49-3.98-4.91-6.08-7.27l.63-.97c1.08-2.79,8.35.71,7.99,3Z"/>
      <path class="cls-82" d="M94.18,37.9c.63,1.34,1.59,2.18,2,3,.83,5.22,2.18,9.65,3,14.99h-1c-2.59-1.84-3.26-3.17-2-4-2.31-5.65-4.49-11.39-6.52-17.22l.53-1.76c.28-.87.62-.86,1,0,.73,1.67,2.36,3.62,3,5Z"/>
      <path class="cls-131" d="M87.19,260.68c.41,1.15,2.84,4.6,1.05,5.53-1.46.76-3.26.09-4.32.51-3.59,1.44-6.71,3.37-11.72,3.95l5.99-4c.57-.15,1.41.14,2,0,3.17-.75,7.63-1.99,6.99-5.99Z"/>
      <path class="cls-163" d="M17.26,117.82c2.35-1.54,3.1-.51,2,2l4,2,2.8-.05c1.98,5.42,5.38,10.43,10.19,15.03,1.37.82,5.34,4.86,4.74,6.19-1.24,2.74-8.73.09-7.74-3.2-2.8-1.18-6.55-.95-9.09.66l-3.99-3.64c-2.19.91-3.82.91-4.9-.02-.28.87-.62.86-1,0-.1-.3.09-.69,0-1-.96-.24-1.05-1.64,0-2,.63-1.42,2.15-2.36,4.56-2.8,1.22-4.47-5.08-11.72-7.55-6.19-1.94,1.21-2.78-3.32-2-5,3.03-2.37,3.97-4.19,7.99-2Z"/>
      <path class="cls-204" d="M33.24,147.79c2.86-.58,5.86.08,8.99,2,1.49-.44,4.27,1.58,3,3l-1.21.95c-3.24-2.32-7.48-1.85-10.78.05-3.52,1.9,1.32,9.8,5,12.99,3.03-.47,5.67,3.15,5,5.99,4.18.08,5.52,1.08,4,3-.57-.16-1.46.17-2,0-1.01-.31-3.11-1.39-4-2-7.4-1.62-15.07-12.14-14.58-19.46.33-4.87,1.08-7.49,6.59-6.52Z"/>
      <path class="cls-5" d="M33.24,147.79c-4.63.56-5.89,6.52-4.78,10.28.16.53,5,9.21,5.35,9.64.31.37,6.64,5.52,7.42,6.06-6.52.24-11.65-5.4-13.99-10.99-1.12-1.48-4.91-8.34-4.06-9.57.5-.72,1.25-1.15,2.06-1.42-3.1-8.3,3.53-7.54,7.99-4Z"/>
      <path class="cls-106" d="M15.26,136.8c2.28.09,3.83,2.16,4.65,6.21,4.23.65,6.01,3.58,5.34,8.78-.31,4.3.37,7.1,2,10.99-6.95-6.93-10.09-16.77-12.99-25.97h1Z"/>
      <path class="cls-129" d="M9.27,119.82c.57,1.7.4,3.72,2,5,.99-.4,4.38,6.63,4.41,7.1l-1.41,1.89c.16.56-.16,1.45,0,2h-1c-1.28-4.32-4.31-8.86-5-13.99-.13-.95.07-2.02,0-3,.36.25.87.6,1,1Z"/>
      <path class="cls-198" d="M60.21,162.77c2.02,1.75,3.01,3.42,3,5,2.27,6.83-.07,6.36-4.66,8.36-.33.15-.37,1.48-1.04,1.62-1.92.42-7.93-1.35-10.29-1.99-1.19-1.21-2.7-1.9-4-3,.78-2.1,4.33-3.84,6.42-2.86,4.38,2.68,12.86,6.29,11.56-2.13-1.49.04-2.82-1.29-4-4-2.57,1.3-3.85-.79-2-3-.87-.28-.86-.62,0-1,1.51-.82,4.95,1.22,5,3Z"/>
      <path class="cls-135" d="M63.21,164.77c1.1,1.05,5.12,5.95,5.5,7.08.62,1.82-.54,2.61-.51,2.91-.07,1.44-.4,2.44-1,3-1.76-1.71-.73-4.68-1.44-7.07-.57-1.9-2.02-2.15-2.56-2.92-1.13-1.62-2.83-2.88-3-5,2.4-1.67,3.72-.89,3,2Z"/>
      <path class="cls-159" d="M69.21,179.76c-.88.84-1.72,1.79-3,2-.85-1.63-3.39-.93-5-1,2.94-2.77,5.47,1.32,5.99-3,.13-1.06-.37-2.51,1-3,.18,1.62,1.06,3.27,1,5Z"/>
      <path class="cls-169" d="M112.16,162.77c.1-4.98-.07-10,0-14.99.99,4.63,2.21,10.61,0,14.99Z"/>
      <path class="cls-15" d="M87.19,20.92c1.14,3.33,2.78,9.2,4,11.99h-1l-1.29.28c-2.52-4.57-5.34-8.89-8.45-12.95-2.25,1.75-4.33,2.64-6.25,2.68-2.09,1.45-3.89,3.22-5.41,5.32l-1.58-.32c.83-2.69,1.94-5.38,3-7.99.77-1.9,1.26-2.52,2-4,1.08-1.09,1.75-2.42,2-4,.72-1.03.81-1.84,2-3,7.54-7.37,4.32,2.96,5.1,5.32.15.46,5.18,4.99,5.89,6.67Z"/>
      <path class="cls-149" d="M72.2,15.92c.78-1.56.66-2.08,2-4,.17,1.74-.16,3.48-2,4Z"/>
      <path class="cls-92" d="M121.15,174.53c.07-.07.14-.13.22-.2.13-.13.26-.27.39-.39.72-.65,1.47-1.19,2.25-1.64,0-.03.01-.06.02-.08.03,0,.07,0,.11.01.84-.48,1.73-.84,2.67-1.1.24-.11.48-.22.72-.33.55-1.88,2.08-3.47,4.58-3.58,1.42-.06,2.73-.36,3.94-.84.23-.15.46-.31.69-.46-.54-.92-1.4-1.64-2.59-2.14-3.06.39-6.24,1.18-9.53,2.37-.68-1.45-2.17-.9-4.45,1.63-2.35-2.42-5.66.19-4,3l7.99-1.99c-1.95,1.73-2.72,3.67-3,5.76Z"/>
      <path class="cls-18" d="M124.15,161.77c1.02,2.51-1.56,4.72-4,5.99-2.49.83-2.71,2.09-4,3-1.53,1.08-2.78,3.24-4.99,2.99.54-3.99,4.55-5.48,1.99-9.98.66-.05,1.34.07,2,0,1.23-2.15,7.62-5.67,8.99-2Z"/>
      <path class="cls-43" d="M119.15,175.76c0,.29,0,.58,0,.87.2-.2.4-.39.59-.59.16-.17.32-.34.48-.52-.03-.95-.17-1.88-.55-2.78-.84-1.56-4.14,1.31-5.51,2.01v2c.81-.41,4.69-1.3,4.99-.99Z"/>
      <path class="cls-29" d="M17.26,225.71l1.5.55c3.55,6.27,4.6,7.4,11.84,7.18,11.19,6.26,14,6.42,8.44.48l1.21-2.21c.6-1.84,1.37-1.85,2,0,.43,2.92,3.68,2.58,5.98,5.51,5.22,6.63-2.55,4.26-5.33,4.54-2.69.27-7.41,1.81-9.65,1.94-.66.04-4.31-.17-5.25-.24-2.65-.21-5.14-3.71-6.74.24-2.81-5.3-4.36-9.2-5.99-14.99-.31-2.46-.49-4.93,2-3Z"/>
      <path class="cls-112" d="M21.25,222.71c3.97.28,9.75,1,11.99,4,.87.28.86.62,0,1-5.21,9.44-10.84,3.64-15.98-2-1.28.82-2.02,1.17-2,3-.43-1.52-.65-2.47-1-4-.9-1.64-.9-2.63,0-3,1.87-1.07,5.85-.98,6.99,1Z"/>
      <path class="cls-117" d="M11.26,215.72c1.58,2.32,1.91,4.32,1,5.99.13.6-.14,1.41,0,2-1.69-3.61-3.36-9.89-4-13.99-.05-.32.01-.67,0-1,3.1-2.59,4.03,4.83,3,6.99Z"/>
      <path class="cls-177" d="M14.26,221.71c.18.9-.2,2.14,0,3l-2-3c-.44-2.02-.62-4.01-1-5.99,3.05.3,5.14,3.74,3,5.99Z"/>
      <path class="cls-144" d="M74.2,22.91c1.42,1.69.59,2.97-.61,4.47-.92,1.17-4.17,4.16-5.47,5.28-.58.5-1.19.95-1.91,1.23.56,1.65-4.36,6.98-5,4,1.51-3.71,3.66-5.5,5-8.99.34-.32.65-.68,1-1,2.49-2.27,3.53-4.86,6.99-5Z"/>
      <path class="cls-154" d="M25.25,208.73c-10.91.38-14.9,1.21-6.83,9.07,2.63.17,5.24,1.14,7.83,2.91,1.22.7,1.55,1.37,1,2-1.55.46-3.55.46-5.99,0-2.38.04-4.83.33-6.99-1-.45-2.24-1.19-4.46-3-5.99-.47-2.46-.29-5.78-3-6.99-.03-.92-.39-2.98.51-3.01l16.47,3.01Z"/>
      <path class="cls-202" d="M133.14,204.73c.78-2.84,1-5.17-1-2-.74,2.19-1.4,3.19-2,3-.38-.86-.72-.87-1,0-.17.02-.34.05-.49.08-.3,2.81.16,5.84.11,8.58-.08,4.67-.56,9.4-1.71,13.94-.18.72-.47,1.31-.82,1.8,1.02,2.25,1.91,4.32,1.96,6.94.02.68-.09,1.29-.28,1.83.77,3.26,1.57,6.51,2.22,9.8,1.88,1.01,2.51.39,1-1,3.39-.46,2.34-8.88-.17-10.53.98-3.22,1.04-5.87.17-7.95,1.43-3.64,1.41-10.92,1.12-15.52-.01-.18-.5-.33-1.12-.47,1.87-.95,2.88-6.86,2-8.49Z"/>
      <path class="cls-81" d="M127.06,228.32s0,.01,0,.02c1.46-1.48,1.15-3.65,1.1-5.66-.26,1.9-.62,3.79-1.09,5.64Z"/>
      <path class="cls-119" d="M131.14,247.69c3.54-4.89,4.23,7.85,0,3h-1c-.12-.61.12-1.39,0-2,.36-.26.83-.59,1-1Z"/>
      <path class="cls-9" d="M134.14,242.69c1.92.56,1.91,1.43,0,2,.73,11.68,4.17,14.79,10.34,9.33,2.43,1.01,2.58,3.43,2.38,5.76l12.57-2.43,1.68,1.32c.61.3.6.63,0,1-5.33,3.22-1.49,5.93-1,10.99.87,1.39.87,2.38,0,3-.91-2.21-2.78-9.37-4.48-9.71-.6-.06-1.21.72-1.51.72-1.77.68-3.11.68-4,0,.37-4.9-4.23.24-5.47,0-1.75-.33-1.68-4.46-1.53-6-3.81.09-4.68,5.81-8.98,4.99v-10.98s-3,1-3,1v-3c3.17.77,2.97-3.87,0-3,.66-1.57,1.33-4.87,1.06-6.5-.44-2.63-3.02-1.7-3.17-3.98-.19-2.95,2.11-6.58,2.11-8.01v-15.98c0-.44,1.72-7.62,2-8.49-1.17-2.33-.5-4.4,2.01-6.21,1.12-3.56,2.79-5.15,4.98-4.78.87.62,1.44,1.42,1.62,2.45-6.35,6.98-7.88,13.92-7.84,23.16l.23,23.34Z"/>
      <path class="cls-69" d="M150.12,264.67c1.05-.22,2.76.02,4,0l-11.99,5c.26-.41-.14-1.53,1-2.45.94-.76,5.5-2.23,6.99-2.54Z"/>
      <path class="cls-107" d="M57.22,68.87c2.66,7.38,5.36,14.7,8.11,21.94,1.58,1.84,9.18,5.66,7.9,2.51l1.97-1.48c-1.96-1.5-1.81-3.05,1-3,4.18-1.54,3.89,7.61,1,8.99-.28,3.96.44,7.06-5,6.99-1.17-.66-1.31-.92-2-2-5.44-5.15-9.43-11.14-11.99-17.98-.46.52-.79.18-1-1-.67-5.63-1.08-11.29-1-16.98-1.21-2.05-.85-7.82,1-8.99.31,2.99.95,6.21,1.92,9.65l-1.92,1.34Z"/>
      <path class="cls-17" d="M76.2,67.87c2.27-1.83.76-5.86,3.99-4.99.15.62-.17,1.54,0,1.99.5,6.28.84,12.61,1,18.98-.08,2.25.28,4.88,0,6.99-.37,2.84-.81,9.66-4,6.99.18-2.62.65-7.16-1-8.99-.49-.43-.94-.88-1.26-1.42-.59-.98.97-16.64,1.26-19.56Z"/>
      <path class="cls-97" d="M58.22,84.85l3.99,8.97c3.39,2.59,5.72,5.59,7,9.01.16.52-.1,1.37,0,2-2.78-2.09-3.43-4.91-4.23-5.7-.95-.94-4.18-.45-5.27-2.29-.85-1.45-2.16-8.75-2.5-10.99-.09-.64.08-1.35,0-2,.34.32.73.62,1,1Z"/>
      <path class="cls-146" d="M70.2,102.83h-1c-1.55-5.2-7.15-6.06-8.46-8.03-1.09-1.63-2.42-7.65-2.53-9.96,4.14,6,8.22,12.03,11.99,17.98Z"/>
      <path class="cls-137" d="M97.18,76.86c-1.4,5.18-1.59,5.31-6.99,4,2.27,4.34-.95,6.49-5.01,4.5-2.9-1.42-2.67-14.77-2.99-18.49.28-.87.62-.86,1,0,1.03,8.55,2.91,12.55,12.07,8.53l1.91,1.46Z"/>
      <path class="cls-105" d="M97.18,69.87c.28-.87.62-.86,1,0-.29,2.25-.41,4.81-1,6.99-14.03,3.44-13.1,3.09-13.99-9.99-.92-.72-.7-2.12,0-3l1.16.14c-1.5,9.85,6.33,12.67,12.83,5.85Z"/>
      <path class="cls-182" d="M92.18,44.89c.18,2,.74,3.49,2,5,.69-.19,1.35.47,2,2,.33,1.27,1.73,2.77,2,4,1.19,5.5.66,8.81,0,13.99h-1c-1.56-3.62-3.7-8.91-2.04-13.42-5.15-1.24-6.39-3.32-5.96-8.58-.35-1.16-2.61-7.62-3.05-7.51-1.42.34.44,27.85,1.23,29.09,3.35.17,6.63.31,9.83.43-1.76,5.22-6.52,6.79-11.33,3.83-3.59-2.21,0-6.89-2.66-9.83l-.65-.7c-.38-6.3-.86-12.15-3.37-17.1-.51-2.28,1.01-12.85,3.02-14.16-1.55-2.24,1.13-3.42,3.35-2.55,3.25,1.28,7.78,12.3,6.64,15.53Z"/>
      <path class="cls-205" d="M66.21,33.9c2.65-2.09,5.14-4.38,7.48-6.87,3.01.48,5.85,2.1,8.51,4.87.95,4.48-1.08,9.4-1.03,13.44.05,4.96,1.59,12.82,2.03,18.53.08.99-.07,2.01,0,3h-1c-.51-5.95-.16-12.13-2.01-17.97l-3.98,16.98c-.28.87-.62.86-1,0-3.08-2.54-2.93-9.37,0-11.99,1.22-10.35-2.25-24.39-12.37-10.36l-2.62-.63c-.59-.93-.26-2.26,1-4,.11-.29-.12-.72,0-1,2.72.59,2.35-3.25,5-4Z"/>
      <path class="cls-144" d="M60.21,42.89c2.19,3.44.22,12.52-3,14.99-.36,3.07-.95,5.24-1,8.99-2.73-.87-1.42-2.13-1.36-3.76.29-8.1.92-17.73,6.35-24.21-.44,1.15-.67,2.73-1,4Z"/>
      <path class="cls-208" d="M41.23,117.82c1.15.76,2.89,2.1,4,3,1.61,2.1,2.94,4.1,4,5.99,1.33,3.62.67,4.95-2,4l-2.03-.76c-.23-3.62-6.98-13.57-8.81-6.7l-2.15.47c-.28.87-.62.86-1,0l-7.97-8.49c3.92-6.83,11.02-.78,15.97,2.5Z"/>
      <path class="cls-52" d="M53.22,144.79c-3.62-1.76-6.95-4.43-9.99-7.99-1.29-.63-1.72-1.84,0-2,1.98-.54,4.33-.35,7.05.56-.77-2.91-1.13-5.76-1.06-8.55-1.67-2.43-4.84-2.75-4-5.99,8.27,6.69,8.16,10.05,8.91,20.64.12,1.7-.91,2.86-.92,3.34Z"/>
      <path class="cls-3" d="M60.21,145.79c1.11.59,1.54,1.9,1,3,1.42,4.67,3.27,9.24,5.56,13.7l-.57,1.29-3,1c-.77-.74-2.11-1.27-3-2-1.63-1.35-4.04-2.24-5-3-1.57.26-2.73-1.63-2-3h1c1.58-1.02,3.39-.66,5.43,1.08l-.9-3.88c-4.39-1.69-7.02-3.95-5.53-8.19h1c.84-1.14,1.51-.8,2,1,.55-6.33,1.88-6.66,4-1Z"/>
      <path class="cls-189" d="M60.21,145.79l-2.99-3c-.12,1.31.6,3.71-1.01,4l-.93-.8c.82-3.47.67-7.01-1.07-10.19-.05-.65-.03-1.35,0-2,3.27-5.51,7.07,8.71,5.99,11.99Z"/>
      <path class="cls-45" d="M43.23,136.8c3.65,2.56,7.03,4.65,9.99,7.99,0,.33-.03.67,0,1,.26,2.75,4.09,7.14,6.99,4.99,1.32,9.22,5.43,14.08-5.99,6-4.47-1.24-8.61-4.92-3-7.99-2.66-3.64-5.73-7.07-9.2-10.28l.21-1.7c.28-.87.62-.86,1,0Z"/>
      <path class="cls-189" d="M68.21,162.77c.26.6-.18,2.15,0,3-.58-.37-1.56-1.41-2-2-3.7-4.96-3.7-9.75-5-14.99.28-.87.62-.86,1,0,1.99,8.12,3.48,8.08,5.99,13.99Z"/>
      <path class="cls-157" d="M62.21,148.79h-1c-.18-.73-.69-1.73-1-3-.9-3.66-.8-7.29-2.78-10.71-.95-1.64-1.23-2.96-3.21-1.28.05-1.08-.65-3.88,1.48-2.99,4.23,1.77,5.52,13.95,6.51,17.97Z"/>
      <path class="cls-157" d="M56.22,146.79c-.91.17-1.48-.36-2-1,2.2-3.27.24-6.59,0-9.99,3.21,2.56,1.72,7.34,2,10.99Z"/>
      <path class="cls-54" d="M10.26,116.82c-.64.37-1.35.65-2,1-.1-3.32.07-6.67,0-9.99.17.05,1.82-1.26,1.99-1.01.76,1.13,1.12,8.28,0,10Z"/>
      <path class="cls-58" d="M6.27,103.83c-.08-.98.04-2.01,0-2.99h1.99c-.12,2.38,1.06,4.61-1.99,3.99-.08-.27.03-.65,0-1Z"/>
      <path class="cls-37" d="M23.25,115.82c1.33.57,1.42,1.51,2,2-1,1.1-2.34,1.77-4,2-.33.68-.99.68-2,0-.82-.61-1.87-1.93-2-2-1.2-4.31,2.86-3.34,5.99-2Z"/>
      <path class="cls-180" d="M25.25,117.82c2.49,2.08,5.6,4.81,7.99,6.99,3.41,2.48,7.57,6.26,9.99,9.99v2h-1c-2.05.83-3.09-.43-4.29-1.98l-.7,1.98c-.31.47-.64.46-1,0-1.86-2.31-6.46-5.67-8.41-8.08s-.89-3.64-4.58-6.91c-.94-.42-2.12-.96-2-2,.13-3.23,1.53-3.05,4-2Z"/>
      <path class="cls-123" d="M34.24,123.81l2.43.02c3.02,4.22,6.54,6.54,10.56,6.98.93-1.26,1.56-2.49,2-4,5.56,8.11,3.8,14.53-5.99,7.99-4.15-2.77-6.61-6.9-9.99-9.99v-1h1Z"/>
      <path class="cls-133" d="M148.13,80.86c.47-2.67-.63-2.04-3-2,.73-.48,1.31-1.52,2-2,1.02-.7,2.95-2.18,4-3,5.95.43-.31,5.09-3,6.99Z"/>
      <path class="cls-14" d="M135.14,96.84l.37,1.22c-4.19,3.9-8.98,10.52-.32,11.8,3.04,2.36,3.83,14.25-1.05,11.95-2.51.6-4.76-1.16-6.77-5.28-6.06,3.97-6.29,12.56-6.26,19.17l-1.95,1.1c1.14,3.33,2.41,6.59,3.79,9.8l-.79,1.19c1.71,2.02-.09,6.16-3,5l-1.5.04c.21,3.87-2.14,4.77-3.5.96-.12-2.32.08-4.67,0-6.99v-1c-.28-1.91.56-2.85,2.54-2.81-1.38-4.04-1.23-7.1.46-9.18-.04-.99-.03-2.01,0-3,.5-2.41,1.17-4.74,2-6.99.26-1.56-.19-3.08.45-5.02.41-1.23,6.35-11.94,7.04-11.95,1.14.21,4.53,11.31,6.49,8.97,1.12-3.8-6.47-8.71-5.87-12.34.4-2.44,6.35-5.45,7.88-6.63Z"/>
      <path class="cls-138" d="M166.11,94.84c.65,2.57,1.06,7.78-1,8.99-.8.19-1.01-.02-1.06-.69-.16-2.52-1.19-14.57-1.88-15.99-.13-.26-3.24-1.65-3.66-.83-.88,2.89-2.34,5.4-4.39,7.52,0,2.39-1.51,3.4-3,1,.13-2.6.49-5.12,1.72-7.84-1.91,1.67-4.38,3.46-6.72,2.84-1.39,1.7-2.72,2.37-4,2,2.17-1.8,6.42-6.88,8.99-8.99,16.11-13.21,15.37-3.07,14.99,11.99Z"/>
      <path class="cls-165" d="M141.13,92.84c.96.92.05,1.46-1,2,2.22,1.61,1.68,2.34-1,2-.29.89-.62.87-1,0-1.88,1.41-5.85,8.72-5.1,9.56.67.73,10.46.54,11.09-2.56-.57-1.26,1.6-3.18,3-3,.78-.06.78.61,0,2,.41,4.01-3.17,12.59-6.99,13.99-.03.89-.08,1.68-1,2-1.95,9.54-5.85,20.37-12.24,27.3-1.45,1.57-2.46,2.64-4.74,1.67-1.77-3.11-2.8-7.4-3-10.99,2.12-.4,3.81,1.16,5.07,4.69,2.54-5.54,5.79-10.44,9.76-14.71-.95-2.26-.89-3.92.15-4.97,3.16-.84,1.26-7.12.53-9.05-.99-2.64-2.75-2.15-3.97-3.97-3.54-5.31,1.98-7.56,4.43-11.95,1.73-1.34,4.83-3.05,5.99-4Z"/>
      <path class="cls-179" d="M117.16,133.8c.12,2.66,2.47,12.53,1.99,12.98-2.22,2.07-2.9-3.52-4.99-.99v-12.98s3,.99,3,.99Z"/>
      <path class="cls-102" d="M146.13,89.85c1.04.4.37,1.4-2,3,1.5,2.82-2.43,4.89-4,2,.36-.65.65-1.34,1-2,.35-.29.63-.7,1-1,.98-1.3,3.05-1.42,4-2Z"/>
      <path class="cls-179" d="M117.16,130.81c.08-2.46-.44-5.39,2-6.99-.4,2.34.14,5.2-2,6.99Z"/>
      <path class="cls-71" d="M168.11,115.82c-1.99,10.81-5.98,21.14-11.99,30.97-.27.39-.73.65-1,1-.28.87-.62.86-1,0-1.39-1.68-.72-4.01,2-6.99,1.77-4.44,3.05-9.08,3.85-13.94-1.11-3.64.61-6.31,5.15-8.03-2.03-.82-.33-2.8,1-4,1.07-4.69,1.74-9.35,2-13.99.09-3.31.04-6.68,0-9.99.32-2.95.64-5.91.71-8.86.15-5.48.07-11.74-3.71-15.12v-1c1.5-3.56,4.88-3.79,5.75.53.13,6.04.21,47.22-1.55,48.93-.29.28-.73.41-1.21.49Z"/>
      <path class="cls-101" d="M165.11,66.87c.52-.15,3.85-.14,3.99,0,.86.84.1,21.13-1,23.98-.07-6.68,2.84-20.35-5.99-20.98.65-.4,2.09-2.73,3-3Z"/>
      <path class="cls-130" d="M167.11,100.84c.92,4.1.7,9.04-1,12.99-.58,2.7-1.57,3.7-3,3-1.72,1.41-5.86,2.88-5,0-.19-2,1.11-3.11,3.89-3.34-.72-2.31-.35-3.86,1.11-4.65-.51-2.08-.41-2.91,2-3-.72-.89-1.17-1.51,0-2,.71-3.6.9-5.11,1-8.99,1.67,1.08.99,4.11,1,5.99Z"/>
      <path class="cls-101" d="M166.11,114.82v-1c.71-4.11,1.03-8.79,1-12.99h1c-.12,4.62.75,9.93-2,13.99Z"/>
      <path class="cls-113" d="M126.15,158.78c1.55-.04.9.97,0,2,.86.32.86.66,0,1-.97,1.55-1.58,1.87-2,0-3.45,0-5.25,1.61-8.99,2-1.51-2.48-.94-5.3-1-7.99.78-.37,1.66-.53,2.48-.18,1.8.78-.91,1.72.47.29.56-.58,1.26-.92,2.04-1.11,1.64-2.03,3.97-.69,6.99,4Z"/>
      <path class="cls-179" d="M114.16,153.78l1.99,1,.02-4.99c1.88-.74,2.73,1.34,2.99,2.99,2.72.29,2.58,1.21,0,2-.08,3.11-.49,7.23-3.99,6l-.2-4.31-.8-.69c-.01-.66.03-1.34,0-2Z"/>
      <path class="cls-116" d="M51.22,234.7c1.41-2.75,6.19-1.51,5,2,2.46.78,3.46,1.78,3,3,.09,1.33,1.61,3.73,2.53,5.1.3.45.03,1.16-.17,1.66l10.63,5.23c.31.27.79.7,1,1,1.48.62,1.81,1.28,1,2-3.74,1.69-13.28-.95-15.98-4l-20.98-3c-1.23-.99.02-1.77,1.23-2.26,1.35-.54,6.05-1.47,7.76-1.73,2.51-.39,9.28.09,9.98-1.51.78-1.77-7.59-4.71-5.98-7.48.28-.87.62-.86,1,0Z"/>
      <path class="cls-22" d="M58.22,250.69c5.03.3,11.19,2.17,15.98,4,1.46-.22,3.12.44,5,2,1,.91,2.52,1.34,3,3-4.61,1.41-8.94,1.08-12.99-1-.21-.21-.93-.98-1-1-8.46-4.68-15.18-1.95-22.98,2-.1-.34.14-.85,0-1,3.11-1.4,6.69-4.59,7.04-7.99,2.14,1.32,4.51-.09,5.95,0Z"/>
      <path class="cls-174" d="M68.21,227.71c4.61,3.88.18,4.64.04,7.48-.17,3.53,7.64,8.5,10.95,9.5.33.67.7,1.32,1,2-.97.84-2.3,1.51-4,2-1.29-.72-2.74-1.24-4-2-2.24-2.16-3.57-4.16-4-5.99-3.92-.49-7.19-5.67-5-8.99-1.56-2.59,2.7-5.82,5-4Z"/>
      <path class="cls-134" d="M59.22,239.7c2.47-2.35,6.62-1.11,8.99,1,1.5,1.91,3.65,3.54,4,5.99-3.3-2-3.47-4.7-8.48-4-4.52.63,7.73,8.34,8.48,9-2.2-.55-11.85-2.85-12.59-3.97-.66-1.01.62-2.59.41-3.45-.12-.53-6.59-4.14-.81-4.57Z"/>
      <path class="cls-36" d="M82.19,259.68c.75.23,2.08-.18,3,0,.79,5.21-.91,3.3-2,3.99,3.55-7.35-6.74.37-8.41.08-.8-.14-.79-2.06-1.59-2.55-2.5-1.55-1.39.08-3.99-2.52,3.09,1.85,7.23-.9,8.32-.82.64.04,3.23,1.39,4.67,1.82Z"/>
      <path class="cls-98" d="M80.19,246.69c.69,1.55,2.62,2.71,1.99,4.99-2.85.63-3.89-1.82-5.99-2.99-.51-4.29.61-3.02,4-2Z"/>
      <path class="cls-134" d="M79.2,256.68c-1.9-.08-3.35-1.37-5-2-.39-.61-.59-1.43-1-2,2.89.34,4.15,2.33,5.99,4Z"/>
      <path class="cls-40" d="M56.22,217.72c2.91,2.13,7.71,6.37,10.99,8.99.36.29.64.7,1,1l-5,4c-2.87-.47-3.67-.14-2.41.97,5.27,6.01.5,8.11-4.58,4.03-1.61-1.04-2.81-2.3-5-2-1.26-.61-1.84-1.85,0-2,.73-2.77,1.28-5.59,1.65-8.48,3.71.2,3.1-.69-1.84-2.67-1.18-1.42-3.8-6.43-1.81-6.84,2.12.98,4.91,1.47,6.99,3Z"/>
      <path class="cls-141" d="M36.24,209.73c2.91,2.01,6.97,1.85,10.23,3.06.2.07,1.06,1.15,2.76,1.93.63,6.58,3.21,4.82,5.92,6.53,2.17,1.37,5.79,4.66,2.58,6.44-8.49-6.13-1.75,3.2-2.5,4.01-1.33-.44-3.29,1.01-4,1.01-.3.57-.55,1.01-.67.97-2.55-.74-12.31-4.52-12.31-6.97-.87-.28-.86-.62,0-1,3.39-.84,6.93-.36,10.63,1.43.82-4.87.09-10.73-5.64-12.41-3.79-.93-7.93-2.59-10.99-5,1.31.13,2.69-.15,4,0Z"/>
      <path class="cls-186" d="M25.25,208.73c2.64.19,4.73.78,6.99,1,3.66,1.73,7.33,3.2,10.99,5,7.26,2.5,9.78,15.99-1.09,10.55l-7.91-.56c-1.37,1.5-6.13-.33-6.99-2-.36-.46-.72-1.86-1-2,2.25-1.19,5.32-.84,9.21,1.05,1.73-2.35,4.42-2.72,8.07-1.1-4.35-7.05-14.42-8.51-21.92-8.6,2.55,3.06,4.1,5.94,4.65,8.65-1.99-.99-9.51-.77-9.91-1.14-.29-.27.15-1.95-.34-2.53-.81-.94-2.63-1.04-3.25-2.3-.97-1.96.08-4.68-1.46-6.54,4.53-.1,9.42.2,13.97.52Z"/>
      <path class="cls-108" d="M68.21,268.67c-2.21.22-4.17,1.91-5.99-1,1.89.03,4.9-.68,5.99,1Z"/>
      <path class="cls-152" d="M90.18,32.9c2.76,6.11,4.29,12.34,5.99,18.98-1.1-.28-1.43-1.47-2-2-1.5-1.21-1.85-3.16-2-5-1.38-3.63-3.31-12.72-7.66-13.79-1.08-.26-1.81.72-2.33.8-1.07.16-3.27,1.32-3.86.91-.67-.47-.66-3.83-3.61-3.89-3.4-.08-5.2,4.7-8.52,4.98,3.54-3.02,5.41-7.73,7.99-10.99,5.49-6.94,7.36-6.23,11.85,1.64.98,1.72,3.29,6.49,4.13,8.35Z"/>
      <path class="cls-50" d="M37.24,136.8c3.24-.44,8.89,4.98,8.99,7.99,2.19,2.23,2.44,3.62.75,4.17,2.87,1.36,3.06,2.13,1.25,4.82-1.58,1.87-3.06,1.63-3-1-.55-1.57-1.8-2.12-3-3-4.9-1.96-10.89-4.27-16.09-3.8-9.28-6.14.88-8.21,7.1-6.19,1.38.26,9.47,5.94,5.25-.05-.38-.54-1.8-2.38-2.25-2.95h1Z"/>
      <path class="cls-121" d="M33.24,139.8c-7.2-1.39-13.94,2.15-3.8,5.3,5.61,1.74,7.63.91,12.79,4.7-2.96-.88-5.97-1.41-8.99-2-1.83-.36-4.2-2.05-6.85-.85-.78,1.52-1.02,3.17-1.14,4.85-1.47-2.64-1.66-5.2-4.5-6.99l-1.48,1.99-4.01-9.98c6.9-5.1,7.35,1.07,9.64,1.85,2.48.84,6.3-1.05,8.34,1.15Z"/>
      <path class="cls-77" d="M14.26,133.8c-.93-3.15-2.89-2.91-3-8.99-.03-1.52-.91-5.65,1.46-4.97,7.7,2.21,13.69,15.04,1.53,13.96Z"/>
      <path class="cls-170" d="M21.25,119.82c1.32.38,1.43,1.49,2,2-1.99.1-2.71-1.04-4-2,.63.1,1.46-.15,2,0Z"/>
      <path class="cls-24" d="M36.24,153.78l.71-1.32c4.59.2,9.02,1.31,13.27,3.32.92-.5,1.91-.17,3,1,.71.74,1.34,2.47,2,3v1c-.63,2.73-2.49,2.16-5.58-1.73-3.38,1.04-6.3.73-8.76-.93,2.42,2.56,3.87,5.12,4.35,7.66,2.44,1.48,12.89,7.42,14.74,4.19-.2-1.23-.25-1.97,1.24-2.19,2.57,4.4-.99,6.67-5.25,5.81-2.05-.42-4.28-2.85-6.24-2.77-1.71.07-3.9,2.93-6.49,1.96-2.62-2.22-3.15-3.36-5-5.99-4.26-4.32-10.09-10.74-2-12.99Z"/>
      <path class="cls-90" d="M45.23,152.78c.93.35,2.12.3,3,1,1.12-.06,2.44.85,2,2-1.79,0-4.16,1.28-5.39.92-1.28-.38-1.16-2.65-2.31-2.95-1.56-.4-4.38.11-6.29.02-1.74,2.13-2.74,2.13-3,0,2.85-5.47,7.68-2.62,11.99-1Z"/>
      <path class="cls-184" d="M33.24,153.78c1.35.21,1.24-.08,3,0l-2.99,5.52c1.7,2.38,3.33,5.12,4.98,7.47-3.37-2.48-9.84-8.71-7.52-13.02.96-1.79,1.76-.08,2.53.03Z"/>
      <path class="cls-96" d="M45.23,165.77c-2.96-2.45-7-5.74-6.99-9.98,2.69-.95,4.68,1.81,6.53,1.98,1.75.16,3.28-1.27,5.49-.61,2.64.79,2.25,3.93,4.96,3.62.44,1.03,1.6,2.1,2,3,8.35,11.53-5.83,6.27-11.99,2Z"/>
      <path class="cls-19" d="M61.21,167.77c-.22,9.96-12.19,1.14-15.98-2,4.66,1.87,8.91,3.42,13.98,3.99-.84-1.62-1.42-4.68-1.99-5.99,1.43.86,3.18,2.6,4,4Z"/>
      <path class="cls-173" d="M141.98,161.55c.13-.19.28-.36.44-.53.79-.99,1.39-2.11,1.7-3.24,1.53.7,4.37-2.64,4-4,3.24-1.48,3.19-7.63,1.57-5.45-.17-.19-.36-.37-.57-.54-1.49-.76-5.16,1.33-4.99,3-5.36-.03-10.81,5.52-13.26,10.49-.88.81-4.01,1.9-4.72.5-.67,0-1.33,0-2,0l-4,5.99c4.74-1.58,8.63-1.67,13.99-4,2.79,1.35,5.81,0,7.84-2.22Z"/>
      <path class="cls-209" d="M136.04,166.38c1.9-1.22,3.78-2.58,5.49-4.04.49-1.05,1.33-1.91,2.52-2.35.22-.21.45-.41.68-.57,0-.66-.15-1.26-.59-1.64-3.12,2.43-6.31,4.39-9.99,5.99l-2,2.99h2.74c.4-.11.79-.23,1.16-.38Z"/>
      <path class="cls-12" d="M17.26,225.71c3.28-2.11,4.88,4.76,9.58,5.02,3.87.22,2.3-3.96,6.41-3.02,2.64-.68,7.11.68,6.99,4,.9,3.2,4.38,3.87,4,7.99-5.73,2.38-9.15-2.85-14.22-4.34s-5.98,2.3-10.15-3.77c-1.08-1.57-1.99-4.02-2.62-5.87Z"/>
      <path class="cls-73" d="M38.24,226.71c3.19.89,11,5.98,12.99,5.99v2h-1c-3.98-4.37-4.62-2.46-7.99-3-.63-.1-1.41.13-2,0-2.21-.47-4.64-3.31-6.99-4v-1c.59-1.6,3.8-1,5,0Z"/>
      <path class="cls-177" d="M27.25,222.71c2.08.41,4.74,1.42,6.99,2,1.63-.02,2.96.31,4,1v1c-1.3-.36-3.67.36-5,0-4-1.07-7.77-3.24-11.99-4,2.18-.04,2.16-.76,5.99,0Z"/>
      <path class="cls-192" d="M191.07,147.79c-1.74-.26-2.2-.05-3.45,1.04-2.62,2.27-5.11,6.68-8.59,9.39-9.13,7.1-20.94,11.03-28.8,19.16-.08.16-.16.32-.26.47-.39.58-.77,1.16-1.16,1.74-.31.47-.67.86-1.06,1.2-.26,1.2-.41,2.58-2.31,1.19-.2.04-.4.07-.6.08-2.15,2.37-.6,6.67,2.3,2.69,3.92-3.15,7.92-6.48,11.99-9.99,2.53,1.29,3.29.52,2-2,1.09-.12,1.99-.64,2.91-1.21,4.17-2.61,10.08-6.71,14.07-9.67.18-.13.13-.58,0-1.11,2.29-1.9,7.52-5.46,10.35-3.61,4.66,3.05,2.69,50.87,1.63,56.56-1.52,1.03-1.84,2.28,0,3l-2,5.99c-1.5,5.01-3.16,10.01-5,14.98-.86.42-.88.75,0,1v1c1.39-2.18,2.8-3.28,4.17-6.32,11.68-25.85,5.25-58.23,3.81-85.59Z"/>
      <path class="cls-75" d="M164.11,65.87c3.41-7.08,6.81-5.96,7.9,1.59,1.41,9.75-1.63,23.87-1.94,33.83-.37,11.59,2.24,20.31-3.18,31.8-2.14,4.54-5.13,6.71-7.77,10.71l-.65-.95c4.82-8.78,8.03-17.79,9.64-27.02,1.46-6.5,1.85-18.41,2.04-25.43.16-5.9.88-17.83-.04-23.01-.62-3.52-2.52-2.2-4.99-1.5-.32.09-.71-.1-1,0Z"/>
      <path class="cls-62" d="M147.13,184.75c-2.76.45-1.93-.62-1.99-2.72-.56.08-1.13.04-1.68-.09-.86,4.62-2.89,6.17-8.32,12.81-1.96,2.79-3.91,5.63-5.84,8.5-.03.16-.07.33-.11.5-.15.54-.32,1.08-.49,1.63,0,.05,0,.11-.02.16l.46.19h1c.79-.52,1.46-1.52,2-3,.47,0,.8-.03.99.51v1.48c1.57-4.92,3.88-7.29,7-10.99,2.38,1.33,6.79-2.67,4.99-5,1.39-1.59,2.06-2.93,2-4Z"/>
      <path class="cls-122" d="M168.11,115.82c1.47,6.24-.64,12.49-3.73,17.78-2.64,4.54-2.96,5.25-5.27,10.19-.91,1.94-2.51,2.29-3,3,1.49-3.51,2.03-7.48,3.51-10.98,2.94-6.96,6.75-12.31,8.48-19.99Z"/>
      <path class="cls-155" d="M183.09,239.7c-8.43,13.21-9.32,12.34-21.98,19.98v-1c-.2-.87-.05-1.6.64-2.06,5.12-3.39,9.7-6.85,14.34-10.93,1.91-3.59,4.24-5.92,6.99-6.99v1Z"/>
      <path class="cls-122" d="M154.12,147.79c-2.21-.43-4.2,1.57-5.99,5.99-1.19,1.11-3.23,3.4-4,4-.69.86-.71,1.7-.54,2.4.15-.08.31-.14.47-.2.65-.63,1.35-1.03,2.05-1.22,1.78-3.29,5.49-5.4,8.05-8.46.74-.89.7-2.17.96-2.5h-1Z"/>
      <path class="cls-148" d="M132.14,202.73c-.39,6.84-3,12.93-2.01,19.97-1.74.23-.94-2.27-.99-3.48-.19-4.5-.48-9.22,1-13.5.36-1.03.42-3.02,2-3Z"/>
      <path class="cls-114" d="M135.14,194.74l-4.56,5.57c-.13.38-.3.76-.55,1.14-.27.43-.49.88-.68,1.34-.03.31-.08.62-.17.95-.15.54-.32,1.08-.49,1.63-.16,1.21-.17,2.47-.12,3.74.13-1.07.31-2.18.57-3.38.31-1.42.1-2.97.93-4.29,1.14-1.8,6.03-2.57,5.06-6.7Z"/>
      <path class="cls-114" d="M156.12,182.75c2.3,1.51,1.73,2.47-1,2-1.13,2.66-2.46,3.99-4,4-.29,2.01-.96,2.68-2,2-1.2,5.65-6.67,12.18-11.99,13.99-1.73,12.22-1.51,24.67-.97,37l-2.03.96c-.87-2.58-1.05-7.66-1.03-10.44.06-8.08-.64-21.77,2.23-28.82,1.4-3.45,4.68-5.56,4.79-9.69,2.24-2.66,3.09-3.14,5-5,2.86-4.98,6.52-8.31,10.99-9.99,2.51.18,1.54,2.54,0,4Z"/>
      <path class="cls-69" d="M134.14,244.69l2.45.2c.85,9.94,3.36,12.21,7.54,6.79.33-.9.66-.9,1,0,1.07-1.03,1.74-2.36,2-4-2.51-1.41,1.38-4.66,2.95-2.95l-.95,5.95c1.03,1.75,2.35,2.18,3.93,1.3,5.82,2.27,11.36.98,16.61-3.86l1.44.56c1.1-1.86,2.91-4.63,5-4v1c-4.18,4.44-9.19,10.6-14.99,12.99-2.24.92-15.58,4.05-16.98,2.99,3.37-11.34-4.89-2.68-6.42-3-2.63-.56-3.53-11.43-3.57-13.97Z"/>
      <path class="cls-94" d="M138.14,210.73c.77,1.48.59,3.39,0,5l-2,8.99c1.25,1.42,1.79,3.56,1.62,6.42,1.69,3.04,4.19,9.76,1.38,12.56l1.55,1.26c-1.35,4.63-.2,6.88,3.45,6.73-.47,1.56-.69,3.39-2.69,3.85-7.73,1.79-4.09-6.82-7.3-10.84,0-.67.02-1.33,0-2-.07-2.69,1.07-4.91,1.04-7.45-.12-9.7-1.39-15.63.69-25.31.55-2.56-1.13-2.08,1.27-5.2,2.93.45,1.9,3.86,1,5.99Z"/>
      <path class="cls-88" d="M76.2,67.87c-.49,6.86.43,14.1,0,20.98-.07,1.18-.91,2.27-1,3-1.21,3.02-10.22,2.37-8.99-2l.78-2.08c5-1.03,5.84-6.84,6.15-11.15l2.06-1.76c-2.46-2.02-2.79-3.68-1-5-.27-2.1.06-3.43,1-4h1c-.03.66.05,1.34,0,2Z"/>
      <path class="cls-146" d="M81.19,83.85c-2.13-5.89-.51-12.8-1-18.98.27.7.92,1.02,1.04,2.41.51,5.55.14,11.39-.04,16.57Z"/>
      <path class="cls-190" d="M64.21,79.86c2.81.38,3.59,7.95,2,9.99,1.18,1.76,1.93,2.54,4.4,2.04.97-.2-.17-2.58,2.08-2.05.89.21.28,2.91,2.51,2.01-.18,1.49,1.11,7.81-1.49,7-.82-.26-.17-1.08-1.37-1.9-2.17-1.49-6.87-3.61-8.18-5.56-3.7-5.51-6.4-15.87-6.95-22.52l2.27-.15c2.18,3.42,3.76,7.13,4.72,11.14Z"/>
      <path class="cls-206" d="M60.21,64.87c4.08,1.83,5.08,3.82,3,5.99,3.21.04,3.88,7.71,1,8.99l-6.99-10.99c-.15-1.9-.39-9.91,0-10.99.28-.87.62-.86,1,0,1.35,1.74,3.79,5.09,2,6.99Z"/>
      <path class="cls-79" d="M97.18,69.87c-3.63,3.88-7.77.57-11.98,2,1.25-11.78-5.08-24.99.49-35.95,1.5.09,4.89,9.59,5.43,11.53.46,1.67-.41,3.72.53,5.54.14.27,5.48,1.75,5.59,2.43.27,1.66-1,3.53-.94,5.01.13,3.51,2.89,3.45.88,9.44Z"/>
      <path class="cls-160" d="M60.21,42.89c2.88-1.28,3.3-4.99,6.24-6.24,1.53-.65,6.75-1.42,7.62-.56.23.23,0,1.58.5,2.39.34.55,1.48.23,1.69,1.86.46,3.44.34,10.24-1.08,13.54l-2.05-.91c-.82-11.9-4.35-3.59-6.07,2.73-1.55,3.96-6.03,5.12-8.86,2.18-.21.15-.95-.15-1,0,.66-5.59,1.65-9.72,3-14.99Z"/>
      <path class="cls-74" d="M58.22,57.88c2.43-1.7,3.44.61,5.54-.88,3.01-2.15,2.14-10.28,7.13-11.95,3.79-1.27,4.19,5.97,4.32,8.84.18,3.94-.15,7.79,0,11.99.05,1.5.16,2.83-1,4-2.13-1.6-4.27-3.62-6.4-6.04-2.41,3.92-4.74,5.6-7.58,1.05-.61-1.43-3.44-3.07-2-6.99Z"/>
      <path class="cls-46" d="M47.23,130.81c-3.83,5.19-2.77,2.61-4.73,1.02-3.01-2.45-6.17-4.63-8.26-8.01,2.28-11.73,13.19.26,12.99,6.99Z"/>
      <path class="cls-212" d="M42.23,136.8c3.66,3.86,7.82,7.14,10.99,11.49l-1.99.49c-3.11,3.28-5.15-.75-5-4-3.28-2.75-6.03-4.74-8.99-7.99-1.4-1.54-11.05-12.81-9.98-13.99,6.05,3.18,10.34,9.1,14.98,13.99Z"/>
      <path class="cls-128" d="M51.22,148.79l1.01,2.99c-6.75-.22-.8,3.03,1.99,5h-1c-.96.12-2.44-1-3-1-.47-.75-1.6-1.36-2-2-.13-.22.33-1.16-.23-1.75-1.06-1.13-3.62-1.69-4.76-3.76-1.48-2.67,5.27,1.51,2.99-3.48,1.57,1.32,2.49,3.53,5,4Z"/>
      <path class="cls-211" d="M119.16,136.8c-.44-7.82.67-21.18,9.97-22.97-.06,3.59,3.64,5.83,5.01,7.99,4.5,7.06-.23,6.59-2.74,10.7s-3.88,9.12-7.24,12.79l-5-8.51Z"/>
      <path class="cls-132" d="M139.14,118.82c.99,8.39-1.23,16.79-6.68,25.21l.68,1.76c.62.35,1.09.65,1.05.8-.66,2.18-6.26,10.89-8.04,12.19-4.67,3.33-2.85-4.22-6.99-4,.02-.63.09-1.4,0-2,1.53-1.56,1.18-3.41,3-5,11.89-10.41,11.34-15.33,16.98-28.97Z"/>
      <path class="cls-6" d="M154.12,93.84l3.05-9.95c.95-.81,6.2,1.26,6.72,2.16.86,1.5.46,14.63,1.22,17.77-.12.62.17,1.53,0,2-2.31,2.36-3.7-.35-4.06-3.03.43-4.75-.09-10.45-5.93-8.96-.29.77-.62.76-1,0Z"/>
      <path class="cls-53" d="M146.13,89.85c1.34-.82,7.97-7.16,8.99-5.99.45,4.19-2.09,7.57-3.99,10.98,2.08,1.37,1.47,2.13-1,2,1.78,1.4.78,2.73-3,4-.69.86-2.07,1.89-3,3-.33.74-.86,1.49-1.64,1.79-11.05,4.27-11.21-2.36-4.36-8.78.16-.17.82.17,1,0,5.37,2.7,5.84,2.82,8.85-3.67-1.52.78-2.49,1.28-3.86-.33l2-3Z"/>
      <path class="cls-41" d="M155.12,93.84c1.32,1.92,1.33,4.64.02,8.14.38,3.68-.29,6.29-2.02,7.84.47,3.73-.53,5.06-3,4-2.44.76-2.39.34-2-2,2.43-5.69,3.1-10.69,2-14.99.3-.49.62-1.32,1-2l3-1h1Z"/>
      <path class="cls-51" d="M146.13,112.82c1.9,3.44-1.46,10.53-5,11.99-3.32,4.01-1.75-5.32-1-7.99,1.88-4.61,3.97-10.04,6.99-13.99,6.64-10.92,3.54,6.58-1,9.99Z"/>
      <path class="cls-191" d="M144.13,92.84c1.03-.53,6.91-4.07,6.97-1.51.02.92-6.32,11.59-8.95,11.5.86-3.52-3.17-3.14-3.01-6,.32-.3.68-1.42,1-2,1.7-.02,2.73-1.35,4-2Z"/>
      <path class="cls-102" d="M138.14,96.84l-4,6.97c4,2.23,5.9,2.31,9.99.02-.33.39.39,1.82-1.67,2.8-1.75.82-9.6,3.08-10.88,1.26-2.45-3.48,4.41-8.87,6.56-11.05Z"/>
      <path class="cls-166" d="M150.12,96.84c3.13-.69,2.11,2.7,1.88,4.36-.42,2.98-2.49,7.93-3.88,10.63.52,2.68-.02,2.83-2,1,1.82-4.53,4.7-8.14,3.99-12.99-1.23.4-2.19,1.96-2.99,3v-2c.87-1.09,2.32-2.91,3-4Z"/>
      <path class="cls-59" d="M141.13,124.81c3.14.67,2.51,2.72,0,4,.46.2.88.43,1.17.78.62.72-6.03,12.27-7.17,14.21,1.58,1.7-.12,2.97-2,2l-5.99.51c.87-1.12,2.64-1.44,3.41-2.59.85-1.26,6.58-12.62,7-13.98,1.01-3.22.98-7.49,1.57-10.92.32-.76.76-1.42,1-2,.65,2.02-.82,5.05-.59,6.59.15,1,1.56,1.27,1.59,1.41Z"/>
      <path class="cls-140" d="M165.11,118.82c-1.26,2.47-3.67,2.79-3.88,3.15-.61,1.05.93,3.34.7,5.12-.24,1.88-4.71,11.02-5.81,13.7-.28.87-.62.86-1,0,1.9-6.09,2.79-9.93.84-16.44.61-1.74,7.89-8.1,9.15-5.54Z"/>
      <path class="cls-171" d="M154.12,147.79c-1.51,2.76-3.9,4.04-5.99,5.99l2-3.5c.14-.97-1.53-.23-1.88-.59-.39-.41.77-1.25.88-1.9-.59-1.32.61-2.25,2-2,.8-1.84,2.23-4.55,4-5h1c-.69,1.68-.94,5.06-2,6.99Z"/>
      <path class="cls-153" d="M166.11,114.82c-.23,1.11-.56,3.14-1,4-10.67,2.67-6.05,7.51-7.06,14.42-.24,1.67-2.06,5.92-2.93,7.56-1.16,2.18-2.21,3.34-4,5-1.26.31-1.26-.36,0-2-.2-2.72.72-5.72,2.77-9,1.61-4.73,1.15-5.13-2.63-4.48-1.23.21-3.7.49-5.13.49-3.44,3.47-7.2,8.07-7.05,13.14-1.12,1.64-3.13,1.88-3.94-.15-.65-4.89,5.22-11.31,5.99-14.99.5-2.65,1.02-2.95,3-1,3.15-2.92,5.21-4.33,9.5-4.81l7.48-4.18c.04-.84.71-1.51,2-2,1-.99,2.19-1.8,3-3-.06.32.06.68,0,1Z"/>
      <path class="cls-115" d="M165.11,105.83c-.45,1.24,0,2.54-2,3-3.01,5.73-12.66,11.62-9.99,1-.75-4.66.19-11.6,2-15.98.37-.91,1.34-1.67,1.01-3,2.79-.22,6.14,3.37,6.74,5.74.79,3.12-1.22,7.62,2.24,9.25Z"/>
      <path class="cls-80" d="M163.11,108.83c2.56,7.93-.81,5.97-5,7.99-2.2,8.51-15.29,4.78-7.99-3l3-4c1.54,9.55,6.43-.66,7.97-1.5.88-.47,1.85.54,2.02.5Z"/>
      <path class="cls-142" d="M150.12,113.82c.38,2.03-1.07,5.88,1.62,6.88,4,1.49,3.29-2.4,6.37-3.88,1.44,1.51,3.24.53,5,0-.7.69-1.08,1.23-2,2-5.89,2.78-11.55,5.78-16.98,8.99-.99.4-1.9.92-3,1,.16-.78.15-3.18,0-4,1.32-4.23,3.42-8.06,5-11.99.44-.39,1.86-.74,2-1,.88.33,1.82,1.06,2,2Z"/>
      <path class="cls-110" d="M126.15,160.78c6.17-16.13,12.17-19.46,17.98-9.99-2.13,1.8-8.25,6.44-9.58,7.92-1.14,1.27-1.12,3.27-1.66,3.8-.33.33-8.27,3.61-8.74,3.25.99-1.48,1.47-2.24,2-3.99.1-.31-.1-.72,0-1Z"/>
      <path class="cls-172" d="M146.13,130.81c.08,1.39-.92,3.06-3,5-4.24,4.63.7,13.48,5.76,7.32l2.23.68v2c-.72.67-1.44,1.52-2,2-.67.58-3.49,1.72-5,3-2.6.49-6.19-3.98-6.59-4.04-5.5-.71-6.83,12.06-11.39,14.03.19-.51-.2-1.53,0-2,.65-1.53,6.22-12,6.99-12.99.36-.46,1.3-1.18,2-2,.07-.08,1.3.25,2.04-.67,4-4.9,2.12-7.91,8.94-12.31Z"/>
      <path class="cls-89" d="M63.21,231.7c1.98,3.82,1.65,4.71,5,8.99-2.87.06-6.33.19-8.99-1-1.2-.54-2.26-2.52-3-3l4.99.99c.44-2.01-1.67-2.77-2.23-4.25-2.51-6.66,1.96-6.14,4.23-1.73Z"/>
      <path class="cls-201" d="M43.23,214.72c.49.24,1.88-.14,2.96.5,2.91,1.74,4.94,9.98,5.04,13.48-4.55,1.64-6.34-1.99-8.73-2.79-1.52-.51-3.11.05-4.25-.2-1.46-.32-2.6-.64-4-1h13.99c.65-4.73-1.32-7.45-5-9.99Z"/>
      <path class="cls-47" d="M26.25,220.72c-4.69-2.66-5.46-7.06-7.25-8.79-.88-.85-3.51,1-2.73-2.19,9.19-.39,28.49,1.79,29.96,12.98-2.66.72-6.06-1.44-8.33-1.03-.8.14-.23,2.12-2.09,2.13-1.53,0-8.11-2.26-9.55-3.09Z"/>
      <path class="cls-136" d="M94.18,49.89c-.84-.78-3.17.63-2-5,.54,1.43,2.16,2.94,2,5Z"/>
      <path class="cls-187" d="M190.08,213.72c-1.68-1.76-1.26-4.91,0-6.99l-1.29-1.73c1.23-15.56.6-30.68-1.89-45.38-3.08.23-6.01.61-8.81,1.15,2.44-3,7.09-6.82,11-4.5,2.35,1.39,2.86,16.99,3.01,20.94.44,11.87.65,25.02-2.03,36.51Z"/>
      <path class="cls-193" d="M190.08,213.72c-.03.99.07,2.01,0,3l-2,5.99c-1.54,5.02-3.2,10.01-5,14.99-.04.33.03.67,0,1-2.33,2.23-4.79,4.65-6.99,6.99v-1c4.27-8.49,6.78-17.58,7.55-27.25l1.44-.72c1.67-2.99,2.58-6.58,2.72-10.76l2.28.77c-.07,2.33.08,4.67,0,6.99Z"/>
      <path class="cls-155" d="M183.09,237.7c.68-5.6,2.64-9.98,5-14.99-.22,1.18.39,2.89-.24,4.22l-4.76,10.77Z"/>
      <path class="cls-187" d="M188.09,222.71c.4-2.1.14-4.4,2-5.99-.35,4.95-.76,3.36-2,5.99Z"/>
      <path class="cls-104" d="M159.12,174.76c2.49,1.86-.6,4.77-3,4-3.61,3.31-7.48,6.57-10.99,9.99.14-1.62,1.12-2.75,2-4,2.39-3.4,7.67-9.61,11.99-9.99Z"/>
      <path class="cls-194" d="M190.08,206.73c-4.45,1.85.81,9.79-5,9.99-2.36-2.1-1.05-5.82,1-7.99l-.81-2.62c1.53-12.39,2.13-24.83,1.81-37.34l-1.03-.5c1.28-8.62-3.35-8.61-13.88.04l-1.08-.54-4,3c.43,2.96-4.89,6.12-5.99,2,3.95-3.53,12.33-9.61,16.98-11.99,2.69-1.37,6.52-3.41,9.36-2.9,4.26,1.49,1.56,20.89,3.71,25.38-1,7.77-.86,15.52-1.09,23.47Z"/>
      <path class="cls-8" d="M168.11,170.77c1.58-.45,1.58.22,0,2,.66.61-.01,1.61-2,3,.29,2.01-.56,2.43-2,1l-5.99,5c.65,1.94-.36,2.32-2,1,.23-1.15-.16-2.74,0-4,1.73-1.59,2.46-3.5,3-4,.69-.63,1.29-1.37,2-2,2.74.66,4.03-.95,5.99-2,.3-.56.64-.55,1,0Z"/>
      <path class="cls-164" d="M166.11,175.76c4.17-4.28,19.21-15.71,12.83-3.23-7.82,7.57-14.26,16.33-17.91,26.57-.3.33-5.64,2.91-5.82,1.27l-2.09-10.62c-.5-1.37.17-3.03,2-5,.31-.49.9-1.53,1-2,.68-.31,1.32-.7,2-1l5.99-5c.64-.38,1.37-.61,2-1Z"/>
      <path class="cls-167" d="M181.09,163.77c3.95-5.77,6.76,1.21,4,5.99-.96,4.71-2.31,9.53-5.6,13.1l-2.4-.12c-4.2.07-7.59,7.61-8.02,11.68l-3.97,5.31c1.97,1.5,1.5,3.25-1,3-12.76,12.1-14.44-3.71-12.99-13.99.91-1.06,3.71-3.55,4-4-.37,1.82-1.54,3.17-2,5l2.06,10.44c1.78,1.35,4.87-.56,6.09-2.09,4.15-9.36,10.28-20.39,18.82-25.33,2.68-2.61,5.77-7.23,1-8.99Z"/>
      <path class="cls-125" d="M149.13,190.75c1.19,1.21,3.85,14.16,3.26,14.85-1.09,1.28-4.18,1.87-4.26-.86-4.2-2.05-7.2-.05-8.99,5.99-.28.87-.62.86-1,0-.08-1.51-1.02-4.21-1-5.99,3.95-5.12,7.69-9.08,11.99-13.99Z"/>
      <path class="cls-161" d="M164.11,202.73c2.53,2.99-2.98,7.33-5.99,7.99-1.41,5.89-6.06,8.78-6.36.71l-1.63.29c-.28.87-.62.86-1,0-.9-2.13-1.23-4.13-1-5.99-.87-.31-.86-.65,0-1,3.42.12,2.8.63,3.02-2.47.35-4.98-2.42-6.92-2.02-11.52.7-.8,1.52-1.44,2-2-.11,3.36.47,18.28,5.91,16.5,1.98-.65,4.16-3.07,7.07-2.51Z"/>
      <path class="cls-143" d="M156.12,236.7l.88,1.87c-1.82,3.85-5.63,11.97,1.18,8.29,4.22,1.86,7.35,1.05,9.37-2.42,3.99-1.46,7.17-4.04,9.55-7.73,2.44.64,1.85,2.23.79,4.11l-6.79,7.87c-2.85,2.28-8.66,7.03-12.49,6.98-1.11-.01-2.22-1.41-3.83-1.68-2.68-.44-4.3,1.32-6.65,1.69-.91-1.94.88-4.08.99-4.99l.86-4.25c-1.56-3.37,1.97-10.85,5.14-10.73,1.46-1.34,2.02-.76,1,1Z"/>
      <path class="cls-168" d="M185.09,216.72c-1.34,9.82-1.73,19.89-8.99,27.97-1.08,1.21-3.59,2.87-5,4,.41-5.77,7.73-5.26,5.99-11.99,2.81-7.19,4.18-12.2,3.93-20.12-1.95-2.65-.45-7.06,3.07-6.85-.9-1.86.73-2.59,2-1-.28,2.76-.63,5.27-1,7.99Z"/>
      <path class="cls-32" d="M152.12,230.71c.47,1.25,1.47,1.58,3,1,2.71.9,2.94,3.18,0,4-.04.12-1.29.4-1.73,1.73-1.4,4.22-1.97,9.43-4.27,13.26.19-1.59-.13-3.37,0-4.99-1.17-.03-1.42,1.35-1.99,2,.66,1.27-.92,3.31-2,4-.3-.01-.72-.07-1,0-1.38.21-1.38-.79,0-3-1.88-.95,2.99-15.25,3.65-15.78.61-.49,1.54-.36,2.34-.2.31-2.24.98-2.91,2-2Z"/>
      <path class="cls-150" d="M147.13,247.69c2.03.87.12,3.37,0,4.99-.96.44-1.82-.99-1.99-1-.61-2.65.99-2.85,2-4Z"/>
      <path class="cls-139" d="M139.14,210.73c-.08,6.17.51,12.39,1.77,18.64,2.51-.77,4.25-.33,5.23,1.34,2.27,3.17-.39,12.07-4,13.99-1.22,2.85-2.37,1.61-3-1-1.15-6.71-3.1-11.87-3-18.98l2-8.99c.07-1.63.09-3.36,0-5h1Z"/>
      <path class="cls-61" d="M142.13,244.69c1.37.49,1.62,1.67.74,3.54l1.26.45c-.25.73.24,2.21,0,3-1.21.29-2.16,2.46-3.99,1.99-1.6-3.23-.49-6.98-1.01-9.99l3,1Z"/>
      <path class="cls-125" d="M136.14,224.71c.04-3.04-.36-6.59,2-8.99-.12,2.98-.05,6.58-2,8.99Z"/>
      <path class="cls-83" d="M63.21,70.87c.23-3.75,4.28-2.53,5.49.28,2.92-1.2,5.08.04,6.5,3.71-.08,6.03-1.42,14.7-8.99,14.99-2.3-3.42-1.42-6.66-2-9.99-.4-2.3-.45-7.32-1-8.99Z"/>
      <path class="cls-57" d="M74.2,69.87c.42,1.51,1.02,3.46,1,5-2.02.71-1.84-1.82-2.68-1.99-1.47-.29-3.13.26-4.63-.02-.42-.08-1.64-3.48-4.68-1.98-.32-.96-2.15-4.01-3-5.99,5.27,3.64,4.73-4.09,8.31-2.85,3.22,1.11,4.88,5.02,5.68,7.84Z"/>
      <path class="cls-21" d="M161.11,118.82c-5.76,4.82-10.22,6.27-16.98,8.99,1.27-.82,3.8-5.7,4.1-5.9.18-.11,2.36,1.05,4.13.75,2.95-.5,5.33-4.2,8.75-3.85Z"/>
      <path class="cls-95" d="M151.12,143.79c-.95,1.09-7.28,5.67-7.99,5-.14-.14.29-1.83-.25-2.67-2.04-3.14-5.34-.39-1.52-8.63.5-1.08,1.6-1.4,1.77-1.68,1.57,5.24,6.64-3.46,2.27.58l-2.27-.58c.9-1.52,1.37-3.59,3-5,14.67-9.46,11.27,5.8,5,12.99Z"/>
      <path class="cls-85" d="M186.09,208.73c-.54.39-1.63.6-2,1-2.18.71-3.71,2.18-4.58,4.4l-2.42-.4c.97,3.11-5.45,6.83-7.99,5l-.99-1.6c-3.41,2.38-8.96,4.03-6.01-1.39.44-5.76,1.96-10.2,4.82-15.42.35-.64,1.33-.67,2.18-.56l1.26.54c-.12,1.57-.28,10.39,3.57,6.98,2.21-3.34,5.31-7.96,8.68-3.58l2.47-.94c-.51-.36-.9-.72-.9-1.07.08-10.15.37-22.61,1.53-32.51.1-.86.36-.93,1.37-.38.97,13.55.37,26.46-1,39.96Z"/>
      <path class="cls-78" d="M187.09,168.77c-1.65,1.04-1,3.79-1.02,5.48-.09,8.69,1.17,20.63-.98,28.49-1.49,4.62-6.63-1.59-2-3l-2.18-1.11c.97-6.32,1.06-12.41.27-18.27,1.97-3.41,3.32-6.7,3.91-10.59-.08-2.32.07-4.67,0-7-1.92-.69-2.87.6-3.99,1,.22.6-.45.93-2,1-.03,2.06-.23,3.38-2,2.28-2.82,2.78-5.82,4.68-8.99,5.71.16-.52-.11-1.37,0-2,.04-1.36,1.76-2.32,3-3,2.21-1.53,3.9-3.48,6.76-4.72,9.67-4.19,8.6-2.93,9.22,5.72Z"/>
      <path class="cls-104" d="M171.1,167.77c-.62.43-1.27,1.9-3,3-.23.15-.73-.14-1,0,.76-1.76,2.06-2.81,4-3Z"/>
      <path class="cls-38" d="M180.09,172.76c-2.47,3.97-5.12,5.07-8.01,8.47-4.18,4.91-9.62,12.91-8.98,19.51-2.93-2.65-6.08,3.05-8.01,1.52-1.79-1.41-2.53-10.29-1.97-12.52,2.02,2.75,2.91,6.64,3,9.99,2.36,2.56,9.72-12.67,10.57-13.9,2.81-4.04,5.99-8.07,9.01-11.97.77-.99,6.81-4.45,1.9-6.09-3.36,3.25-7.73,5.66-11.5,7.98.42-.99,1.72-2.11,2-3,3.76-2.59,6.94-5.77,10.99-7.99,7.04-1.95,4.53,5,1,7.99Z"/>
      <path class="cls-167" d="M164.11,176.76c-1.54,2.92-3.23,3.8-5.99,5,1.31-3.13,3.74-3.65,5.99-5Z"/>
      <path class="cls-72" d="M185.09,169.77c.19,5.87-1.99,9.03-2.02,9.56-.06,1.19,1.17,3.59,1.1,5.9-.15,5.52-2.11,9.06-1.08,14.5-.88,4.71-13.48,1.93-12.65-2.26,1.27-1.75,2.44-3.52,1.66-5.73-.54-1.55.92-2.98,2-4-1.46-2.92-.19-4.84,3-5,1.17-1.81,5.04-5.74,6.29-8.22.71-1.4.18-3.65,1.7-4.77Z"/>
      <path class="cls-111" d="M177.1,182.75c-1.07,1.66-2.03,3.27-3,5-2.22,1.85-2.64,4.28-3,6.99,1,1.66-.37,3.33-2,2-.64,2.22-1.65,4.91-4,3,2.88-6.23,3.83-15.59,10.33-19.15,2.95-1.62,1.33.59,1.66,2.16Z"/>
      <path class="cls-55" d="M169.11,199.74l-6.99,15.98c-.62-.27-.6-.6,0-1l-4-2c-.64-.08-.64-.74,0-2,1.19-1.57,5.5-7.02,5.99-7.99.35-.69.52-1.96,1-3,1.29-.99,2.79-1.91,4-3,1.97.52,1.79,2.22,0,3Z"/>
      <path class="cls-68" d="M181.09,163.77c5.72-1.37,2.85,7.32-1,8.99,2.18-3.51,5.65-8.11-1-7.99.72-.39,1.14-.69,2-1Z"/>
      <path class="cls-196" d="M148.13,204.73c.13.22-.11.67,0,1-4.84-1.16-7.5,1.5-7.99,7.99-.6,7.57,1.73,11.9,6.99,12.99l2.45-3.48c-1.04-3.87-1.19-7.71-.45-11.51h1c4.17,3.65,3.77,14.32,0,17.98-1.28,1.1-2.61,1.43-4,1-1.66.52-5.04.45-6.99,1-.98-.97-.33-18.37,0-20.98.59-4.79,5.52-11.82,8.99-5.99Z"/>
      <path class="cls-125" d="M150.12,211.72c.04-1.76.7-3.3,1.01-4.99,2.89.72,1.88,6.87,3,7.99,1.99.36,2.68-2.27,3.98-3.99v2l.99,2.12c-1.22,4.74-3.93,12.8-6.98,15.86-.58.66-1.57,1.29-2,2-2.78-.79-2.66-1.89,0-3,3.16-11.11-.21-9.37,0-17.98Z"/>
      <path class="cls-158" d="M148.13,205.73c.9,2.67.63,3.67,1,5.99.25,1.59-.18,3.59.05,5.41.56,4.41,5.34,6.97-2.05,9.58l-1.54-1.68c1.31-1.45,2.16-3.22,2.54-5.31-2.48-1.48-2.49-2.51,0-4-1.03-7.16-2.49-10.78-6.99-3,.85.33.85.66,0,1-.28.87-.62.86-1,0,.29-5.66,1.07-10.78,7.99-7.99Z"/>
      <path class="cls-11" d="M177.1,213.72c5.14-2.59,4.29,6.9,3.83,10.42-1.27,9.64-10.68,27.33-21.98,18.97-1.99-1.48-4.47-4.13-2.83-6.42-.27-.38-.65-.69-1-1,.33-.94-.34-3.1,0-4,3.55-4.38,7.55-8.38,11.99-11.99-.79-2.48.14-2.8,2-1,1.95-1.33,6.33-3.61,7.99-5Z"/>
      <path class="cls-185" d="M184.09,209.73c-3.48,3.72-1.49,10.23-2.23,15.25-.56,3.78-3.01,8.43-4.76,11.72-3.28,6.16-3.83,5.79-9.21,9.99-1.61,1.26-.91,3-4.25,3.11-1.99.06-3.84-1.16-5.82-.93-1.74.2-3.64,3.27-5.21-.2-.82-1.83,1.09-10.36,3.51-11.97,1.55,2.14,4.49,6.36,7.49,6.61.37.03,6.86-1.24,7.2-1.38,6.28-2.6,10.64-19.16,9.26-25.5-.18-.81-2.63-1.45-2.97-2.71,3.38-2.81,1.36-5.94,6.99-4Z"/>
      <path class="cls-67" d="M162.11,214.72c-.06,5.72-.17,8.42-5.44,12.8l-1.56,3.19v1c-2.12,2.4-2.34,5.4-4.99,6.99.78-2.63,1.32-5.34,1.99-7.99,1.17-4.64,3.52-14.32,5.99-17.98.37-.55,3.13-2.36,3.99-3,.12,1.65-.13,3.35,0,4.99Z"/>
      <path class="cls-76" d="M150.12,229.71c-.22.78.15,2.08,0,3-1.38,2.31-4.79,12.53-5.99,15.98-3.99,5.39-2.72-.14-2-4,.79-4.21,1.67-3.84,1.93-4.75.78-2.79.35-6.45,2.07-9.24.2-.06,1.41-2.92,3.44-1.98l.56.98Z"/>
      <path class="cls-126" d="M143.13,135.8c.62-1.04,7.52-5.59,7.98-4.99,1.39,3.14-7.02,11.91-8.98,9.98.06-1.36.35-3.9.99-4.99Z"/>
      <path class="cls-2" d="M172.1,191.74c3.56,2.94-4.57,11.22,1.5,6,.7,3.12,6.52,2.45,9.49,2,.37,1.99-1.14,3.52,2,3-.36,1.32-.79,2.64-1.01,3.99-3.17.67-2.08-3.74-4.45-2.97-2.82,1.3-3.79,6.62-6.95,5.98-6.13-1.23-4.13-6.17-3.57-10.01.14-.94-.09-2.02,0-3,.62-.55,1.56-1.38,2-2,.05-1.31.38-2.31,1-3Z"/>
      <path class="cls-207" d="M162.11,215.72c.52,4.18,1.73,1.03,4.47-.02,2.11-.81,4.14-2.12,6.52-1.97l-4,4.98c-.6.41-1.4.59-2,1-3.94,3.68-7.93,7.35-11.99,10.99-.1-3.44,3.76-5.34,4.56-7.93.86-2.77-.77-6.61,2.43-8.05.03.33-.04.67,0,1Z"/>
      <path class="cls-78" d="M172.1,191.74c-.24.42.13,1.41-1,3-.32-3.04-.1-5.76,3-6.99-.66,1.17-1.2,2.59-2,4Z"/>
      <path class="cls-91" d="M148.13,219.72c-.1,2.43-.09,4.69-1,6.99-7.52,2.66-7.28-7.32-6.99-12.99h1c1.75,1.75,2.7,4.51,2.84,8.31,1.18-1.94,2.56-2.71,4.15-2.31Z"/>
      <path class="cls-35" d="M148.13,215.72c.03,1.32.05,2.68,0,4-5.65,10.57-7.29,1.07-6.99-5.99.01-.33-.04-.67,0-1,4.26-7.91,6.69-4.09,6.99,3Z"/>
      <path class="cls-91" d="M148.13,215.72l-2.01-5.99-4.98,2.99c.22-1.84,1.3-7.21,4.03-6.59,4.22.96,2.88,6.21,2.96,9.59Z"/>
      <path class="cls-125" d="M155.12,231.7c.11-.29-.12-.72,0-1,1.82-4.45,8.23-8.44,11.99-10.99-.38,3.65-4.21,4.76-6.54,6.94-1.16,1.08-5.07,4.62-5.45,5.05Z"/>
      <path class="cls-10" d="M135.25,294.28c.22.11,1.61.85,1.79,2.23.03.2.03.46-.02.75"/>
    </g>
  </g>
</svg>