<?xml version="1.0" encoding="UTF-8"?>
<svg id="Layer_2" data-name="Layer 2" xmlns="http://www.w3.org/2000/svg" viewBox="0 0 196.51 352.5">
  <defs>
    <style>
      .cls-1 {
        fill: #e9ba69;
      }

      .cls-2 {
        fill: #e8ae43;
      }

      .cls-3 {
        fill: #dc922c;
      }

      .cls-4 {
        fill: #e5b05a;
      }

      .cls-5 {
        fill: #e2a335;
      }

      .cls-6 {
        fill: #ddb36c;
      }

      .cls-7 {
        fill: #976310;
      }

      .cls-8 {
        fill: #e6b76a;
      }

      .cls-9 {
        fill: #ce9640;
      }

      .cls-10 {
        fill: #b67b26;
      }

      .cls-11 {
        fill: #b98430;
      }

      .cls-12 {
        fill: #ab7c38;
      }

      .cls-13 {
        fill: #eac47f;
      }

      .cls-14 {
        fill: #d49742;
      }

      .cls-15 {
        fill: #e7a530;
      }

      .cls-16 {
        fill: #cf8b23;
      }

      .cls-17 {
        fill: #492e08;
      }

      .cls-18 {
        fill: #b47e29;
      }

      .cls-19 {
        fill: #634721;
      }

      .cls-20 {
        fill: #d89728;
      }

      .cls-21 {
        fill: #ad792c;
      }

      .cls-22 {
        fill: #cc8120;
      }

      .cls-23 {
        fill: #875814;
      }

      .cls-24 {
        fill: #dc9729;
      }

      .cls-25 {
        fill: #e6b25d;
      }

      .cls-26 {
        fill: #d6942e;
      }

      .cls-27 {
        fill: #b07b2b;
      }

      .cls-28 {
        fill: #d9a943;
      }

      .cls-29 {
        fill: #9e6c23;
      }

      .cls-30 {
        fill: #7c4e07;
      }

      .cls-31 {
        fill: #c58b32;
      }

      .cls-32 {
        fill: #e3ae57;
      }

      .cls-33 {
        fill: #e2b86e;
      }

      .cls-34 {
        fill: #cd8f31;
      }

      .cls-35 {
        fill: #d39741;
      }

      .cls-36 {
        fill: #b27f31;
      }

      .cls-37 {
        fill: #895f17;
      }

      .cls-38 {
        fill: #e3991d;
      }

      .cls-39 {
        fill: #e0a343;
      }

      .cls-40 {
        fill: #df9e39;
      }

      .cls-41 {
        fill: #af7b2d;
      }

      .cls-42 {
        fill: #e69d2c;
      }

      .cls-43 {
        fill: #c88929;
      }

      .cls-44 {
        fill: #97691a;
      }

      .cls-45 {
        fill: #583503;
      }

      .cls-46 {
        fill: #7a5110;
      }

      .cls-47 {
        fill: #d4a04b;
      }

      .cls-48 {
        fill: #c18a36;
      }

      .cls-49 {
        fill: #563704;
      }

      .cls-50 {
        fill: #8a5c15;
      }

      .cls-51 {
        fill: #df921d;
      }

      .cls-52 {
        fill: #9f6618;
      }

      .cls-53 {
        fill: #5a5f6b;
      }

      .cls-54 {
        fill: #442a02;
      }

      .cls-55 {
        fill: #835715;
      }

      .cls-56 {
        fill: #c0842a;
      }

      .cls-57 {
        fill: #c07a21;
      }

      .cls-58 {
        fill: #c2882f;
      }

      .cls-59 {
        fill: #e89f27;
      }

      .cls-60 {
        fill: #724c19;
      }

      .cls-61 {
        fill: #d3983a;
      }

      .cls-62 {
        fill: #e7c380;
      }

      .cls-63 {
        fill: #d59a3e;
      }

      .cls-64 {
        fill: #eab352;
      }

      .cls-65 {
        fill: #db962e;
      }

      .cls-66 {
        fill: #dda142;
      }

      .cls-67 {
        fill: #9c6813;
      }

      .cls-68 {
        fill: #cd9b49;
      }

      .cls-69 {
        fill: #d0963a;
      }

      .cls-70 {
        fill: #d19646;
      }

      .cls-71 {
        fill: #e9a329;
      }

      .cls-72 {
        fill: #e0b871;
      }

      .cls-73 {
        fill: #c28d3f;
      }

      .cls-74 {
        fill: #2c2827;
      }

      .cls-75 {
        fill: #573703;
      }

      .cls-76 {
        fill: #6f4408;
      }

      .cls-77 {
        fill: #9b661c;
      }

      .cls-78 {
        fill: #d4912c;
      }

      .cls-79 {
        fill: #e3a747;
      }

      .cls-80 {
        fill: #ae741e;
      }

      .cls-81 {
        fill: #e0aa4f;
      }

      .cls-82 {
        fill: #996018;
      }

      .cls-83 {
        fill: #d8a254;
      }

      .cls-84 {
        fill: #563c1c;
      }

      .cls-85 {
        fill: #e5af57;
      }

      .cls-86 {
        fill: #654614;
      }

      .cls-87 {
        fill: #b27c2b;
      }

      .cls-88 {
        fill: #dfae5e;
      }

      .cls-89 {
        fill: #dda546;
      }

      .cls-90 {
        fill: #e5b770;
      }

      .cls-91 {
        fill: #c78e35;
      }

      .cls-92 {
        fill: #503106;
      }

      .cls-93 {
        fill: #503814;
      }

      .cls-94 {
        fill: #e4aa4d;
      }

      .cls-95 {
        fill: #d2963a;
      }

      .cls-96 {
        fill: #7c500d;
      }

      .cls-97 {
        fill: #dd9e2f;
      }

      .cls-98 {
        fill: #f6bc3f;
      }

      .cls-99 {
        fill: #c58f38;
      }

      .cls-100 {
        fill: #6a4916;
      }

      .cls-101 {
        fill: #e5a846;
      }

      .cls-102 {
        fill: #d9a049;
      }

      .cls-103 {
        fill: #a57126;
      }

      .cls-104 {
        fill: #966d2b;
      }

      .cls-105 {
        fill: #9c6b21;
      }

      .cls-106 {
        fill: #e1b161;
      }

      .cls-107 {
        fill: #d1963a;
      }

      .cls-108 {
        fill: #915e14;
      }

      .cls-109 {
        fill: #936723;
      }

      .cls-110 {
        fill: #be7e27;
      }

      .cls-111 {
        fill: #d1923e;
      }

      .cls-112 {
        fill: #cb8c36;
      }

      .cls-113 {
        fill: #a6711e;
      }

      .cls-114 {
        fill: #e4a738;
      }

      .cls-115 {
        fill: #906d38;
      }

      .cls-116 {
        fill: #c28831;
      }

      .cls-117 {
        fill: #df9b33;
      }

      .cls-118 {
        fill: #c88126;
      }

      .cls-119 {
        fill: #ecca89;
      }

      .cls-120 {
        fill: #574328;
      }

      .cls-121 {
        fill: #dd9b36;
      }

      .cls-122 {
        fill: #7e5412;
      }

      .cls-123 {
        fill: #d69a3b;
      }

      .cls-124 {
        fill: #b87b21;
      }

      .cls-125 {
        fill: #dd9d3b;
      }

      .cls-126 {
        fill: #cb943e;
      }

      .cls-127 {
        fill: #e7971e;
      }

      .cls-128 {
        fill: #c27c1b;
      }

      .cls-129 {
        fill: #e7bd76;
      }

      .cls-130 {
        fill: #563c17;
      }

      .cls-131 {
        fill: #836233;
      }

      .cls-132 {
        fill: #be842f;
      }

      .cls-133 {
        fill: #dcaf63;
      }

      .cls-134 {
        fill: #a37023;
      }

      .cls-135 {
        fill: #eaa73b;
      }

      .cls-136 {
        fill: #eda730;
      }

      .cls-137 {
        fill: #d98f2c;
      }

      .cls-138 {
        fill: #eead35;
      }

      .cls-139 {
        fill: #e5af5d;
      }

      .cls-140 {
        fill: #ca8f34;
      }

      .cls-141 {
        fill: #8b5811;
      }

      .cls-142 {
        fill: #a96913;
      }

      .cls-143 {
        fill: #e0a03c;
      }

      .cls-144 {
        fill: #cc9136;
      }

      .cls-145 {
        fill: #423931;
      }

      .cls-146 {
        fill: #f0aa2b;
      }

      .cls-147 {
        fill: #da9a34;
      }

      .cls-148 {
        fill: #f2a730;
      }

      .cls-149 {
        fill: #a17220;
      }

      .cls-150 {
        fill: #b87e24;
      }

      .cls-151 {
        fill: #ad6b19;
      }

      .cls-152 {
        fill: #7c4b10;
      }

      .cls-153 {
        fill: #d5a559;
      }

      .cls-154 {
        fill: #e5b565;
      }

      .cls-155 {
        fill: #95681e;
      }

      .cls-156 {
        fill: #dda64d;
      }

      .cls-157 {
        fill: #84540e;
      }

      .cls-158 {
        fill: #d69a47;
      }

      .cls-159 {
        fill: #b46e17;
      }

      .cls-160 {
        fill: #593b0a;
      }

      .cls-161 {
        fill: #d8ab5f;
      }

      .cls-162 {
        fill: #d69a3d;
      }

      .cls-163 {
        fill: #a97625;
      }

      .cls-164 {
        fill: #b27b2b;
      }

      .cls-165 {
        fill: #cf913c;
      }

      .cls-166 {
        fill: #976316;
      }

      .cls-167 {
        fill: #cd963f;
      }

      .cls-168 {
        fill: #d39637;
      }

      .cls-169 {
        fill: #7d5013;
      }

      .cls-170 {
        fill: #df9b35;
      }

      .cls-171 {
        fill: #61513b;
      }

      .cls-172 {
        fill: #c18835;
      }

      .cls-173 {
        fill: #4c2f04;
      }

      .cls-174 {
        fill: #32291f;
      }

      .cls-175 {
        fill: #dba456;
      }

      .cls-176 {
        fill: #da921e;
      }

      .cls-177 {
        fill: #b57516;
      }

      .cls-178 {
        fill: #e1a648;
      }

      .cls-179 {
        fill: #462c04;
      }

      .cls-180 {
        fill: #462f11;
      }

      .cls-181 {
        fill: #e5b566;
      }

      .cls-182 {
        fill: #de9e30;
      }

      .cls-183 {
        fill: #e39e2f;
      }

      .cls-184 {
        fill: #c78b32;
      }

      .cls-185 {
        fill: #b27821;
      }

      .cls-186 {
        fill: #d9881e;
      }

      .cls-187 {
        fill: #c0852e;
      }

      .cls-188 {
        fill: #e9be73;
      }

      .cls-189 {
        fill: #c17a15;
      }

      .cls-190 {
        fill: #af7825;
      }

      .cls-191 {
        fill: #d99520;
      }

      .cls-192 {
        fill: #744f0d;
      }

      .cls-193 {
        fill: #de9427;
      }

      .cls-194 {
        fill: #e4a341;
      }

      .cls-195 {
        fill: #ce8d37;
      }

      .cls-196 {
        fill: #b08749;
      }

      .cls-197 {
        fill: #b78334;
      }

      .cls-198 {
        fill: #664715;
      }

      .cls-199 {
        fill: #935b11;
      }

      .cls-200 {
        fill: #533505;
      }

      .cls-201 {
        fill: #f0a523;
      }

      .cls-202 {
        fill: #b17f32;
      }

      .cls-203 {
        fill: #7f5615;
      }

      .cls-204 {
        fill: #d7a85d;
      }

      .cls-205 {
        fill: #e9a93f;
      }

      .cls-206 {
        fill: #c5913f;
      }

      .cls-207 {
        fill: #a36914;
      }

      .cls-208 {
        fill: #be842b;
      }

      .cls-209 {
        fill: #ce9030;
      }

      .cls-210 {
        fill: #d09d4d;
      }

      .cls-211 {
        fill: #cba05a;
      }

      .cls-212 {
        fill: #daa24a;
      }

      .cls-213 {
        fill: #db9f3f;
      }

      .cls-214 {
        fill: #bc7b1d;
      }

      .cls-215 {
        fill: #b27a29;
      }

      .cls-216 {
        fill: #c18c39;
      }

      .cls-217 {
        fill: #d79c49;
      }

      .cls-218 {
        fill: #573c10;
      }

      .cls-219 {
        fill: #c07515;
      }

      .cls-220 {
        fill: #d89b3d;
      }

      .cls-221 {
        fill: #4f3006;
      }

      .cls-222 {
        fill: #c0781d;
      }

      .cls-223 {
        fill: #d18f2d;
      }
    </style>
  </defs>
  <g id="Layer_1-2" data-name="Layer 1">
    <g>
      <path class="cls-92" d="M85.95,257.74c-1.57,4.41-2.94,4.28-4.99,6.99-3.04,6.82-6.94,13.1-11.68,18.82,7.78,1.25,1.96,5.03-2.24,7.07l-1.06,2.09c-3.52,8.5-8.9,19.16-17.16,30.29-10.21,13.76-21.16,23.29-29.54,29.51-.08-1.55.01-3.38.52-5.35,1.93-7.53,8.35-11.44,10.22-12.49,2.86-5.25,6.35-11.58,10.99-14.98l.66-4.16c3.08-2.69,5.19-5.63,6.34-8.83-1.81-2.37.93-7.55,4-6.99,1.55-.43,2.42-1.79,3.51-4.03l1.49.03c.48-1.72.48-3.39,0-4.99-1.65-1.27-2.26-6.17,0-6.99-2.29-1.87-2.96-4.2-2-6.99-.59-1.45-1.06-3.01-1.41-4.7-4.13-5.5-1.69-7.18,4.26-5.68-.78-.4-.24-.98,1.63-1.75.67-5.3,1.84-10.25,3.52-14.84.83.46,1.7,1.04,2.05,1.97.68,1.8-1.61,17.51-4.05,19.01q-1.3,4.91,0,0c1.91-4.98,4.5.63,4.47,4.4,6.28-11.3,12.54-22.65,18.77-34.03l2.73-.34,4.09-7.37c1.03-.43,2.27.18,2.76,1.14l-7.85,23.22Z"/>
      <path class="cls-54" d="M111.93,140.85c.51.93.9,1.87.87,2.79-.49,17.63-1.79,36.64-6.38,53.14l.51,2.02c-1.51,10.08-7.85,18.65-8.46,29.01l-12.52,29.93c1.4-3.93,5.5-17.73,6.02-21.47.31-2.2.03-2.56-1.25-.25-1.64,2.95-2.35,2.92-3.77,4.74l-.55-3.71c4.5-11.7,7.51-23.82,9.03-36.37l2.5-2.88c-1.73-2-1.73-2.99,0-3-1.44-1.1-2.44-3.16-2-5,11.09,1.22,8.99-17.29,10.04-24.42,1.15-7.81,4.13-16.49,4.95-24.53.28-.87.62-.86,1,0Z"/>
      <path class="cls-74" d="M102.94,26.97c1.01-6.66,4.83-12.88,7.31-19.16,1.44-3.66-.02-9.47,6.7-7.36,6.4,14.63,16.99,28.08,23.37,42.57,1.75,3.98,8.03,20.99,8.35,24.63,1.14,12.95-5.99,32.01-15.23,41.28-3.19,3.2-15,10.59-16.09,13.88-.81,18.55-2.11,36.94-3.41,55.53-.18,2.55-.52,3.19,1.98,1.48,2.18,1.08-1.54,4.05-2.9,3.78-1.25-.25-1.85-14.41.9-15.27l-.95-.3.95-21.68,1-19.48c-1.98-.6-2.03-2.46,0-3-3.13-.96.77-4.05,3-5,.62-1.11,1.62-2.11,3-3-1.82-2.25-.54-3.12,2-2,6.37-4.22,11.96-9.63,15.98-15.98,10.65-23.43,5.22-42.27-6.44-64.18-5.28-9.92-11.4-19.83-17.37-29.18-.75.88-1.6,1.56-2.56,2.03-1.45,6.27-3.63,12.36-7.6,17.4.16,1.3-.64,3.17-2,3Z"/>
      <path class="cls-179" d="M80.96,264.73c.64,4.01-5.21,6.34-3.49,10,6.14-4.06,13.19-6.35,19.47-10,1.54,3.62-.19,7.17-5.17,10.63l.18,2.36c-3.07,1.57-6.55,2.31-8.9,3.59-5.57,3.03-11.84,7.68-17.08,11.4.22-.47-.44-1.95.17-2.79.53-.71,5.05-1.59,5.81-3.71-1.67-1.07-4.99.15-4.99-2.98,5.09-5.83,9.32-12.35,13.98-18.5Z"/>
      <path class="cls-173" d="M114.92,123.87c-.14.91.06,2.02,0,3l-2.92,54.87c.61.79,1.25,1.48,1.92,2.07,1.79.75,1.85,1.63,1.68,3.32,4.42-4.35,7.85-5.13,10.31-2.32.87.28.86.62,0,1-2.34.55-13.1,6.08-14.97,7.51-2.09,1.59-2.19,4-4.01,5.48-.26.21-1.77-.62-2.05.59-.34,1.48.32,3.74.05,5.4l-2.01-1.49,5.87-24.12c1.41-12.74,2.9-25.47,3.14-38.32-.14-5.66-.44-11.41-.89-17.24l.89-.75c1.21-1.13,3.45-1.64,3,1Z"/>
      <path class="cls-157" d="M98.94,44.95c.34,3.49-2.07,8.69-4,11.99.39,1.28.11,3.24-1,4-1.57,7.25-.48,14.78,1,21.98,1.66.4,1.71,2.44,0,3l2,5.99c1.24.35,2.06,1.72,2.47,4.13.77-.19,1.41-.28,1.58-.04,2.05,2.84,7.71,10.81,9.1,13.41l-.16,2.48c2,1.54,3.46,3.37,3.63,6.29l2.37.71c.98-.55,1.64-.55,2,0-1.65,1.57-2.6,2.39-3,5l-3-1c-1.76-1.55-2.76-4.22-3-7.99-1.54-2.91-5.48-5.67-7.3-8.24-10.89-15.4-12.17-32.85-8.68-50.7.87-2.92,1.53-5.92,2-8.99.07-.32-.06-.68,0-1,1.5-3.11,3.79-5.52,4-1Z"/>
      <path class="cls-100" d="M106.93,261.73l.23,2.88c4.4,3.01,9.31,5.38,14.76,7.11,12.56,2.97,24.54-.49,35.71-7.24l1.26.25c-11.8,10.64-25.17,12.3-40.01,8.55-3.32-.84-6.69-2.64-9.94-3.55l-2.39-.26c-6.89,2.75-11.24.99-7.6-6.73,8.33-5.57,6.57-4.41,11.99-12.99,2.55,4.37-.36,8.76-4,11.99Z"/>
      <path class="cls-29" d="M114.92,246.75c.03.9-.64,1.9-2,3,1.07.46.98,1.99.42,2.09-1.14.21,2.41-3.3,3.58-1.1,1.65-.77,3.32-1.77,5-3-.86-.29-.85-.63,0-1,.92-1.41,1.92-2.07,3-2,12.52-4.78,5.44,6.36-3,7.99-.58,1.58-2.25,2.91-5,4,.93,1.77-.62,2.28-2,1l-5.99,4c1.34.24,1.82.73,1,2,2.57-1.18,4.15.44,3,3-2.76,1.2-7.8-.45-5.99-5,1.13-4.02,3.58-7.73,4-11.99.56-.89.92-2.32,2-4,1.3-3.32,2.92-7.33,5.99-8.99,4.12,3.14-.88,7.83-4,9.99Z"/>
      <path class="cls-55" d="M82.96,116.88c-.33-.09-.7-.7-1-1-.38-.86-.72-.87-1,0-2.52,1.88-.74,5.98,1.37,7.66.65,8.91.19,17.68-1.37,26.31-.74,1.57-.75,3.43,0,4.99-.63,2.66-.88,5.48-.75,8.47-3.82,1.34-1.21,6.78,1.04,9.35l-.29,1.16c-2.38-2.44-5.7-3.5-8.99-4-.79-.99-1.86-1.72-3-1-.86.38-.87.72,0,1,.03.31.08.65.15.97.63.34,1.22.74,1.75,1.18.03-.05.07-.09.1-.15.08.21.16.36.24.47.05.05.1.09.15.14.21.12.41-.08.61-.61.31.31.65.64,1.03.98,1.73.27,2.89,1.33,3.49,2.67,1.48.89,3.04,1.49,4.48,1.34,2.75,2.99,5.17,2.04,4-2-2.49-8.76-1.81-18.95,1.12-27.15.53-10.21.39-21.3-3.11-30.8Z"/>
      <path class="cls-174" d="M86.95,176.82c-.28.86-.62.84-1,0-2.38.95-2.72.28-1-2-2.8-7.36-3.05-16.51-2.08-24.54.23-1.9,1.92-.95,2.16-2.86,1.16-9.2-.44-21.4-2.08-30.54.07.02.51-.9.97-1.01,3.08,11.02,3.98,23,3.01,34.46-.54,6.34-4.2,13.74-2.77,19.79.08.35,2.5,6.13,2.79,6.7Z"/>
      <path class="cls-86" d="M189.85,105.89c-.16-4.48-1.16-6.48-3-5.99-2.57,3.35-7.77,4.98-11.99,5-.48.62-1.07,1.1-1.77,1.45-2.51,1.25-23.05,10.81-24.36,10.57-.53-.1-.72-1.23-.84-2.03-.67-.29-.65-.63,0-1,9.24-4.96,20.18-7.8,29.35-12.11,3.19-1.5,8.57-6.96,11.6-5.42,2.47,1.26,3.04,7.35,1.01,9.54Z"/>
      <path class="cls-180" d="M97.94,194.8l-.72-2.09c-2.65-.29-5.35-2.56-3.28-4.91-1.37-1.69-6-9.04-6.99-10.99h-1c-.58,1.45-2.24,1.45-5,0-2.43-2.73-6.24-3.8-8.99-4.99-.25.18-.42.43-.52.7.07.07.12.15.18.23.16-.01.31-.02.48-.02,2.92,0,4.51,2.05,4.78,4.3.59.52,1.03,1.18,1.35,1.91.23.49.46.99.66,1.49.13.04.26.09.4.13,4.29,10.43,6.71,13.04,16.54,18.06.65.33,1.5-.25,2.1-.82.15-.93-.19-2.13,0-3Z"/>
      <path class="cls-76" d="M124.91,181.81c.92-.25,1.25.08,1,1l3,1c.24,1.23-1.9,1.43-3,1-1.19.25-2.48-.1-4.01.44-3.74,1.32-10.28,10.39-7.97-1.44,1.92-1.81,3.58-4.48,5-7.99,1.39-4.89,2.01-10,3-14.99.28-.87.62-.86,1,0-.6,7.11.07,14.1,2,20.98Z"/>
      <path class="cls-171" d="M171.87,206.79l11.04-2.56c4.42-.88,7.65-.77,5.95,4.56-4.78,11.05-5.76,21.25-11.99,32.97-.86-.28-.85-.62,0-1-3.46-1.52.81-11.09,4-10.99-2.82-2.84-2.2-5.87,1.87-9.1l1.13-3.89c-1.34-1.96-1.1-4.58.73-7.86-8.37-.56-16.7.21-24.9,2.02l-.8-1.15c3.25-1.6,6.91-2.6,10.99-3,.65-.08,1.35.07,2,0Z"/>
      <path class="cls-49" d="M108.93,269.72c-6.26.86-11.54,5.22-16.98,7.99l-4.99-1.49c4.69-2.87,8.31-5.98,9.98-11.5.22-.13,1.01-1.34,2-2,.2,9.94,3.63,5.69,8.48,5.99.93.06,1.31.95,1.51,1.01Z"/>
      <path class="cls-60" d="M144.89,213.78c2.01.18,1.37.88,0,2-5.22,2.45-9.2,6.16-13.39,10.35l-2.59-.36-4.88,4.82c1.48,2.07-2.4,7.35-5.11,6.17-2.04,2.89-4.08,6.02-5.99,8.99-.28-2.07.72-3.28,1.57-4.91,6.26-12.04,15.53-22.27,28.4-27.05.99-.59,1.66-.59,2,0Z"/>
      <path class="cls-130" d="M147.89,114.88c.26,1.26-.11,2.2-.97,3.04-6.88,6.68-9.99,10.54-15.73,18.04-.3.39-.77.66-1.28.9-1.07,1.47-1.7,1.96-2,0,4.86-11.01,9.28-17.23,19.98-22.98v1Z"/>
      <path class="cls-196" d="M189.85,105.89c-1.48,8.45-3.66,17.48-5.99,25.97-.74,2.41-1.74,3.74-3,4-2.79-.29-2.32-.71,0-2-2.24-2.98-.38-8.58,3-9.99-1.04-3.07-.71-4.4,1-4-2.18-1.46-1.85-2.13,1-2-.86-.33-.86-.67,0-1-.25-5.29.61-9.84,2.57-13.65-.65-1.17-1.17-2.28-1.57-3.33.16-.07.22-1.37,1.47-1,1.81.54,1.83,5.22,1.53,6.99Z"/>
      <path class="cls-19" d="M159.88,173.82c-.83-.29-.82-.62,0-1-.95-1.74,2.43-3.37,4-3,3.3-5.64,6.73-10.81,10.29-15.51,2.11-6.25,4.34-12.41,6.7-18.45,1.38-1.1,1.62-2.92,3-4-3.92,14.29-10.15,34.95-23.98,41.96Z"/>
      <path class="cls-203" d="M99.94,40.95c1.72.79.67,3.38-1,4-1.55-1.38-2.61,0-4,1,.65-3.47,6.18-14.74,7.99-18.98.27-.63,1.41-1.69,2-3,.29-.67.63-.66,1,0-.92,5.43-2.95,11.95-5.99,16.98Z"/>
      <path class="cls-218" d="M66.97,92.9c2.3,3.07,3.97,6.24,5.99,8.99.7,1.11.7,1.78,0,2-4.17-3.36-7.84-7.36-10.99-11.99-2.62-2.18-3.96-4.39,0-5-.91-.1-.85-.45,0-1,1.26,2.69,3.27,4.69,5,6.99Z"/>
      <path class="cls-221" d="M93.95,187.81c.29.36,1.54,1.58,2,2,.94.87,3.92,1.76,3.98,2.5.02.22-1.79,1.64-1.98,2.5-4.17-.38-6.58-2.08-7.02-6.48-.29-2.94,1.87-.24,3.02-.51Z"/>
      <path class="cls-131" d="M149.89,177.82c-3.34,3.04-7.85,4.78-11.99,5.99-3.29.73-6.29.73-8.99,0-1.56.37-1.98-.29-3-1l.89-1.24c3.32.63,6.68.71,10.09.24.69-3.58,8.08-4.18,10.99-4,.8-.36,1.47-.36,2,0Z"/>
      <path class="cls-84" d="M129.91,136.86c-.14,1.87-.81,3.87-2,5.99,1.6,1.17.94,2.38-1,2-1.24,5.45-2.57,10.78-4,15.98h-1c1.84-9.32,1.91-14.74,5.99-23.98h2Z"/>
      <path class="cls-17" d="M111.93,122.87c.68,4.83.1,12.77,0,17.98h-1c.25-2.48.21-9.39-.02-12.47-.33-4.43-2.57-8.86-1.98-13.5.55,1.03,2.89,7.21,3,7.99Z"/>
      <path class="cls-93" d="M81.96,115.88h-1c-1.1.86-1.62.26-1.53-1.81l-1.47-3.19c-2.05-1.45-5.3-4.46-5-6.99v-2c3.22,4.38,9,7.73,8.99,13.99Z"/>
      <path class="cls-120" d="M169.87,206.79c-3.57,1.08-7.38,2.11-10.99,3-3.88,2.49-9.65,3.82-13.99,4-.52.18-1.49-.19-2,0,7.73-5.66,17.87-5.88,26.97-6.99Z"/>
      <path class="cls-115" d="M176.86,241.75c-3.79,7.14-6.07,9.24-10.99,14.99-.57-.3-.56-.63,0-1-.66-.29-.64-.63,0-1-.59-3.17,4.38-9.15,7.33-10.16.07-2.29.96-3.57,2.66-3.83.28-.87.62-.86,1,0v1Z"/>
      <path class="cls-53" d="M195.95,218.41c-.4,1.74.1,3.7-.11,5.36h.13c.21-2.8.39-5.61.54-8.41l-.56,3.05Z"/>
      <path class="cls-120" d="M171.87,206.79c5.21-1.33,21.73-8.96,16.98,2-.45-1.39,1.43-3.9-1.5-4.04-4.1-.19-10.84,1.53-15.48,2.04Z"/>
      <path class="cls-57" d="M165.87,256.74c-2.39,2.79-4.19,5.46-6.99,7.99-8.55,4.13-17.65,9.09-27.47,9.07-3.25,0-6.41-1.35-9.5-2.08-.87-.28-.86-.62,0-1,.6-.88,1.62-.99,2,0,11.49,1.77,24.22-2.86,33.44-9.6,2.37-3.13,4.85-4.59,8.52-5.39v1Z"/>
      <path class="cls-12" d="M159.88,173.82c-3.5,1.77-5.94,3.02-9.99,4-.56.14-1.36-.09-2,0,.45-1.86,4.02-3.13,5.99-3,2.54-2.51,4.54-3.18,5.99-2v1Z"/>
      <path class="cls-145" d="M137.9,183.81c-4.39,1.29-8.15,1.1-11.99,2v-1c1.18-.24,2.84-.98,3-1,2.86-.3,6.07.21,8.99,0Z"/>
      <path class="cls-203" d="M92.95,55.94c.54-2.79.13-6.58,2-8.99-.55,2.65.74,6.65-2,8.99Z"/>
      <path class="cls-17" d="M114.92,126.87c-.35,5.73-1,14.25-1,19.48v21.98c0,.35-.96,1.66-1.04,2.96-.21,3.49.2,7.05.04,10.53,4.36.64,2.41-.93,2.99-2,.79-1.47,1.77-2.86,3-4-.68,2.4-1.41,5.37-2.94,7.35-.82,1.06-1.88.51-2.05.65-.73.6-2.38,4.69-3.03.48l4.03-57.42Z"/>
      <path class="cls-149" d="M44,75.92c1.71,1.21,3.64,2.07,5,3,2.34,1.6,4.68,3.41,6.99,5-.56,1.39-2.56,1.72-5.99,1-2.07,1.52-3.6.43-3-2-4.64-1.37-11.72-10.07-3-6.99Z"/>
      <path class="cls-192" d="M55.98,83.91c1.07.74,1.74,1.31,3,2,2.12-1.09,3.12-.76,3,1,.01,1.43-1.61,3.34,0,5-3.35-.72-10.24-3.9-11.99-6.99-.03-.66,0-1.33,0-1.99l5.99.99Z"/>
      <path class="cls-46" d="M64.96,204.5c-.17-.18-.32-.38-.45-.59-.11-.12-.21-.24-.3-.37-.07.07-.15.15-.23.25-5.17-6.63-5.67-4.11-3,3-.56,2.52-.02,7.48,2,8.99.57,13.23.55,32.12-4.16,44.66-.05.14-1.48,2.31-1.61,2.24-3.49-4.18-7.28-5.58-5.85,1.22-2.64.72-3.77,1.67-3.36,2.83.47,1.06,1.47,1.72,3,2-.86.38-.87.72,0,1-.06.17-.09.35-.12.55.05.06.1.13.15.2.36.41.63.89.83,1.4.1.18.21.36.29.56-.05-.11-.09-.22-.14-.34.01.03.03.05.04.08.07.16.13.3.19.43.01.02.03.04.04.06,0,0,.01.02.02.03,0,0,0,.01,0,.02.17.4.34.8.51,1.2,0,0,0,.01,0,.02.01.08.02.17.03.25.04.05.09.1.13.15,0,.01.02.03.03.04.29.41.5.86.66,1.35.11.01.22.01.34,0-.08.14-.15.27-.22.39.11.24.2.48.26.73.22.52.33,1.07.31,1.66v.06c0,.1-.01.2-.02.3.95.4,1.18-.3.66-2.15-.88-2.7.57-2.35-1.64-6.28-2.57-4.57,3.78-1.77,5.5-2.85,1.07-.67,3.54-15.13,4.13-17.84,3.14-14.35,4.01-23.78,4-38.29-2.53-1.25-3.19-4.59-2.01-6.96Z"/>
      <path class="cls-141" d="M40.32,322.29c-1.22-.47-1.56-1.8-1-4-1.03-.35-1.03-1.68,0-4-1.93-.56-1.92-1.43,0-2,.28-.87.62-.86,1,0l1-2c.28-.87.62-.86,1,0-.36,1.14-.02,2.68-1,3.99.89.69,5.13-3.83,5.99-4.99,1.96.56.05,3.06-.47,4.03-1.92,3.55-4.38,5.88-6.52,8.96Z"/>
      <path class="cls-108" d="M41,319.67c-3.53,5.09-7.53,10.12-10.99,14.99v-2c-1.8-2.57.9-6.6,4-5.99,1.6-4.26,3.6-7.93,5.99-10.99.09.67,1.78,2.4,1,4Z"/>
      <path class="cls-30" d="M60.98,270.72c.02.78,1.09,2.54,1.08,4.47-.06,8.3-4.75,2.98-3.1-3.87-.12-1.03,1.3-.6,2.02-.6Z"/>
      <path class="cls-169" d="M54.98,293.7c2.93-2.66,3.69-1.35,2,2-.74,1.42-3.49,6.87-5,4,.49-.81,2.04-4.27,3-5.99Z"/>
      <path class="cls-122" d="M104.93,23.97c2.61-5.87,5.06-14.79,7.79-19.69.53-.94,1.87-3.31,3.19-2.29.69.54,6.51,13.36,7.83,15.65,8.06,13.93,15.37,23.99,19.91,40.03.44,1.56,3.09,11.09,3.1,11.7.22,7.45-2.77,17.47-5.39,24.5-.56,1.51-1.11,3.02-2.47,4.02.89-8.23,2.22-16.56,4-24.98-.96-1.9-.96-4.23,0-6.99-1.24-3.04-1.68-6.63-2-9.99l-1.58-.7c-2.46-9.78-6.59-18.87-12.41-27.27-3.51-.93-6.23-6.62-5-9.99-.86-2.05-2.2-4.74-3.8-6.27-2.45-2.35-3.49-2.96-4.35-.16-1.57,5.13-3.15,9.3-7.83,12.43h-1Z"/>
      <path class="cls-151" d="M123.92,112.88l-1,1c-.69.77-1.55,1.47-2,2-1.47,1.32-3,2.66-5,3-.97.7-2.23,4.24-3.51,2.01-1.12-1.94-1.38-6.62-2.48-9.01.41-2.75,1.19-5.12,4.29-4.97,7.36,2.76,10.35-2.28,13.66-8.1,1.18-1.5,2.18-1.81,3.02-.92,1.42-2.72,3.09-4.72,5-5.99,3,2.42-.02,7.19-2.55,9.6-4.45,3.02-7.6,6.81-9.44,11.38Z"/>
      <path class="cls-23" d="M138.9,97.89c-1.63,5.94-9.92,14.36-15.98,15.98.31-.35.69-.65,1-1,3.37-5.43,7.51-10.58,12.45-15.46,1.34-8.29,3.23-16.76,5.24-24.52l1.3.02c-.2,6.98-2.13,18.19-4,24.98Z"/>
      <path class="cls-199" d="M117.92,118.87h-2c1.6-1.15,3.4-1.86,5-3-1.74,2.07-1.55,1.63-3,3Z"/>
      <path class="cls-222" d="M95.94,78.91l.6.32c1.79,9.48,4.78,15.46,15.16,15.36l2.23,2.3c1.74-.33,2.38.87,1.91,3.6l1.08,3.39c.96-.91,2.46-1,4.5-.28l3.48-5.56c1.51-1.53,4.66-4.28,6-2.15,1.9.53,1.91,1.41,0,2-6.08,2.73-4.29,8.1-9.62,10.85-4.49,2.32-5.65-.11-7.85.14-3.42.39,2.14,3.91-1.02,4.99-.81.28-.11-1.35-1.17-1.96-.42-.24-1.11.12-1.32-.04-4.69-3.48-10.85-14.38-12.99-19.98l-2-5.99c-.12-.96.06-2.01,0-3-.76-1.74-.76-3.07,0-4,.28-.87.62-.86,1,0Z"/>
      <path class="cls-167" d="M104.93,35.96c.64.35,1.14.65,1.09.8-1.76,6.02-5.6,13.97-9.08,19.18-.06.9-.4,1.23-1,1-.28.87-.62.86-1,0,.96-4.28,2.88-8.56,4-11.99.37-1.15.46-2.47,1-4,1.74-2.67,3.01-5.57,3.82-8.71l1.18-.28c.69-2.95,2.02-4.95,4-5.99,2.77,2.03,1.43,5.36-4,9.99Z"/>
      <path class="cls-142" d="M93.95,68.92c.26,2.17.59,4.5,1,6.99,1.45.68,1.46,2.32,0,3,.05,1.33-.08,2.67,0,4-2.76-4.65-2.63-14.2-2.05-19.58.15-1.41,1-2.13,1.05-2.4.91,2.57.78,5.4,0,7.99Z"/>
      <path class="cls-111" d="M94.94,68.92c-.28.87-.62.86-1,0-.03-2.66.02-5.33,0-7.99.25-1.34.7-2.66,1-4h1c1.17,3.68.02,8.31-1,11.99Z"/>
      <path class="cls-142" d="M96.94,91.9c-.92-2.41-1.6-2.77-2-5.99,2,1.3,2.12,3.81,2,5.99Z"/>
      <path class="cls-105" d="M112.93,266.73c1.58-2.72,9.04,1.01,8.99,4v1c-3.05-.72-6.52-1.34-9.29-2.03-.39-.1-2.66-3.78-6.7-1.96-.75-2.61.51-4.23,1-6,.43,4.52,3.57,3.96,5.99,5Z"/>
      <path class="cls-112" d="M150.89,250.74c5.55,1.82,7.07,16.06-1,11.99l-2.6-.51c-7.3-7.18-18.77-6.33-26.01.32-.47.18-7.56-1.49-7.36-2.81-1.28-.25-.95-.91,1-2,.67-.22,1.32-.74,2-1,5.46-2.74,13.42-6.36,19.31-7.56,4.03-.82,12.18-1.61,14.65,1.57Z"/>
      <path class="cls-187" d="M139.9,236.76c5.1-2.28,5.72-.61,1.86,5.01-2.22.49-1.36,1.28,2.57,2.36,4.72-.3,21.33.96,11.55,5.61-.25,2.79-3.76,3.71-5,1-3.75.24-7.76-.34-11.47.02-6.67.65-17.11,3.89-22.49,5.98,1.49-1.54,3.3-2.71,5-4,5.85-1.76,9.66-5.47,12.78-10.53,2.14-.03,2.21-.52.21-1.46-.24-1.23.76-2.23,3-3-.83-1.35.84-1.96,2-1Z"/>
      <path class="cls-14" d="M109.93,263.73c.53-5.07,6.37-2.57,9.81-.68.9-1.54,5.98-3.95,8.26-4.67,3.93-1.23,9.91-1.83,13.77-.17,1.93.83,8.91,5.33,5.12,6.52,1.05,2.89-4.39,5.35-5.99,3-2.48-5.67-5.09-6.13-7.85-1.38,3.16-.8,5.44-.34,6.85,1.38-1.66,4.16-11.49,3.81-15.98,3-.65-.04-1.43.12-2,0-1.57-.33-6.75-3.04-8.99-4-1.15-.88-2.08-1.88-3-3Z"/>
      <path class="cls-165" d="M113.93,259.73c4.94-.94,5.68.92,7.32.83,5.18-.29,7.59-5.49,17.19-4.76,6.44.49,3.62,1.11,6.72,3.65,1.81,1.48,5.29.11,4.72,3.28,1.19,2.76-.79,4.05-3,2,.57-2.03-4.66-4.35-5.76-4.73-3.63-1.25-9.88-2.12-13.51-1.05-.3.09-5.29,2.83-5.49,3.07-.76.88.99,4.46-4.51,2.51-2.15-.76-4.86-5.85-7.7-.79-1.06-1.29-1.6.17-1-2,1.34-1.39,3.34-3.13,5-2Z"/>
      <path class="cls-186" d="M128.91,225.77c2.05,2.05.85,3.59-2,3,1.85,4.68,2.3,6.53-1.2,10.88-3.05,5.21-5.14,8.5-10.79,7.11,1.66-3.11,3.72-6.46,4-9.99,4.29-6.07,4.5-6.33,9.99-10.99Z"/>
      <path class="cls-3" d="M130.91,232.76l.73,2.72c-2.72,4.12-5.96,7.88-9.72,11.27-.14.23.14.72,0,1-1.28,1.35-3.17,2.52-5,2-1.52-.39-.39-1.65-.28-1.61,1.27.47-2.16,3.27-3.71,1.61.88-2.15,1.64-2.33,2-3,1.32-2.26,4.19-1.04,4.79-1.3,1.21-.52,9.11-9.61,7.24-12.19l-3.03-1.99c.61-1.2,2.27-1.74,2.99-2.51,1.83-2.39,5.69,1.66,4,4Z"/>
      <path class="cls-140" d="M135.9,233.76c.9.2.87.54,0,1l2,3c-.94.8-1.78,2.28-3,3-.29,1.76-1.74,2.57-4.35,2.42l-5.64,1.57c-.81.75-2.1,1.27-3,2,3.14-5.12,5.83-8.4,8.99-13.99-1.7-2.26-.54-2.98,2-2,2.03-3.45,5.28-.29,3,3Z"/>
      <path class="cls-164" d="M134.9,240.75c.8-.06,2.82-.41,2.99.49-4.54,6.1-7.52,10.96-15.98,11.5,3.11-2.35,6.41-4.5,8.99-7.5l-5.99-.49c4.08-3.79,3.92-3.52,9.99-4Z"/>
      <path class="cls-194" d="M112.93,249.74c1.48-1.15,3.01-2.33,4.99-1.99l-1,1.99c.87.28.86.62,0,1-1.54.67-2.68,2.61-4.99,1.99-.31-1.26.59-2.01,1-2.99Z"/>
      <path class="cls-164" d="M114.92,257.74l-1,2c-1.47.28-3.42,1.57-5,2,.77-2.77,2.99-3.01,5.99-4Z"/>
      <path class="cls-164" d="M121.92,247.75c-1.72,3.54-3,2.13-5,3v-1l5-2Z"/>
      <path class="cls-116" d="M27.01,102.89c-1.4-9.02-1.91-19.32-.56-28.65,1.23-.36,2.01-1.94,2.36-4.73,6.26,2.51,11.53,6.59,15.8,12.23l2.37,1.17c.97.7,2.01,1.31,3,2,4.83,3.49,9.75,7.01,14.75,10.56l13.22,16.41c1.95,1.91,3.1,5.1.83,7,1.12,1.38,2.27,2.65,3.47,3.79.72,9.19.29,18.24-1.31,27.17-.02,1.66.02,3.33,0,5-.28.87-.62.86-1,0-1.93-3.13-2.67-5.09,0-7.99l-1.95-2.03c.74-4.14,1.02-8.17-1.05-11.96-1.96-8.73-5.51-16.68-10.66-24.59-.76-5.64-5.89-10.2-10.32-13.38-.52.33-.96.56-1.14.43-3.96-2.92-12.62-9.55-15.86-12.63.83-.7-6.94-3.2-7.34-2.97-2.47,8.08-3.69,16.47-3.64,25.16.74,1.13.76,2.89,0,4-.28.87-.62.86-1,0-.52-1.91-.77-4.26,0-5.99Z"/>
      <path class="cls-163" d="M80.96,115.88c2.79,7.03,2.67,20.71,2,28.46-.17,1.95-.47,4.11-2,5.5.12-8.97.85-17.98.99-26.97l-1.98,1.99c.85-4.01-4.03-2.94-3.03-7.39.09-.4,3.78-.96,1.03-5.59v-1c1.15,1.75,2.15,2.88,3,5Z"/>
      <path class="cls-185" d="M80.96,154.84c-.1,6.64-2.02,13.92,2,18.97-.65-.02-1.35.09-2,0-1.99-1.48-3.99-2.81-5.99-4-2.26-1.43-5.56-4.29-5-6.99.07-2.92,1.89-3.08,4.34-2.43,1.95,2.87,4.86,3.27,5.65,1.43-2.77-1.95-2.83-5.08,0-6.99h1Z"/>
      <path class="cls-45" d="M85.95,176.82c1.29,3.25,3.37,6.3,2.99,9.99-4.2-1.69-5.62-7.33-7.98-9.99,1.74.17,3.48-.16,4-2,.18.48.67,1.18,1,2Z"/>
      <path class="cls-67" d="M60.28,167.14c1.4,1.18,2.19,1.31,4.36,1.93,2.13.61,4.6,1.48,6.32,2.98,0-.07,0-.16.01-.23-1.24-.5-1.86-1.95-2-2-3.16-1.03-4.16-1.69-3-2,.45-1.76-2.66-2.92-4-2-1.14.04-2.02.2-2.67.44.32.29.64.59.97.87Z"/>
      <path class="cls-7" d="M74.96,169.82c3.04.65,4.39.71,5.99,4-1.43-.18-6.54-3.14-8.99-4,.64-2.69,1.84-2.29,3,0Z"/>
      <path class="cls-7" d="M64.64,169.07c.5.14,1.02.3,1.54.47,1.08.07,2.17.07,2.79.28v-1l-2-1c-.48-.87-.82-.9-1,0-.99.06-2-.05-2.99.01,0,.35.11.63.29.85.39.11.84.24,1.37.39Z"/>
      <path class="cls-67" d="M66.97,167.83c2.5-1.58,7.74-1.94,5,2-1.03-.36-1.93-.7-3-1-.76-.21-1.64-.01-2-1Z"/>
      <path class="cls-177" d="M174.86,104.89c1.36.23,1.03.9-1,2-.09,2.47-2.09,3.47-5.99,3-.3.86-.63.85-1,0l-4,2c.3,1.1-.93,1.25-2,1-6.31,3.28-12.08,7.31-17.31,12.09l-2.67-.1c-4.34,5.52-8.11,11.38-11.31,17.58l-1.67.4c.73-1.86.74-3.56,2-5.99,4.54-8.79,10.68-15.45,17.98-21.98,5.64,1.43,12.24-4.28,17.8-6.68,3.03-1.31,6.17-2.12,9.18-3.31Z"/>
      <path class="cls-26" d="M185.85,116.88c-1.6-2.24-1.59-7.22-1-9.99-2.15-1.2-1.34-2.62,1-2,1.79-.18,1.52-.94,0-2-1.59,3.64-9.1,6.86-11.99,4l1-2c3.98-1.57,7.99-3.41,11.99-5,4.54,2.23.64,6.26.22,8.72-.47,2.76.65,6.19-1.22,8.27Z"/>
      <path class="cls-36" d="M126.91,144.85l1.19,1.14c-1.44,5.96-2.78,11.97-2.86,18.12l1.67-.28c.64-5.34,2.64-9.01,5.99-10.99.68.97.68,2.3,0,4,.87,1.58,1.87,3.25,3,5l.17,1.28c-4.3,2.96-6.6,6.91-6.83,12.1l-2.33.61c.27,1.94-.99,4.8-2,5.99-6.78-6.41-3.29-12.69-2-20.98,1.06-6.85,1.83-9.68,4-15.98Z"/>
      <path class="cls-56" d="M126.91,175.82c2.72-1.07,3.31.58,2.57,3.17,4.17-.18,6.64.76,7.42,2.82-3.68.78-6.94,1.51-10.99,1-.38-.26-.66-.68-1-1-.91-2.71,1.42-4.32,2-5.99Z"/>
      <path class="cls-42" d="M177.86,226.77c1.16-.39,2.16.61,3,3-1,3.46-3.64,7.24-4,10.99h-1l-1.36,1.14c-1.72,4.42-5.95,5.44-12.69,3.08l-6.93-1.22c-2.11,1.08-13.53,1.05-14.09-1.07-.1-.39,3.35-5.98,3.69-6.34,1.43-1.52,5.77-4.23,7.4-2.58-.29-2.02.56-2.43,2-1,3.99.34,1.95,4.62-1.38,5.04-.62,1.65-.46,1.96,1.28,1.78,4.77-2.81,11.6-6.33,16.99-5.18,1.88-3.98,4.25-6.52,7.09-7.63Z"/>
      <path class="cls-4" d="M158.88,209.78c.96-.51,18.99-2.81,21.49-2.98,2.49-.17,5,.05,7.48,0-1.98,3.05-2.38,6.81-4,9.98-.31,3.91-3.94,9.78-8.06,8.12-4.36.97-9.71,2.07-13.92,1.87-1.07,1.71-3.39,2.47-4,0h-1c-.87-.28-.86-.62,0-1,1.41-1.18,3.41-1.85,5.99-2l.36-2.27c2.24.13,14.26-7.5,13.02-9.18-1.14-1.55-15.73,1.82-18.22,2.92l-2.15-1.46c-.29.52-.63.5-1,0-.87-.28-.86-.62,0-1,.93-1.13,2.26-2.13,4-3Z"/>
      <path class="cls-135" d="M183.86,216.78c1.9,3.83-2.88,7.27-2.98,7.7-.39,1.64.36,3.98-.02,5.28-2.5.71-1.72-1.72-3-3-.62.92-1.28,1.16-2.21,1.14-5.77,5.55-10.69,9.98-13.77-.15-.87-.28-.86-.62,0-1,1.14-.26,3.69-2.28,6.76-2.73,8.53-1.27,10.44,2.12,15.22-7.26Z"/>
      <path class="cls-125" d="M144.89,215.78c-.24,2.57-1.28,8.05-4.28,7.33-1.95,1.47-3.52,3.35-4.71,5.66l-.38,1.05c-1.28-.7-2.15-.38-2.61.95-.64.88-1.93,1.88-2,2l-4-4c.75-.81,1.27-2.1,2-3,2.11-1.79,5.94-5.81,7.74-6.96,2.11-1.35,7.91-2.74,8.24-3.03Z"/>
      <path class="cls-216" d="M158.88,209.78c-.25.13.28,1.73-4,3-2.9,1.24-7.5,2.96-9.99,3,.17-.15-.11-1.45,0-2,5.03-1.75,8.86-2.73,13.99-4Z"/>
      <path class="cls-39" d="M184.85,119.87c-.34,1.81-.65,2.51-1,4-5.43-3.95-13.94,11.09-4.76,8.57l1.77,1.42c-.16.56.16,1.45,0,2-.71,1.58-1.38,1.91-2,1-1.23,1.58-3.51,2.04-6.83,1.39l-1.21,1.79c-3.38.07-6.69.35-9.95.82-.1.91-.45.86-1,0-1.97,1.4-3.03,1.32-2-1-1.03-1.52,1.53-3.89,3-5,1.96-2.57,3.82-5.27,5.59-8.1l1.4.11,5.3-7.04c.07-2.13,2.18-2.79,3.69-.95,1.24-5.35,7.2-3,7.99,1Z"/>
      <path class="cls-40" d="M185.85,104.89c-.11.37-1.05.86-1,2-.28.87-.62.86-1,0-1.11,3-.78,5.96,0,8.99.92.28,1.58.95,2,2-.05.52-.88,1.37-1,2-2.81-2.53-4.66-2.46-7.99-1-1.88-.9-3.55-1.89-5-3-1.48-1.77-2.81-3.77-4-5.99,1.52-2,3.81-2.29,5.99-3,4.4-1.43,7.85-1.73,11.99-4,1.46.62,1.49,1.45,0,2Z"/>
      <path class="cls-85" d="M180.86,133.86c-6.85,3.19-9.23-1.33-6.74-7.25,1.03-2.44,9.4-9.34,9.74-2.74-.81,3.37-2.06,6.67-3,9.99Z"/>
      <path class="cls-127" d="M185.85,116.88c-.01.33.03.67,0,1-2.85.57-1.61-1.16-2-2-.79-2.96-1.13-6.06,0-8.99h1c.12,2.75,1.15,6.04,1,9.99Z"/>
      <path class="cls-128" d="M163.88,169.82c-.79-2.79,1.02-10.15,5-9.99.2-3.93,1.32-6.26,3.35-6.99,1.75-5.21,3.7-10.28,6.64-14.98-.87-.28-.86-.62,0-1,.27-.03,1.69-.76,2-1-3.97,13.28-6.7,23.77-16.98,33.97Z"/>
      <path class="cls-113" d="M121.92,17.97c-1.68.87-3.35-.32-5.02-3.59-1.56,2.98-3.87,5.69-6.96,8.13l-5.01,9.45c-1.71,2.69-1.69,7.3-5,8.99,1.83-5.19,3.79-12.19,5.99-16.98,1.25-2.72,5.95-8.25,6.37-9.25,1.01-2.44-.83-5.8,1.64-8.73.88-.63,8.52,9.8,7.98,11.99Z"/>
      <path class="cls-215" d="M61.98,91.9c4.5,3.47,7.56,7.55,10.99,11.99,1.34,1.74,3.7,5.02,5,6.99v1c-9.2-7.01-9.32-14.41-20.11-20.4-2.54-1.41-3.31-2.17-4.82-3.08-2.1-1.28-2.74,3.6-3.05-3.49,3.06,2.14,9.15,4.81,11.99,6.99Z"/>
      <path class="cls-102" d="M140.9,158.83c.61.3.6.63,0,1,.59,1.03-.83,1.88-2,2-.55,1.09-1.22,1.75-2,2-13.57,13.9,4.67,13.06,13.83,8.75l2.15,1.24c.33-.5.66-.49,1,0,.87.28.86.62,0,1-2,.89-4.65,2.47-5.99,3-3.99,1.57-6.55,3.05-10.99,4-1.58-.2-9.6-.69-9.99-1.01-.49-.41,2.21-4.19,0-4.99,2.22-6.43,3.53-9.15,8.99-13.99-1.37-2.93,2.87-5.28,5-3Z"/>
      <path class="cls-168" d="M137.9,130.86l.64,1.02c-5.74,9.36-9.62,20-11.63,31.94-.76,1.25-.46,4.45-2.99,4.99-1.07-8.43,1.92-15.8,2.99-23.98.3-.87.77-1.42,1-2,3.88-6.91,7.44-12.39,12.99-17.98,2.95,1.55.1,6.74-3,5.99Z"/>
      <path class="cls-137" d="M155.88,249.74c2.1-2.55,3.43-2.55,4,0,1.4.91,1.96,2.47,1.69,4.68,1.73-.97,3.16-.87,4.3.32v1c-3.34,1.89-5.54,5.8-8.49,7.99-7.47,5.53-24.65,11.09-33.46,7,1.79.12,3.62.06,5.41-.05l10.57-2.94c.33-.86.67-.86,1,0,2.34-.45,4-1.93,5.99-3,1.76-.94,1.62-.96,3-2,1.03-.77,3.45-1.01,3.83-2.59.48-1.99-2.72-6.87-2.83-9.4,1.09-.07,2.92-.87,5-1Z"/>
      <path class="cls-170" d="M175.86,240.75c-2.46,4.26-6.01,11.06-9.99,13.99-.65.48-3.98,2.08-4.99,1.57-2.02-.45-1.51-5.74-1-6.56.63-2.32-2.6-3.94-4.81-4.86l-.19-1.14c6.01.27,12.15-.79,17.98,1-.06-3.5-.88-4.54,3-4Z"/>
      <path class="cls-183" d="M168.87,147.84c2.13,3.38,2.13,7.38,0,11.99-1.86,3.22-4.29,6.51-5,9.99-1.7,1.69-1.73,1.84-4,3s-4.48,1.32-5.99,2v-1l.08-.71c4.13-3.01,7.1-6.44,8.91-10.28,2.23-5.05,2.79-6.84-.25-11.97l1.25-2.02c-.15-1.7,4.15-2.47,5-1Z"/>
      <path class="cls-215" d="M31.01,68.92c3.19-.28,4.19.39,3,2,1.33.56,2.33.56,3,0,1.11,1.62,5.22,3.74,6.99,5-7.19-1.27,1.76,6.11,3,6.99-4.36-.1-6.62-4.23-9.42-6.61-.51-.43-1.7-.28-2.18-.7-.83-.71-3.72-6.22-5.37-4.67-2.04,1.91,3.92,2.01,1.99,3.98-.31.32-4.7.11-5.04,1.66-1.28,5.76-.23,19.79.05,26.32-.28.87-.62.86-1,0-1.36-11.23-2.42-23.86-1.38-35.19.12-1.36,6-.77,6.38,1.22Z"/>
      <path class="cls-104" d="M35.71,69.64c.08,1.16-.25,1.84-1.71,1.29,1,.66,2.81,4.78,3,0-.1-.15-.17-.36-.24-.59-.4-.18-.75-.42-1.05-.69Z"/>
      <path class="cls-98" d="M63.4,201.75c-.53-.63-.89-1.4-1.06-2.22-.34-.46-.67-.92-.98-1.37-3.05-4.4-6.93-7.99-10.75-11.67.97,2.02,2.55,3.9,4.6,6.09,2.58,4.47,4.85,8.06,8.77,11.22.22.14.46.26.7.38-.04-.06-.07-.13-.11-.19-.58-.62-.97-1.4-1.17-2.23Z"/>
      <path class="cls-166" d="M64.03,218.17c-.18-1.44-1.03-2.23-1.06-2.39-1.38,1.7-1.71,4.36-1,7.99-1.48,1.77-1.45,5.21,0,6.99.3,3.28.3,6.61,0,9.99l-1.67,2.26c-.44,5.16-1.71,9.93-3.81,14.33-1.61-1.67-3.12-1.87-4.51-.61-2.61-4.23-5.23,2.68-3.94,5.13-2.75-.82-4.77-.53-6.05.87-4.55-.85-4.37.81-2.24,1.98.11.03.22.07.34.12.2.06.4.14.59.22.28.07.55.16.81.29.14.05.29.11.43.17.65.14,1.34.23,2.07.22,0,.23.03.44.06.63.02,0,.04.02.07.03.16.05.32.11.48.18.44.04.86.14,1.27.29.04-.04.09-.08.13-.13.84.51,1.5.51,2,0,3.04-1.55,4.62-2.06,4-6,3.37-.38,2.4,5.17,6.98,4.01,1.97-15.27,7.04-30.95,5.06-46.56Z"/>
      <path class="cls-37" d="M63.98,203.79c-1.75-2.73-3.24-5.69-4.86-8.54-3.02-3.64-6.53-6.8-9.92-10.13-.32-.31-.67-.67-1.04-1.05-.71.31-1.16.83-1.17,1.74-1.73,2.39,3.37,8.28,5.99,6.99,1.16,5.26,4.61,10.11,7.99,13.99-.3-2.02-.5-4-.99-5.99.18-.22,3.18,2.47,3.99,3Z"/>
      <path class="cls-37" d="M47.68,157.05c.08.02.16.03.23.06.42.13.95.36,1.34.56.06.03.11.06.17.1.45.29.89.65,1.3,1,.12.11.24.22.35.34.06.06.1.13.16.2.77-2.21-1.33-4.45-3.24-2.46h-1s.06.08.09.11c.2.03.4.06.59.1Z"/>
      <path class="cls-18" d="M60.98,206.79c.46,3.14,1.54,6.17,2,8.99l-1,7.99c-1.76-.07-1.59-3.41-1-5-.95-4.58-2.21-9.29-3.78-14.14-2.84-2.46-9.91-10.57-4.22-11.83,3.26,4.5,5.77,8.92,7.99,13.99Z"/>
      <path class="cls-28" d="M43.73,266.23c.14.05.29.1.43.17.15.05.29.1.44.17.72.07,1.4.28,2.04.65.02.02.05.04.07.06.36.16.68.36.97.59.3.19.57.41.81.65.25.15.47.32.68.51.22.09.43.19.63.31.45.12.87.25,1.2.38v-1l-4.99-2c-.68-.34-1.31-.62-2-1-1.57-.57-2.73-.81-3.56-.78.07.03.13.06.2.09.3.07.59.16.86.3.16.06.32.12.48.19.32.09.64.22.94.4.28.07.55.17.81.3Z"/>
      <path class="cls-44" d="M47.99,266.73c-.58-.13-1.36.09-2,0,.34.17.66.42.99.69.23.12.44.27.64.42.29.17.55.37.78.6.69.37,1.51.57,2.58.3-.63-.96-1.91-1.75-3-2Z"/>
      <path class="cls-208" d="M121.92,17.97c2.03,3.08,3.59,6.57,5,9.99,2.11,2.51,2.78,4.51,2,5.99-4.02-.83-7.57-4.96-8.99-8.99-1.36.32-3.1-.71-5.21-3.08-2.01,2.32-3.93,3.68-5.78,4.08-1.33,2.28-3.23,4.79-4,5.99.05-2.94,1.68-5.87,3.2-8.29,3.03-4.81,6.81-6.08,6.8-12.69,1.78-1.26,6.09,5.63,6.98,6.99Z"/>
      <path class="cls-52" d="M142.9,72.92c-1.87,1.72-.67,4.88-1.23,7.27-.48,2.07-2.04,4.06-2.54,6.45-1.84,8.91.84,11.12-6.98,18.28-3.78,3.47-4.51,3.63-8.24,7.96-1.54-10.57,14.17-11.28,11.99-20.98-.88-.25-1.29-.65-1.06-1.34,2.06-5.99,3.32-10.61,4.05-16.64.29-3.19,1.29-5.86,3-7.99.28-.87.62-.86,1,0,.16,2.23.07,4.74,0,6.99Z"/>
      <path class="cls-41" d="M140.9,55.94c.62,3.42.95,6.75,1,9.99.09,3.06.12,6.42-3,7.99-.79.82-1.12.49-1-1-1.72-.46-1.62-1.29,0-2l1-5c-1.73-.67-1.6-4.31-1-5.99-.94-.63-1.48-1.65-1.64-3.05.06-7.89-2.03-13.91-6.35-19.93-1.16-1.2-1.5-2.2-1-3-.8-1.93-1.34-4.4-2-5.99,7.42,7.34,11.25,18.06,13.99,27.97Z"/>
      <path class="cls-23" d="M142.9,65.93h-1c-.09-2.83-1.87-6.62-1-9.99.99,3.57,1.73,6.22,2,9.99Z"/>
      <path class="cls-124" d="M138.9,73.92c.67,4.26-1.58,13.65-3,17.98-.33,1-1.94,5.66-2.19,5.85-.74.57-2.31-.08-2.81.14.09-.64-.14-1.43,0-2l-1-1.33c4.04-5.83,6.37-12.04,6.99-18.65-2-.54-.86-3.21,1-3,.48.12.93.53,1,1Z"/>
      <path class="cls-132" d="M116.92,63.93c1.21,1.11,1.87,3.11,2,5.99.37.98.37,2.31,0,4,2.64.37,2.49,1.13,0,2,.83,5.01.83,9.68,0,13.99l-.65,7.74c2.28,1,1.63,6.35-1.35,6.25-4.44-3.27-2.07-3.42-3-6.99-3.11-1.46-3.77-2.79-2-4-2.83-.96-2.84-3.45-.03-7.46.03-5.68.38-11.19,1.03-16.52-.76-.78-.78-2.23,0-3,.7-3.65,1.91-6.62,4-2Z"/>
      <path class="cls-16" d="M130.91,95.9c-7.35,1.67-5.24,14.43-13.99,7.99,1.14-4.52.19-10.14,2-13.99,1.91,1.02,2.57,2.89,1.99,5.63,2.7-1.2,5.37-2.07,8-2.63,2.03-5.56,4.18-11.06,6.47-16.51l1.53-.47c2.46,7.83-4.65,14.35-5.99,19.98Z"/>
      <path class="cls-118" d="M97.94,80.91l2.29,1.27c.9,6.99,3.44,8.54,10.36,8.67l1.33,2.05c.01.22,1.64,2.59,2,4-2.53-1.04-5.54-.67-8.04-1.46-1.98-.62-2.86-2.9-4.94-2.55l-.99,3-4.01-16.98c.28-.87.62-.86,1,0,2.03-.56,2.45.43,1,2Z"/>
      <path class="cls-111" d="M96.94,76.92c1.67,1.42,1.67,2.08,0,2h-2c-.04-1,0-2,0-3-.69-1.91-1.01-4.14,0-5.99,1.98,1.1,4.7,5.75,2,6.99Z"/>
      <path class="cls-175" d="M104.93,35.96c2.78-4.37,8.69-10.42,8.99-2,1.6,2.03,2.34,10.67,1.86,13.46-.35,2.01-.5,2.54-2.86,2.52,1.64.61,1.72,1.43,0,2l-1,7.99c.64,2.66.76,5.36,0,7.99l-.88,9.16c.62,5.79-12.95,3.7-14.11-.17-.45-2.29-.28-5.15-2-6.99-.69-.21-.65-.55,0-1,.16-3.29-.07-9.03,1-11.99.1-.28.72-.65,1-1q1.87.63,0,0c.15-2.91,6.43-16.63,7.99-19.98Z"/>
      <path class="cls-118" d="M94.94,69.92c-.08,1.98-.01,4.01,0,5.99-1.74-1.36-.97-4.8-1-6.99h1c-.02.33.01.67,0,1Z"/>
      <path class="cls-140" d="M148.89,231.76c3.67-1.35,6.96-1.31,3,2-3.05,1.86-15.61,9.36-5.39,9.95,2.57.15,5.36-.09,8.38.04,1.44,1.55,7.55,1.62,7.99,3.51.51,2.22-2.86,2.26-2.99,2.48-1.33.05-2.67-.08-4,0,.16-.99,2.61-2.23,1.48-2.99-4.31-2.93-14.19-1.45-19.46-2.01-.81-3.97,3.67-4.29,5.49-6.99l-3.5-1c-.11-1.69,1.22-2.69,4-3,.09-2.47,3.24-3.44,5-2Z"/>
      <path class="cls-217" d="M139.9,267.73c-5.53,1-12.38.26-17.98,1.99.36-7.67,7.42-4.45,10.39-5.18,1.72-.42,1.62-3.87,4.08-3.87,1.85,0,4.22,4.43,7.5,3.07l-3,3.99c-.32.06-.68-.06-1,0Z"/>
      <path class="cls-94" d="M154.88,212.78v1c-6.65,1.86-9.66,5.76-9.02,11.71l-.86,2.68c4.08-2.18,8.04-2.65,11.88-1.4.33-.04.67.04,1,0,.2,4.14-5.83,4.74-8.99,5-1.65.68-3.3,1.44-5,2l-6.89,3.15c-1.9.62-2.26-.48-1.1-2.15.07-.26-.01-.66,0-1,.28-.87.62-.86,1,0,1.84-2.67,2.17-4.34,1-5-.75,2.6-1.16,2.63-2,0-1.97-3.54,3.53-9.75,6.99-7l-2.98-2.49c1.67-.63,3.92-2.9,4.99-3.5,4.14-2.31,6.31-1.91,9.99-3Z"/>
      <path class="cls-125" d="M143.9,233.76c-1.78.57-2.8,2.07-4,3-.54.42-1.51.58-2,1l-3.99.99c-.76-1.89,1.74-3.12,1.99-3.99,1.03,2.59,3.41-.36,4.8-.74,1.23-.34,2.63-.07,3.19-.26Z"/>
      <path class="cls-162" d="M135.9,228.76c.59-.15,1.53.18,2,0,1.26.62.93,2.29-1,5h-1c.07-2.54-.57-4.97-3-3,.17-.23-.34-1.52.09-1.9.54-.48,2.15.09,2.91-.1Z"/>
      <path class="cls-91" d="M76.96,132.86c1.81,3.64,2.17,7.68,1.08,12.1l1.92,1.88c.06,2.65.05,5.34,0,7.99-.81,1.88-2.15,1.55-4-1-.28.87-.62.86-1,0-2.47-.65-3.88-3.65-3-5.99l-1.35-2.04c3.21-9.06,4.35-20.97-3.51-27.97-1.64,2.96-3.68,4.3-6.13,4.03-2.59,2.85-5.32-1.33-2-3-4.37-1.79-1.63-8.08,3-7.99,3.15-4.45,1.02-9.4-6.39-14.85l.4-1.14c1.97.06,2.76,1.34,4.01,2.47,8.79,7.94,16.43,23.82,16.97,35.49Z"/>
      <path class="cls-47" d="M55.98,94.9c1.24,1.2,8.67,9.08,8.85,9.71.96,3.5-1.26,4.39-2.85,6.27-4.28,3.56-11.84.6-11.99-5,.28-.87.62-.86,1,0,1.73,1.02,8.65,2.34,9.73,1.76.9-.48-2.97-8.72-4.73-9.76-6.17-1.68-12.58-7.1-14.99-12.99-1.33,1.49-2.06,1.6-3.58.51l-4.87,1.25c-1.1,6.23-2.28,12.3-3.54,18.22-.28.87-.62.86-1,0-.22-8.99-.66-18.26,2.08-26.9,3.92-2.7,22.41,13.54,25.89,16.91Z"/>
      <path class="cls-182" d="M29.01,107.88c6.08-2.04,7.89-1.17,9.27,5.1.64-1.15,1.13-1.96,2.72-2.11,2.22-1.81,3.69-.92,3,2,4.52,1.59,3.7,8.85-.52,10.38-2.64.95-12.73-5.88-14.46-8.38-1.59-1.11-1.65-4.17-1-5.99-.06-1.33.03-2.67,0-4h1c.61.65.61,1.65,0,3Z"/>
      <path class="cls-184" d="M76.96,132.86c4.76,3.01,2.87,8.63,3,13.99l-4.99.99c2.01-4.67,2.23-9.83,1.99-14.98Z"/>
      <path class="cls-82" d="M27.01,108.88c.76,3.18,1.42,6.51,2,9.99,3.71,1.36,11.93,5.53,7.13,9.68.31,3.52,1.16,6.9,2.57,10.12l-.71,1.18c2.02,3.37,2.36,5.7,1,6.99-4.03-4.33-8.6-14.17-10.77-20.35-2.28-6.51-2.48-16.96-2.22-23.6h1c.08,1.99-.11,4.01,0,5.99Z"/>
      <path class="cls-215" d="M29.01,114.88c1.74,1.34,1.74,2.01,0,2,1.41,1.36,1.41,2.03,0,2-2.17-3.46-1.78-6.23-2-9.99h1c.12,2.69.64,3.83,1,5.99Z"/>
      <path class="cls-219" d="M69.97,162.83l-2.23-.96c-2.94,3.91-7.26-1.67-8.25-4.97l-5.9-2.81c-1.43-2.77-2.29-4-5.6-4.25.17-1.05-.13-1.43-1-1-1.47-1.37-2.8-2.04-4-2-1.76-1.15-2.1-1.36-2,1-.64.37-.66.71,0,1,1.62.29,2.62,1.29,3,3-.15,1.9,2.36,3.93,4,5,.1.1.26.27.45.46.29.12.57.24.81.36.06.03.11.06.17.1.45.29.89.65,1.3,1,.12.11.24.22.35.34.52.52.88,1.13,1.12,1.79.69.06,1.36.27,1.93.71,1.84,1.41,3.42,3.06,5.11,4.6.93.14,1.86.05,2.74-.38,1.32.67,2.96.76,4,2,.33-.02.67,0,1,0,6.79.14,3.69,1.04,5,2,.33.24,2.17-.18,3,0-.31-3.34-3.18-4.89-4.99-6.99Z"/>
      <path class="cls-172" d="M59.98,145.85c.82-2.71,3.15-1.71,6.99,3,2.89-.19,3.39,2.08,3.39,4.6,1.99-1.01,3.52-.88,4.6.39h1l1.65,1.48c-1.04,3.45-.39,4.57,2.34,6.52-.03.66.05,1.33,0,1.99-4.32.65-5.91-3.26-9.99-1-5.25-.71-11.56-10.95-9.99-15.98v-1Z"/>
      <path class="cls-184" d="M79.96,154.84c-.05,2.32.1,4.67,0,6.99-5.49,1.44-5.26-4.03-4-7.99.38-1.18.29-2.82,1.99-3,.02,1.64.17,3.58,2.01,4Z"/>
      <path class="cls-7" d="M60.28,167.14c.36.31.69.54,1,.73.67-.15.98-.64.69-2.05-1.84-.94-4.71-2.33-7.2-3.68,1.92,1.59,3.6,3.38,5.51,4.99Z"/>
      <path class="cls-66" d="M160.88,112.88c.87.28.86.62,0,1-.17,2.72-2.43,4.53-6.78,5.41-5.05,2.89-17.91,17.38-7.2,18.57.45-3.02,2.13-3.35,4-1,.4.31.39.64,0,1,.28.95-.06,1.29-1,1-2.45,1.76-4.78,3.76-6.99,5.99-1.73,1.98-8.19-1.12-3.27-1.75.48-.41,2.22-12.54-1.41-10.88l-.32-1.36c1.14-1.7,2.46-4,3-5.99,6.36-6.41,11.76-8.47,19.98-11.99Z"/>
      <path class="cls-79" d="M167.87,109.88c3.53-.54,4.84,3.24,4,5.99,1.99,1.78-3.39,3.51-5,3,.3-3.33-1.06-4.49-4.08-3.48l-1.91-1.51v-1c.59-.25,1.12-.67,2-1l4-2c.26-.09.65.05,1,0Z"/>
      <path class="cls-40" d="M166.87,109.88c-.37.13-2.02,1.26-4,2l4-2Z"/>
      <path class="cls-148" d="M185.85,102.89c.43-.24,1.85-1.21,1.99-1l.02,3.49-1.49.49-.51-.99c.16-.52-.11-1.37,0-2Z"/>
      <path class="cls-109" d="M142.9,145.85c1.49.44,2.82,1.1,4,2,.97.99-.55,1.75-.47,1.68,3.71-3.67,7.22-1.52,3.47,1.32-1.01,1.73-2.67,3.4-5,5-.19,1.45-1.52,2.45-4,3-1.52,1.04-2.89,1.13-5,3l-3.99,1c-.59-2.37.48-4.04.99-5.99.15-5.24,2.13-7.74,6.99-7.99-1.33-.23-1.43-1.67,0-2,.07-1.51,1.81-1.64,3-1Z"/>
      <path class="cls-95" d="M137.9,130.86c6.6.35.34,12.25,2,13.99.93-.14,2.2.21,2.99,0,.86.25.83.58,0,1l-3,1c-1.87-1.51-2.43-5.28-2.22-7.99-1.1,2.68-2.36,5.35-3.78,7.99,2.45,1.91,1.66,4.78-1,5.99-1.11,4.62-3.77,7.36-5.99,10.99-.78-11.2,3.45-21.72,9.03-31.2.52-.88,1.63-1.27,1.96-1.77Z"/>
      <path class="cls-21" d="M133.91,146.85c1.94-7.59,3.94-6.93,5.99,2-.43,1.31-4.16,4.91-5.99,2.99.8,2.18-.65,3.67-1,5,.04-1.33-.06-2.67,0-4,.1-2.05.29-4.06,1-5.99Z"/>
      <path class="cls-136" d="M177.86,226.77l-7.01,11.98c-1.92.29-.56-2.14-1.02-3.01-.39-.74-10.44,3.01-11.85,3.61-2.96,1.26-2.86,3.51-8.1,1.4-.15-.16.73-3.92.98-4.33.85-1.42,4.09.65,3.02-3.66-.5-2.8,5.41-4.94,7.99-5l4.99.49-1.99,3.5c4.83,1.75,9.62-8.34,12.98-4.99Z"/>
      <path class="cls-123" d="M161.88,226.77v1c-1.78,2.39-5.27,3.42-7.99,5-.64.37-1.37.61-2,1,.47-2.67-.63-2.04-3-2,2.68-1.11,6.41-3.43,8.99-5,1.24-.17,2.89.25,4,0Z"/>
      <path class="cls-188" d="M155.88,213.78c7.39-2.11,15.32-5.02,22.98-2.99-1.61,7.34-9.82,10.65-15.99,12.98-1.9,1.25-14.61.46-15.06-.14-1.36-1.79,3.58-7.45,6.07-7.85-.31-.81.36-1.48,2-2Z"/>
      <path class="cls-25" d="M154.88,213.78c.31-.09.69.09,1,0-.3,1.12-1.36,1.4-2,2-8.19,4.59-8.21,8.97,2.35,8.73l.65,1.26v1c-1.68.19-3.52-.36-5.27.2-.87.28-7.75,6.07-8.54,1.33-.11-.64,3.51-11.91,4.01-12.33.31-.26,6.43-1.78,7.8-2.19Z"/>
      <path class="cls-1" d="M153.89,215.78c-2.27,2.11-4.35,3.74-4.99,6.98l13.99,1.01c-2.18.82-1.83,2.08-5.99,2-3.03-.06-6.15-1.73-9.98,0-.98-5.42,1.63-9.05,6.99-9.99Z"/>
      <path class="cls-27" d="M160.88,134.86c-1.38,1.64-2.23,4.02-3,5-1.25,1.94-1.25,2.94,0,3,11.62-4.77,18.84,1.88,1.65,4.09-1.9.56-4.26,1.49-5.65,2.9-.28.88-.61.86-1,0-1.07,1.45-2.06,1.78-3,1-.16-5.45-2.79,1.79-4.99,0-1.63-1.33,1.62-2.54,1.99-2.99l.07-3.11c1.5-2.42,9.76-9.97,12.92-9.88h1Z"/>
      <path class="cls-121" d="M178.86,136.86v1c-1.01,2.17-6.71,14.33-9.35,11.32-.31-.36-.5-.83-.64-1.33-1.22.3-3.75.81-5,1-.55,3.15-4.64,2.65-5.99,0l-.11-1.23c8.7-1.69,21.14-5.76,3.11-6.77,1.72-2.07,5.1-.43,7.37-1.16,1.29-.42,1.39-2.25,2.33-2.89,2.65-1.79,5.44.34,8.29.05Z"/>
      <path class="cls-69" d="M171.87,115.88c3.03-.76,6.08-.48,5,3-3.73,1.63-5.85,5.66-8.99,7.99l-1.13-.72c1.31-3-2.67-1.35-4.87.72h-1c.05-2.42,2.28-9.86,5.99-7.99.23-.18,4.71-2.93,5-3Z"/>
      <path class="cls-134" d="M161.88,126.87c2.83-2.93,6.29-7.84,10.48-8.01l-4.48,8.01c-1.68,3.4-4.7,5.27-6.99,7.99h-1l-.68-2.3c3.2-2.86,4.1-4.76,2.68-5.69Z"/>
      <path class="cls-31" d="M160.88,140.85c3.15.12,6.33-.08,9.48,0,1.83,7.46-8.98,4.23-12.48,8-.01,2.15-2.49,2.22-4,1-.71-2.28,3.62-3.09,5-3.49,2.07-.59,8.74-1.22,9.98-2.52,1.36-1.44-.11-1.84-1.5-2.01-2.36-.28-6.98.53-9.49,1.02-1.91-1.42.07-2.04,2-2,.33.03.67-.01,1,0Z"/>
      <path class="cls-121" d="M159.88,140.85l-2,2c-1.46.29-4.18,2.66-3.02-1.5.27-.96,2.58-.94,3.02-1.5.31.98,1.14.91,2,1Z"/>
      <path class="cls-26" d="M183.86,115.88c-1.46-3.19-2.49-5.49,0-8.99v8.99Z"/>
      <path class="cls-193" d="M178.86,137.85c-1.35,4.34-3.31,13.56-5.49,17.07-.64,1.03-2.38-.16-2.44-.06-.51.9-.63,2.5-2.05,4.97.77-4.03-1.38-8.51,0-11.99.47-.11,1.23.29,1.76-.21l8.23-9.78Z"/>
      <path class="cls-139" d="M159.88,154.84c.34-1.57,2.47-2.76,3.67-1.81,4.33,3.39-1.46,10.21-4.67,12.8-.27,3.06-2.27,5.73-5.99,7.99-6.09,2.71-9.44,3.84-16.5,3.02-9.37-1.1-5.44-9.93.52-13.01-3.93,9.2-2.35,10.14,6.19,6.16,5.26-2.45,17.24-9.87,9.79-14.15-.5-3.52,5.35-3.31,6.99-1Z"/>
      <path class="cls-101" d="M163.88,148.84c2.9,5.9,3.28,8.9-1,13.99-.4,2.86-1.27,5.43-4,3,2.04-3.83,6.06-6.08,5-10.99-1.33-.04-2.67.03-4,0-1.81-1.32-3.97-1.73-6.49-1.22l-1.51-1.77c-1.28-.3-.95-.96,1-2,.3-.08.67.07,1,0,1.33-.29,2.94-.81,4-1,1.79-.31,4.16.28,5.99,0Z"/>
      <path class="cls-205" d="M162.88,162.83c1.1,7.58-1.06,5.29-5.39,8.14-1.74,1.15-.48,1.71-3.6,2.85-.3.11-.73-.12-1,0,1.78-2.81,3.69-5.58,5.99-7.99.4-.42,2.32-1.01,4-3Z"/>
      <path class="cls-152" d="M30.01,66.93c.5.56,1.75.87,2,2h-1c-2.08-.93-3.68-1.28-5.99-1-.24,11.66.26,23.35,1,34.97,1.13,17.66,1.98,18.19,8.77,33.69,1.68,3.83.48,7.06,4.22,10.27,1.47-1.2,1.97-.66,1,1,.76.39,1.07,1.72,0,2-3.12-3.5-3.62-3.23-5.99-7.99-7.08-7.65-8.32-14.73-9.09-25.05-1.16-15.74-2.08-32.7-1.6-48.43.16-5.21,3.88-4.87,6.69-1.44Z"/>
      <path class="cls-96" d="M35.58,262.72c.06.09.1.18.13.28.82.06,1.53.3,2.12.65.1.04.2.09.29.13.04.02.08.05.12.07.01,0,.02.01.03.02,1.25-1.21,0-2.37-2.26-3.15-.93-3.33-3.93-5.32-8.99-5.99l.05-1.67c-7.86-4.04-11.38-11.9-14.5-19.65l-1.53-.65c-.93-3.21-1.78-6.43-2.53-9.66l-1.46-.33c-1.3-2.05-1.67-4.82-1.98-7.27-1.7-13.56-1.37-22.19-.76-35.49.1-2.18.43-10.83,0-11.76-.25-.55-.73-1-1.26-1.42-.38-.86-.72-.87-1,0-.07,1.99.04,4,0,5.99C-.23,196.35.02,219.6,11.03,240.75c2.82,4.32,7.55,10.84,11.49,13.99,2.17,1.74,12.41,6.94,13.06,7.98Z"/>
      <path class="cls-200" d="M24.02,68.43c.49-3.62,3.38-2.36,5.99-1.5-.32-.35-.73-1.01-1.19-1.74-.65-.55-1.11-1.26-1.39-2.05-.67-.86-1.34-1.44-1.9-1.2-1.06.75-1.51,1.85-2,3-3.1,7.2.03,27.65.53,36.41.78,13.67-2.55,31.09,9.95,40.5-2.48-4.98-5.34-9.37-7.71-14.77-1.28-19.51-2.74-39.04-2.28-58.65Z"/>
      <path class="cls-75" d="M11.03,240.75C1.48,226.11.34,210.54,0,193.26l2.04-20.44c-.28,13.36-.88,29.26,1.14,42.31,1.5,9.67,5.88,16.27,7.85,25.62Z"/>
      <path class="cls-75" d="M2.04,166.83c.21-6.04.99-11.94,1-17.98l3.55.93,9.43,10.05c-.46.48-1.13.48-2,0l-1.18.59c-6.34-4.3-8.3-1.27-8.45,5.78l-1.36.62h-1Z"/>
      <path class="cls-160" d="M41.64,175.71c-1.35-1.45-2.7-2.74-3.68-3.34-2.67-1.64-5.12-1.11-5.95-1.54-.37.63-.04,1.29,1,2-.68,1.9,1.23,2.91,3,3-.27,2.6.09,4.13,3,3,1.63,4.9,4.3,7.23,7.99,6.99,2.08.21,2.03.05,1.98-.91-2.03-2.01-5.13-5.45-7.34-9.19Z"/>
      <path class="cls-198" d="M16.02,159.83c4.65,1.13,11.55,8.68,15.98,10.99.38.61.58,1.43,1,2-3.53,1.07-7.72-3.01-9.99-5.99-2.78-2.25-5.76-4.19-8.94-5.8l-.05-1.19c.64.09,1.43-.14,2,0Z"/>
      <path class="cls-82" d="M41,148.84c2.03.18,2.49,1.2,3,3,.55,1.19,2.95,3.91,4,5h-1c-1.84-2.14-4.74-4.46-6.99-6.99v-2c.24-.84.57-.81,1,0v1Z"/>
      <path class="cls-150" d="M61.98,223.77c.1,2.31.01,4.68,0,6.99.27,3.3.27,6.63,0,9.99-1.18,6.64-2.67,13.36-4,19.98l-5.99-3.99c-.89-.24-.86-.58,0-1-.06-2.2.88-2.99,3-2,3.07-8.36,4.22-19.07,3.81-28.38l1.19-1.59c-.89-1.68-1.16-4.94,1-5,.19,1.69.98,4.54,1,5Z"/>
      <path class="cls-80" d="M51.99,255.74c.12.24-.08.67,0,1-6.46.57-.06,6.14-1,6.99-3.65.43-5.82-.01-8.99-.99-3.21,1.04-4.55.38-4-2,.28-2.22,2.86-3.41,7.75-3.59-.57-2.26-.15-3.73,1.24-4.4.4-1.55,1.07-2.55,2-3,.28-.87.62-.86,1,0,.43,2,.75,3.24,2.86,3.85l-.86,2.15Z"/>
      <path class="cls-44" d="M37.86,263.67c.09.04.19.08.26.12.04.02.08.05.12.07.09.06.18.13.27.2.22.13.4.3.59.46.09.04.19.07.3.12.26.04.46.11.7.2.2.06.4.14.59.22.28.07.55.16.81.29.13.05.25.11.38.17.2.05.39.11.58.19.52-.02,1.04-.02,1.53.03-2.31-1.28-7.67-1.97-2-3-1.14-.35-2.75-1.51-4-2-1.03-2.43-1.67-2.64-2,0,.45.75.8,1.63.96,2.52.33.11.62.25.9.42Z"/>
      <path class="cls-18" d="M61.98,240.75c-1.63-2.33-.02-6.47,0-9.99,2.2,2.42.53,6.99,0,9.99Z"/>
      <path class="cls-58" d="M39,178.81c2.61,2.42,5.52,4.4,7.99,6.99,1.86,1.95,4.44,4.84,5.99,6.99-1.6,6.63,4.24,9.08,6.3,14.18,1.5,3.69,1.26,7.93,1.69,11.8-1.53.8-1.06,3.42-1,5l-1.48.28c-.1-7.6-1.61-14.35-4.51-20.26-1.29-1.14-2.29-2.81-3-5-.93.28-1.26-.06-1-1-3.19,1.28-4.08-.69-4-4-.74.99-1.08.65-1-1-1.1,1.05-1.76.39-2-2-1.09.16-1.76-.84-2-3-1.16-.17-1.47-.96-1-2-1.59-2.01-3.44-5.89-1-6.99Z"/>
      <path class="cls-220" d="M119.92,24.97c1.8,2.46,2.13,4.12,1,5-.47,2.62-1.01,2.47-2,0-1.81.44-3.14,1.77-4,4-.28.93-.61.92-1,0-.74-.29-.63-2.56-3.41-2.04-2.53.47-3.43,3.04-5.58,4.04,1.56-3.34,4.13-6.09,4-9.99,1.25-2.15,2.65-5.74,5.55-6.04,3.35-.35,3.76,3.06,5.44,5.05Z"/>
      <path class="cls-9" d="M128.91,33.96c.41.98.91,1.9,1,3-3.02-.34-10.1-3.26-8.99-6.99l-1-5c2.73,3.22,5.48,6.55,8.99,8.99Z"/>
      <path class="cls-210" d="M120.92,29.96c1.32.79,7.57,5.75,8.99,6.99,6.97,6.1,7.05,14.14,7.99,22.98-.28.87-.62.86-1,0-1.41,1.53-2.03.91-1-1-2.69.48-2.83.02-1-2-3.27-.45-3.13-9.41-1-10.99-1.65-2.82-8.92-8.88-11.99-7.2-2.34,1.28-4.74,12-2.99,15.19,1.47,3.23,1.63,7.85,0,10.99,2.09-.08,2.09,1.58,0,5-.89-1.71-1.62-4.13-2-5.99-2.62-1.35-3.47-2.97-1-5l-1.39-.48c.41-3.42-.13-6.26-1.61-8.51.02-.57,1-1.98,1.05-3.48.13-3.8-1.79-7.97-.06-12.5.18.07.79.05,1,0,.69-3.15,2.03-4.49,4-4,.47.21,1.63-.22,2,0Z"/>
      <path class="cls-20" d="M138.9,65.93l-1,5c-.11.62.13,1.42,0,2s-.71,2-1,3c-1.73,5.95-3.83,12.47-7.99,16.98-1.67.13-1.67-.54,0-2-.83-.45-1.46-1.08-1.8-1.96-.28-.71,5.1-12.46,6.8-13.02l-1.3-1.75c1.45-4.08,2.89-8.15,4.3-12.23-1.91-.56-1.91-1.43,0-2h1c.2,1.89.97,4.98,1,5.99Z"/>
      <path class="cls-124" d="M137.9,70.92c.06-1.6-.62-4.14,1-5,.09,2.83-.74,3.57-1,5Z"/>
      <path class="cls-2" d="M118.92,64.93c.21-1.76.57-2.18,1.06-1.26-1.91-11.03,2.62-27.88,8.58-8.45l2.61,3.55c1.95-.69,3.52-.64,4.73.17.23.44.52.81,1,1,0,.67,0,1.33,0,2-.33,4.64-1.99,6.63-5,5.99-1.39,2.08-3.1,1.2-5.13-2.65l-4.79,3.88c-.1,2.93-1.13,4.52-3.07,4.77v-8.99Z"/>
      <path class="cls-195" d="M111.93,92.9c-11.51-.37-11.39-2.53-13.99-11.99.28-.87.62-.86,1,0,4.65-.07,6.65,1.31,5.99,4.14,4.64,2.43,6.97-.61,6.99-9.13-1.06-2.13-.73-4.76,0-6.99.28-.87.62-.86,1,0-.2,6.58-1.34,18.5-1,23.98Z"/>
      <path class="cls-138" d="M131.91,67.92c2.31,1.36,1.73,3.82-1,4-.33,3.36-8.72,6.5-10.99,4-.28.87-.62.86-1,0,.08-.65-.09-1.35,0-2,.09-.7,1.13-5.5,1.26-5.76.17-.37,5.85-5.04,6.42-5.11,2.2-.28,2.83,4.27,5.31,4.88Z"/>
      <path class="cls-21" d="M116.91,95.9c-3.34-1.17-3.02-9.03-3.07-12.5-.02-1.83.94-3.52.99-5.09.11-3.65-.94-8.2.1-12.38,1.82.38,1.86,1.96,2.02,3.46.95,8.49-1.18,17.98-.05,26.51Z"/>
      <path class="cls-24" d="M119.92,78.91c1.41,3.54,2.66,7.13,3.77,10.78,0,0,1.74.4,5.22,1.21-.04.66.03,1.33,0,2-2.95,3.2-5.61,4.46-9.98,4.99-.12-2.65.14-5.35,0-7.99-.25-4.67-.57-9.17,0-13.99h1c1.93.91,1.93,2.08,0,3Z"/>
      <path class="cls-195" d="M115.92,58.93c.22,1.34.7,3.48,1,5-2.08-1.91-2.45.45-4,2-1.58-2.63.18-11.26,3-6.99Z"/>
      <path class="cls-35" d="M115.92,58.93c-4.15-.02-2.87,4.26-3,6.99-.05,1,.03,2,0,3h-1v-1c0-2.66-.02-5.33,0-7.99l1-7.99c.06-.66-.02-1.34,0-2,4.81.12,2.48,5.84,3,8.99Z"/>
      <path class="cls-158" d="M111.93,68.92c-.03,2.33.05,4.67,0,6.99.21,8.71-3.01,11.05-9.13,5.53l-3.86-.54h-1c-.18-.66-.85-1.36-1-2-.14-.59.12-1.39,0-2,1.78,2.03,11.79,2.82,12.88,1.89,1.42-1.21.21-9.17,2.11-10.88,0,.33,0,.67,0,1Z"/>
      <path class="cls-90" d="M96.94,55.94c1.12-1.41,4.43-2.98,5.45-5.04,1.09-2.22,3.54-15.69,7.03-14.93,5.4,11.69-.56,25.45.05,38.05-5.46.59-8.5,3.88-11.93-2.17-3.19-5.62-.16-6.47.1-10.54.1-1.61-.79-3.39-.69-5.36Z"/>
      <path class="cls-158" d="M111.93,59.93c.02-2.5-.78-6.33,1-7.99-.22,2.54.93,6.27-1,7.99Z"/>
      <path class="cls-125" d="M137.9,228.76c.49-.19.97-2.81,2.99-1.99.42.41-2.42,6.43-3.99,6.99l1-5Z"/>
      <path class="cls-5" d="M71.97,147.84c-.19.78-.63,1.8-1.26,1.77-2.93-.15-11.73-16.94-12.72-20.75-1.65-2.59-1.21-8.33,3-6.99,1.31-1.82,4.34-4.14,5.49-6.97,10.85,6.81,9.82,22.37,5.5,32.95Z"/>
      <path class="cls-73" d="M57.98,128.86c4.07,5.36,6.98,13.18,11.55,17.96.97,1.01,2.23.84,2.43,1.02,2.14,1.92,2.58,3.01,3,5.99-1.05.93-3.59,1.23-4.37,1.91-1.56,1.36.64,6.26-4.6.59,3.57-2.46,2.58-3.9.98-7.49-5.06-4.2-11.76-13.63-9.99-19.98.28-.87.62-.86,1,0Z"/>
      <path class="cls-63" d="M49.99,105.89c.28.54-.21,1.71.98,2.48,1.88,1.23,8.53,2.63,11.01,2.51-2.41,2.84-3.55,3.24-3,7.99.15,4.07-2.72,3.36-4,0l-1-2c-3.12-.66-6.99-9.31-8.08-12.74l1.09-2.25c2.61-2.85,6.39,2.07,3,4Z"/>
      <path class="cls-126" d="M58.98,118.87c.18,1.54.36,2.5,2,3-1.65,2.3-3.69,3.73-3,6.99h-1l-1.52-.63c-.06-2.83-.22-5.95-.48-9.36,1.33,1.02,2.69,1.01,4,0Z"/>
      <path class="cls-33" d="M41,84.91c5.07,4.16,10.25,8.45,14.99,12.99,7.26,7.7,6.23,12.86-5,7.99h-1c-.32-.6-.19-1.51-.94-2.55-.54-.75-1.53-.97-2.05-1.45-2.1-1.89-3.1-3.56-3-5-.38-.65-.83-1.27-1.37-1.81-3.2-3.19-9.3-9.71-1.63-10.18Z"/>
      <path class="cls-89" d="M29.01,104.89c-.16-3.12.69-17.42,1.92-19.32,1.74-2.7,7.6.24,6.08-4.66,2.23.15.94,2.51,1.26,2.8.42.37,1.83.45,2.72,1.19-4.49,3.11,2.32,8.78,3,11.99-1.2,1.21-2.53.54-4-2-1.72-.54-3.46-.7-5.2-.49-1.1,5.15-2.55,9.71-4.35,13.68l-1.44-.2c-.18-.79.05-2.05,0-3Z"/>
      <path class="cls-133" d="M55.98,97.89c10.75,10.3,9.05,15.94-5,7.99,1.92-.18,5.24,1.76,6.8.82.17-.1,1.97-3.14,1.96-3.33-.02-1.06-4.21-3.13-3.77-5.48Z"/>
      <path class="cls-114" d="M29.01,107.88c2.89-4.27,1.1-11.04,4.55-15,.76-.87,5.11-1.08,5.29-.88.1.12,1.02,2.48,1.15,2.89,2.41.8,3.19,10.2,3.18,13.16.17,1.77-.21,2.59-2.18,2.82-.21,2.07-.81,5.14-3.47,3.97-1.97-.87-2.08-5.55-2.6-5.91-1.55-1.07-5.12,2.4-5.92-1.06Z"/>
      <path class="cls-78" d="M51.99,125.87q-2.24.12,0,0c.33-.91.66-.9,1,0,2.41,1.44,2.74,2.77,1,4-1.69,2.73-4.65,1.84-8.88-2.66-6.6-.57-11.97-5.56-16.1-10.33,0-.64.1-1.41,0-2,2.31.89,11.15,6.99,12.5,7,4.07.04,4.07-6.43,2.48-9-.09-1.73.11-2.6,2-3,4.56.71,9.07,12.71,5.99,15.98Z"/>
      <path class="cls-61" d="M44,96.9c1.97,2.11,1.88,2.85,3,5-1.63.87-1.62,3.19.01,6.97l-1.01,1.02v4s-2-1-2-1c-.33-.54-2.35-1.34-3-2,.43-4.17.27-12.02-1-15.98.83-.99,3.22,1.16,4,2Z"/>
      <path class="cls-110" d="M53.99,129.86c3.44,3.49,7.38,11.01,5.99,15.98.12.28-.12.72,0,1-2.86.61-4.86-2.05-5.99-7.99l-2.64-.09c-13.94-16.43-14.51-4.82-3.87,7.81l-.49,2.28c-.31-.29-2.78-.8-4-2-2.44.05-4.1-2.28-5-6.99-1.05-1.95-3.66-9.5-4.03-11.53-.37-2.06,2.4-.83,1.95-2.83-.83-3.69-4.79-3.23-6.91-6.62v-2c3.38,2.11,7.1,5.1,10.58,6.9,2.14,1.11,4.51.74,6.37,1.63,2.1,1,4.15,4.87,8.03,4.46Z"/>
      <path class="cls-22" d="M59.98,146.85c2.73,6.12,5.66,10.96,9.99,15.98-3.19,1.77-1.4,1.43,0,3.99-2.43-.4-6.42-2.06-8.7-3.31-1.29-.71-.43-3.69-5.28-1.68l2.99-2.49c-1.16-2.2-5.77-2.84-6.73-3.81-.53-.54-2.34-3.94-4.25-5.68,1.13-1.29,2.47-2.56,4.04-3.8.27-2.81.92-5.21,1.95-7.19,2.08,2.6,3.51,5.7,5.99,7.99Z"/>
      <path class="cls-70" d="M53.99,138.85c1.94,4.76.21,11.83-5.99,10.99-.35-.32-.66-.68-1-1-3.56-2.78-14.48-20.23-5.48-20.08,4.66.08,9.78,6.72,12.48,10.09Z"/>
      <path class="cls-159" d="M43,146.85c-.3.93-1.15.97-2,1-.33.01-.77.07-1,0-.31-.1-.67-.72-1-1l-1-6.99c.56,1.04,4.24,6.24,5,6.99Z"/>
      <path class="cls-159" d="M41,148.84c4.77-.76,2.24,1.36,3,3l-3-3Z"/>
      <path class="cls-197" d="M54.98,118.87c.83,2.51,1.29,7.32,2,9.99,1.98,7.5,6.92,13.07,9.99,19.98-3.81,1.12-3.02-3.9-6.99-3-2.21-5.1-4.52-10.61-5.99-15.98-.36-1.32-.66-2.67-1-4,.42-2.3.15-4.78-.79-7.45l1.79-1.54c.18.48.66.98,1,2Z"/>
      <path class="cls-32" d="M166.87,118.87c-1.08.88-5.03,7-5.99,7.99-.91,1.65-3.08,3.92-5,4-.43-.31-.41-.64,0-1l-.54-2.24c8.48-7.57-1.06-8.25-3.98-1.8l-2.47.04c-3.43,4.79-4.1,8.79-2,11.99-.38.17-3.59,2.08-3.74,2.24-1.13,1.22-.48,3.79-2.25,3.75,1.21-5.58.54-11.87,3.58-16.89,1.98-3.28,12.79-11.74,16.39-13.08,5.02-1.86,10.52.14,5.99,5Z"/>
      <path class="cls-50" d="M159.88,134.86c-3.97,4.66-9.02,8.17-12.99,12.99l-4.99,2c-.21-1.48.65-2.64.99-4,.08-.33-.1-.73,0-1,2.36-2.33,4.69-4.33,6.99-5.99.34-.3.65-.68,1-1,3.05-4.21,6.73-8.01,10.99-10.99l3.5-1.99c.63,2.42-3.59,7.74-5.5,9.99Z"/>
      <path class="cls-88" d="M148.89,125.87c1.78.33,2.22,1.78,1.31,4.35,2.01-.39,3.91-.51,5.68-.35v1c-.4,2.38-2.99,4.53-5,5.99-1.23.43-2.86.5-4,1-8.2-2.26-.65-8.67,2-11.99Z"/>
      <path class="cls-202" d="M161.88,126.87c-3.57,3.69-6.94,7.35-10.99,10.99v-1c1.57-2,3.27-4.15,5-5.99,1.22-1.29,3.74-2.71,5-4h1Z"/>
      <path class="cls-202" d="M149.89,138.85c-.12.11.27,1.26-.2,1.76-.28.29-6.41,4.13-6.79,4.23,1.58-4.01,2.82-4.7,6.99-5.99Z"/>
      <path class="cls-64" d="M159.88,154.84c-3.36-.07-4.03,0-6.99,1,.46,1.14.37,2.02-.29,2.65-4.06-.19-8.16.04-11.69,1.35v-1c1.34-.92,2.39-2.13,4-3,2.29-2.74,4.62-4.07,6.99-4,2.46-.56,8.42-.68,7.99,3Z"/>
      <path class="cls-48" d="M133.91,146.85c.49-5,1.82-9.75,4.51-13.99,2.03-.63,1.57,1.22,1.53,2.53-.15,5.06-.66,5.93-.04,11.46.06.52.12,1.63,0,2-3.74,1.1-.63-4.69-3.5-5.99-.2,1.37-2.18,3.12-2.49,3.99Z"/>
      <path class="cls-31" d="M152.89,149.84l-1,2c-.39.09-5.62,3.25-6.99,4,1.21-1.95,2.96-3.91,5-5,1.08-.58,1.9-.69,3-1Z"/>
      <path class="cls-8" d="M152.89,155.84c1.37-.26,4.71.03,5,1.52.9,4.63-18.19,18.25-23.88,16.36-1.85-4.01.5-6.55,2.9-9.89,1.63-2.27.88-1,2-2q1.83,2.38,0,0c.65-.58.83-1.29,2-2,5.41-3.29,3.94-1.61,8.46-2.03,1.75-.16,2.51-1.62,3.53-1.96Z"/>
      <path class="cls-155" d="M14.03,159.83c3.16,1.91,6.83,3.99,8.99,6.99-.31.43-.64.42-1,0-9-3.03-13.5-4.55-13.5-4.55-1.24,5.62-1.64,11.45-1.2,17.48l-1.28,1.05c.04,1.75.01,4.69-2,5l2.13,29.14c2.22,3.17,2.5,5.78.87,7.82-1.84-1.02-1.63-2.8-1.98-4.51-2.99-14.74-2.85-36.22-2.02-51.43.16-2.95-.31-7.88,2.99-9.5,4.13-2.02,5.42.95,8,2.51Z"/>
      <path class="cls-214" d="M46.99,245.75c-.85.47-1.5.43-1.38-.21.09-.46,3.08,5.79,1.38,7.2.55,1.96,1.19,3.91,1,5.99l-9.99,2c-.5-.2-1.56.21-2,0-3.54-1.65-6-3.59-8.99-5.99.8-1.57,2.8-1.57,5.99,0l1.01-2.15c4.16.2,7.49-.75,9.98-2.85-1.8-3.69-2.47-7.02-2-9.99.37-1.16,1.37-1.5,3-1,3.35-.21,5.45,5.68,2,6.99Z"/>
      <path class="cls-189" d="M9.03,210.78l2.59,1.03c.94,9.46,2.75,18.8,5.4,27.94,3.88,6.84,9.31,11.08,16.3,12.71l-.32,2.28c-1.93.21-4.04-.15-5.99,0-7.76-6.24-13.68-12.06-15.98-21.98-2.58-8.34-4.32-16.71-5.22-25.1l1.23-.87c1.58.26,3.51,2.87,2,4Z"/>
      <path class="cls-207" d="M6.03,195.8c2.09.17,1.92,2.26,0,3l.61,4.09c1.5,1.95,1.63,3.25.39,3.91.25,2.77-.6,7.03-.02,9.3.27,1.06,2.47.98,2.92,2.32.38,1.15.31,10.99,1.1,14.36-1.63-2.88-3.21-6.79-4-9.99-2.64-10.73-3.82-25.87-3-36.96l1.55-.26c-.14,3.47,0,6.89.45,10.25Z"/>
      <path class="cls-99" d="M28.01,173.82c.47-2.13,3.14-1.46,7.99,2,1.02,1.01,1.93,2,3,3-.3,1.64,1.73,2.79,1.99,3.5.36.98-2.93-1.05-1,3.49-1.16.8-2.71-.82-2-2-2.31-2.85-4.98-5.18-7.99-6.99-1.2.73-2.75-.77-2-2-.4-.31-.39-.65,0-1Z"/>
      <path class="cls-11" d="M33.01,172.82c.99,1.35,1.92,1.93,3,3-3.53,1.26-3.71-1.49-4.73-1.97-.92-.43-2.62.23-3.26-.03-2.3-1.25-6.5-4.62-5.99-6.99h1l9.99,5.99Z"/>
      <path class="cls-209" d="M53.99,203.79c6.3,1.51,3.05,6.32,4.01,10.32.18.76,1.95.64,2.04,1.3.27,2.08-2.82,6.24-.05,8.36.32,8.35-.07,16.36-1.95,24.53-.34,1.5.35,4.8-.14,5.39-.38.45-2.41-.2-2.91.05-1.29-.68-1.29-2.35,0-5-2.23-5.93.12-11.7,3-16.98l-1.99-1.06c-.66-5.43-.66-10.74,0-15.92-.89-2.96-1.86-6-2.9-9.12l.9-.87c-.47-.28-.44-.61,0-1Z"/>
      <path class="cls-191" d="M54.98,253.74c-.42.21-1.19,2.44-3,2-.65-1.28-3.28-2.4-2-5.99,1.52.16,2.85-.17,4-1,.28-.87.62-.86,1,0-.09,1.66.06,3.34,0,5Z"/>
      <path class="cls-97" d="M49.99,234.76c3.27,3.89,5.77,9.17,4,13.99.01,4.86-1.57,4.62-4,1h-1c-2.12.61-3.54-2.57-2-4,.42-2.57-1.56-5.09-2-6.99-1.94-.55-1.92-1.44,0-2-1.1-1.49-1.44-2.82-1-4-1.02-7.31,7.13-2.33,5.99,2Z"/>
      <path class="cls-103" d="M46.99,245.75c.25.43,1.94,3.78,2,4,.27,1.07-.18,2.77,0,4l-1.99-1c-.74-2.61-3.17-5.26-1.99-8.99.37-.81,1.59,1.3,1.99,1.99Z"/>
      <path class="cls-107" d="M45.99,193.8c.72,2.37,1.84,3.07,4,4,.31.36.74.65,1,1l3,5.99c1.37,4.36,1.36,5.72,2,9.99-.28.87-.62.86-1,0l-2.09-.41c-.81-6.33-2.43-8.43-4.87-6.3l-2.03-1.28c-1.49,2.1-2,5.79-1.51,11.07l-1.23,4.43c2.62.8,2.52,1.63-.2,1.65,1.78,3.23,2.1,6.17.94,8.82.22,1.14.69,2.65,1,4-4.57.36-5.57-6.9-4-9.99-1.72-7.19-3.64-10.13-7.68-15.42-1.18-1.54-1.63-2.87-.31-4.56,2.09-2.01,4.3,1.1,5.47,3.11,3.01-5.1,4.8-10.67,5.35-16.71l1.17-.39c.3.35.7.64,1,1Z"/>
      <path class="cls-212" d="M44.99,192.8l-5,19.98c-3.64.1-3.89-4.8-6.98-5.99-1.05-1.15-1.39-2.15-1-3,3.56.67,6.42.34,8.6-1.01.32-4.29,1.12-8.28,2.39-11.98.35.45,1.32,1.2,2,2Z"/>
      <path class="cls-106" d="M43,190.8c-.93,8.66.8,18.79-10.99,12.99-.93.63-1.31.12-1-1-.15-3.07,1.85-3.07,5.99,0,1.18-4.5,2.51-8.83,4-12.99-.87-.33-.87-.66,0-1v-1c.15.25,1.88,2.85,2,3Z"/>
      <path class="cls-144" d="M49.99,197.8c-3.94-.22-.99,7.56-5.99,6.99-.99-4.35,1.28-7.07,1.99-10.98.91,1.09,2.64,2.43,4,4Z"/>
      <path class="cls-13" d="M38,183.81c.52.41.94,1.75,2,2,.28.67.63,1.37,1,2v1c-.59.5-1.41,1.15-1.99.89-1.9-.87-11.44-9.4-10-11.88.29-.83.62-.82,1,0,2.71-.02,5.38,1.98,7.99,5.99Z"/>
      <path class="cls-144" d="M53.99,203.79c.11.28-.1.69,0,1-2.31-.96-2.46-3.82-3-5.99,1.81,2.37,1.74,1.68,3,5Z"/>
      <path class="cls-9" d="M118.92,29.96c-.81,1.35-2.48,3.63-4,4,.03-1.57-.38-3.65.47-5.02,1.29-2.08,2.27.46,3.52,1.03Z"/>
      <path class="cls-153" d="M133.91,45.95c-1.69,1.82-2.59.95-3.86-.67-1.47,1.71-2.84,1.94-4.13.67-1,.7-2.71,1.28-5.13,1.74-.18,2.64-.8,4.73-1.87,6.25-1.52-2.72-1.42-8.56-1.05-11.53,1.32-10.52,13.44-5.63,16.03,3.54Z"/>
      <path class="cls-81" d="M125.91,45.95l2.24-.66c1.24,5.04,3.49,8.92,6.76,11.65.02.11.81,1.63,1,2-5.79,3.28-6.34,2.14-8.7-3.79-.6-1.49-.69-7.92-3.77-7.19-3.33.78-2.41,10.83-2.51,13.53-.07,1.92,1.02,4.01-2,3.45,0-3.65-.12-7.35,0-10.99.06-1.83-.43-6.96.12-7.86.65-1.06,5.87-.69,6.87-.13Z"/>
      <path class="cls-204" d="M133.91,45.95c1.23,4.34.45,7.27,1,10.99-7.68,1.33-5.62-9.12-8.99-10.99,1.44-.46,2.9-3.26,4.36-2.93,1.03.24,2.28,2.53,3.63,2.93Z"/>
      <path class="cls-71" d="M133.91,75.92c-2.02,4.7-4.69,9.63-5,14.99-8.34,5.88-9.01-6.01-8.99-11.99,1.97-.9,4.11.68,6.42,4.74.87-4.26,2.39-6.83,4.57-7.74.06-2.86,2.32-2.73,3,0Z"/>
      <path class="cls-15" d="M133.91,75.92h-3c-2.95-.5-2.55-2.78,0-4,.34-1.48.13-2.36,1-4,1.31-2.46,4.15-2.92,5-5.99,0,7.99-.12,7.27-3,13.99Z"/>
      <path class="cls-111" d="M111.93,75.92c-.06,2.78,1.03,11.07-1.64,11.9-2.26.7-4.95-1.4-7.34.09l-.02-6-3.99-1c1.74,1.15,3.63-.3,5.4,0,5.79,1.01,5.14,5.54,7.58-5Z"/>
      <path class="cls-146" d="M130.91,71.92c-.26,1.14.26,2.86,0,4-.58,2.52-2.38,10.2-4.51,10.98l-6.48-7.98c0-1,0-2,0-3l10.99-4Z"/>
      <path class="cls-190" d="M46.99,101.89c2.22,4.26,5.29,10.57,6.99,14.99l.99,9.99c-.26.4-1.48-.89-1.99-1-.21-.04-.97-.04-1,0,.07-5.8-3.9-11.03-5.99-15.98-1.5-3.55-3.73-6.52-2.99-10.99,1.29.87,2.85,1.96,3.99,3Z"/>
      <path class="cls-117" d="M51.99,125.87c-.18.25.6,2.98-1.49,1.99-1.92-.92-3.53-5.13-.02-5l1.51,3.01Z"/>
      <path class="cls-83" d="M51.98,141.85c-2.1,2.11-8.29-7.25-8.99-8.98,3.85-2.07,10.75,7.2,8.99,8.98Z"/>
      <path class="cls-181" d="M155.88,129.86c-3.17,2.81-3.64,2.76-8,1.99l1.01-5.99c2.34-2.93,2.12-5.81,7.51-6.06,8.57-.4,2.98,6.96-.52,10.06Z"/>
      <path class="cls-129" d="M138.9,161.83c2.41.98,2.97-1.58,3.8-1.91,1.62-.64,10.88-1.31,11.18.42.56,3.23-14.7,11.44-18.46,10.49l3.48-9.01Z"/>
      <path class="cls-68" d="M22.02,166.83c.36.3,5.29,6.72,5.99,6.99v1l-1.05.31c-4.35-4.41-9.16-7.8-14.43-10.15-1.09,1.98-1.96.95-2.5-1.15-.42,2.56-.75,4.89-1,6.99,1.43,9.36,2.05,18.82,1.84,28.37l-1.84,2.6c2.71.7,2.54,1.99,0,3-1.48,1.71-2.48-.29-3-5.99-.09-.98.1-2.02,0-3-.7-4.8-.59-10.31,0-14.99-.13-7.13-.93-13.78,1.01-20.98,5.29,1.18,10.82,3.53,14.98,6.99Z"/>
      <path class="cls-65" d="M6.03,195.8c-.02-.18-.91-1.12-1.04-2.41-.25-2.43,1.01-5.99-.95-7.58.15-1.97.13-3.83,2-5,0,.13,1.01,1.08,1.07,2.46.16,3.72-1.67,8.56-1.07,12.52Z"/>
      <path class="cls-176" d="M18.02,239.75c4.11,2.56,7.96,5.6,11.54,9.1.58.27,10.83-.69,12.44-1.11-.87-.28-.86-.62,0-1,1.1.19,1.77,1.19,2,3,.11,1.55.23,2.59,1,3.99-4.22-.7-8.08.58-11.99,1.01-3.24-2.77-6.24-2.32-10.05-5.47-3.77-3.11-4.27-5.93-5.94-9.52.28-.87.62-.86,1,0Z"/>
      <path class="cls-103" d="M44.99,236.76c.14.6-.14,1.41,0,2v3s-3-2-3-2c-2.2-2.52-4.25-7.68-5-10.99.9-3.44,3.23-.43,2.3-.28-1.43.23-1.06-1.29.7-1.72.28-.87.62-.86,1,0,.57,3.57,1.41,7.13,4,9.99Z"/>
      <path class="cls-223" d="M27.01,219.77c4.14-.63,6.77,3.36,8.99,6.99,2.01-.28,2.44.56,1,2,1.39,3.6,3.63,6.86,5,10.99,1.52,4.61,1.63,4.98,2,9.99-.59-1.01-1.48-1.96-2-3-3.1-1.89-4.55-5.32-4.34-10.29-2.66-5.86-8.09-11.11-12.82-15.59l.17-1.09c-.41-1.55.26-1.55,2,0Z"/>
      <path class="cls-51" d="M9.03,210.78c2.23-3.65,10.95.81,5,4,2.91.77,1.96,3.37-.44,4.2l.44,3.79c2.71.8,4.02,7.98,2,9.99,1.64,2.51,2.3,4.84,2,6.99h-1c-5-10.75-3.81-19.62-7.99-28.97Z"/>
      <path class="cls-65" d="M6.03,198.79l.81.67c-1.16,5.4,1.95,5,2.19,5.32l1.88,2.74c3.48-1.78,5.29-2.45,7.2,2.06,2.8.02,4.11,1.08,3.91,3.18.09,1.6-.58,2.6-2,3-1.63,2.03-4.77,1.26-5.99-1,.1-1.32-.04-2.68,0-4h-5c-.6-1.33-1.36-2.66-2-3.99-.22-2.5-.74-5.21-1-7.99Z"/>
      <path class="cls-72" d="M28.01,174.82c.46.33.85,1.74,2,2,.87.28.86.62,0,1h-1c-3.27,1.34-4.78-.78-5-4-.88-.34-1.66-.19-2.42.54-7.35-6.77-9.01-7.27-5-1.52,3.57,3.33,6.04,6.98,7.42,10.96-.3.49-.64.48-1,0-1.99,2.11-5.07-.53-4-3-5.81.81-11.26-11.62-8.99-16.98,7.49.47,12.32,6.98,17.98,10.99Z"/>
      <path class="cls-68" d="M30.01,176.82c1.66.37,4.16-.28,5.99.01l-1.99,1.48,3.99,5.5c-2.62-2.07-5.41-4.71-7.99-5.99v-1Z"/>
      <path class="cls-213" d="M45.99,206.79c2.28,3.62,1.75,12.58-.99,16.44-.17,1.18,4.18,4.94,5.88,4.28l2.02-11.7,2.08-1.03h1c.7,4.63,2.15,12.7,2,16.98-1.53,5.5-4.97,10.56-7.99,3-1.87-1.5-3.11-3.06-4.5-4.99l-1.49,2.99c-1.78-9.05-.99-7.59-.05-15.54.25-2.09-.33-9.88.08-10.42.22-.29,1.52.18,1.97-.01Z"/>
      <path class="cls-147" d="M54.98,248.74h-1c-.01-5.8-4.56-8.68-4-13.99.16.13,3.29,2.07,3.48,1.99,1.53-.65,3.06-3.85,4.51-4.98-.2,5.64-2.67,11.11-3,16.98Z"/>
      <path class="cls-154" d="M54.98,214.78c.04,1.44-1.7,13.08-2.25,13.72-3.09,3.61-9.8-2.81-9.76-5.21.03-1.29,1.74-2.5,1.98-4.05.59-3.88-.48-8.6,1.04-12.45,3.44-1.42,5.14-3.48,7.22,1.26.39.88,1.75,5.99,1.77,6.73Z"/>
      <path class="cls-87" d="M33.01,206.79c4.48,7.77,6.62,11.33,7.99,19.98h-1l-2.17-.54-3.45-10.61-1.38,1.16c-2.21-2.1-3.54-5.1-4-8.99-4.7-9.54.37-7.71,4-1Z"/>
      <path class="cls-206" d="M28.01,198.79c2.75-1.11,4.56,1.42,3,4,.26.43.83.71,1,1,.6,1.01.63,2.36,1,3l-4.98-4.99c-.35,2.11.68,4.02.99,5.99-2.5,1.26-3.5-.41-3-5-3.63.38-5.19-6.98-3-8.99-.44-.31-.43-.64,0-1,2.45-.08,4.11,1.92,5,5.99Z"/>
      <path class="cls-119" d="M24.02,173.82c1.63,1.35,3.27,2.76,5,4l11.99,10.99c.05.32-.07.68,0,1-1.19,2.77-2.14,5.83-2.32,9.22-.67,1.65-1.94,2.14-2.99.73l-5.67-7.95c-2.48-4.61-5.42-8.97-8.81-13.09-1.94-5.71-1-7.34,2.82-4.9Z"/>
      <path class="cls-6" d="M30.01,191.8l4.99,7.16c2.07.47,3.1,1.41,2,3.82-2-.06-3.93-.97-5.99,0-.72-1.18-2.08-2.56-3-4-1.84-4.31-3.78-8.55-5.82-12.71l.82-2.28h1c2.69,1.65,4.68,4.31,5.99,7.99Z"/>
      <path class="cls-13" d="M41,189.8c.9,4.13-.11,3.63-.92,7.58-.88,4.25,2.03,5.56-3.07,5.41-3.99-3.56-4.88-6.64-6.99-10.99.84.99,6.02,6.96,6.49,6.97,2.79.05-.6-8.94,4.5-8.97Z"/>
      <path class="cls-156" d="M9.03,170.82c3.21,4.19,5.87,8.52,7.99,12.99,3.72-2.09,9.97,7.22,5.99,8.99v1l-1.13,1.62c1.12,5,1.13,7.03-4.39,7.53-2.08.19-7.65.55-8.46-1.17-.66-9.25-.65-21.83,0-30.97Z"/>
      <path class="cls-178" d="M9.03,201.79c1.65-1.12,10.57-.59,10.96-.99,1.16-1.2.12-7.2.03-8.99l2.99,1.99c.6,2.83,1.81,6.39,3,8.99,3.59,7.73-7.29,5.72-11.48,2.81-2,3.16-4.38,2.54-5.5-.81-.21-.5.06-2.12,0-3Z"/>
      <path class="cls-161" d="M19.02,180.81c.82,2.01.21,2.96-2,3-.2.57.5,2.03-.49,1.99-3.56-4.2-5.69-9.74-7.5-14.98.16-2.21-.84-5.59,1-6.99-1.39,7.7,4.51,11.99,8.99,16.98Z"/>
      <path class="cls-59" d="M20.02,215.78c1.49-1.28,2.02-.71,1,1l4,3c4.04,3.74,11.19,9.03,13.41,14.06,1.65,3.73,1.31,8.36,3.57,12.91v1c-2.5,3.86-8.07-2.75-6.99-5.99-.89-1.46-1.22-3.35-.99-5.68-2.69-2.11-4.93-4.87-6.72-8.29-2.72-3.97-9.31-10.1-13.27-5.01-2.22-1.81-.19-5.41,0-7.99,2.16-.17,4.05-.1,5.99,1Z"/>
      <path class="cls-38" d="M28.01,242.75c2.66.85,3.66.31,5.99-1,.2-.89.54-.86,1,0,2.22.64,3.55,6.33,6.99,5.99-.33,5.05-3.99,2.08-6.49,2.19-2.19.1-4.47,1.52-6.82.67-.94-.34-4.46-5-5.77-6.21-2.28-2.1-2.91.11-4.89-4.64-.73-1.75-1.48-5.02-2-6.99,2.67.06,4.84,2.53,6.53,7.41,2.72.32,4.54,1.18,5.46,2.58Z"/>
      <path class="cls-77" d="M40,226.77c-.15.76.25,2.71,0,3-.19.21-2.23-1.2-2.99-1.01-.26-.69-.72-1.31-1-2-3.44-3.17-4.3-5.71-2.6-7.61l-.4-2.38c.04-1.66-.04-3.34,0-4.99,4.46,3.12,5.35,10.04,6.98,14.98Z"/>
      <path class="cls-201" d="M14.03,222.77c0-1.33-.02-2.67,0-4,10.32-1.12,14.62,7.31,19.33,14.65.43.66,2.08.8,2.48,1.96.51,1.51.76,5.25-.83,6.37-.27-.08-.65.04-1,0-1.64,1.37-4.04,2.32-5.99,1-9.73,1.24-6.91-4.06-11.99-9.99-1.07-4.03-2.02-5.07-2-9.99Z"/>
      <path class="cls-143" d="M29.01,207.79l3,9.54c.12,1.89-1.75,1.5-3,.45-1.64,1.29-2.88-.08-3-2-1.68,1.62-5.18-.56-4-3-2.1-1.3-3.66-.73-4.98-1.51-1.07-.64-1.25-3.03-2.59-3.33-1.09-.25-3.07,1.5-4.48.43-1.17-.88-.7-3.26-.94-3.58.09.21,2.18,1.18,2.5,1.99,2.49-5.85,4.64-1.79,8.03-1.04,2.27.5,7.82,1.28,6.45-2.95.8,1.76,2.71,4.35,3,5Z"/>
      <path class="cls-43" d="M22.02,212.78c1,.62,2.55,2.08,4,3,1.15,1.51,1.48,2.84,1,4-.46-.21-1.55.21-2,0l-4-3c-.37-.28-.68-.82-1-1-.04-2.36-.67-3.46,2-3Z"/>
      <path class="cls-62" d="M24.02,173.82c-5.44.51.07,2.36.05,2.55-.11,1.14-1.24,2.26-.9,3.74.3,1.32,4.26,4.94,5.25,6.81.93,1.76.97,3.6,1.6,4.89-2.28-2.69-3.79-5.32-5.99-7.99-4.49-5.44-12.4-10.69-11.98-17.98,1.61-1.67,10.23,6.53,11.98,7.99Z"/>
      <path class="cls-211" d="M23.02,183.81c2.65,3.16,4.77,10.69,5,14.99-1.26-1.97-3.9-4.34-5-5.99-.19-.29.11-1.86-.56-2.9-1.33-2.06-3.34-4.76-5.44-6.09.44-1.25.11-2.55,2-3,1.19,1.33,3.31,2.18,4,3Z"/>
      <path class="cls-34" d="M33.01,216.78c2.63,7.39-4.4,5.53-4,1l2.01-.51c-1.73-3.28-1.51-6.22-2.01-9.48,1.3,2.97,2.74,6.01,4,8.99Z"/>
      <path class="cls-65" d="M25.01,219.77c-3.04-1.45-2.39-1.79-4-3,2.52-.13,2.89,1.98,4,3Z"/>
      <path class="cls-59" d="M34.01,241.75c-1.46,3.12-3.7,3.98-5.99,1,1.77-.23,2.85-1.36,5.99-1Z"/>
      <path class="cls-10" d="M29.01,217.78c.78.49,1.2,2.93,3.99,1.99.04-.99-.02-2,0-2.99,1.35,3.21,1.69,6.72,3,9.99-3.02-1.44-6.29-5.77-8.99-6.99-1-1.39-2.38-2.45-1-4,1.01.64,1.98,1.36,3,2Z"/>
      <path class="cls-92" d="M24.5,341.21c9.66-16.95,29.24-50.66,33.1-50.9,1.23-.08,1.97.53,1.97.53,1.8,1.47,1.24,5.88.28,6.1-.93.21-2.7-3.42-2.36-3.71.25-.21,1.96,1.07,2.71,2.62,1.84,3.8-2.19,9.13-2.72,9.82"/>
    </g>
  </g>
</svg>