<?xml version="1.0" encoding="UTF-8"?>
<svg id="Layer_2" data-name="Layer 2" xmlns="http://www.w3.org/2000/svg" viewBox="0 0 475.66 484.14">
  <defs>
    <style>
      .cls-1 {
        fill: #67543e;
      }

      .cls-2 {
        fill: #71430a;
      }

      .cls-3 {
        fill: #332e2d;
      }

      .cls-4 {
        fill: #a46f30;
      }

      .cls-5 {
        fill: #d1a056;
      }

      .cls-6 {
        fill: #f3ab33;
      }

      .cls-7 {
        fill: #ab7f40;
      }

      .cls-8 {
        fill: #8a622d;
      }

      .cls-9 {
        fill: #d08e27;
      }

      .cls-10 {
        fill: #453121;
      }

      .cls-11 {
        fill: #ae721a;
      }

      .cls-12 {
        fill: #c07a1d;
      }

      .cls-13 {
        fill: #b8731c;
      }

      .cls-14 {
        fill: #e09b3a;
      }

      .cls-15 {
        fill: #2e251f;
      }

      .cls-16 {
        fill: #e09838;
      }

      .cls-17 {
        fill: #b37920;
      }

      .cls-18 {
        fill: #d59126;
      }

      .cls-19 {
        fill: #442806;
      }

      .cls-20 {
        fill: #47382a;
      }

      .cls-21 {
        fill: #8c5d1f;
      }

      .cls-22 {
        fill: #3a312c;
      }

      .cls-23 {
        fill: #eb9e2e;
      }

      .cls-24 {
        fill: #cd8024;
      }

      .cls-25 {
        fill: #e6a128;
      }

      .cls-26 {
        fill: #61492e;
      }

      .cls-27 {
        fill: #cf7f14;
      }

      .cls-28 {
        fill: #895006;
      }

      .cls-29 {
        fill: #e8941a;
      }

      .cls-30 {
        fill: #65410f;
      }

      .cls-31 {
        fill: #966526;
      }

      .cls-32 {
        fill: #d1993b;
      }

      .cls-33 {
        fill: #dc9f43;
      }

      .cls-34 {
        fill: #f9ae29;
      }

      .cls-35 {
        fill: #3b2b22;
      }

      .cls-36 {
        fill: #b28238;
      }

      .cls-37 {
        fill: #684214;
      }

      .cls-38 {
        fill: #d97f17;
      }

      .cls-39 {
        fill: #d09532;
      }

      .cls-40 {
        fill: #b07f41;
      }

      .cls-41 {
        fill: #bb791f;
      }

      .cls-42 {
        fill: #e1aa51;
      }

      .cls-43 {
        fill: #dda03f;
      }

      .cls-44 {
        fill: #a66e20;
      }

      .cls-45 {
        fill: #df921e;
      }

      .cls-46 {
        fill: #c17e24;
      }

      .cls-47 {
        fill: #cc7c1c;
      }

      .cls-48 {
        fill: #8c5d1d;
      }

      .cls-49 {
        fill: #efb759;
      }

      .cls-50 {
        fill: #d38d24;
      }

      .cls-51 {
        fill: #be7f24;
      }

      .cls-52 {
        fill: #e69c29;
      }

      .cls-53 {
        fill: #ce9c52;
      }

      .cls-54 {
        fill: #9e6e2d;
      }

      .cls-55 {
        fill: #cd943f;
      }

      .cls-56 {
        fill: #de9c3e;
      }

      .cls-57 {
        fill: #372e29;
      }

      .cls-58 {
        fill: #ce9c49;
      }

      .cls-59 {
        fill: #8c6534;
      }

      .cls-60 {
        fill: #d58d26;
      }

      .cls-61 {
        fill: #db7f16;
      }

      .cls-62 {
        fill: #955711;
      }

      .cls-63 {
        fill: #d68b20;
      }

      .cls-64 {
        fill: #74470c;
      }

      .cls-65 {
        fill: #d28b30;
      }

      .cls-66 {
        fill: #b67a2d;
      }

      .cls-67 {
        fill: #d39536;
      }

      .cls-68 {
        fill: #332f2f;
      }

      .cls-69 {
        fill: #d8ac63;
      }

      .cls-70 {
        fill: #e7a52f;
      }

      .cls-71 {
        fill: #f9ad2f;
      }

      .cls-72 {
        fill: #bf8324;
      }

      .cls-73 {
        fill: #c48422;
      }

      .cls-74 {
        fill: #9c6c32;
      }

      .cls-75 {
        fill: #976624;
      }

      .cls-76 {
        fill: #b67d2f;
      }

      .cls-77 {
        fill: #c88722;
      }

      .cls-78 {
        fill: #7e5828;
      }

      .cls-79 {
        fill: #e0ac57;
      }

      .cls-80 {
        fill: #cf8521;
      }

      .cls-81 {
        fill: #5d3f23;
      }

      .cls-82 {
        fill: #d68726;
      }

      .cls-83 {
        fill: #e1af5e;
      }

      .cls-84 {
        fill: #cd8d2d;
      }

      .cls-85 {
        fill: #ea9a1b;
      }

      .cls-86 {
        fill: #663c09;
      }

      .cls-87 {
        fill: #e09320;
      }

      .cls-88 {
        fill: #47352a;
      }

      .cls-89 {
        fill: #d28c29;
      }

      .cls-90 {
        fill: #cf8823;
      }

      .cls-91 {
        fill: #965d17;
      }

      .cls-92 {
        fill: #896736;
      }

      .cls-93 {
        fill: #774f19;
      }

      .cls-94 {
        fill: #b87c22;
      }

      .cls-95 {
        fill: #c98f2e;
      }

      .cls-96 {
        fill: #b78336;
      }

      .cls-97 {
        fill: #cc8f24;
      }

      .cls-98 {
        fill: #e6a73e;
      }

      .cls-99 {
        fill: #58442d;
      }

      .cls-100 {
        fill: #8d5f27;
      }

      .cls-101 {
        fill: #f7a733;
      }

      .cls-102 {
        fill: #b1843f;
      }

      .cls-103 {
        fill: #e0b368;
      }

      .cls-104 {
        fill: #533e2b;
      }

      .cls-105 {
        fill: #cc8327;
      }

      .cls-106 {
        fill: #dc9f46;
      }

      .cls-107 {
        fill: #825517;
      }

      .cls-108 {
        fill: #c4954a;
      }

      .cls-109 {
        fill: #57360b;
      }

      .cls-110 {
        fill: #a36f24;
      }

      .cls-111 {
        fill: #4d2f0a;
      }

      .cls-112 {
        fill: #603e1e;
      }

      .cls-113 {
        fill: #c17b18;
      }

      .cls-114 {
        fill: #543309;
      }

      .cls-115 {
        fill: #3a2e27;
      }

      .cls-116 {
        fill: #683f08;
      }

      .cls-117 {
        fill: #774c14;
      }

      .cls-118 {
        fill: #8d6123;
      }

      .cls-119 {
        fill: #dda44a;
      }

      .cls-120 {
        fill: #a67021;
      }

      .cls-121 {
        fill: #8f5c18;
      }

      .cls-122 {
        fill: #c8821d;
      }

      .cls-123 {
        fill: #d08626;
      }

      .cls-124 {
        fill: #a67a2e;
      }

      .cls-125 {
        fill: #a46515;
      }

      .cls-126 {
        fill: #e89a1c;
      }

      .cls-127 {
        fill: #d8a353;
      }

      .cls-128 {
        fill: #d3831d;
      }

      .cls-129 {
        fill: #a0651a;
      }

      .cls-130 {
        fill: #d07f13;
      }

      .cls-131 {
        fill: #926931;
      }

      .cls-132 {
        fill: #f0a423;
      }

      .cls-133 {
        fill: #65401e;
      }

      .cls-134 {
        fill: #de9421;
      }

      .cls-135 {
        fill: #a0691c;
      }

      .cls-136 {
        fill: #d0852a;
      }

      .cls-137 {
        fill: #ac7123;
      }

      .cls-138 {
        fill: #ca8e38;
      }

      .cls-139 {
        fill: #6f4b1d;
      }

      .cls-140 {
        fill: #d69737;
      }

      .cls-141 {
        fill: #393331;
      }

      .cls-142 {
        fill: #d5902b;
      }

      .cls-143 {
        fill: #e3a94d;
      }

      .cls-144 {
        fill: #e1a54a;
      }

      .cls-145 {
        fill: #f7b43c;
      }

      .cls-146 {
        fill: #5f3b13;
      }

      .cls-147 {
        fill: #c39249;
      }

      .cls-148 {
        fill: #cf8b2a;
      }

      .cls-149 {
        fill: #dd9f2e;
      }

      .cls-150 {
        fill: #ad7222;
      }

      .cls-151 {
        fill: #f1a521;
      }

      .cls-152 {
        fill: #f1b03c;
      }

      .cls-153 {
        fill: #50453a;
      }

      .cls-154 {
        fill: #885a1b;
      }

      .cls-155 {
        fill: #e48f19;
      }

      .cls-156 {
        fill: #d08825;
      }

      .cls-157 {
        fill: #37302d;
      }

      .cls-158 {
        fill: #715532;
      }

      .cls-159 {
        fill: #e0af5f;
      }

      .cls-160 {
        fill: #d6a456;
      }

      .cls-161 {
        fill: #dc952f;
      }

      .cls-162 {
        fill: #eda53a;
      }

      .cls-163 {
        fill: #d19224;
      }

      .cls-164 {
        fill: #e08716;
      }

      .cls-165 {
        fill: #564028;
      }

      .cls-166 {
        fill: #cb7f20;
      }

      .cls-167 {
        fill: #ddab58;
      }

      .cls-168 {
        fill: #d59732;
      }

      .cls-169 {
        fill: #8e602a;
      }

      .cls-170 {
        fill: #b87f25;
      }

      .cls-171 {
        fill: #e19932;
      }

      .cls-172 {
        fill: #cf963e;
      }

      .cls-173 {
        fill: #c57e25;
      }

      .cls-174 {
        fill: #cb8b2a;
      }

      .cls-175 {
        fill: #cc791a;
      }

      .cls-176 {
        fill: #e5a228;
      }
    </style>
  </defs>
  <g id="Layer_1-2" data-name="Layer 1">
    <g>
      <g>
        <path class="cls-146" d="M406.05,39.95l1.06-.74c2.09,1.61,4.68,2.32,7.77,2.12,1.78.18,3.6.1,5.37.38,1.79-.21,3.47-.4,5.06-.57,1.2-1.98,3.52-1.05,4.41.69-.48-2.3-.25-3.77.69-4.41.57,11.25,4.59,8.65,12.33,12.3,2.29,1.08,4.26,2.57,6.42,3.73,0,.92-.33,1.01-.95.3,1.3,3.11.83,6.33-2.89,4.07-1.1.8-3.27.21-4.41-.69-1.45,1.44-4.71,1.58-6.97,1.18l-1.03,2.32c-3.82,1.59-7.62,3.19-11.38,4.79-.7.65-1.55,1.27-2.55,1.86,1.01,2.64-1.24,3.81-3.5,2.17-1.79,2.33-.37,3.2,1.22,3.81.81-3.05,3.97-2.1,3.46.99,1.44-.16,2.21.14,1.56,1.6.1.65-.54.85-1.9.61-1.13-.34-2.31-.77-3.46-.99-3.57,1.43-6.3.87-5.33-3.54,1-1.73,2.71-3.28,4.26-4.56,6.04-5.02,15.36-10.65,23.11-11.52-.11-2.03-1.37-1.59-2.45-2.16-1.6-.85-8.56-3.75-9.98-3.8-3.85-.14-3.05.61-4.27,2.91-.75,1.03-1.38,1.23-1.9.61-.72-2.17-1.43-4.39-2.13-6.66l-9.23-.66c-6.61,1.91-8.11-8.32-2.38-6.12Z"/>
        <path class="cls-115" d="M431.06,36.16c.68-11.78-.81-24.3-13.42-29.22-.4,3.65-.59,7.54-.57,11.66.57.19,1.04.42,1.14.76.79,2.6,2.51,9.43.6,11.27,1.97,3.39,4.24,6.43,6.9,9.15l-.4,1.36c1.66,5-3.58.81-5.06.57,3.05-.46,1.53-1.82.67-3.59-6.71-13.81-4.28-12.51-6.16-25.87-.42-3.02-5.98-16.78,3.57-10.73,2.65,1.68,12.35,12.22,13.72,14.98,3.1,6.21,2.39,10.78,1.22,17.22-.09.51-1.07,4.26-2.21,2.44Z"/>
        <path class="cls-133" d="M449.17,53.45c2.88,1.54,6.76,1.87,8.15,5.78l.07-6.31.87-.09c1.61,4.16,2.29,5.91,5.67,7.44,2.01,2.88,4.91,5.24,8.69,7.1,4.98,4.08,1.59,9.11-3.79,4.97-3.26-1.9-6.33-3.62-9.26-6.04-1.83-.49-2.26,1.65-3.33,2.72l-.95.3c-.92,0-1.01-.33-.3-.95-1.36-.75-1.64-2.36.34-2.21-2.55-3.19-5.1-6.42-7.65-9.69l.54-2.72.95-.3Z"/>
        <path class="cls-112" d="M382,43.44l-.43-1.53c6.07-1.84,12.41-2.52,19-2.04.39-1.04,1.28-1.76,2.67-2.17-1.07-1.02,1.44-2.41,2.55-1.86,1.23.84,2.1,3.9.26,4.11-.04.12-1.8.11-1.74,1.23.36,6.69,8.3,3.2,13.34,5.55.06,2.09-4.65,2.1-7.23,1.92-1.1-2.41-4.05-1.13-5.75.13l-.95.3c1.65.75,1.21,1.32-.65,1.26.55,2.3-.82,4.34-3.2,3.12-2.79.41-2.54-.06-.61-1.9,1.34-1.1,4.05-3.87,4.5-5.62l-19.63-1.32c-1.06.07-1.49-.71-2.14-1.17Z"/>
        <path class="cls-169" d="M448.61,22.16c-4.23-10.53-2.8-13.03,4.27-7.49,8.47,6.24,20.28,16.69,16,28.28-.15,1.17-2.18,6.22-2.63,8.18-.91-.01-1-.34-.3-.95-2-.87-2.66-5.75.08-6.32,1.5-5.89-2.38-13.4-5.77-18.08-2.56-1.66-4.96-3.69-7.19-6.09l-1.55-.09c.72,2.88.47,5.96-.77,9.22.32.94.39,1.31-.65,1.26.82,3.98,1.41,7.98,1.74,12.03,0,.92-.33,1.01-.95.3-4.42-8.81-1.56-11.61-2.27-20.25Z"/>
        <path class="cls-129" d="M407.43,31.12c-.07,2.13-.73,2.46-1.9.61-1.04-.77-1.19-2.25.34-2.21-.15-2.65-1.05-4.18-2.7-4.6-.44-3.58-2.43-6.71-5.97-9.41-.81,1.31-2.07.66-3.77-1.94-.61,3.9-.41,8.33,1.74,12.03,2.77,1.24,5.58,6.01,4.94,8.91,0,.92-.33,1.01-.95.3-5.54-8.22-8.02-11.73-11.51-21.75-1.18-3.38,1.05-4.35,4.08-3.12,1.59.65,10.76,6.68,11.74,8.05,3.08,4.27,3.46,8.26,3.95,13.14Z"/>
        <path class="cls-4" d="M431.06,36.16c-.08.39-.54.82-.65,1.26-.3,1.2.07,3.96-.69,4.41-2.42-.41-3.26-1.42-.91-2.85-2.91-2.47-1.94-7.57,1.38-8.83l-1.25-.94c-.49-7.78-3.52-15.01-10.2-18.48.3,3.44-.26,6.06-1.68,7.88-1.24-5.41-.26-10.61-2.95-15.84,13.67,6.13,20.18,18.54,16.94,33.39Z"/>
        <path class="cls-68" d="M399.27,51.55l.61,1.9c.85,1.81.19,2.45-1.6,1.56-1.49,1.03-8.93,6.31-8.69,7.02.31.93,6.91,1.71,8.19,1.73,9,.16,13.92-2.99,20.41-8.82-1.3-2.42-.77-2.97,1.6-1.56.47-.31,1.33-.32,1.9-.61-3.21,6.07-8.89,10.1-15.61,12.22-2.42.76-13.25,1.93-15.89,1.84-2.16-.07-5.95-3.52-4.89-6.19,1.16-2.94,10.44-6.2,13.97-9.1Z"/>
        <path class="cls-22" d="M468.89,42.96c1.92-14.62-9.98-23.09-20.64-30.1-2.74-.24.61,6.03.79,7.54.1.86-.44,1.54-.42,1.77.56-3.05-7.85-9.39-3.11-11.35,6.09-2.53,33.32,23.31,23.39,32.14Z"/>
        <path class="cls-141" d="M421.71,75.85c2.11-.73,4.85-.33,8.22,1.21,2.82-.4,5.13-.32,6.93.24,6.68-1.39,12.82-4.05,18.43-7.98l.95-.3c-12.33,12.33-20.79,12.13-36.43,7.44.62-.07,1.43-.65,1.9-.61Z"/>
        <path class="cls-81" d="M399.17,34.81l.95-.3c.68.18,1.2.71,1.56,1.6,2.19-.22,2.71.31,1.56,1.6-.09.15.7,1.24.39,1.76-1.79,2.91-18.6-.65-21.63,3.98-1.19-.85-3.24-2.29-.44-3.02,2.75-.72,9.5-1.21,12.69-1.46,3.96-.32,9.51,2.66,4.92-4.15Z"/>
        <path class="cls-88" d="M468.83,72.34c8.11,2.26,6.83-2.26,1.16-6.11-3.4-2.31-6.22-1.27-6.07-5.96-1.57-.84-1.14-1.43.65-1.26,1.35,6.78,15.68,7.07,9.57,15.66-3.23,1.44-4.33-1.76-5.32-2.33Z"/>
        <path class="cls-81" d="M407.43,31.12c.72,7.12-2.2,8.25,7.45,10.2-2.25-.23-5.7,1.5-8.83-1.38.18-.54-.28-3.06-.26-4.11-1.48-.36-.87-2.86-.26-4.11l1.9-.61Z"/>
        <path class="cls-100" d="M453.09,42.76c2.54-.5,5.93,3.81,4.03,6.05,1.85.74,3.41,2.31,4.7,4.7.28-2.06,2.45-3.24,4.43-2.38-.74,3.17-1.26,4.36-1.68,7.88-.04.37-.64.9-.65,1.26-3.64,1.15-4.58-4.23-6.54-7.35-2.21-3.51-4.64-6.8-6.5-10.51l.95-.3c.27-.65.69-.44,1.26.65Z"/>
        <path class="cls-141" d="M411.02,71.92c.9,5.24,1.6,2.82,5.33,3.54-3.22,3.12-8,1.07-5.33-3.54Z"/>
        <path class="cls-41" d="M417.66,46.73c4.59,2.14,3.83,2.49,2.13,6.66-.51.33-1.14,1.07-1.6,1.56-1.5,1.72-2.98,2.54-4.45,2.47l-.99-2.22c3.44-4.7-6.41.38-8.86,1.79-3.66.03-2.39-3.91.22-5.52,4.62-.32,6.29-3.83.59-2.69,2.67-4.24,8.69-.74,12.98-2.05Z"/>
        <path class="cls-126" d="M418.98,67.28c1.22-1.31,3.08-1.47,4.76-1.52-.1-.91.24-.98.95-.3.92,0,1.01.33.3.95,1.87,1.77,3.21,3.79,4.03,6.05,3,2.11,1.28,4.06-2.25,2.82-.85-1.18-2.42-1.73-4.72-1.64.04,1.61-.63,1.43-1.9.61-1.25-.81-2.11-.79-3.46-.99-2.2.12-3.1-2.51-1.22-3.81.95-.69,2.48-1.73,3.5-2.17Z"/>
        <path class="cls-58" d="M433.94,58.31c2.47.07,4.9,0,7.27-.22.82-.68,1.34-.42,1.26.65,3.15,1.9,1.36,2.96-5.37,3.2-2.41,1.27-4.64,1.83-6.7,1.7-.54,2.35-3.46,2.08-5.71,1.82-.31.11-.64.19-.95.3-1.04.3-1.78.19-2.21-.34,3.83-3.49,7.19-5.98,12.41-7.11Z"/>
        <path class="cls-37" d="M448.22,53.75l5.93,8.54c.55.27,5.83-2.92,4.62,1.65-.13.5-2.94,1.57-3.44,2.22-.89,2.59-2.28.83-2.51-1.3-3.05-1.28-5.55-3.63-7.49-7.05,2.01-.52,2.08-2.47,2.89-4.07Z"/>
        <path class="cls-40" d="M426.3,37.68c.89-.83,1.73-.4,2.51,1.3l.91,2.85c-.81.49-3.65-.19-4.41-.69-2.32-1.52-5.51-7.73-6.5-10.51.72-.54,1.86-1.05,2.37-.53,1.96,2.04,4.08,4.97,5.13,7.57Z"/>
        <path class="cls-124" d="M422.06,73.64c2.37-.25,3.94.29,4.72,1.64,3.11-1.21,6.27-1.17,9.48.12,1.63-.56,1.83.08.61,1.9-8.61,1.21-8.96-.96-15.15-1.46-.56-.44-1.01-1.24-1.56-1.6.64-.2,1.27-.41,1.9-.61Z"/>
        <path class="cls-96" d="M440.91,57.14c.92,0,1.01.33.3.95-2.3.84-5.08,1.94-7.27.22,1.75-.38,5.4-1.12,6.97-1.18Z"/>
        <path class="cls-48" d="M445.32,57.82c2.32,1.25,4.78,5.01,7.49,7.05.81,1.82-.44,1.44-1.9.61-1.59.24-2.32-.12-1.56-1.6-2.65-.37-4.21-1.97-4.68-4.8-.76,2.05-1.5,1.93-2.21-.34-.45-.17-.93-.24-1.26-.65l-.3-.95c1.53-.05,3.04-.05,4.41.69Z"/>
        <path class="cls-124" d="M415.48,69.45c-.56,1.55-.16,2.85,1.22,3.81-.51-.08-1.51,1.09-2.11.11-2.24-3.64-.38-3,.89-3.92Z"/>
        <path class="cls-87" d="M421.53,65.42l2.21.34c-1.55.56-3.26.88-4.76,1.52.19-1.49,2.02-1.38,2.55-1.86Z"/>
        <path class="cls-128" d="M418.75,10.73c2.3.32,3.17,2.31,2.61,5.97,3.85.18,7.78,5.17,5.11,8.35-.91,2.01-1.01,3,.05,5.18,2.38,2.41,1.45,5.85-.21,7.46-4.83-1.99-3.83-3.94-7.49-7.05-1.63-4.54-1.91-7.29-1.74-12.03.1-2.99.94-5.33,1.68-7.88Z"/>
        <path class="cls-48" d="M454.98,68.37l.3.95c-6.08,5.51-10.71,6.9-18.43,7.98,0-1.29.2-1.87,1.6-1.56,3.02-.14,6.11-.9,8.56-2.74-.04-.92.29-1,.95-.3,1.28-1.47,3.23-3.3,5.1-3.73-.31-2.71.23-2.76,1.9-.61Z"/>
        <path class="cls-73" d="M452.81,64.87c.8.6,1.38,1.34,2.51,1.3-.25.33-.13,1.63-.34,2.21-.56.29-1.47.3-1.9.61-.92,0-1.01-.33-.3-.95-1.31-.09-1.83-.62-1.56-1.6-.68-.13-.78-.45-.3-.95l1.9-.61Z"/>
        <path class="cls-148" d="M404.68,48.78c1.18-.44,4.75-1.52,5.19-.09.55,1.76-8.24,3.56-5.92,7.65l12.1-8.05-2.25,2.82c4.24,2.31,1.73,2.89-.08,6.31-.04.94-.36,1.03-.95.3-4.09-.06-8.28.88-12.59,2.83-3.37,1.26-7.14.85-4.16-2.73-.21-1.11.54-2.05,2.25-2.82.55-.58,1.01-1.02,1.6-1.56,1.13-1.05,1.7-1.98,3.2-3.12,1.54-.4,1.76-.82.65-1.26.27-.15.65-.19.95-.3Z"/>
        <path class="cls-77" d="M405.87,29.52c.1.58-.42,1.58-.34,2.21.11.9.27,3.3.26,4.11-.41.87-2.33,1.5-2.55,1.86-.52-.54-1.03-1.08-1.56-1.6-.28-2.38.44-2.43,1.9-.61-.53-2.31-.3-3.78.69-4.41-1.81-.43-3.35-2.73-2.47-4.45.97-6.14,3.7-.76,4.07,2.89Z"/>
        <path class="cls-52" d="M403.73,49.08l4.11-.25.3.93c-1.55.42-3.78,1.89-5.05.58.26-.2.36-1.09.65-1.26Z"/>
        <path class="cls-61" d="M458.62,30.5c-.36-2.64.24-5.67,2.91-3.49,1.59,1.3,6.43,14.21,4.5,16.85.1,1.16.03,5.17-.08,6.32-1.04,1.54-2.43,1.7-2.21-.34-3.31-.69-4.44-8.59-2.39-10.77.06-2.29-.55-4.2-1.82-5.71-2.19.08-2.72-1.75-.91-2.85Z"/>
        <path class="cls-32" d="M454.51,30.77c.64.05,1.16.58,1.56,1.6,2.39.45,3.24,3.02,1.52,4.76.2.93-.02,1.35-.65,1.26.55,3.01-1.37,5.81-4.15,3.42-1.73-3.33-2.63-7.24-2.7-11.72.09-.4.47-.83.65-1.26,1.83-.32,3.09.33,3.77,1.94Z"/>
        <path class="cls-46" d="M459.67,46.95c1.31.33,2.67,1.29,4.07,2.89.41-.04,1.48.64,2.21.34-.03.33.4.74.3.95-.09.2-1.67.69-2.1,1.66-1.19,2.64-.01,5.76-2.73,6.17-1.02-3.49-2.56-6.99-4.3-10.16-1.63-2.36.36-3.64,2.55-1.86Z"/>
        <path class="cls-38" d="M460.26,25.79c.07.1,1.6.03,2.22,1.04,1.26,2.06,4.87,10.47,5.08,12.66.16,1.62-.26,3.28-1.53,4.39-.61-7.08-3.1-10.67-5.47-17.12l-1.94,3.76c-2.08.44-2.52-1.52-.91-2.85-2.68-4.23-.69-5.39,2.55-1.86Z"/>
        <path class="cls-9" d="M450.74,28.83c-1.34-3.21.62-8.49-1.74-12.02,1.99-1.52,3.45,1.37,4.06,2.89,2.14.36,2.99,1.66.91,2.85,2.65,3.82,3.34,7.1,2.09,9.82-.75-.14-1.35-1.53-1.56-1.6-1.36-1.23-2.61-1.88-3.77-1.94Z"/>
        <path class="cls-166" d="M460.26,25.79c-2.42-.76-3.84-.63-2.55,1.86-1.54-.1-2.78-1.8-3.73-5.1-.26-.94-.55-1.95-.91-2.85,4.52-.98,5.48,3.75,7.19,6.09Z"/>
        <path class="cls-108" d="M450.09,30.08c5.97,5.33,1.26,3.92,1.19,6.57-.04,1.48,1.01,3.61,1.5,5.15.9-.09.97.24.3.95l-1.26-.65c-1.62-4.5-2.85-7.28-1.74-12.03Z"/>
        <path class="cls-155" d="M395.56,20.23c2.21-1.44,3.72.48,1.86,2.55l2.47,4.45c1.47,1.13,2.93,2.42,4.37,3.85.32,1.23.43,3.57-.69,4.41-.88-.47-1.51-.27-1.9.61-.57-.55-1.02-1-1.56-1.6-3.25-3.64-3.36-4.25-4.94-8.91-1.81-2.85-3.85-9.51.38-5.37Z"/>
        <path class="cls-17" d="M405.87,29.52c-.03-.2-1.52-3.53-1.67-3.67-1.2-1.11-1.54-.28-2.4.77-1.17.88-1.85-.3-1.56-1.6.07-2.18-1.08-4.11-3.45-5.8-1.32-1.89-2.31-4.05.41-3.71,5.5,2.72,8.64,7.55,8.67,14.01Z"/>
        <path class="cls-11" d="M397.2,15.51c-2.04,1.53,2,2.9,2.98,4.24,1.5,2.05,3.12,5.2.06,5.28-.33.6-.75.38-1.26-.65-.55.07-1.07-.46-1.56-1.6-.5-1.01-1.6-1.95-1.86-2.55-2.51-.56-3.95-4.91-2.13-6.66,1.78-.11,2.65,1.39,3.77,1.94Z"/>
        <path class="cls-130" d="M393.43,13.57c.85,2.14,1.22,4.57,2.13,6.66l-2.2-.34c1.44,1.75,1.2,3.9,1.82,5.71-3.01-2.23-2.98-7.66-4.6-11.12.94-.15,2.02-.86,2.85-.91Z"/>
        <path class="cls-161" d="M430.19,30.15c-2.1,5.63-6.34-2.73-3.73-5.1-1.15-2.55-1.95-5.58-4.81-6.85l.08,5.21c-.2.38-2.12-.49-2.26-.83-.31-.73.25-9.76-.73-11.85.13-.45-1.14-1.79-.14-2.05,8.93,4.17,12.35,11.94,11.58,21.47Z"/>
        <path class="cls-66" d="M426.46,25.04c1.16,2.57.78,6.91,3.73,5.1-.14,1.77-.82,3.53-.46,5.35l-2.12-.33c.38,1.27.8,2.55,1.21,3.82-.85-.38-1.65-.94-2.51-1.3.84-4.58-2.62-8.44-2.54-12.84l2.7.2Z"/>
        <path class="cls-118" d="M398.28,55.02c-.69.72-1.23,1.81-2.25,2.82.09,1.65.28,3.34.57,5.06,5.33-.48,10.76-1.28,15.53-3.91-1.65-.9-1.22-1.6.65-1.26.05.05.63-.22.95-.3,1.57-.4,3.05-1.66,4.45-2.47-6.88,7.41-10.55,8.97-21.26,9.62-16.62,1.02-8.85-6.06,1.36-9.56Z"/>
        <path class="cls-85" d="M458.76,44.09c2.24-.12,2.77,1.64.91,2.85l-2.55,1.86c-1.09-2-2.62-2.63-4.03-6.05-.12-.3-.2-.64-.3-.95,1.63-.81,2.99-2.06,4.15-3.42,1.41,1.61,1.92,3.57,1.82,5.71Z"/>
        <path class="cls-140" d="M439.53,65.96c4.57-1.85,8.46-1.7,11.68.46.29.32,3.15.17,1.56,1.6-.84,1.59-3.22,3.62-5.1,3.73-1.2.5-2.22.47-3.07-.1-.54,2.69-6.36,4.19-8.35,3.75-1.7.48-3.21,1.29-5.06,1.36s-3-1.07-4.42-1.48c2.03.61,1.82-2.51,2.25-2.82-.38-.8-.61-1.99.01-2.34,2.43-1.37,5.15-2.45,7.64-3.25-.45-2.95,1.37-3.41,2.85-.91Z"/>
        <path class="cls-87" d="M434.47,66.53c.67-2.84,2.29-2.6,2.21.34-.1.07-.13,1.53-1.11,2.18-2.06,1.37-5.09,2.37-6.54,3.42l-6.12-2.77c1.06-.35,1.94-3.17,2.09-3.29,2.38-1.84,6.65-1.5,9.48.12Z"/>
        <path class="cls-50" d="M430.4,63.64c1.76-.18,2.59.26,2.51,1.3,2.42-1.37,2.59-.93,1.56,1.6-1.83.08-9.06-.42-9.48-.12l-.3-.95c1.88-.66,3.81-1.22,5.71-1.82Z"/>
        <path class="cls-87" d="M426.78,75.28c-1.6-.46-3.28-.71-4.72-1.64,6.7-2.04,4.32,1.52,4.72,1.64Z"/>
        <path class="cls-96" d="M444.67,59.08l2.19,3.06c-.12.81-11.98,3.06-13.95,2.8-.61-.38-1.95-.31-2.51-1.3,4.18-1.32,8.18-3.05,12.67-3l-.6-1.9c.62.23,1.86.1,2.21.34Z"/>
        <path class="cls-55" d="M436.25,75.4c1.72-.48,4.84-1.18,6.16-1.9.43-.23-.95-8.17,5.26-1.75.92,0,1.01.33.3.95-.3.13-.65.17-.95.3-2.45,1.84-5.55,2.61-8.56,2.74-.48.19-1.14,1.82-1.6,1.56-.21-.12-.33-1.39-.61-1.9Z"/>
        <path class="cls-44" d="M449.35,63.88c-3.04.82-6.31,1.52-9.82,2.09-.67.13-2.48.63-2.85.91-.65-.82-1.41-.38-2.21-.34-.55-.44-1.02-1.26-1.56-1.6,2.33-3.55,7.17-2.67,10.56-2.74s1.75-.95,1.2-3.11c1.89,1.31,3.07,3.21,4.68,4.8Z"/>
        <path class="cls-174" d="M447.02,73.01c-1.26,2.17-6.28,3.77-8.56,2.74,2.73-1.06,5.96-1.58,8.56-2.74Z"/>
        <path class="cls-174" d="M452.77,68.03l.3.95c-1.94,1.39-2.3,2.49-5.1,3.73l-.3-.95,5.1-3.73Z"/>
        <path class="cls-174" d="M449.35,63.88c.53.52,1.06,1.05,1.56,1.6.2.22.1.73.3.95-3.44-.67-8.28-1.14-11.68-.46,3.69-1.09,5.86-3.13,9.82-2.09Z"/>
        <path class="cls-138" d="M396.03,57.83c.21,2.17,1.39,2.08,3.1,1.61,2.13-.58,11.75-5.07,12.74-4.57.34.17.46,2.4.91,2.85,0,.55-.37.86-.65,1.26-4.68,2.65-10.25,3.45-15.53,3.91-7.92-1.34-3.01-2.62-.57-5.06Z"/>
        <path class="cls-71" d="M403.58,35.5c-.3.23-1.82.66-1.9.61-.33-.19-.77-2.93-1.21-3.81,1.88-.2,2.7,1.64,3.11,3.2Z"/>
        <path class="cls-113" d="M457.71,27.65c.4.9.54,1.94.91,2.85.17.43.6,1.96.91,2.85,1.29,1.51,1.9,3.42,1.82,5.71.5,3.68.88,7.3,2.39,10.77-.74.07-2.35,1.1-2.8.84-.47-.27-.89-2.77-1.27-3.74s-.61-1.91-.91-2.85l-1.18-6.97c-.49-1.59-1.07-3.16-1.52-4.76-.94-3.37-1.36-7.19-2.09-9.82.95.85,3.32,4.19,3.73,5.1Z"/>
        <path class="cls-38" d="M461.35,39.07c-.64-1.89-1.16-3.83-1.82-5.71,3.07.81,1.64,4.38,1.82,5.71Z"/>
        <path class="cls-25" d="M454.51,30.77c-1.35-.46-2.43,1.26-3.77-1.94.53-1.25.85-2.99,1.93-3.76l1.83,5.71Z"/>
        <path class="cls-9" d="M458.76,44.09c-.6-1.9-1.22-3.81-1.82-5.71.26-.31.37-.9.65-1.26.64,2.09,2.42,5.14,1.18,6.97Z"/>
        <path class="cls-27" d="M400.24,25.03c.42.42,1.33,1.29,1.56,1.6.89,1.23,2.1,3.02,2.47,4.45-2.49,1.47-3.53-1.87-4.37-3.85-.91-.71-1.42-1.8-.91-2.85.32.27.97.36,1.26.65Z"/>
        <path class="cls-130" d="M398.98,24.38c.36.92.52,1.95.91,2.85-1.92-.29-1.79-3.08-2.47-4.45.78.28,1.09,1.19,1.56,1.6Z"/>
        <path class="cls-36" d="M412.13,58.98c-2.29,3.31-11.33,4.62-15.53,3.91l15.53-3.91Z"/>
      </g>
      <g>
        <path class="cls-56" d="M143.75,368.59c.19.95.76,1.92.91,2.85-.22,5.37-.39,10.75-.51,16.16l-1.29,1.2c-2.91,2.92-6.31,5.41-10.2,7.45-8.25,8.12-8.7-4.35-1.18-6.97l1.18-3.54c-.9-4.13.01-6.51,2.75-7.15-.12-2.09,0-3.88.38-5.37,2.4-2.65,3.07-5.52-.12-3.51l-2.35-.95c-.53,2.2-2.68,4.45-5.1,3.73-.92,0-1.01-.33-.3-.95-1.76-2.01,2.8-6.56,5.14-6.89,5.52-9.37,13.05-5.99,10.69,3.93Z"/>
        <path class="cls-31" d="M21.21,415.06c3.39-.55,6.01,0,7.88,1.68-.79,2.62-3.33,3.55-7.62,2.78,2.73,3.77,5.1,7.8,7.12,12.07,2.52-.11,5.54,2.93,7.21,5.6l4.05,3.38c2.63-1.18,3.2.17,1.86,2.55,2.63-1.15,5.8.44,5.33,3.54,2.18-.93,4.38.46,6.58,4.19l2.27-1.01c5.09,3.16,10.49,5.77,16.58,6.08l1.28,2.13,8.19-1.46c1.94.87,4.69,1.01,8.25.4,1.37-2.23,5.02-3.2,6.97-1.18,1.72-3.6,3.2-4.43,4.45-2.47.46-3.37,5.22-2.38,6.32.08,1.84-2.11,4.97.58,4.07,2.89-.15.55-.47.64-.95.3-8.86-5.18-8.43-.67-15.6,1.72-4.41,1.47-11.85,1.9-16.68,2.29-14.26-.14-29.95-3.63-38.66-15.97-.38.04-.72.02-.93-.15-3.82-3.26-24.39-22.03-25.92-25.7-2.6-6.24,4.23-6.83,7.95-3.77Z"/>
        <path class="cls-114" d="M120.74,464.03c.96,0,1.64-.56,2.15-1.48,2.91,2.12,6.94,2.79,8.62-.92,8.9,4.11,17.65,8.46,26.9,11.8,3.73,1.35,6.99.1,10.5,3.52,4.25,7.27-6.24,5.15-10.4,2.87-8.78-5.11-17.92-8.33-27.43-9.67-4.26-2.36-6.33-3.46-10.35-6.13Z"/>
        <path class="cls-19" d="M131.09,470.16c1.92-.7,3.71-1.48,5.83-1.3,7.39.64,21.49,10.41,29.92,11.34,3.49.38,3.24-.49,2.07-3.25,1.32,1.28,2.72,1.73,1.39,4.3-4.64,8.96-24.72-5.77-31.86-6.11-2.46-1.58-4.81-3.57-7.36-4.99Z"/>
        <path class="cls-111" d="M97.33,416.97l-1.29,1.02,6.34,19.89c.59,1.77.39,2.71-.61,2.83-3.93-8.31-9.95-15.52-14.55-23.41-2.52-4.32-2.56-8.83-7.43-12.57,1.62-1.1,3.66-.41,6.12,2.05-.87-3.07-1.55-5.65.28-8.29,3.75,6.12,7.41,12.34,11.14,18.47Z"/>
        <path class="cls-30" d="M63.93,384.64c-.29,1.12-2.35,1.35-1.13,2.94.48.63,8.48,3.39,11.13,5.4.84.99,1.99,1.32,3.46.99,1.83,1.05,3.64,2.75,5.41,5.11-.51-4.36.96-6.76,4.41-7.19.46,2.62-1.3,3.75-1.03,6.62.36,3.82,2.52,8.67,2.03,12.98l-8.43-6.74c-4.57-1.12-9.42-2.7-12.56-6.48-.84-1.85-.01-2.36,1.88-2.44l.26-1.48c-5.76-.83-15.69-9.21-5.44-9.71Z"/>
        <path class="cls-78" d="M106.04,352.32c.74,2.3.62,4.09-.38,5.37l-1.3-.37c-.54-8.28-1.43-16.44-4.39-24.03-1.69-3.73-3.06-7.71-4.1-11.93-1.86-4.43-4.03-8.98-7.69-5.28,1.23,1.67.38,2.33-1.6,1.56,0,.92-.33,1.01-.95.3,1.06-1.53,1.12-4.35,3.24-6.28,1.34-2.42,4.82-3.66,7.22-2.05,3.08,2.07,13.14,36.91,9.96,42.71Z"/>
        <path class="cls-3" d="M12.21,327.75c0,.92-.33,1.01-.95.3-1.94.5-4.1.64-6.48.41,4.18,16.63,10.7,32.78,19.78,47.29l-.96.79c-3.22-2.56-7.83-10.5-9.69-14.34-.96-8.3-15.69-29.56-13.72-36.28,1.66-5.68,9.26.72,12.02,1.83Z"/>
        <path class="cls-158" d="M11.25,328.06c.92,0,1.01.33.3.95.42,1.9-.36,2.44-2.06,2.03-.24,7.6,2.37,15.14,5.59,22.03l-.39,2.2c4.4,7.47,8.52,14.89,12.36,22.27.05,1.69-.69,1.57-2.21-.34-.3-.1-1.02-.46-1.26-.65-.54-5.24-4.63-7.99-6.79-12.26-2.14-4.21-15.49-36.66-14.67-38.56l9.13,2.32Z"/>
        <path class="cls-35" d="M23.11,414.46c-.43.52-1.07.73-1.9.61-2.4-.26-4.92-.88-7.26.23-.97,1.96,12.62,16.91,15.05,19.34,3.18,3.18,7.65,7.22,11.11,10.06.8.74,1,1.38.61,1.9l-29.43-27.04c-2.18-8.89,6.26-8.72,11.83-5.09Z"/>
        <path class="cls-62" d="M139.95,419.09c-.75,1.18-1.38,1.38-1.9.61-3.23-1.03-1.94-6.45.56-8.37,2.09-6.37,5.62-18.52-4.73-11.62l-1.26-.3c-1.89.73-1.45-.36-.61-1.9.15-.62.47-.72.95-.3,3.27-3.16,6.89-6.07,10.85-8.71,0-.92.33-1.01.95-.3-.24,11.93.13,19.49-4.81,30.9Z"/>
        <path class="cls-21" d="M111.36,431.37l1.63,1.72c.25,9.37,2.29,12.52,6.13,9.44-2.13-2.16.33-3.84,2.89-4.07-.78-3.67,3.39-7.81,7.05-7.49-.89-1.83-.2-2.48,1.6-1.56,1.11-3.66,3.02-7.01,5.25-10.11l2.14.41c.37-.31,1.36-.31,1.9-.61-4.27,9.84-14.31,19.33-21.52,27.85-.7,1.14-1.45,2.08-2.25,2.82-3.01.24-3.16-1.31-2.74-3.84l-1.26-5.37c-3.8.18-4.23-4.33-3.38-7.31-.91.1-.97-.24-.3-.95l.24-2.49c-1.6-3.73-1.84-6.7-.73-8.89,3.42,1.08,5.82,7.78,3.34,10.47Z"/>
        <path class="cls-117" d="M63.63,383.69l.3.95c-1.39,1.3-6.37-.01-2.03,4.59,1.08,1.15,5.92,2.22,7.82,3.08,3.05,1.38,6.67,3,.72,2.83l2.46,4.45c-2.17,1.42-2.82-1.3-3.94-1.62-.79-.23-1.55.35-1.73.29-3.78-1.34-7.28-3.45-11-4.88-2.67-.08-5.47-.85-7.23-2.93l.33-1.07,8.6,1.96c1.08-.02,1.28-.88,1.19-2.02-.94.05-1.02-.28-.3-.95-3.9-3.82-2.29-4.85,2.45-4.53,1.48-1.35,2.26-1.4,2.35-.15Z"/>
        <path class="cls-157" d="M106.96,355.17c-.64-.76-.95-1.71-.91-2.85.28-12.81-4.33-22.75-7.99-34.72-.53-1.74-.15-3.87-.61-5.09-1.4-3.72-5.99-3.22-8.58-.85,1.03-4.34,7.05-4.87,9-1.27,2.54,4.68,7.82,22.69,9.11,28.5,1.2,5.4.61,10.88-.03,16.28Z"/>
        <path class="cls-54" d="M72.28,423.92c7.14,2.78,14.17,9.25,21,13.22,2.58,2.04,3.51,3.84,2.78,5.41,1.69.93,1.31,1.59-.65,1.26-2.33,1.16-2.77.73-1.56-1.6-1.32-1.92-3.32-3.14-6-3.66-3.82-3.2-7.45-6.47-10.89-9.82-1.99-.05-4.34-.95-7.04-2.72l-12.7-2.06-1.35-2.12c-5.82.45-9.7-.76-11.64-3.62,8.87-.85,19.41,2.35,28.05,5.73Z"/>
        <path class="cls-109" d="M101.77,440.73c2.24-1.04-2.79-7.51-3.4-9.24-.72-2.04-4.77-14.74-4.49-15.5.57-1.57,2.98.42,3.46.99,1.36,2.22,4.06,4.59,5.39,7.28,1.26,2.55,2.03,12.19,5.49,7.07.76-.03.83.31.3.95.1.32.21.63.3.95.21.85,0,1.27-.65,1.26-.89,1.81-2.06,2.38-3.53,1.71.37,2.63-.28,5.09-1.95,7.38.47,2.26-.98,1.77-2.85.91-.9.81-3.52-.7-3.77-1.94-1.17-1.08-2.21-3.82-2.78-5.41,2.17,1.26,6.4,4.55,8.49,3.58Z"/>
        <path class="cls-10" d="M40.11,444.69c1.59,1.3,11.51,9.48,12.24,9.79,1.26.53,4.26.17,6.45,1,1.81.69,2.77,2.32,4.29,2.86,4.52,1.62,10.99.82,15.68,2.31-13.79,1.12-29.51-1.87-38.05-14.07-.31-.44-.32-1.34-.61-1.9Z"/>
        <path class="cls-57" d="M145.65,367.98c-1.78.03-2.31-4.44-.57-5.06-.57-11.29-5.32-10.82-14.23,1.4-.72,3.57-5.76,8.48-9.6,9.36,3.52-4.75,14.53-21.72,19.36-22.92,9.56-2.38,7.48,14.98,5.04,17.23Z"/>
        <path class="cls-99" d="M73.4,335.48c.93-1.69,1.59-1.31,1.26.65,2.15,1.89,1.48,2.7-1.3,2.51l-.65,1.26c-1.03,5.96-1.44,11.95-1.26,17.97l-1.19.64c1.02,3.69,1.82,7.28,2.39,10.77,2.75,6.02,4.44,12.59,6.08,19.03,1.14,4.09.7,5.98-1.34,5.67-3.81,2.04-2.86-.53-3.46-.99,2.16.38,2.55,1.56,2.82-1.31.85-8.99-2.99-12.02-5.32-19.41-3.79-12-3.75-26.28,1.97-36.79Z"/>
        <path class="cls-165" d="M63.93,384.64c.08-.07-.25-.61-.3-.95l-1.54-.55c-1.12-12.95-2.99-25.79-12.21-35.96-9.51-5.81-19.87-11.65-31-14.64l-.39-1.55c-.59-.13-.67-.45-.3-.95,3.59,1.1,7.54,1.05,11.13,2.3,19.75,6.87,40.41,30.15,34.62,52.31Z"/>
        <path class="cls-2" d="M118.43,446.94c-1.41,2.82-.71,3.68.87,6.01,12.05,8.2,13.7,11.47,4.94,9.82-1.05,2.21-3.07,1.58-6.04-1.89l-3.09-1.35c-.77-.55-3.78-2.72-4.07-2.89l.95-.3c1.26-1.38,1.98-.19,2.51,1.3,1.06-1.84.93-4.04-.39-6.59l2.07-1.29c-.27-1.94,1.66-2.12,2.25-2.82Z"/>
        <path class="cls-86" d="M131.52,461.64c1.24,1.15,1.86,2.95,4.22,3.38-.68,2.02-3.53.16-4.93.28-1.32.11-2.31,1.27-3.74,1.19-2.06-.11-4.15-2.24-6.32-2.46-2.05-1.36-3.66-3.09-5.63-4.49,3.08-.76,5.4,1.7,6.59,4.18l1.45-3.6,6.45,2.12c-2.99-3.53-7.66-5.38-10.31-9.28,4.63,1.74,8.65,5.37,12.21,8.68Z"/>
        <path class="cls-15" d="M27.06,377.54c.97-.19,1.64.58,1.56,1.6l13.47,9.33c.05-.92.37-1.03.95-.3,2.12-.56,5.17.24,5.97,2.29,2.41,1.01,4.79,2,7.23,2.93-2.02,1.14-3.23.02-4.93-.45-11.23-3.08-21.13-3.65-26.46-15.74.68.22,1.5.18,2.21.34Z"/>
        <path class="cls-110" d="M99.79,372.14c.09,2.08-.99,4.17-3.24,6.28-1.76,2.72-6.49,6.84-8.34,10-.13.59-.45.68-.95.3-1.65,3.25-8.16,3.35-7.57-.73,0-.92.33-1.01.95-.3.26-.8.9-1.28,1.9-.61-.2-1.46-.29-2.83-.26-4.11,1.31-1.23,2.25-.48,2.82,2.25l2.21,1.25c2.11-3.32,4.36-6.44,6.74-9.35-.91.04-.99-.29-.3-.95-.39-2.66.37-2.75,1.9-.61.3-1.47,1.62-3.18,3.2-3.12.04-.83.36-.92.95-.3Z"/>
        <path class="cls-92" d="M130.85,364.32c.75-1.31,1.38-1.51,1.9-.61.92,0,1.01.33.3.95-1.67,1.38-4.05,5.81-5.14,6.89-3.72,4.48-7.33,9.2-10.81,14.15-.68.88-1.66.26-2.63-.42l-.3-.95c1.65-2.93,4.99-8.2,7.09-10.65,2.13-2.49,6.99-6.98,9.6-9.36Z"/>
        <path class="cls-131" d="M145.09,362.92c.41,1.34-.13,3.56.57,5.06-.33.3-1.37.3-1.9.61-1.76-8.82-1.64-11.42-10.69-3.93l-.3-.95c1.04-7.08,12.94-13.96,12.33-.79Z"/>
        <path class="cls-104" d="M23.11,414.46c4.61-.45,15.84,1.11,20.91,1.84,9.08,1.3,20.36,3.21,28.26,7.63-7.91-3.08-19.59-4.58-28.05-5.73-.02,1.71-1.39,1.8-4.11.26-1.24,2.9-6.68,1.56-7.57-.73-1.82,2.41-2.98,1.93-3.46-.99-2.44-.32-5.82-1.45-7.88-1.68.63-.11,1.3-.55,1.9-.61Z"/>
        <path class="cls-74" d="M86.58,317.63c3.47-.05,1.26,2.23-.99,3.46,2.47,1.8,1.5,2.25-1.3,2.51l.28,3c-2.57,1.93-5.12,4.16-7.67,6.7,1.86,2.25.51,3.53-2.25,2.82l-1.26-.65c3.57-6.56,7.98-11.43,12.23-17.54l.95-.3Z"/>
        <path class="cls-20" d="M106.96,355.17c1.58,6.28-5.12,19.43-10.4,23.25,1.23-1.89,2.17-4.33,3.24-6.28,2.25-4.3,3.79-8.89,4.61-13.8l1.26-.66c.27-1.75.35-3.61.38-5.37.26.96.67,1.89.91,2.85Z"/>
        <path class="cls-1" d="M108.22,405.11c2.47,1.53,3.19,9.31.18,10.43,2.35,2.85,2.22,4.64-.38,5.37.03.35-.44,1.25-.27,2.6.35,2.81,3.69,6.44.76,8.78-.1-.32-.21-.63-.3-.95-2.49-8.98-2.42-16.86-.94-25.92.11-.63.44-.72.95-.3Z"/>
        <path class="cls-153" d="M114.47,385.28c.89-.09.96.24.3.95-1.85,6.34-4.06,13.55-6.56,18.87l-.95.3c1.24-7.62,3.09-14.31,6.9-21.08l.3.95Z"/>
        <path class="cls-59" d="M144.77,388.19l-.95.3c-.08.55-.42.62-.95.3,3.36-5.75-1.7-12.37,1.8-17.35.98,6.16.21,11.25.1,16.75Z"/>
        <path class="cls-26" d="M18.18,330.04l.3.95c-.79,3.43-8.45,1.63-6.93-1.98l-.3-.95.95-.3c1.97.78,3.95,1.67,5.97,2.29Z"/>
        <path class="cls-93" d="M78.73,388.3c2.47,3.09,5.77,3.23,8.52.42l.95-.3c-.09.16-.2,1.77-.99,3.46-.45.96-1.66,1.78-2.11,3.26-.52,1.68.35,6.62-1.63,6.32-2.56-.38-6.32-4.63-6.07-7.49.11-1.26,1.15-4.08,1.34-5.67Z"/>
        <path class="cls-160" d="M127.92,371.55l.3.95,1.26,1.49-2.68,10.5c.84.41.83,1.46-.04,3.16l.8,3.52c-2.24,6.54-5.35,12.85-8.35,18.81-.07,3.08-2.18,13.11-3.89,7.53-.96-.02-2-.37-2.18-1.25-.16-.81,1.34-9.97,1.76-11.87,7.57-19.41,2.54-12.13-1.18,2.18-4.34,2.35-5.45-1.02-4.13-4.94l5.17-15.4c-.01-.32-.27-.63-.3-.95,3.43-2.25,4.75-7.2,7.59-9.99,1.62-1.58,4.5-2.42,5.85-3.74Z"/>
        <path class="cls-120" d="M129.66,383.58c4.2-5.44,3.86,2.24,1.82,5.71-.79,3.16-3.34,4.81-3.71,8.01.72,1.67,4.25-.53,4.88-1.04.92,0,1.01.33.3.95-.25.19-.7.11-.95.3-.17,2.61-3.98,6.18-5.41,2.78-1.72,3.59-3.45,6.94-5.18,10.04.09,1.97-.76,2.25-1.9.61l-.3-.95c2.73-7.22,4.76-15.38,7.55-22.34.27-1.78,1.05-4.16,2.89-4.07Z"/>
        <path class="cls-145" d="M133.32,368.77c3.9.63,2.18,3.26-.65,4.86l-2.63,4.58c.04,2.38-.64,6.17-3.24,6.28-.06-3.07.11-8.65,1.42-11.99,1.4-2,3.15-2.63,5.1-3.73Z"/>
        <path class="cls-51" d="M132.29,375.4c3.04-3.06,3.92-.09,3.12,3.2-.98,3.6-1.63,7.74-3.93,10.69.6-2.39,1.37-7.81-1.82-5.71-.78-1.55.28-4.22,1.34-5.67-.92-1.03-.09-2.61,1.3-2.51Z"/>
        <path class="cls-23" d="M133.32,368.77c4.69-2.65,5.34-3.91,7.23,2.93-1.58.52-3.18,1.02-4.76,1.52-.42,1.91-1.59,2.64-3.5,2.17-.68,1.07-.82,1.3-1.3,2.51-.15.53-.48.62-.95.3.11-.26-.39-1.25-.07-2.02.99-2.37,4.41-4.11,3.35-7.42Z"/>
        <path class="cls-91" d="M143.81,388.5c-.26,4.18-4.21,3.28-5.96,4.47-1.78,1.2-3.06,2.87-4.89,4.24l-.3-.95c3.92-3.13,5.36-4.57,10.2-7.45.28-.16.66-.15.95-.3Z"/>
        <path class="cls-142" d="M135.79,373.23c1.96,2.79,0,3.97-.38,5.37-.88-2.36-.45-4.71-3.12-3.2,2.3-3.63,2.12-1.73,3.5-2.17Z"/>
        <path class="cls-164" d="M56.21,445.84c1.03-2.11,4.37-1.93,3.46.99,3.26,1.46,5.47,1.48,9.04,1.1,3.67,1.34,6.76,1.47,9.27.4,1.87-2.24,7.26.14,7.23,2.93,2.05.81,2.26,1.45.61,1.9.05,1.95-.78,2.22-1.9.61-1.16.72-2.2,1.38-1.76,2.91l-8.4,1.38c-9.88-.89-11.69-2.43-20.13-7.21-5.75-4.77-3.49-5.4,2.59-5.02Z"/>
        <path class="cls-167" d="M44.38,431.79c2.27-2.32,6.05,1.81,7.53,3.89l2.42,2.66c-.09.71-11.42,6.54-12.62,4.79-.83-.9-1.22-1.69-1.86-2.55-3.31-1.77-16.06-14.32-10.02-16.45,4.65,2.97,9.5,5.52,14.55,7.66Z"/>
        <path class="cls-76" d="M29.09,416.74c1.38.18,2.71.91,3.46.99l1.23,1.59c3.6.04,4.75,1.11,3.45,3.2,3.2,2.26,2.01,5.55-1.94,3.77l-.82.56c-5.16-4.45-7.48-2.71-4.8,3.73l-1.08,1c-4.28-4.73-8.05-10.09-12.12-15.01,4.04,1.16,8.52,1.47,12.63.16Z"/>
        <path class="cls-53" d="M35.29,426.3c4.15-.75,7.81,1.48,9.09,5.49l-4.57-1.14-10.04-5.21c-.68.68,1.53,5.63,2.05,6.62.56,1.08,2.49-.58,3-.3.66.36.74,3.01,1.48,4.12.92,1.39,2.43,3.2,3.55,4.71-4.66-1.1-8.14-5.54-11.26-8.99l-2.43-7.62c5.46-2.93,5.79.24,9.13,2.33Z"/>
        <path class="cls-90" d="M84.03,444.29c2.89-.79,5.94-.02,9.13,2.33.45-.91,2.03-1.42,4.76-1.52,1.89-.13,4.56,2.01,4.37,3.85,2.86,1.24,2.17,3.6-.69,4.41-1.24.4-2.77,1.87-4.45,2.47-1.62-.83-2.66-1.9-3.12-3.2-.92,0-1.01-.33-.3-.95-.75-1.16-2.49-1.77-5.22-1.82l-9.54-3.37-1.26-2.28c-.63-.11-.72-.44-.3-.95.85-2.98,5.6-.94,6.62,1.03Z"/>
        <path class="cls-6" d="M55.98,438.57c1.71,2.32-.36,4.07-6.2,5.24l-2.75,2.86c-1.61-1.16-3.6-1.68-5.33-3.54,3.19-1.85,5.36-3.96,9.18-4.78,3.17-.68,2.15.96,1.03-2.68,1.4-.98,5.21,1.19,4.07,2.89Z"/>
        <path class="cls-162" d="M85.81,453.16c1.49-1.54,5.91-.91,8.22-.53,1.11,0,3.86.47,4.56,1.17l-1.45,2.03c-2.89,1.03-3.96,1.67-6.97,1.18l-2.15-.22c-5.24,1.82-10.73,1.16-4.12-3.02.61-.2,1.3-.51,1.9-.61Z"/>
        <path class="cls-125" d="M99.82,444.49c2.84-.53,3.78.22,2.82,2.25,2.06-1.23,4.21-.44,6.44,2.37,4.43.28,8.58,4.8,5.43,8.52-1.31-.43-1.47-.63-2.51-1.3-1.27-.81-1.72-2.25-4.07-2.89-1.12-1.41-2.85-2.12-5.17-2.11l-.46-2.39c-1.36-.9-2.42-2.57-4.37-3.85-.87,1.85-3.06.75-2.51-1.3l.65-1.26c.16.14,2.48.96,3.77,1.94Z"/>
        <path class="cls-82" d="M83.91,453.77c-1.06,1.45-2.15,1.54-.99,3.46,1.68-.47,3.39-1.4,5.16-1.46,1.28-.04,1.89,1.2,2.11,1.24-5.37,2.36-11.08,1.54-16.44,1.06,3.77-.56,6.67-3.18,10.16-4.29Z"/>
        <path class="cls-122" d="M52.44,443.89c1.77.39,3.03,1.03,3.77,1.94l-4.75,1.52,2.16,3.5c-2.72-1.54-4.03-2.34-6.58-4.19,1.09-1.84,3.67-4.55,5.41-2.78Z"/>
        <path class="cls-13" d="M107.92,453.44c-2.09-.57-4.19-.76-6.32-.08l.69-4.41c1.63,1.08,7.08,1.37,5.63,4.49Z"/>
        <path class="cls-137" d="M105.66,357.68c-.88,5.71-3.21,9.62-5.87,14.46l-.95.3c-.92,0-1.01-.33-.3-.95,6.34-12.35,3.71-24.74.48-37.91,0-.92.33-1.01.95-.3.65,2,2.63,4.34,3.52,7.78,1.43,5.54.11,11.29,2.18,16.62Z"/>
        <path class="cls-7" d="M88.18,316.07c.51-.57.32-3.27,3.16-3.05,5.95,5.71,6.19,12.72,8.63,20.26l-.95.3c-2.21.61-2.91-2.63-1.22-3.81-1.16-1.8-1.77-3.7-1.82-5.71-3.14-1.99-4.27-4.43-3.38-7.31-1.94.7-3.41.47-4.41-.69Z"/>
        <path class="cls-147" d="M92.59,316.76c.48,2.32-.37,2.78-2.55,1.86-.71,3.31-1.45,5.38-4.45,2.47.65-1.17,1.78-1.75.99-3.46.51-.54,1.11-1.01,1.6-1.56,2.08-.89,2.87-.72,4.41.69Z"/>
        <path class="cls-102" d="M11.56,329.01c1.74,2.2,5.29,1.41,6.93,1.98,9.65,3.41,24.03,9.17,31.39,16.19,1.4,1.55,1.8,2.82,1.22,3.81,0,.92-.33,1.01-.95.3-2.3.35-3.09-.38-1.33-1.98-1.44-2.34-3.7-3.95-6.17-5.06-.34.37-.69.69-1.1.85-1.12.43-19.18-8.72-20.89-10.6-.06,1.05-.91,1.67-2.55,1.86-1.42,1.42-3.25.94-5.08.18-.4.56-.07,12.09,2.07,13.36,3.12,5.19,6.22,10.09,9.78,14.86.53.71.57,1.25-.2,2,2.67-.05,4.66,6.26,2.43,7.61l-.97.27c-4.16-6.27-7.91-12.72-11.43-19.38-3.4-8.33-5.64-17.12-8.2-25.69l5.06-.57Z"/>
        <path class="cls-8" d="M27.1,374.38c2.73-.79,3.94,2.43,2.47,4.45-.04.81-.36.9-.95.3-.49-.53-.99-.87-1.56-1.6-4.49-5.74-9.53-15.33-12.36-22.27l12.4,19.11Z"/>
        <path class="cls-175" d="M132.62,399.41c2.5-1.96,6.85-5.05,10-4.78-1.41,2.37.3,4.72-.03,7.07-.83,5.95-5.45,11.93-4.54,18-1.05.87-5.34,7.34-7.39,9.7-2.6-.51-1.33-6.01,1.03-6.62.47-5.64,2.37-10.08,5.69-13.32l1.17-4.6c-.89.18-.94-.17-.3-.95,1.03-3.44-1.09-5.65-4.07-2.89.78,3.01-2.22,4.66-4.45,2.47-.43.94-.95,1.28-1.9.61-1.12-2.47,3.04-4.48,4.8-4.68Z"/>
        <path class="cls-91" d="M132.62,399.41c-1.14.89-3.2,3.58-4.8,4.68-.13,1.75-.89,2.07-1.9.61-2.12-.73-1.01-3.62.69-4.41,4.99-.04,2.81-.82,5.41-2.78l.61,1.9Z"/>
        <path class="cls-136" d="M123.63,410.67l1.7-1.41c4.92-4.3,7.65-4.45,8.19-.47-2.7,6.93-3.74,14.72-4.45,22.17-2.3,2.64-4.78,4.88-7.05,7.49-2.83,2.29-4.83,2.58-6.01.87-.99-1.25-.34-2.66.99-3.46.05-2.18.61-4.81,1.68-7.88-1.68-1-1.29-1.69.65-1.26l2.33-9.13c-1.8-.94-1.67-1.87.34-2.21-2.13-1.36-1.06-4.91,1.64-4.72Z"/>
        <path class="cls-24" d="M134.18,401.01c2.83-2.82,5.39-.58,4.07,2.89.14.29.21.64.3.95l-.82,4.07c-3.51,3.41-5.53,8.03-6.04,13.86-.17,1.97-1.34,4.36-1.03,6.62-.49.56-1.12,1-1.6,1.56-3.76-.57-1.61-1.07-1.35-2.68,1.01-6.2,2.86-12.43,4.06-18.58l-.84-2.41c-2.79-.36-1,2.4-1.84,2.76-.72.31-4.24.54-5.46.62-1.98-.9-.73-3.47,1.3-2.51,1.25-1.85,2.85-3.41,4.8-4.68,2.15-.88,2.74-1.45,4.45-2.47Z"/>
        <path class="cls-172" d="M119.52,410.94c2.55.5,2.23,2.18-.04,3.16,1.6,2.98-2.97,18.12-5.37,19.99-1.2.93-2.93-1.19-2.74-2.72-.87-3.53-2.4-6.95-3.34-10.47-.19-2.31.4-3.84.38-5.37,2.11-.17,5.71,0,6.93,1.98.18-.03.46,1.2,1.12.26.29-.41,2.18-6.23,2.77-7.79l.3.95Z"/>
        <path class="cls-150" d="M119.48,414.09c1.21-.42,1.9.28,2.51,1.3-.19.71-.17,1.49-.34,2.21l-2.33,9.13c-.18.43-.47.82-.65,1.26-.42,2.93-1.52,6.43-3.58,8.49-.2,2.45.2,4.77,1.18,6.97.06-2.83,1.07-3.08,2.85-.91-1.15,1.49-1.64,3.94-3.84,4.37-1.22-4.33-2.97-8.56-4.17-12.9-.35-1.26.3-2.45.25-2.62l2.03,1.45c2.56-5.36,5.18-12.84,6.08-18.72Z"/>
        <path class="cls-64" d="M112.19,440.54c2.13,7.47,2.83,13.66-6.07,6.29-.66.97-1.82.94-3.49-.09-1.44-.99-1.86-1.52-2.82-2.25.92-.36,1.95-.53,2.85-.91,1.08-2.77,2.04-5.6,2.9-8.47l2.59-.62c.25-.39.39-.86.65-1.26.79,2.57,2.38,4.69,3.38,7.31Z"/>
        <path class="cls-28" d="M116.19,449.75c.09.19-.39,1.18.17,2.12,1.42,2.38,5.39,3.62-.55,3.24l.91,2.87c-1.63,1.09-1.78-.21-2.21-.35.66-5.79-8.22-8.39-11.87-10.89,2.53.2.59-3.37,2.71-2.95,2.72.53,3.53,6.84,6.58,4.17,2.12-1.85-1.23-5.45.26-7.42,1.4,3.63,2.43,5.92,3.99,9.21Z"/>
        <path class="cls-16" d="M122.02,438.45c-.9,1.04-1.91,2.79-2.89,4.07-.88.1-2.18.96-2.85.91-1.3-.95-1.74-3.28-.26-4.11,1.84-.44,4.41-2.21,6.01-.87Z"/>
        <path class="cls-156" d="M28.17,364.6c3.68-.73,9.41,2.08,11.88,5.09l4.14,2.38c3.32-.65,6.5,3.61,6.55,6.52l5.28,7.53c.77-.33,1.7.42,2.82,2.25.16.32.14.73.3.95.9.79,1.23,2,.39,2.33-.69.28-13.36-2.67-13.64-4.4l-.15-1.26c-6.93-3.13-19.63-9.72-19.05-18.8.05-.8.84-2,1.48-2.6Z"/>
        <path class="cls-135" d="M63.63,383.69l-5.72,1.82c.37.9.5,2.01.92,2.86-1.92.22-2.06-1.54-2.82-2.25l-5.77-8.19c-.53-1.17-.08-2.14,1.3-2.25,5.42,6.13,8.83,7.95,10.21,5.46l-1.48-.38c-2.03-10.36-5.09-20.28-9.19-29.77-.58-1-.68-2.67-1.22-3.81,1.55,1.48,4.59,4.87,5.75,6.58,5.67,8.36,5.07,20.18,8.01,29.93Z"/>
        <path class="cls-94" d="M45.89,387.26c3.34,1.19,5.84,1.96,9.34,2.69,1.09.23,3.92,1.58,3.9-.63.16.21,6.06,3.94,1.7,3.64-3.1-.21-8.1-3.48-11.83-2.5-1.94-.81-3.97-1.46-5.97-2.29-1.69-.93-1.31-1.59.65-1.26.74-2.07,1.73-1.8,2.21.34Z"/>
        <path class="cls-43" d="M39.74,423.83c2.14-3.01,4.07-5.62,7.63-2.75l8.51.74c6.69.4,15.32,3.62,21.08,6.9l1.54,2.09c4.26,1.75,6.03,3.82,5.3,6.21-.07.74-.39.83-.95.3-2.44,1.16-2.8.8-1.56-1.6-3.82-2.25-7.54-4.61-11.19-7.08-3.63-.06-3.97,2.91-1.02,8.94l-.47,1.14c-2.22,2.63-6.43-.45-5.33-3.54l-14.39-5.28c-2.69.93-10.31-2.52-9.16-6.07Z"/>
        <path class="cls-134" d="M76.96,428.72c4.36,2.48,5.8,4.21,9.54,6.95,2.75,2.01,6.73.76,7.35,6.53-1.24.85-1.47,2.32-.69,4.41-4.98-.47-4.96-1.22-9.13-2.33l-.25-1.3c3.46-.27,3.47-2.26.03-5.96-.79-.98-.81-2.6-2.39-3.87-1.7-1.36-4.35-.02-4.45-4.43Z"/>
        <path class="cls-33" d="M44.23,418.2l11.64,3.62c-2.48-.15-7.19,1.15-8.85,1.05-1.34-.08-1.69-1.64-2.5-1.62-4.37.1-1.39,3.9-4.79,2.57-1.63,1.42-2.32.3-1.56-1.6.51-1.33,1.16-2.59,1.94-3.77.78.11,2.44-.49,4.11-.26Z"/>
        <path class="cls-34" d="M93.85,442.21c.87.61,1.31,1.43,1.56,1.6,1.04.7,1.95.93,2.51,1.3,1.77,3.66-2.46,1.74-4.76,1.52-3.24-1.96-5.32-2.95-2.15-6.66.28,1.77,2.05,1.69,2.83,2.24Z"/>
        <path class="cls-116" d="M108.16,434.49c-1.9,3.02-1.03,4.23-1.57,5.51-.1.25-1.47-.05-1.79.41-.97,1.4.62,2.01-2.13,3.18,1.09-6.05-1.34-13.04-2.91-19,5.21.6,2.22,11.2,8.4,9.9Z"/>
        <path class="cls-139" d="M145.09,362.92c-2.82-9.17-5.68-5.57-11.17-1.36-1.05.81-1.06,2.06-1.16,2.15-.39.34-1.53.27-1.9.61.99-3.67,10.15-16.32,13.56-10.09,1.2,2.2,2.4,6.4.68,8.69Z"/>
        <path class="cls-75" d="M72.98,344c1.05,3.86.81,6.39-.73,7.57l1.82,9.02c1.53,2.25,1.78,4-.11,6.16,0,.92-.33,1.01-.95.3-1.47-2.47-2.38-5.32-2.74-8.56-.21-5.27.66-13.87,2.45-18.61.77,1.08,1.03,2.93.26,4.11Z"/>
        <path class="cls-75" d="M74.82,372.77c2.24,4.61,3.87,9.69,4.86,15.23,1.9,3.8,4.08,1.76,7.57.73-2.53,7.01-2.83,2.34-4.2,2.38-1.02.03-2.72,1.15-3.11.99-.22-.09-.91-2.91-1.22-3.8-2.2-6.33-4.31-12.8-6.08-19.03,0-.92.33-1.01.95-.3,1.18.96,1.44,2.32,1.22,3.81Z"/>
        <path class="cls-93" d="M73,367.06c.85,0,1.13,1.19.61,1.9l-.95.3c-1.22-4.3-2.21-6.17-2.39-10.77l2.74,8.56Z"/>
        <path class="cls-154" d="M36.15,383.03c3.11,1.62,5.09,3.44,5.93,5.45-6.2-2.67-8.8-4.31-13.47-9.33l.95-.3c2.43-1.23,6.66,1.27,6.58,4.19Z"/>
        <path class="cls-156" d="M43.68,386.91l-.65,1.26c-.23-.1-.72.4-.95.3l-5.93-5.45c1.43-2.54,7.77,1.17,7.53,3.89Z"/>
        <path class="cls-70" d="M99.57,364.87c-1.4,1.84-2.67,3.88-3.82,6.15-4.13.62-4.26,1.65-2.01,5.15.13.06.15.63.3.95-.64,1.46-1.85,2.83-3.64,4.12-2.07,6.46-6.84,7.91-3.87-.06l-.93-10.79c-2.36-4.23-1.87-8.43,1.42-11.99.41-3.23,1.29-5.96,2.63-8.18.61-.08.81.56.61,1.9l2.04,1.28-1.83,10.91c8.68.05,8.96-12.83,9.02-19.16l.98-.49c3.03,5.16,2.77,14.04.59,20.02-.08.21-.7.23-1.48.19Z"/>
        <path class="cls-170" d="M82.25,359.91c1.67-4.54.26-9.3-1.72-13.54l.75-.85c1.93,1.14,4.07,1.08,4.95-1.38,4.51-1.65,1.77,12.02.78,14.25-.58,4-1.04,7.97-1.42,11.99,1.13,5.39.96,10.34-.5,14.84-.67-.8-1.96-1.55-2.82-2.25-1.19-2.02-3.32-5.76-2.13-6.66,0-.92.33-1.01.95-.3,2.64,1.11,1.61-5.13.08-6.32-2.45-1.19-2.34-1.8.34-2.21-2.71-3.79-2.68-5.89.08-6.32-1.76-.87-1.36-1.56.65-1.26Z"/>
        <path class="cls-173" d="M73.16,354.43c1.98,1.21,3.28,2.95,3.9,5.23,2.19,2.49,3.5,4.61,4.46,7.83-.05.73-.36,1.55-.34,2.21,2.07.85,1.92,5.1-.08,6.32l-.95.3c-.95-1.26-1.7-.32-2.25,2.82,2.08,1.55,3.67,6.13,2.74,8.56l-.95.3c-1.93-3.87-3.43-10.75-4.86-15.23-.29-2.11-.58-4.12-.87-6.01-.91-4.93-1.57-10.15-1.7-15.19,2.12.28,2.48,1.4.91,2.85Z"/>
        <path class="cls-39" d="M85.6,370.38c.33,3.14,2.35,8.33,2.49,11.04.06,1.12-3.69,3.27-1.74,4.44,1.6.96,2.62-4.46,3.3-5.21,1.22-1.37,3.12-2.16,4.39-3.53,1.23,2.58-1.13,2.15-2.39,3.92-1.07,1.5-3.21,5.95-4.24,6.57-2.28,1.37-1.56-1.49-2.32-2.39-.35-4.73.06-10.11.5-14.84Z"/>
        <path class="cls-132" d="M99.57,364.87c.99,3.03-.52,5.26-2.93,7.23.46.93.13,2.08-.99,3.46-.57.28-1.3.35-1.9.61-.34-.16-2.74.54-3.33-.53-.14-.26.13-5.58.26-5.83.23-.44,3.63.26,5.27-.77,1.45-.91,1.75-5.35,3.63-4.17Z"/>
        <path class="cls-123" d="M77.9,379.13c-.54-2.12-2.26-7.71-.35-9.32,3.55-3.01,1.91,3.28,2.6,6.51.48,2.23,1.58,4.43,2.13,6.66.44,1.81,1.14,2.03.26,4.11-1.94.33-4-10.19-3.33-7.37l-1.31-.58Z"/>
        <path class="cls-67" d="M82.54,387.09c-.48,1.14-.22,1.74-1.9.61-.79-2.88-2-5.68-2.74-8.56l1.59-1.56,3.05,9.51Z"/>
        <path class="cls-39" d="M98.53,371.49l.3.95c-.9,1.31-1.72,2.39-3.2,3.12-.89-1.81.59-2.51.99-3.46.77-1.29,1.41-1.49,1.9-.61Z"/>
        <path class="cls-69" d="M40.12,418.46l2.81,2.24c-1.44.68-3.42.82-4.76,1.53.04.91-.28.99-.95.3-1.81-2.57-5.4-.43-5.44-4l.76-.8c2.57.29,4.71.33,7.57.73Z"/>
        <path class="cls-106" d="M90.04,318.63c2.31,1.39,4.28,3.21,5.93,5.45.62,1.9,1.21,3.81,1.82,5.71-1.45.67-2.17-.49-2.17-3.5-5.07-.69-5.91,1.71-2.51,7.22l-1.72,2.52c.88.95.62,2.83.26,4.11.89.85.35,3.31-1.3,2.51,0,.92-.33,1.01-.95.3-1.49-1.75-1.98-4.39-1.48-7.92-.97-1.53-3.36-10.41-2.84-10.67.86-.42,1.31,3.36-.81-.75.26-.38.88-1.76,1.3-2.51,1.97-.23,3.03-1.37,4.45-2.47Z"/>
        <path class="cls-49" d="M80.71,332.09c.88,2.49,1.92,6.77.83,9.17l.3.95c.11.99-.74,1.89-2.56,2.68-3.31,7.04-7.12-1.13-5.92-6.26.31-.65.96-1.95,1.3-2.51.58-.98,1.6-1.84,2.25-2.82,2.86-3.22,4.13-3.63,3.81-1.22Z"/>
        <path class="cls-98" d="M84.29,323.61l2.09-.11c.61,3.81.72,7.77,1.56,11.53.21,2.45.51,8.76-1.19,10.33-2.18,2.01-7.29,1.31-4.3-1.24-1.9.15-1.9-.59-.61-1.9-.14-.3-.15-.66-.3-.95,3.34-2.37,4.8-11.63-.83-9.17l-.82-.56-2.99,1.77c2.31-3.47,5.05-6.33,7.39-9.7Z"/>
        <path class="cls-5" d="M114.78,386.23c.1,2.47-1.45,8.2-2.22,10.78-.83,2.79-5.66,7.86.07,8.78-1.58-2.21,4.94-16.04,5.76-16.52,6.68-3.88-.24,11.89-.71,13.19-1.6,4.45-.75,2.36-1.22,6.46-.35,3.09-1.86,5.78-1.13,8.59-2.98.5-5.36.97-6.93-1.98-.03-3.28-.76-6.64-.18-10.43.87-5.7,3.9-13.64,6.56-18.87Z"/>
        <path class="cls-144" d="M73.36,338.63c.95,8.8,1.6,8.57,8.49,3.58.28.59.35,1.3.61,1.9-.33,1.03-.98,2.29-1.94,3.77,1.46,10.35-9.44,4.93-7.53-3.89.08-1.34-.26-2.76-.26-4.11.16-.43.45-.83.65-1.26Z"/>
        <path class="cls-142" d="M129.66,383.58c-.48,1.16-2.44,2.95-2.89,4.07-.3-1.05.06-2.14.04-3.16,1.86-1.72,2.32-4.08,3.24-6.28l.95-.3c-.4,1.02-.54,3.74-1.34,5.67Z"/>
        <path class="cls-107" d="M126.61,400.28c.38,1.6-.26,2.95-.69,4.41,1.4.64,1.07,1.8-.99,3.46-.2.58-.94,1.21-1.3,2.51-1.05,2.62-1.5,2.44-2.21-.34-.43-2.3,2.01-9.52,3.65-10.53.84-.51,1.39.48,1.53.48Z"/>
        <path class="cls-121" d="M121.42,410.33c.43-.02,1.27.4,2.21.34-.45,1.67-1.26,3.28-1.64,4.72-1.95.87-2.09.8-2.51-1.3.13-.86-.34-2.15.04-3.16.63-.1,1.34-.58,1.9-.61Z"/>
        <path class="cls-29" d="M70.44,444.44c1.61-2.54,3.97-.89,4.72,1.64,2.13-1.44,4.04-.22,2.82,2.25l.75,3.94c-3.07-.58-7.82-2.2-10.7-2.4-4.53-.31-3.94,2.61-8.36-3.04.56-3.72,7.56-3.19,10.77-2.39Z"/>
        <path class="cls-12" d="M77.71,444.21c4.89.75,9.36,3.21,13.89,4.67,1.72.56,4.18-.1,4.38,0,2.55,1.19-1.14,2.58-2.25,2.8-2.23.98-6.9,1.33-8.52-.42-2.37-.49-4.94-1.86-7.23-2.93-.88-.41-1.86-1.75-2.82-2.25-4.4-3.08-.87-4.33,2.55-1.86Z"/>
        <path class="cls-45" d="M58.84,437.66c4.77-.53,9.64,2.45,11.6,6.78-1.84.6-9.55,2.72-10.77,2.39-.78-.21.4-.5-3.46-.99-1.56-.2-3.76.11-3.77-1.94l.76-1.36c3.18-.24,4.43-1.66,3.74-4.27-.41-1.02.22-1.23,1.9-.61Z"/>
        <path class="cls-82" d="M93.73,451.68l.3.95c-1.39,0-6.99.33-8.22.53l-.61-1.9c2.52.52,6.01.93,8.52.42Z"/>
        <path class="cls-89" d="M39.74,423.83c3.24,3.54,17.89,8.22,23.55,11.36-.39,2.02-1.87,2.3-4.44.84v1.63c-.63.23-1.3.36-1.91.61.07.9-.26.97-.95.3-.95-1.92-2.72-2.08-4.07-2.89-2.58-1.55-5.21-2.57-7.53-3.89-3.05-1.72-6.12-3.63-9.09-5.49,2.84-.29,1.68-3.31,1.94-3.77.09-.15.63-.13.95-.3.24.83,1.14,1.14,1.56,1.6Z"/>
        <path class="cls-151" d="M56.93,438.26l4.37,3.84c-2.86,1.77-6.13,1.31-8.86,1.79-3.02.53-2.46,1.52-5.41,2.78.15-4.07,4.05-4.03,6.68-5.73,1.16-.75,1.69-1.96,2.27-2.37.22-.15.63-.17.95-.3Z"/>
        <path class="cls-18" d="M98.53,371.49c-.38.31-1.36.31-1.9.61,1-2.39,1.98-4.82,2.93-7.23,3.92-9.85,2.45-10.05.89-20.21-1.59-1.83-3.82-9.92-1.44-11.08,3.77,8.39,7.66,31.24-.48,37.91Z"/>
        <path class="cls-143" d="M97.8,329.78c.57,1.01.69,2.65,1.22,3.81-.24,3.12.87,7.4,1.44,11.08-.42,9.7,2.09,22.32-11.97,21.64-.57-4.85,2.2-9.33,1.76-14.18-.45-2.76,0-4.65,1.34-5.67,4.12,6.71,6.15,4.31,6.09-7.19-2.88.07-4.04-3.87-1.82-5.71-3.57-.91-3.92-6.44-.22-7.27.13.16,1.86,2.96,2.17,3.5Z"/>
        <path class="cls-171" d="M92.59,316.76c2.15,1.97,2.53,4.72,3.38,7.31-3.46-3.15-6.82,1-5.93-5.45.6-.47,1.01-1.93,2.55-1.86Z"/>
        <path class="cls-159" d="M42.64,344.25c8.99,2.61,6.99,14.7.39,18.48-6.79-9.17-13.86-17.82-22.96-24.67-1.26-1.77-1.92-3.87.57-3.57,5.37.61,17.52,6.49,21.99,9.76Z"/>
        <path class="cls-63" d="M61.76,381.14c.1,1.26-.43,1.7-1.66,1.73-1.06.02-15.56-11.22-13.97-14.57-.68-.68-.88-1.31-.61-1.9,6.33-2.49,5.87-7.28,3.31-12.97l1.3-2.13.95-.3c1.55,2.67,4.04,3.54,5.5,7.1,2.23,5.44,3.27,16.33,5.18,23.05Z"/>
        <path class="cls-42" d="M20.65,334.49c-2.33,3.56,4.69,4.9,5.36,5.88,3.51,5.18,3.69,4.45,7.4,8.67,3.44,3.9,6.19,8.94,9.65,12.9.95-1.89,2.97-5.58,3.36-7.42.51-2.38-2.35-4.31,2.16-4.83.22-.35-5.24-4.94-5.93-5.44,4.6.91,5.84,3.09,7.49,7.05.96,2.3,2.8,7.39,2.54,9.66-.33,2.83-3.67,8.38-7.15,5.45-2.85-2.23-5.64-4.45-8.37-6.67l.57-1.32c-3.4-4.85-7.84-10.65-13.43-12.76-1.98-1.79-6.13-6.52-5.89-8.33-.94.05-1.02-.28-.3-.95-1.06-3.18.05-2.15,2.55-1.86Z"/>
        <path class="cls-60" d="M28.17,364.6c.67,12.65,9.74,14.3,17.93,19.95,1.96,1.36,2.58,2.14-.2,2.7-.65-.23-1.59-.1-2.21-.34-1.35-.52-5.94-3-7.53-3.89-2.29-1.27-4.66-1.9-6.58-4.19-1.51-1.79-1.6-2.51-2.47-4.45-1.03-2.29-1.33-5.51-2.43-7.61-.07-1.18.36-2.01,1.3-2.51,1.04-2.47,1.76-2.31,2.21.34Z"/>
        <path class="cls-168" d="M13.91,342.94l2.32.51c1.95,5.48,4.75,11.84,6.96,15.4.96.02,1.05.34.3.95,2.4-.3,2.83,2.49,2.47,4.45.87,1.95.8,2.09-1.3,2.51-2.94-5.59-7.1-9.75-9.58-16.87-1.99-2.72-2.38-5.04-1.18-6.97Z"/>
        <path class="cls-84" d="M18.1,336.36c.1.3.16.68.3.95.02.78-1.15,1.5-3.5,2.17,2.38,1.46,1.79,3.38-.99,3.46-.22,3.15.1,3.89,1.18,6.97-4.41-4.31-2.53-11.82-5.46-17.13l8.48,3.58Z"/>
        <path class="cls-47" d="M138.55,404.86c2.34,7.84-3.76,6.78-4.34,8.91-.23.84.95,2.32.67,3.49-.15.64-2.62,4.52-3.19,5.52.24-2.85-.74-4.29.59-8.04,1.48-4.19,4.71-5.89,6.27-9.88Z"/>
        <path class="cls-47" d="M138.25,403.91c-1.36-2.85.01-4.82-4.07-2.89.23-.14.42-1.45,1.99-1.77,3.26-.66,4.59,2.77,2.08,4.67Z"/>
        <path class="cls-47" d="M127.82,404.09c.63-.2,1.3-.36,1.9-.61-.21,2.5-2.89,3.5-4.8,4.68.38-1.13.66-2.32.99-3.46.63-.2,1.27-.41,1.9-.61Z"/>
        <path class="cls-47" d="M116.99,435.86c-.88,1.68-1.51,1.88-1.9.61.71-2.96,2.44-5.71,3.58-8.49.9,2.93-1.06,5.42-1.68,7.88Z"/>
        <path class="cls-47" d="M119.32,426.73c.08-2.97.58-6.76,2.33-9.13-.95,3.97-.19,4.08-2.33,9.13Z"/>
        <path class="cls-105" d="M116.99,435.86c-.29,1.14-.81,2.32-.99,3.46-.24,1.47-.46,2.67.26,4.11-2.79-.21-1.58-5.26-1.18-6.97l1.9-.61Z"/>
        <path class="cls-152" d="M114.95,422.89c-.27,2.35.19,5.24-1.98,6.91-1.28-3.01-2.37-6.34,1.98-6.91Z"/>
        <path class="cls-72" d="M30.23,351.36c3.15.77,5.64,3.12,7.49,7.05,2.27,2.36,6.11,5.55,7.8,8,.31.45.32,1.34.61,1.9-1.48.87-2.96.47-4.46-1.2,2.23,1.46,3.07,3.12,2.51,4.97-5.78-1.82-10.6-4.74-16.02-7.47-.55-.28-1.75-.08-2.21-.34-2.68-1.56-2.17-2.67-2.47-4.45.18-2.18,2.74-1.49,4.11-.26,2.05-1.82,2.79-1.41,2.51,1.3,7.95,5.6,4.73-1.34.38-5.37-3.42-1.49-4.81-7.42-.26-4.11Z"/>
        <path class="cls-94" d="M46.13,368.3c4.37,4.01,8.04,8.94,12.19,12.57,1.43,1.25,2.01,2.51,3.44.26.13.48.32.94.46,1.41-3.49,3.56-6.8-4.95-11.14-5.34l4.93,8.91c-4.7-4.42-7.52-9.36-11.83-14.05-2.05-2.24-4.17-3.16-4.28-3.44-.56-1.41.35-4.93-2.21-7.07,3.2,1.51,5.88,4.4,8.44,6.74Z"/>
        <path class="cls-119" d="M68.62,438.73c-1.34-1.25-2.31-5.48-6.07-5.93.1-1.8,3.17-2.34,3.33-2.65,1.36-2.62-4.4-.39-2.63-3.36,2.29.25,5.49-.77,7.56,0,1.38.52,8.82,7.32,10.49,8.93-1.32,2.84.93,4.84,1.56,1.6l.95-.3c1.4,1.75,4.01,2.59,4.03,6.05l-3.81,1.22c-2.41-.64-5.48-.68-6.62-1.03-3.22,1.22-9.15-.23-8.79-4.53Z"/>
        <path class="cls-80" d="M58.84,437.66c-1.25-.75-11.11-6.22-10.65-7.08l10.33,3.87,4.77.74c1.18.65,3.2,3.18,5.33,3.54,1.99,1.85,6.18,3.72,8.79,4.53l.3.95c-2.41-.37-3.84-1.02-2.55,1.86-1.29-.67-3.45-.96-4.72-1.64-3.95-2.13-7.77-4.48-11.6-6.78Z"/>
        <path class="cls-79" d="M81.29,435.73c.52.5,1.04,1.08,1.56,1.6,1,1.01,5.12,4.52,2.01,4.59-4.82.1-8.98-6.92-14.65-4.76-2.14-1.19,2.98-5.12,4.15-5.26,1.58-.18,3.58,5.5,6.93,3.83Z"/>
        <path class="cls-14" d="M72.98,344c1.09,4.49,1.97,8.42,7.48,7.05-.81-1.17.03-2.32.05-3.16,2.76,2.72,3.05,8.3,1.74,12.03-.1.38-.51.8-.65,1.26-1.35,4.06-4.83-.79-5.3-3.7-1.43-.01-2.47-1.03-3.14-3.04-.29-.95-.61-1.9-.91-2.85-.07-2.53.58-5.23.73-7.57Z"/>
        <path class="cls-110" d="M74.82,372.77c-.41-1.27-.81-2.54-1.22-3.81l-.61-1.9.95-.3c.34,1.83,2.28,4.39.87,6.01Z"/>
        <path class="cls-95" d="M89.42,342.94c1.42,1.87,1.6,5.32.22,7.27-.32,2.55-2.51,7.35-2.63,8.18.14-4.23,2.07-8.42.16-12.63-1.86-.21-2.45,3.34-3.18,3.11-.17-.05-1.31-2.82-2.83-2.24,1.83,3.67,3.23,6.98,2.39,11.21-.21,1.07-1.22,1.74-1.3,2.07-.1-4.16.13-8.12-1.74-12.03.02-.74-1.11-2.53-.91-2.86.08-.13,2.71-.96,2.85-.91.18.06.26,1.58.67,1.73,2.19.83,4.56-8.77,4.82-10.82.78,3.47,1.43,2.34,1.48,7.92Z"/>
        <path class="cls-98" d="M91.58,346.45l-1.34,5.67c-.05-.59-.5-1.27-.61-1.9.16-1.31-.21-5.42-.22-7.27l.95-.3c1.63-.83,2.58,2.91,1.22,3.81Z"/>
        <path class="cls-65" d="M73.16,354.43c.98,1.95,4.02.65,4.31.82,1.1.65.79,6.31,4.14,5.92-1.13,3.59.05,4.29-.08,6.32l-6.36-6.95c-.84-1.98-1.37-4.07-2-6.11Z"/>
        <path class="cls-110" d="M81.18,369.7c2.59-1.41,2.54.77,2.85,2.64.43,2.57.3,5.91-.94,8.28-1.11-.66-1.72-3.33-1.99-4.6-.63-3.03.14-4.07.08-6.32Z"/>
        <path class="cls-83" d="M92.62,339.83c1.3.48,2.99.29,5.06-.57.35,2.09,2.12,12.93.61,13.41-.24.08-2.94-1.8-4.57.44-.72-2.21-1.42-4.45-2.13-6.66l-1.22-3.81,1.3-2.51c0-.92.33-1.01.95-.3Z"/>
        <path class="cls-127" d="M95.63,326.28c-.91,2.19-.3,5.04.22,7.27.24,2.11-1.27,3.06-3.2,3.12-.55,1.58-.97,1.36-1.26-.65-.15-4.02-1.23-3.52-2.04-6.22-1.39-4.66,2.89-7.43,6.27-3.52Z"/>
        <path class="cls-143" d="M92.66,336.67c2.55.8,2.23,1.84-.04,3.16l-.95.3c-.76-1.4-.21-2.83-.26-4.11l1.26.65Z"/>
        <path class="cls-101" d="M80.71,332.09c.55-1.34,2.64-3.88,3.53-5.32,2.94,6.12,2.6,10.3-.03,16.28l-2.67-1.78c-2.18-4.1-2.88-4.18-.83-9.17Z"/>
        <path class="cls-103" d="M95.86,333.55c.25,1.05,1.37,2.97,1.82,5.71-2.01,2.85-2.09,4.22-1.2,7.72-4.26-1.34-3.58-3.62-3.86-7.15-.09-1.05-.18-2.11.04-3.16.43-2.04.96-2.84,3.2-3.12Z"/>
        <path class="cls-149" d="M18.4,337.31c4.47,8.25,16.73,11.03,19.32,21.1-2.39-2.49-5-4.69-7.49-7.05l-1.94.38c-1.02-2.02-2.56-3.54-4.64-4.57l-2.17.33c-1.62-3.24-3.76-5.84-6.58-8.02,1.04-1.54,1.64-1.87,3.5-2.17Z"/>
        <path class="cls-176" d="M14.9,339.48c3.62-2.46,6.78,4.83,8.75,7.69,3.17.58,4.31,3.65,4.67,6.41l2.48,2.85c5.06,3.71,7.45,10.62-.69,4.41-.9-.47-1.34-.43-2.51-1.3-1.52-.88-2.99-1.11-4.41-.69-.3-.08-1.36.99-2.1-.06-2.75-3.84-5.5-11.28-7.17-15.86.04-.52.77-3.14.99-3.46Z"/>
        <path class="cls-97" d="M27.6,359.54l-4.11.26c-.04-.26-.26-.94-.3-.95l.19-1.1c3.06-1.83,3.17,1.01,4.22,1.78Z"/>
        <path class="cls-163" d="M30.23,351.36c-3.47.54-.88,1.91.26,4.11l.3.95c-3.79-1.7-5.23-6.47-7.15-9.25,4.45-1.22,5.08,2.77,6.58,4.19Z"/>
        <path class="cls-97" d="M30.49,355.47c1.92.68,7.71,7.96,7.14,9.25-2.61.67-6.37-1.54-7.53-3.88.58.3,4.62,1.87,4.71,1.64-1.02-2.25-2.73-3.85-4.02-6.06-.16-.28-.15-.66-.3-.95Z"/>
      </g>
    </g>
  </g>
</svg>