<?xml version="1.0" encoding="UTF-8"?>
<svg id="Layer_2" data-name="Layer 2" xmlns="http://www.w3.org/2000/svg" viewBox="0 0 293.85 231.16">
  <defs>
    <style>
      .cls-1 {
        fill: #4e483d;
      }

      .cls-2 {
        fill: #f4bb3a;
      }

      .cls-3 {
        fill: #585140;
      }

      .cls-4 {
        fill: #171e2f;
      }

      .cls-5 {
        fill: #fbc853;
      }

      .cls-6 {
        fill: #f2c04e;
      }

      .cls-7 {
        fill: #5c5036;
      }

      .cls-8 {
        fill: #deb14a;
      }

      .cls-9 {
        fill: #e9b642;
      }

      .cls-10 {
        fill: #e9c05c;
      }

      .cls-11 {
        fill: #8b784b;
      }

      .cls-12 {
        fill: #dbb253;
      }

      .cls-13 {
        fill: #f6c95f;
      }

      .cls-14 {
        fill: #9c854e;
      }

      .cls-15 {
        fill: #a0884f;
      }

      .cls-16 {
        fill: #f4c85e;
      }

      .cls-17 {
        fill: #efb331;
      }

      .cls-18 {
        fill: #4d4d4d;
      }

      .cls-19 {
        fill: #ab8f4b;
      }

      .cls-20 {
        fill: #e6b23f;
      }

      .cls-21 {
        fill: #e09c11;
      }

      .cls-22 {
        fill: #544e40;
      }

      .cls-23 {
        fill: #564d3a;
      }

      .cls-24 {
        fill: #f1bd46;
      }

      .cls-25 {
        fill: #514c3e;
      }

      .cls-26 {
        fill: #f1c65e;
      }

      .cls-27 {
        fill: #514735;
      }

      .cls-28 {
        fill: #b09148;
      }

      .cls-29 {
        fill: #e8bb54;
      }

      .cls-30 {
        fill: #f3c456;
      }

      .cls-31 {
        fill: #f1c55e;
      }

      .cls-32 {
        fill: #514b3e;
      }

      .cls-33 {
        fill: #e7a51c;
      }

      .cls-34 {
        fill: #ebc05a;
      }

      .cls-35 {
        fill: #a78e50;
      }

      .cls-36 {
        fill: #ecbd50;
      }

      .cls-37 {
        fill: #89774a;
      }

      .cls-38 {
        fill: #3d3c3a;
      }

      .cls-39 {
        fill: #cfa23f;
      }

      .cls-40 {
        fill: #f0bc46;
      }

      .cls-41 {
        fill: #efbd49;
      }

      .cls-42 {
        fill: #fbc956;
      }

      .cls-43 {
        fill: #524d40;
      }

      .cls-44 {
        fill: #ebb640;
      }

      .cls-45 {
        fill: #eac05c;
      }

      .cls-46 {
        fill: #47433a;
      }

      .cls-47 {
        fill: #666;
      }

      .cls-48 {
        fill: #edb741;
      }

      .cls-49 {
        fill: #f1ad1d;
      }

      .cls-50 {
        fill: #99824a;
      }

      .cls-51 {
        fill: #887549;
      }

      .cls-52 {
        fill: #b6974f;
      }

      .cls-53 {
        fill: #f9cc61;
      }

      .cls-54 {
        fill: #deb75a;
      }

      .cls-55 {
        fill: #d5ac4d;
      }

      .cls-56 {
        fill: #746644;
      }

      .cls-57 {
        fill: #e2b34a;
      }

      .cls-58 {
        fill: #bc9e54;
      }

      .cls-59 {
        fill: #bb9a4d;
      }

      .cls-60 {
        fill: #4a463d;
      }

      .cls-61 {
        fill: #3a3b3a;
      }

      .cls-62 {
        fill: #a88f50;
      }

      .cls-63 {
        fill: #957f49;
      }

      .cls-64 {
        fill: #ecb02c;
      }

      .cls-65 {
        fill: #edb437;
      }

      .cls-66 {
        fill: #efbf50;
      }

      .cls-67 {
        fill: #e7b23b;
      }

      .cls-68 {
        fill: #f2b838;
      }

      .cls-69 {
        fill: #e6bf60;
      }

      .cls-70 {
        fill: #ebb844;
      }

      .cls-71 {
        fill: #edc566;
      }

      .cls-72 {
        fill: #655739;
      }

      .cls-73 {
        fill: #f4c75e;
      }

      .cls-74 {
        fill: #caa856;
      }

      .cls-75 {
        fill: #a27f33;
      }

      .cls-76 {
        fill: #ebb02f;
      }

      .cls-77 {
        fill: #eeb02b;
      }

      .cls-78 {
        fill: #bc943b;
      }

      .cls-79 {
        fill: #514a3d;
      }

      .cls-80 {
        fill: #f4bc3f;
      }

      .cls-81 {
        fill: #706141;
      }

      .cls-82 {
        fill: #eabb4f;
      }

      .cls-83 {
        fill: #f5c95f;
      }

      .cls-84 {
        fill: #b88a28;
      }

      .cls-85 {
        fill: #f5c85e;
      }

      .cls-86 {
        fill: #474136;
      }

      .cls-87 {
        fill: #eebc4b;
      }

      .cls-88 {
        fill: #f3bb3d;
      }

      .cls-89 {
        fill: #56503e;
      }

      .cls-90 {
        fill: #ebac27;
      }

      .cls-91 {
        fill: #f3b836;
      }

      .cls-92 {
        fill: #f6c14b;
      }

      .cls-93 {
        fill: #cfac58;
      }
    </style>
  </defs>
  <g id="Layer_1-2" data-name="Layer 1">
    <path class="cls-79" d="M286.93,185.5l-.25-1.16c9.93-14.38,2.94-14.74-10.24-9.07-3.67,2.04-9.16,2.75-13.34,2.79-11.74,2.99-24.12,4.43-36.55,3.45-3.19.74-4.35,3-3.48,6.78-.29-.16-1.52.31-1.81-.06-.38-.47-.26-4.92.06-5.84,1.59-4.58,17.01-2.11,21.21-2.54,8.52-.87,23.38-3.94,31.84-6.13,3.28-.85,12.28-4.87,13.99-4.88,8.8-.07,4.58,14.37-1.43,16.67Z"/>
    <path class="cls-60" d="M202.11,101.8c-4.79,5.72-18.47,19.6-20.97,25.11-1.97,4.34.98,11.8-5.31,12.03-3.96.15-6.57-4.63-9.44-7.41-2.8-2.7-7.54-3.66-6.06-8.62,1.07-3.56,6.36-2.42,9.37-2.52-.08-1.77,1.52-1.71,1.91,0,.34-.07.83.12.95,0,1.39,3.43-1.57,4.55-8.87,3.34-1.48,1.09,17.62,20.42,12.14,6.17,5.86-10,13.1-19.05,21.74-27.15l3.58-.96c.28-.71.59-.7.95,0Z"/>
    <path class="cls-66" d="M151.6,50.65c1.64.61,3.73,1.98,5.72,2.79,4.95,1.79,9.94,5.3,11.44,10.23.86.84,1.26,1.52,0,1.86-1.53,1.2-3.1.54-4.71-1.98,1.09,2.75,1.96,7.52-1.96,7.56-.53.79-1.25.41-2.15-1.13.24-10.27-8.15-16.18-17.95-16.94-1.82-.99-1.32-2.88.08-4.25,2.48-1.9,5.66-1.28,9.53,1.86Z"/>
    <path class="cls-23" d="M197.35,136.21c-6.83,16.82,1.89,31.55,20.28,34.23,6.6,5.16,7.48-.56,7.36-6.33,3.68-.04,2.82,5.88.95,8.37-3.81,4.42-6.01,1.02-9.53,0-2.87,0-5.41-.62-7.62-1.86-2.66-1.57-10.22-6.94-11.87-9.34-1.51-2.19-4.93-11.17-5.07-13.69-.24-4.32,5.55-15.26,8.36-18.82h.95c-.19,2.47-1.46,4.95-3.81,7.44Z"/>
    <path class="cls-25" d="M250.72,196.66c2.85-.61,4.28,1.21,2.86,3.72,5.6,1.73,4.6,5.91,0,8.37,1.92,3.23-3.37,8.41-6.67,6.51-2.08,1.5-3.03,3.67-2.86,6.51-5.94-6.02,2.05-6.65,4.51-8.63.87-.71,6.17-8.6,5.92-9.42-4.12-1.36-7.47-12.42-10.14-13.4-1.69-.62-4.94-.23-6.96-1.1,1.18,4.7-2.48,12.2-8.01,8.44-1-.68-.41-1.7-.57-1.93.27-.81.59-.8.95,0,.18-.82.5-.79.95,0,4.43.87,5.04-3.47,3.6-6.83l1.17-.61c.29-.78.61-.78.95,0,.91-2.04,7.8-1.48,9.81-.61,2.17.93,6.52,7.28,4.49,8.98Z"/>
    <path class="cls-63" d="M141.11,100.87l.55.39c-3.09,8.63-.09,13.15,8.98,13.56,2.69-.67,3.64-1.91,2.86-3.72-1.38,1.19-1.89.65-.95-.93-.83-.26-.82-.57,0-.93.21-1.88,3.3.42,3.75,2.19,1.45,5.68-8.04,7.25-11.37,4.32-9.59-2.92-5.28-6.49-5.63-12.55-.35-5.96-2.41-12.29-2.17-18.43-2.59-3.16-2.97-3.98-5.54-1.57-.97.9-1.56,2.2-2.86,2.79-.66-.04-.66-.66,0-1.86-1.28-1.26-.86-2.02.95-1.86,6.01-6.01,11.57,1.29,10.08,8.25l1.35,10.35Z"/>
    <path class="cls-56" d="M40.09,63.67c-.66-.27-.64-.58,0-.93l.72-1.05c7.22,1.13,9.63-.83,7.22-5.86l1.59-1.47c-1.3-2.17-1.94-4.65-1.91-7.44-4.35-5.33-6.44-13.83-4.77-20.46-1.35-7.52-2.46-15.11-3.31-22.78-1.45-2.19-4.16-2.35-8.12-.47.79,1.6-.98,3.61-2.86,2.79-.25,1.66-.89,3.21-1.91,4.65,1.63,1.06,1.06,1.89-.95,1.86-4.14,8.5-9.14,16.81-15.25,24.18,1.4,2.3-1.77,4.5-3.81,2.79-.25.79-.57.78-.95,0-.29.48-.61.46-.95,0,1.49-1.78,3.35-2.7,4.2-3.81,7.13-9.26,13.25-21.41,19.1-31.58,1.98-2.37,8.66-5.32,11.35-3.59,4.11,2.65,1.93,9.26,2.57,13.34,1.46,9.42,5.08,19.07,5.74,28.81,1.27,4.85,6.8,16.66,2.82,20.57-3.48,3.41-6.79,1.91-10.52.43Z"/>
    <path class="cls-22" d="M206.88,83.2h-.95l-2.06.72c-3.22-3.12-4.18-1.52-2.89,4.78-7.62,11.59-16.23,22.31-25.85,32.16l-2.55-.46c.15-.14.74-2.49,1.59-3.48,3.44-3.99,7.45-7.75,10.77-11.89,1.86-2.32,11.42-13.98,11.92-15.37,1.03-2.87-2.32-12.14,5.52-10.96,3.81.57,3.58,3.58,4.5,4.5Z"/>
    <path class="cls-11" d="M169.71,79.48c-.83,1.54-3.43,3.84-4.77,5.58-.96,1.22-1.92,1.84-2.86,1.86l-1.45.61c-6.51-1.3-10.15-.88-10.94,1.25.02.32-.07.67,0,.93,1.22.74,2.34,1.95.95,2.79.57,5.73,1.21,11.31,1.91,16.74-3.35,1.4-3.49-1.53-3.51-4.41.25-6.88-.38-13.66-1.91-20.35,4.62.29,9.29.48,14,.58l.43-2.32c5.91-3.11,7.49-9.31,5.75-15.35l1.44-1.86c-.15-.48.1-1.28,0-1.86,3.71.59,3.68,12.6.95,15.81Z"/>
    <path class="cls-14" d="M275.5,198.52c-5.62,7.2-13.12,14.72-16.66,23.27-1.39,3.36-.87,10.69-6.5,9.16-2.36-.64-2.01-2.97-2.58-3.6h.95c1.09-.36,2.15-.34,3.17.08.34-8.43,5.62-18.71,13.99-21.47-1.09-2.33,3.49-7.61,5.72-7.44,1.23-1.04,1.86-1.04,1.91,0Z"/>
    <path class="cls-52" d="M263.11,178.06c.83.26.82.57,0,.93-1.84,1.06-3.11,1.06-3.81,0-4.88,2.46-10.68,3.29-16.2,3.72-1.19,1.57-1.83,1.57-1.91,0h-3.81c-.45,1.62-3.13,1.37-3.81,0-3.02.24-6.2.55-9.53.93,3.46,3.55,5.75,7.27,6.87,11.17l-1.16.92h-.95c-1.79-2.64-2.95-5.88-5.72-7.44-5.13-10.97,13.79-6.86,20.48-7.45,4.99-.44,14.58-1.89,19.55-2.78Z"/>
    <path class="cls-1" d="M239.28,155.74c9.66,2.95,11.8.19,12.39-9.3,3.27-8.57,3.76-12.66-2.91-19.77-2-1.4-3.25-2.86-3.76-4.41,8.49,4.73,12.78,9.83,10.41,19.93-.56,2.38-2.05,3.85-2.58,5.85-.76,2.9.66,7.44-2.52,9.63-2.66,1.83-9.42,1.39-11.03-1.93Z"/>
    <path class="cls-28" d="M21.98,40.42c-1.44-.19-2.81-.52-4.22-.83-1.53.34-1.13,2.08-1.5,2.69-3.53,5.82-2.29,16.23-13.27,9.69-6.2-3.7-1.33-8.68,1.83-12.48h.95l1,2.02c-4.35,6.08-5.72,8.04,2.93,8.86.08-3.77,1-6.16,2.74-7.16-.43-2.68,1.59-5.68,4.77-5.58.78-1.6,6.85.95,4.77,2.79Z"/>
    <path class="cls-62" d="M94.41,19.96c7.64,5.1,17.55,9.04,25.72,13.49,1.9,1.15,2.16,3.08,1.92,5.11-.66,1.44-1.29,1.75-1.91.93-1.32-.23-1.83-1.26-1.54-3.1-9.87-4.43-19.2-9.15-27.98-14.16l-.03-1.34c-3.44-1.73,2.11-3.53,3.81-.93Z"/>
    <path class="cls-27" d="M126.82,70.18c2.37,4.13-4.03,10.25-7.62,13.02-2.38,2.6-5.24,4.77-8.58,6.51,2.47-.08,3.29,1.73,1.91,3.72,2.54.39,3.81,1.32,3.81,2.79-3.46-1.01-7.38-.89-7.57-5.18-.23-5.35,4.76-4.57,8.08-7.81,2.75-2.68,7.75-11.22,9.97-14.91.57.09.57.71,0,1.86Z"/>
    <path class="cls-7" d="M94.41,19.96c-5.23-1.95-3.02-.34-3.81.93,1.19,1.37.67,1.83-.95.93,1.28,6.63-1.21,10.87-4.77,15.81,1.69,2.31-1.89,7.9-4.77,7.44-.29.47-.61.46-.95,0,1.59-2.95,5.46-10.87,6.36-13.79,1.47-4.74-.24-13.81,6.51-13.2,1.99.18,1.92,1.57,2.38,1.88Z"/>
    <path class="cls-37" d="M202.11,101.8h-.95c-3.09-1.9,2.16-9.57,5.64-9.41,8.89,3.67,8.45,1.32-1.31-7.04l.43-2.15h.95c3.33,3.34,14.12,8.65,8.53,13.45-3.84,3.29-6.81-1.8-8.55-.95-.85.42-3.66,4.82-4.74,6.1Z"/>
    <path class="cls-84" d="M151.6,50.65c-3.46-1.3-6.44-3.34-9.53-1.86.22,2.6-.73,3.84-2.86,3.72-.27,1.49-.64,2.76-1.91,3.72.29,2.3-4.34,7.73-6.67,7.44.31,4.39-.96,6.56-3.81,6.51v-1.86c1.62-2.69,1.98-6.21,3.95-8.7,1.48-1.87,4.08-2.71,5.59-4.77s1.73-5.6,4.21-7.04c4.04-2.35,8.03-.08,11.02,2.85Z"/>
    <path class="cls-81" d="M74.4,56.23c-2.42,3.56-5.28,6.97-8.58,10.23.8.26.79.57,0,.93.65,1.03,1.36,1.8,2.7,1.35l.16,1.44c2.3-.13,3.57.49,3.81,1.86-10.17-.1-10.04-4.9-4.74-11.6,4.11-5.2,8.21-9.42,11.41-15.37h.95c1.46,3.07-2.61,9.96-5.72,11.16Z"/>
    <path class="cls-19" d="M82.98,57.16c.73.97.41,2.21-.95,3.72l-.92,5.14c1.98,6.16,1.54,15.84-6.71,8.81-.67-.77-1.26-2.23-1.91-2.79-1.01-.88-2.55-1.15-3.81-1.86,1.87-3.32,5.05-2.41,9.55,2.73-1.97-6.48-1.92-9.55,2.38-15.7.16-.22.73-.18,1.41-.05.28-.63.6-.61.95,0Z"/>
    <path class="cls-32" d="M242.14,130.63c6.33,6.04,4.64,15.01-3.81,17.67.62,2.46-.06,2.63-1.91.93.04,1.37-.28,2.3-.95,2.79-3.61-5,3.47-5.49,5.64-7.05,3.66-2.63,3.14-6.95,1.5-10.62-4.52-10.13-21.39-8.32-29.06-2.79h-1.91c.22-2.97,6.98-5.67,10.17-6.22,6.18-1.08,16.73-.5,20.32,5.29Z"/>
    <path class="cls-78" d="M91.55,55.3c2.83-.53,4.76-.45,3.81,2.79,3.23,2.02,5.71.74,7.45-3.85l2.08,1.06v.93c-.44,2.1-2.07,5.2-4.3,5.61-4.28.79-5.17-1.85-8.09-3.75l-6.28-3.1c-1.13.32-2.22,1.04-3.25,2.17h-.95c-1.52-1.11-.76-3.3.95-3.72-1.55-5.92,9.75-2.22,8.58,1.86Z"/>
    <path class="cls-72" d="M97.27,32.98c2.17-1.68,8.41.88,7.62,3.72.65.27.64.58,0,.93-.57-.32-5.18-2.53-5.47-2.61-4.75-1.26-3.29,2.27-4.6,4.41-1.28,2.08-3.97,4.52-5.17,7.04l5.71,3.25c-.28.41-.6.39-.95,0-.18.82-.5.79-.95,0-5.33,2.84-10.27-6.33-2.86-8.37l1.75-4.9c1.11-4.57,2.75-5.72,4.92-3.47Z"/>
    <path class="cls-74" d="M286.93,185.5c-2.9,4.11-8.18,8.85-11.44,13.02h-1.91l-.49-1.39c4.81-5.44,9.25-11.12,13.32-17.03l2.41-.18c1.8-3.86,1.8-6.34,0-7.44-1.01,2.34-1.91,2.43-2.86,0l-3.81,1.86c.46,2.71-2.84,3.87-4.77,1.86-.28.45-.6.44-.95,0-.83-.26-.82-.57,0-.93,3.63-1.05,14.06-8.73,15.26-1.34.58,3.54-2.7,8.63-4.77,11.57Z"/>
    <path class="cls-43" d="M245,122.26c-9.13-3.38-18.66-4.62-28.59-3.72-.92.56-1.56.56-1.91,0,3.05-1.96,7.38-.56,10.91-.98,1.72-.2,3.12-1.5,4.87-1.76,6.87-1.01,10.31,2.59,14.72,6.46Z"/>
    <path class="cls-59" d="M128.72,85.99c-.32,2.2-1.91,3.03-2.43,4.61-2.26,6.93.15,11.98-9.96,5.62-.63-.4-3.43-2.4-3.81-2.79,1.54-2.91,4.58-2.33,4.77.93,1.52.24,3.08.58,4.69,1.01.46-4.35,2.58-10.02,6.75-11.24-.06.61.09,1.27,0,1.86Z"/>
    <path class="cls-51" d="M104.9,36.7c4.22-2.85,9.75,1.94,8.78,7.11,2.05-.94,3.57-.83,4.57.33v.93c-7.25,6.59-7.21-1.69-9.11-4.59-.57-.88-3.1-2.2-4.23-2.85v-.93Z"/>
    <path class="cls-15" d="M239.28,155.74c-.96-.51-3.57-2.71-3.81-3.72-.36-1.49.08-1.82.95-2.79l2,.45c2.33,5.02,6.76,4.68,11.34,4.2-.82-3.81-.19-6.29,1.91-7.44,1.21,9.51-3.04,14.29-12.39,9.3Z"/>
    <path class="cls-61" d="M171.61,64.6c1.38.9,1.65,4.89,0,5.58-.03,2.75,2.03,7.25-1.91,9.3,1.67-3.11,1.71-11,.77-14.28-.33-1.16-1.53-1.26-1.73-1.53-3.09-4.36-7.16-7.17-11.44-10.23,1.93.79,4.13.55,6.23,1.83,2.76,1.7,5.24,7.16,8.07,9.33Z"/>
    <path class="cls-50" d="M104.9,56.23c.06-.28-.01-.62,0-.93-2.7.09-3.24-2.42-.95-3.72-2.89-1.05-3.72-.67-5.05,1.66l-1.62-1.66c-1.5,3.07-3.02.47-2.86-1.86.3.05.64,0,.95,0,5.61.06,13.07-3.49,9.53,6.51Z"/>
    <path class="cls-38" d="M152.55,100.87c.27,1.8-.42,4.02.17,5.87.73,2.28,4.67,2.06,4.49,5.74-.11,2.36-2.48,4.69-4.66,5.13-.71,1.7-5.28,1.33-6.67,0,.02-.41-.77-1.31-.95-1.86,4.45,1.35,12.45,1.32,10.36-4.99-.59-1.78-2.49-1.29-2.74-1.52-2.84-2.67-1.42-12.68-1.91-16.74,1.43,1.88,2.06,4.67,1.91,8.37Z"/>
    <path class="cls-35" d="M246.9,215.26c.35,3.9.91,6.86,4.35,9.92l-.54,2.17h-.95c-1.59-1.78-4.01-3.85-5.72-5.58-1.79-4.8-.05-4.64,2.86-6.51Z"/>
    <path class="cls-89" d="M216.41,118.54c-1.22,2.5-3.76,4.36-7.62,5.58-.85,1.35-3.61,3.31-4.77,1.86-.44-.29-.42-.6,0-.93,1.55-1.21,9.13-6.16,10.48-6.51.5-.13,1.29.06,1.91,0Z"/>
    <path class="cls-38" d="M162.08,86.92c.83.26.82.57,0,.93-3.97.36-9.15-1.05-12.39.93-.01-.17-2.14-2.11.58-2.74,1.77-.41,8.37,1.82,11.81.88Z"/>
    <path class="cls-3" d="M118.24,45.07v-.93c-2.04-2.14-1-4.41,1.91-4.65l1.91-.93c-.26,2.15-2.14,4.99-3.81,6.51Z"/>
    <path class="cls-46" d="M204.02,125.98c1.06,1.4-1.39,3.35-2.86,2.79h-.95c1.46-1.85,1.99-2.29,3.81-3.72v.93Z"/>
    <path class="cls-39" d="M276.45,175.27v.93c.02,2.65-.83,2.66-2.86.93-.78,3.05-8.64,4.38-10.48,1.86v-.93c3.74-.67,9.92-1.8,13.34-2.79Z"/>
    <path class="cls-13" d="M205.92,83.2c1.72,1.51,9.68,9.11,9.38,10.56-1.03,5.04-7.2-.92-10.15.78-.36.21-3.75,6.04-3.99,7.25-8.37,8.49-17.55,18.13-23.63,28.22,2.95,3.39.78,8.84-4,6.66-.7-.32-11.02-9.68-11.29-10.39-2.64-6.86,4.82-3.6,7.93-3.99,1.99-.25,1.91-1.56,2.4-1.89,9.53-6.47,18.94-23.41,26.7-32.15-1.92-6.91.47-10.48,6.66-5.04Z"/>
    <path class="cls-85" d="M162.08,71.11c.13-1.1,1.1-1.95.92-4.05-.27-3.08-2.63-5.85-2.82-8.96,1.48-1.48,6.97,6.83,8.57,7.43,2.63,8.27.79,15.63-7.62,19.53-1.22.3-2.45.38-3.7.3-1.43-.1-9.43-.77-9.91-.91-.33-.09-.52-.61-.69-1.24-.88.44-1.2,1.06-.95,1.86l1.31-.1c1.54,7.51,2.28,14.87,2.17,22.63.51,1.12,1.58,1.98,3.2,2.59.07.01.81.76.95.93.98,1.77.09,3.03-1.91,2.79-10.39.77-12.41-2.43-9.93-12.02l-.55-2.86c-.74-1.89-1.01-3.78,0-5.58-.88-4-.52-8.06,0-12.09l.6-1.17,7.03,1.17c4.77.5,8.27-.43,10.48-2.79-.09-.98.88-1.98,1.91-1.86.34-2.16.66-4.02.95-5.58Z"/>
    <path class="cls-65" d="M142.07,48.79c-.95,4.29,6.01,3.92,9.22,5.41s7.48,4.91,8.44,8.5c.79,2.96-.73,6.94,2.35,8.4-.2,1.73.78,4.54-.95,5.58-.4-1.6-.72-3.46-.95-5.58-1.34,1.2-1.82.7-.95-.93-.85-6.56-6.22-11.24-11.44-14.88-.25.57-.57.55-.95,0l-5.72-.93c.92,2.27,0,2.5-1.91.93-.86,0-.86-.93,0-2.79.94-1.71.25-2.47,2.86-3.72Z"/>
    <path class="cls-57" d="M224.98,124.12c1.54-.84,2.5-.84,2.86,0l4.77.93c1.08-2.86,5.78-2.31,5.72.93,3.42-.09,5.97,1.56,3.81,4.65-5.89-5.18-11.67-5.61-19.56-4.67-4.26.51-7.83,3.16-10.94,5.6-2.16,1.69-4.71,3.31-5.79,5.97-.72,1.78-2.73,13.06-2.37,14.53.62,2.5,6.61,8.83,9.16,9.71,6.07,2.11,6-7.87,12.34,2.34,1.09,2.88,1.54,5.61-1,7.86-3.35,2.97-4.1-.17-6.6-.91-6.95-2.05-17.22-5.25-20.51-12.52-4.07-8.98-3.56-13.73.48-22.32v.93c1.3,1.95,1.42,4.65.37,8.1.98,3.64.86,6.53-.37,8.64,1.88.87,3.22,2.96,4.02,6.27,1.6,3.04,19.41,9.96,20.47,9.53.85-.35-.17-6.14-1.32-6.97-2.53,3.74-4.64,3.9-8.82,2.5-2.97-1-11.41-9.15-10.53-12.26-2.07-2-.66-9.6.18-12.69,2.76-10.2,13.19-18.78,23.65-16.14Z"/>
    <path class="cls-9" d="M208.78,124.12c.95-.59,1.59-.59,1.91,0l.31,2.09c-4.75,3.02-8.59,6.08-11.37,10.99l-2.28-.06v-.93c.75-1.59,3.04-6.37,3.81-7.44.12-.16,2.69-2.68,2.86-2.79.74-.5,3.68-1.54,4.77-1.86Z"/>
    <path class="cls-73" d="M258.34,204.1c-.28-1.68,1.16-1.41,4.3.8,4.76-1.35,6.5-.99,5.23,1.06-4.19,4.65-9.26,9.23-11.23,15.55-1.01,3.22.37,12.38-5.93,5.84-2.78-2.89-8.15-8.8-3.81-12.09,3.91-2.51,4.04-2.54,6.67-6.51,1.93-1.34,3.52-2.89,4.77-4.65Z"/>
    <path class="cls-64" d="M236.42,186.43c1.1-.59,2.59-.74,4.48-.46,4.6-2.27,9.49-2.04,10.76.46,2.12-1.45,2.75-.52,1.91,2.79,1.23-1.26,2.8,2.2,2.86,3.72.54,3.05-1.37,4.29-5.72,3.72-4.58-6.26-3.05-8-11.98-9.14-1.03-.13-2.03.79-2.31.77-1.42-.58-1.84-1.73,0-1.86Z"/>
    <path class="cls-53" d="M232.61,184.57c.61.59.3,1.21-.95,1.86,4.42,1.98,5,10.2-.95,9.3-.3-.06-.64.05-.95,0-.14-4.24-8.23-9-5.72-12.09,2.46-1.07,7.16-1.12,8.58.93Z"/>
    <path class="cls-44" d="M257.39,195.73c.8,1.93,1.73,3.35,2.8,4.25l-1.85,1.33c-.2,1.9-1.79,1.59-4.77-.93-.91-1.23-1.96-2.49-2.86-3.72-.63-3.02,3.42-.24,5.72-3.72,1.32-.22,2.5,2.14.95,2.79Z"/>
    <path class="cls-70" d="M237.37,182.71h3.81c.63,0,1.27.01,1.91,0,2.61-.62,4.83-.62,6.67,0,1.19,1.85.19,3.3-1.49,1.82-4.13.68-8.2,1.02-12.19,1.01l.33.89v1.86c-.33-.02-.71.07-.95,0-.92.61-2.19-.01-3.81-1.86-.06-.12-1.38-.33-.94-.91.06-.08,1.2-.26,1.9-.95-2.08-1.59-1.56-1.83.95-1.86,1.26.08,2.55-.02,3.81,0Z"/>
    <path class="cls-55" d="M259.29,197.59c1.04.42,1.99,1.04,2.86,1.86.83.26.82.57,0,.93.77,2.21-.14,2.48-1.91.93-.21,1.9-1.17,1.82-1.91,0,1.91.42,2.23,2.43,0,2.79-.48,2.5-2.09,4.32-4.77,4.65.85-1.28,2.9-2.88,2.9-4.18,0-1.21-2.04-3.01-2.9-4.19,1.58-.18,3.4.9,4.77.93-.03-2.07-.37-3.62-.95-5.58.99-1.81,2.51.29,1.91,1.86Z"/>
    <path class="cls-29" d="M235.47,188.29c.05,2.71.76,7.34-2.62,8.27-1.4.39-1.85-.77-2.14-.83,6.79-1.74,2.93-5.47.95-9.3,1.68-.44,3.25,1.69,3.81,1.86Z"/>
    <path class="cls-6" d="M136.35,76.69c.24-.81.55-.79.95,0,1.4.58,2.67,1.2,3.81,1.86,1.06-.6,2.22-.34,1.91.93,2.41.09,4.31.71,5.72,1.86-2.41-.25-5.34.35-7.62,0-.65,1.26-3.86-.62-4.77-1.86-2.94.13-5.16,1.06-6.67,2.79-.36.59-.57,1.29-.95,1.86-1.15,1.72-3.29,4.09-4.02,5.89-.98,2.41,1.03,8.55-4.86,7-1.65-.44-2.02-2.31-2.56-2.65-.4-.61-.72-1.34-.41-1.98.63-1.28,13.25-16.55,14.21-17.24,2.18-1.55,3.78-.25,5.26,1.54Z"/>
    <path class="cls-36" d="M136.35,79.48c4.15,1.88,5.56,5.62,4.24,11.21l.53,2.74c0,1.86.02,3.72,0,5.58.37.72.67,1.32,0,1.86-3.59-7,1.97-25.46-11.44-18.6.36-.6-.33-2.06,1.57-2.65,1.14-.36,3.83-.32,5.1-.14Z"/>
    <path class="cls-54" d="M161.13,85.06c-4.77,2.22-8.29-.72-13.35,0-.45,3.75,1.55,7.1,1.9,10.7.4,4.09-2.02,12.95,2.87,13.48v.93c-.92-.21-3.55.28-3.82,0-.55-.55.32-12.62-.08-15.27-.09-.58-2.56-9.37-2.78-9.85-1.58-1.01-.59-1.52.95-1.86,4.96-.09,9.37,2,14.3,1.86Z"/>
    <path class="cls-31" d="M141.11,99.01c3.01,2.48-.89,10.12.17,11.91,1.53,2.59,8.18,1.27,10.32,2.97.23.36-.09.67-.95.93-.29.06-.41.81-1.87.58-.82-.13-7.49-2.7-7.74-3.03-1.67-2.24.04-8.22.08-11.5,0-.62,0-1.24,0-1.86Z"/>
    <path class="cls-54" d="M150.65,114.82c.31-.31.6-.67.95-.93,1.11-.8,2.02-1.01,1.91-2.79,2.78,3.19-.43,3.21-2.86,3.72Z"/>
    <path class="cls-85" d="M42.95,26.47c1.39,6.93,3.09,13.61,4.77,20.46-.02,2.79.61,5.27,1.91,7.44.35,2.05,2.49,5.48.02,7.93-2.05,2.02-7.08,1.52-9.55.44-5.95-2.6-2.65-6.26-2.77-10.69-.07-2.32-.61-3.92-1.04-6.05-.26-3.1-1.53-4.34-3.81-3.72-2.66.91-1.36.38-2.86,0-5.16-2.16-6.15-3.58-2.95-4.24l2-2.27c.18-.83.5-.79.95,0,4.66-.61,5.77-.91,4.93-5.77l.79-.74-.34-2.76c2.56-6.98,2.57-9.94-4.47-13.35-4.09-2.97-.73-8.03,2.91-9.92,1.56-1.69,5.31-2.18,6.27.64.83,7.62,1.91,15.16,3.26,22.61Z"/>
    <path class="cls-58" d="M42.95,26.47c-.11-.54-1.4-1.86-1.69-3.44-.7-3.74-.4-19.85-3.65-20.58-.71-.16-2.92.66-4.19.77-.95,1.45-1.37,1.72-1.91,0,2.76-1.63,6.99-3.61,8.83.22l2.61,23.03Z"/>
    <path class="cls-69" d="M49.62,54.37c-2.98-1.09-1.73-4.87-1.91-7.44.6,2.45,1.48,4.92,1.91,7.44Z"/>
    <path class="cls-30" d="M288.84,172.48c1.74,1.48,1.74,3.96,0,7.44-3.53,5.4-10.85,13.21-15.25,18.6-2.18,2.68-3.36,4.82-5.72,7.44l-.56-.71c-3.05.31-6.34,2.32-7.7-1.12l-1.27-.02c.15-.76.01-1.92,0-2.79.62.01,1.29.05,1.91,0,5.12,1.72,6.77-.74,9.39-4.94.9-.73,1.91-1.42,3-.64l2.86-3.72c-1.2-1.81,1.46-6.02,3.81-4.65,3.11-4.27.55-6.04-3.84-7.46-.21-1.94-.17-3.15,1.93-3.7,1.32-.35,2.99-1.33,4.77-1.86l3.81-1.86c.56-.16,2.09-.04,2.86,0Z"/>
    <path class="cls-29" d="M259.29,178.99c1.93.38.88,1.06-.68,1.83l-6.95,1.89c-.54,1.79-1.37,1.78-1.91,0-2.09.21-4.5-.05-6.67,0l16.2-3.72Z"/>
    <path class="cls-29" d="M233.56,182.71c-.39.51-.57,1.48-.95,1.86l-8.58-.93c2.55-3.13,5.98-1.15,9.53-.93Z"/>
    <path class="cls-70" d="M263.11,178.99l.14,2.25c-.79,1.48-10.28,2.56-11.58,1.47,1.8-1.62,4.41-1.72,6.66-2.37.68-.2.89-1.32.97-1.35.96-.28,2.73.24,3.81,0Z"/>
    <path class="cls-29" d="M241.19,182.71c-1.05,0-2.65.02-3.81,0h3.81Z"/>
    <path class="cls-92" d="M33.42,3.22l-1.92,4.65-1.94-.44c.12,5.96,7.32,5.02,8.46,10.43.88,4.2-2.82,7.17-2.7,11.41l-.95-.06c-.25-4.11-.57-8.12-.95-12.03-2.98.11-5.51.99-7.59,2.64l-1.94-.78c-.6-1.52.03-3.69,1.91-6.51.32-.68.67-1.27.95-1.86.97-1.44,1.6-2.99,1.91-4.65.98-1.45,1.3-1.87,2.86-2.79.63-.04,1.28.06,1.91,0Z"/>
    <path class="cls-45" d="M6.8,40.29c1.19-.16,1.93-.02,2.17,1.06,3.27-1.2,6.13-.91,3.61,2.74-.96,2.71,1.76,10.51-4.81,9.07-10.88-2.39-5.46-6.6-1.94-12.86.32.07.86-.12.96,0Z"/>
    <path class="cls-82" d="M17.4,38.39c-.17,1.82-4.69,5.34-4.82,5.69.55-3.73-1.61-.24-4.21-1-1.77-.52-1.32-2.49-1.57-2.79,1.14-.73,2.78-2.35,3.85-2.85.72-1.03,1.36-1.35,1.93-.95,1.47-2.85,5.05-.64,4.82,1.9Z"/>
    <path class="cls-67" d="M23.89,19.03c-.03,2.81-1.4,5.62-4.11,8.42-.64,2.78-1.81,4.01-3.51,3.67.19,2.65-.96,4.53-3.81,4.65-.3,0-1.38.69-1.91.93l15.25-24.18c-.66,1.39-1.49,4.83-1.91,6.51Z"/>
    <path class="cls-67" d="M26.75,10.66c.14-1.91.87-3.11,1.91-4.65,1.19,2.83-1.61,4.03-1.91,4.65Z"/>
    <path class="cls-12" d="M245,122.26c6.03,5.29,11.15,10.06,9.31,18.86-.37,1.75-1.93,3.59-2.64,5.32-.31.76-1.29,1.39-1.51,2.69-.36,2.07,1.01,2.42-.39,4.75-4.05.33-2.91-5.05-1.75-7.93,4.7-7.81,5.01-10.77-.87-17.27-2.59-2.87-6.59-6.07-9.77-8.28l-2.04,1.46c-6.27-.89-12.94-1.72-18.93-.53-1.55.84-3.14,1.77-4.77,2.79-.26.82-.58.8-.95,0-.54.15-1.38-.15-1.91,0l7.62-5.58c11.77-1.07,18.27-2.03,28.59,3.72Z"/>
    <path class="cls-48" d="M16.26,31.12c1.56,1.63,3.15,3.29,4.79,4.97,2.62.39,5.15.28,7.6-.32,2.45,1.33-1.16,2.92-2.85,3.25l3.81,3.26c-2.9-.73-4.34-1.43-7.62-1.86-.72-1.82-3.01-2.1-4.77-2.79-1.27-.5-3.82-1.86-4.77-1.86.03-2.22,3.36-3.89,3.81-4.65Z"/>
    <path class="cls-48" d="M36.28,46c-1.03-1.92-1.36-3.29-3.81-3.72.57-.19,1.11-1.84,2.9-.51,1.44,1.17.65,2.95.91,4.23Z"/>
    <path class="cls-16" d="M90.6,20.89l28.91,13.88c1.76,1.08,1.02,3.19.64,4.72-.36,1.45-1.45,3.14-1.91,4.65-9.19,4.8-5.35-2.07-7.11-4.68-.6-.89-4.86-2.09-6.23-2.76-2.3-1.13-5.69-2.48-7.62-3.72-3.84,1.82-4.7-3.19-4.87-6.23-2.66,0-3.58-1.64-2.75-4.93.13-.32.75-.6.95-.93Z"/>
    <path class="cls-80" d="M119.19,84.13c1.6-2.57,3.64-4.89,6.26-6.41,3.27-5.6,7.12-10.54,10.89-1.96.83.26.82.57,0,.93-1.04-.1-2.33-.95-3.37-.86-3.16.27-11.3,16.17-15.69,18.53-1.46-.92-3.09-1.03-4.77-.93-.77-.76-2.03-2.65-1.91-3.72l8.58-5.58Z"/>
    <path class="cls-17" d="M135.4,72.04c2.11-.34,1.88,2.47.95,3.72-6.47-8.18-6.77,2.83-11.14,4.35-3.77,1.31-2.56,1.03-6.02,4.02v-.93c2.42-2.84,5.55-9.57,7.62-13.02,1.26-2.09,2.57-4.11,3.81-6.51.7.42,1.41.87,1.91,1.52,1.19,1.53,4.2,5.6,2.85,6.85Z"/>
    <path class="cls-8" d="M119.19,84.13c-2.58,2.23-4.33,4.94-8.58,5.58.26-2.18,6.77-4.4,8.58-6.51v.93Z"/>
    <path class="cls-88" d="M84.88,37.63l1.9-4.46c8.49-3,7.58,1.92,3.82,8.18-.39,1.72-2.44,4.14-1.9,6.49,1.98-.74,4.23,1.76,4.76,1.88,3.86,2.9,3.46,8.06-1.91,5.58-1.02-.67-5.66-3.4-6.22-3.41-.69-.01-1.68,1.44-2.36,1.55-2.47,3.29-4.44,7.17-5.93,11.65-7.96,6.09-6.83-4.46-2.65-8.86,1.19-4.05,3.71-7.7,5.72-11.16,1.68-2.9,2.88-4.87,4.77-7.44Z"/>
    <path class="cls-40" d="M89.65,21.82l.95,3.21c6.59-3.14,1.02,4.35,6.67,7.95-4.55.24-2.33,6.96-6.67,8.37.32-1.41-.37-3.45-.02-4.97.24-1.01,2.91-.03,1.92-2.47-1.36.95-5.41-.09-5.62.09-.16.13-1.1,2.4-2,3.63,2.04-5,2.75-11.05,4.77-15.81Z"/>
    <path class="cls-49" d="M146.83,55.3c.31.04.65-.05.95,0,.83.26.82.57,0,.93-1.49,1.03-3,2.39-4.54,4.07l-6.49,12.13-1.36-.39c-1.44-2.15-5.21-3.52-4.77-8.37,1.78-3.45,2.89-5.36,6.67-7.44.65-1.25,1.28-1.56,1.91-.93.61-.24,1.38-.85,1.91-.93l5.72.93Z"/>
    <path class="cls-90" d="M139.21,55.3c-.46.18-1.43.67-1.91.93.31-1.41,1.24-2.5,1.91-3.72v2.79Z"/>
    <path class="cls-24" d="M82.98,53.44c.19,1.44-.42,2.48-.95,3.72-.88,2.03-3.37,6.28-3.65,8.13-.42,2.76,3.78,6.09.83,9.1-4.77,1.41-4.27-6.22-10.51-4.22-1.71-.96-3.11-.24-2.86-2.79,2.49-.78,2.49-1.09,0-.93,1.24-4.27,5.07-7.65,8.58-10.23-.77,2.62-.26,6.43-2.85,8.84,6.14,1.96,7.85-11.06,9.57-12.57.53-.47,1.76.95,1.86.94Z"/>
    <path class="cls-5" d="M65.82,67.39c.03-.33-.1-.76,0-.93.3-.53,3.86-3.09,4.29-4.65,1.38,2.2-.66,8.33-4.29,5.58Z"/>
    <path class="cls-93" d="M238.33,148.3c7.69-5.9,9.21-8.45,3.81-17.67,3.31-2.03,5.67,3.33,6.49,6.32,1.44,5.25-5.75,17.1-10.31,11.35Z"/>
    <path class="cls-71" d="M103.94,51.58c.15.15.97,3.43.95,3.72-2.37.47-4.02,5.15-5.33,5.53-2.54.72-2.83-1.74-4.2-2.74-1.37-1.61-.85-2.11.95-.93,1.36-1.64,2.12-1.89,2.28-.76-.18-4.84,1.6-6.44,5.35-4.82Z"/>
    <path class="cls-87" d="M97.27,51.58c2.98-.13,2.37,6.31-.95,5.58-.45-.02-1.13.36-.95.93-1.22-.89-2.62-2.01-3.81-2.79,4.44-1.07,2.24-1.95,1.91-5.58.3.07.64-.05.95,0,.6.75,1.95,1.82,2.86,1.86Z"/>
    <path class="cls-10" d="M291.89,175.95c1.93.11,1.93-.61,1.96,1.42.04,2.71-.55,3.99-1.96,6.17-.27-2.63,1.81-5.25,0-7.59Z"/>
    <path class="cls-83" d="M249.76,153.88c-3.13,5.23-12.97.53-13.34-4.65.31-.34,1.4-.54,1.91-.93,4.31,1.16,7.88-4.78,8.4-8.15.7-4.53-1.45-6.77-4.58-9.52-.84-1.44-2.03-3.76-3.81-4.65l.51-1.68c-1.89-1.15-2.37-2.45-1.46-3.9,6.06,1.66,14.6,8.56,15.95,14.69,1.65,7.49-7.14,11.51-3.56,18.79Z"/>
    <path class="cls-34" d="M103.94,51.58h-3.82c-.12,1.76.48,4.05-.44,5.63-.82,1.41-2.26.01-3.37-.05,1.79-1.81,2.04-3.27.95-5.58,2.23.1,4.31-2.33,6.67,0Z"/>
    <path class="cls-91" d="M273.59,177.13c2.75-.82,3.53,4.32,0,3.72l-.13,1.25c-7.3,1.73-14.57,3.17-21.79,4.33-.1-.06-1.16.97-1.69.65-.31-.19.09-1.61-1.61-1.69-3.43-.16-7.47,1.6-11.95,1.04-.51-.06-3.19-.82-2.85-1.85,2.44-.34,4.8,1.11,7.18,1.03,1.73-.06,1.26-1.79,2.04-1.95,2.13-.46,5.35.99,6.98-.94.62-.06,1.28.06,1.91,0,3.81-.39,8.43-1.13,11.44-3.72,3.1-.69,7.25-1.12,10.48-1.86Z"/>
    <path class="cls-41" d="M280.33,179.74c-2.81,4,3.32,3.47,3.88,7.16.52,3.4-1.05,2.99-1.96,4.22-.83-1.7-1.47-3.6-1.93-5.69-1.34,2.37-3.34,1.16-3.85-.95.98-1.26.97-2.55,0-3.79,1.1-.26,1.98-.71,2.89-.95.3-.08.66.08.96,0Z"/>
    <path class="cls-10" d="M289,175.95c-.22.06-1.45,1.18-3.85,1.9l3.85-1.9Z"/>
    <path class="cls-75" d="M161.13,76.69c-.28,1.16-1.57,1.41-1.91,1.86l-1.28,1.73c-4.84,1.06-9.82.8-14.92-.8-.61-.18-1.25-.68-1.91-.93-.83-.26-.82-.57,0-.93l1.71-1.82c10.25,3.18,15.41,2.02,15.5-3.46l1.86-1.22c.92,1.81,1.5,3.34.95,5.58Z"/>
    <path class="cls-31" d="M141.11,81.34c0,4.02,0,8.07,0,12.09-2.36-2.73-.03-7.69-1.07-10.59-.76-2.12-4.4-.41-3.7-3.36,1.8.26,2.95,1.58,4.77,1.86Z"/>
    <path class="cls-36" d="M148.74,81.34c-1.21-.14-4.32-1.44-5.72-1.86,5.43-.47,11.51,3.17,16.2-.93-.35.47.16,2.13-1.53,2.66-1.5.47-7.08.34-8.95.13Z"/>
    <path class="cls-31" d="M146.83,83.2l-.95,1.86c-.1-.23-2.08-.76-1.91-1.85.95-.03,1.91,0,2.86,0Z"/>
    <path class="cls-90" d="M147.79,55.3c3.58.64,9.36,6.31,10.7,9.56.73,1.77.94,3.43.74,5.32-1.77-3.73-3.06-6.93-6.67-9.3-1.13-1.7-3.12-2.63-4.97-3.44l.2-1.21v-.93Z"/>
    <path class="cls-90" d="M146.83,55.3c-1.77-.21-4.65.77-5.72-.93,1.55-.23,4.87-.43,5.72.93Z"/>
    <path class="cls-68" d="M216.41,122.26c3.07-3.48,18.2-.95,8.58,1.86-7.43.52-17.74,5.85-20.72,12.8-1.96,4.58-1.53,11.84-3.11,16.03,2.65,3.3-2.37,5.07-3.81.93-2.04-7.31-2.07-9.11,0-16.74l5.1-7.12,8.24-5.9c.29-.08.65.07.95,0,1.27-1.1,3.17-2.29,4.77-1.86Z"/>
    <path class="cls-26" d="M201.16,152.95c3.77,2.97,9.87,12.97,15.57,11.04,1.88-.64,2-4.77,4.47-3.17,2.59,1.68,4.56,9.97.45,11.55-3.23-3.79-7.8-2.9-11.66-4.33-.95-.35-9.45-6-10.06-6.68-1.6-1.79-1.98-5.27-2.59-7.49,1.92.73,2.98,1.29,3.81-.93Z"/>
    <path class="cls-42" d="M237.37,120.4c2.75,2.69,7.08,5.42.95,5.58-2.46-1.23-3.69-.56-5.72-.93l-4.77-.93c-.94-.03-1.93-.06-2.86,0l2.85-1.85c-3.66.29-7.88-.43-11.43,0-.83-.26-.82-.57,0-.93.19-.09.41-1.19.98-1.38,4.04-1.31,15.73-.72,19.99.45Z"/>
    <path class="cls-9" d="M232.61,125.05c-1.53-.05-3.95.58-4.77-.93,2.58.07,3.11.63,4.77.93Z"/>
    <path class="cls-20" d="M273.59,180.85c.68-.03,3.02.63,3.81.93,2.35,1.44.92,4.73-1.91,4.65-1.08,1.25-1.69,1.76-1.91,0-2.8-2.06-6.96-1.8-12.5.8-3.35-.68-5.86-.02-7.52,1.99-1.01-1.16-1.76-2.7-1.91-2.79.02-4.42,6.2-1.99,8.61-2.29,4.25-.53,10.55-3.16,13.31-3.29Z"/>
    <path class="cls-86" d="M253.58,189.22c.12-4.23,5.07-2.4,7.88-3,3.24-.7,6.37-2.06,9.87-2.46,3.25-.37,4.34-.39,2.26,2.67.76,1.69-1.21,3.38-2.86,1.86l-1.26-.88c-3.73,1.73-7.43,2.55-11.11,2.47,3.34,3.45,3.98,6.02,1.89,7.71-.27.81-.59.8-.95,0-.5-.87-.83-1.55-1.91-1.86-.14-.46-.89-2.66-.95-2.79-.56-1.1-1.98-2.71-2.86-3.72Z"/>
    <path class="cls-21" d="M147.79,56.23c.34.1,5.65,3.51,4.77,4.65-1.39-.91-5.37-3.1-6.71-2.34-1.69.95-10.4,15.35-7.58,18.15-.24.72-.56.7-.95,0-.31-.04-.64.03-.95,0v-.93c-.45-.98-.47-3-.95-3.72,2.98-2.71,7.49-17.27,12.39-15.81Z"/>
    <path class="cls-17" d="M141.11,77.62v.93c-1.12-.43-3.32.41-3.81-1.86.31.04.64-.03.95,0,1.01.11,1.97.48,2.86.93Z"/>
    <path class="cls-33" d="M32.46,19.03c2.7,1.23,1.58,7.27.95,9.3-3.05-10.21-6.32-3.34-8.4,3.85l4.59,1.73c.84.3.84.61,0,.93.83.26.82.57,0,.93-.32-.01-.64.01-.95,0-13.1,3.36-13.44-6.82-3.54-12.84.7-3.93,4.23-7.41,7.35-3.9Z"/>
    <path class="cls-67" d="M35.32,29.26c.18,2.14-.12,4.37,0,6.52-1.9-.06-3.83.08-5.72,0v-.93c3.05.07,4.32-2.1,3.81-6.51.78-3.28-.65-6.5-.95-9.3-1.88-1.76-1.59-2.4.95-1.86,3.6,1.85.78,5.45.84,8.9.03,1.73,1.04,2.88,1.07,3.19Z"/>
    <path class="cls-2" d="M279.31,187.36c-1.07,1.43-2.62,3.31-3.81,4.65l-2.86,3.72c-2.95,3.15-8.36,12.71-12.39,5.58.53-.04,1.33-.82,1.91-.93,4.11-5.08,8.73-9.52,13.34-13.95.82-1.48,1.69-2.94,1.91-4.65,4.13,1.56,2.45,1.48,1.91,5.58Z"/>
    <path class="cls-41" d="M272.64,195.73c-.25-2.36,2-2.76,2.86-3.72.15,2.36-1.9,2.7-2.86,3.72Z"/>
    <path class="cls-77" d="M33.42,17.17c-.17.53-.99,1.5-.95,1.86-5.86-.37-4.2,2.57-5.73,4.85-.6.9-1.71,1-2.28,1.75-.66.86-.45,2.47-.63,2.66-.17.18-1.64-.87-2.24-.77-.77.13-2.97,6.18-.79,7.33,2.61,1.38,4.65-.02,6.47.14.87.07,1.31.78,1.39.78-1.92-1.04-1.81,1.71-2.54,1.86-4.16.88-10.04-1.74-9.85-6.51,2.56-4.33,3.13-7.88,7.62-12.09,2.89-2.71,5.65-3.85,9.53-1.86Z"/>
    <path class="cls-9" d="M216.41,121.33v.93c-.84.1-3.02,1.47-4.77,1.86.79-2.32,3.15-2.07,4.77-2.79Z"/>
    <path class="cls-76" d="M275.5,186.43c-.79,1.43-2.14,4.47-2.63,5.28-2.79,4.59-4.76,2.89-4.92,3.17-.32.56.2,1.97-.15,2.62-.12.23-4.2-1.67-1.83,2.88-1.66-.6-2.34-.26-3.81,0v-.93c-1.45-1.2-.78-1.47.95-1.86-1.66-2.79,4.49-10.55,7.62-9.3.57-.5,2.2-1.62,2.86-1.86.45-.16,1.32.11,1.91,0Z"/>
    <path class="cls-4" d="M260.25,197.59c.12-3.24-3.23-5.43-4.3-7.43-2.03-3.76,3.5-1.7,4.65-1.88,3.22-.49,6.27-2.57,9.65-2.8,2.81-.19.21,1.66.48,2.81-1.9,1.67-6.08,7.06-7.62,9.3-.89,1.11-2.46,1.64-2.86,0Z"/>
    <path class="cls-18" d="M271.54,187.6c-4.95,8.13-7.23,10.72-8.26,10.99-.13.03-.8.26-.81.23,0-.03.76-.32,1.49-.6-1.96,1.46-3.83,1.72-4.48,1.03-.1-.1-.46-.53-.18-1.66h.95c3.76-3.33,7.53-6.66,11.29-10Z"/>
    <path class="cls-4" d="M29.61,33.91c-1.15-.02-5.56-.26-5.76-1.45.66-2.6,5.38-13.73,8.61-10.64-.91,2.48.76,5.04.96,6.52.56,4.25,2.34,7.06-3.81,6.51-.08-.31.12-.81,0-.93,1.38-2.58,3.06-1.43.89-.85.85-10.02-5.72-2.07-.71-1.32l-.18,2.18Z"/>
    <polyline class="cls-4" points="30.87 31.39 27.2 30.11 28.72 27.72 30.89 29.16"/>
    <path class="cls-47" d="M271.82,187.19c1.03-.74,1.61-1.04,1.75-.9.41.39-2.8,4.38-9.64,11.95"/>
  </g>
</svg>