<?xml version="1.0" encoding="UTF-8"?>
<svg id="Layer_2" data-name="Layer 2" xmlns="http://www.w3.org/2000/svg" viewBox="0 0 100.98 55.35">
  <defs>
    <style>
      .cls-1 {
        fill: #fed46e;
      }

      .cls-2 {
        fill: #9f741d;
      }

      .cls-3 {
        fill: #9a834d;
      }

      .cls-4 {
        fill: #f9cd63;
      }

      .cls-5 {
        fill: #96804d;
      }

      .cls-6 {
        fill: #e9bb51;
      }

      .cls-7 {
        fill: #eac05c;
      }

      .cls-8 {
        fill: #f3c455;
      }

      .cls-9 {
        fill: #edc25c;
      }

      .cls-10 {
        fill: #cda64b;
      }

      .cls-11 {
        fill: #43413b;
      }

      .cls-12 {
        fill: #f1b129;
      }

      .cls-13 {
        fill: #9f884e;
      }

      .cls-14 {
        fill: #ebb02f;
      }

      .cls-15 {
        fill: #d4af59;
      }

      .cls-16 {
        fill: #eabc51;
      }

      .cls-17 {
        fill: #f1ba3e;
      }

      .cls-18 {
        fill: #f3c75e;
      }

      .cls-19 {
        fill: #554e40;
      }
    </style>
  </defs>
  <g id="Layer_1-2" data-name="Layer 1">
    <path class="cls-10" d="M38.59,6.4c.42.54.58,1.47,1,2v1c-2.26,1.94-9.31-2.46-9.99-5-3.21-1.01-6.78-1.06-9.99,0-.11,1.93-2.11,2.93-5.99,3l-.1,1.61C-.93,18.53.31,41.41,16.69,47.98l.93,2.38c.32-.86.66-.86,1,0l4,2,1.67-1.87c8.27.29,14.09-6.17,17.87-12.83l2.45-.28c.43.3.43.97,0,2-.03,3.77-3.94,8.39-6.99,10.99-8.39,11.16-29.1,1.58-34.21-8.65C-4.75,25.44,1.94,3.56,21.62,1.72c6.1-.57,12.98-.02,16.98,4.68Z"/>
    <path class="cls-3" d="M96.53,3.4c-.28.87-.62.86-1,0-.56,1.91-1.43,1.91-2,0-1.55.82-3.42.79-5,0-.18.9-.52.86-1,0-5.35-.84-12.43-.76-16.14,2.44l-1.84-1.44c-1.82,6.48-2.07,13.34-.74,20.57l-1.1,1.16c.83,5.43.45,10.51-1.16,15.24,1.32,1.89.64,4.9-2.05,9.03,2-.82,3.35-.5,4.05.96l1.26-1.92c6.32,2.17,8.42,1.72,6.3-1.34-4.55-4.14-5.08-13.53-.57-16.72,1.95-.78,4.97-.85,6.99,0,.27-.66.6-.63,1,0,.87.28.86.62,0,1l-.44,1.23c-7.7-3.33-9.22.59-4.55,11.75.69,1.64,1.93,3.11,2,5-1.07,4.3-4.31,5.43-9.71,3.37-7.24,2.55-14.14-1.12-8.27-8.36.25-.68.8-1.35,1-2,1.31-11.27,1.47-22.58.47-33.92C63.62.39,71.74.12,78.78,0c1.91-.06,15.93.45,16.71.76,1.47.58,2.24,1.52,1.04,2.64Z"/>
    <path class="cls-13" d="M99.53,10.39v1c1.92.56,1.94,1.45,0,2v1c-1.47,3.12-4.49,4.95-6.99,2-.86-1.3-3.61-5.46-4.66-5.83-1.93-.67-9.7,0-11.57.85-1.9.87-2.2,7.15-1.75,8.98-4.14,2.32-4.23-7.68-1-8.99-.47-.8-.84-2.27-.36-2.45,1.24-.47,16.15-.29,17.5.53l1.84,3.92h5c-.91-3.15-1.81-6.86-1-9.99h1c1.25,1.99,1.91,4.32,2,6.99Z"/>
    <path class="cls-5" d="M46.58,19.38c1.75,6.3,2.89,15.34-2,19.98.06-.65-.1-1.36,0-2l-1.71-2.11c1.26-8.02,1.16-16.34-3.77-23.17l.49-2.69v-1c3.59,4.56,4.72,4.44,6.99,10.99Z"/>
    <path class="cls-19" d="M38.59,50.35h-1c2.15-1.97,5.61-8.12,6.99-10.99,3.55-7.4,3.71-11.65,2-19.98,4.5,12.96,1.17,21.33-7.99,30.97Z"/>
    <path class="cls-11" d="M97.53,18.39c-.83.17-3.11.14-4,0-.34-.65-.59-1.38-1-2,3.43,1.77,4.42,0,6.99-2,.77,1.73-.38,3.19-2,4Z"/>
    <path class="cls-11" d="M99.53,10.39l-2-6.99h1c.8,2.22,1.14,4.62,1,6.99Z"/>
    <path class="cls-18" d="M29.6,4.4c3.81.52,6.87,3.1,9.99,5,6.95,8.84,6.58,17.46,5,27.97-4.52,8.35-11.41,16.26-21.98,14.99l-4-2c-.31-.1-.72.11-1,0-4.74-3.41,1.95-3.57,5-2,2.24-.38,4.57-.72,6.99-1l-.08-1.47c13.79-7.33,14.31-31.4-2.92-34.49-.21.68-.55.64-1,0-3.54-2.91-6.86-3.18-11.46-2.62l-.53-1.38c1.44-.82,4.61-2.77,5.99-3,3.21-1.06,6.78-1.01,9.99,0Z"/>
    <path class="cls-16" d="M13.62,7.4l12.98,1.01-.99,2.99c-.84.83-3.38,1.31-4,0-8.36-1.49-15.01,8.84-14.96,16.65.06,9.87,7.37,14.96,14.96,19.32.29-.43.63-.41,1,0,.87.28.86.62,0,1-2.68.14-5.75-1.12-5,2-9.23-3.63-13.89-9.08-14.99-19.47-1.12-10.53,1.82-18.25,11-23.49Z"/>
    <path class="cls-16" d="M29.6,4.4c-2.15-.29-7.92-.34-9.99,0,2.02-1.66,7.78-1.71,9.99,0Z"/>
    <path class="cls-6" d="M22.61,52.35c-2.59-.31-3.28-1.77-4-2,1.77-.16,3.46.15,4,2Z"/>
    <path class="cls-8" d="M77.55,24.38c6.88-2.33,15.95-4.82,13.46,6.29-1.21,5.42-4.84,4.56-7.46.7-.32-.05-.67.03-1,0-.87-.28-.86-.62,0-1,5.37-1.25-4-1.36-6.99,0,.86.29.85.62,0,1-1.27,2.96-1.56,7.19-.95,10.44.49,2.6,3.02,4.08,3.7,6.3,2.54,8.27-5.71,3.13-9.74,3.24-2.4.54-2.65.27-2.71-2.04l3.66-10.43c-.04-7.16,2.64-11.99,8.04-14.5Z"/>
    <path class="cls-14" d="M73.56,11.39c.78,2.08-1.35,7.24,1,8.99.79,3.21,6.39,1.74,8.99,2-.86,1.66-4.41,2.03-5.99,1-2.06,2.96-4.41,4.55-7.06,4.77.43,2.09-.64,12.65-1.88,13.31-.67.36-1.38.23-2.04-.1,2.46-10.42-1.89-23.07.02-33.45.37-1.99,1.32-2.65,2.98-3.52,1.79,1.6,4.4,4.9,4,6.99Z"/>
    <path class="cls-4" d="M87.54,3.4c.33-.02.67.02,1,0,1.58.75,3.4.79,5,0,.67,0,1.33,0,2,0,.64,3.27,1.3,6.6,2,9.99-.67,1.07-.87,2.01-2.5,2.06-1.87,0-1.83-1.39-2.5-2.06l-2.1-4.07c-5.53-.95-11.29-.88-16.8.44-7.1-7.74,8.5-7.09,13.91-6.37Z"/>
    <path class="cls-17" d="M77.55,24.38c-6.64,7.02-5.95,13.62-8.89,22.65-.52,1.61-1.61,2.57-.1,4.33-1.08.03-4.97,2.68-5.95-.6-.45-1.51,3.11-7.36,3.95-9.39.37-.89,1.61-1.25,1.95-3.53.58-3.88-.3-8.47.06-12.45,4.52,2.41,5.65-.96,8.98-2,.87.28.86.62,0,1Z"/>
    <path class="cls-9" d="M87.54,3.4c-2.06.12-13.28.65-13.99,1.01-.18.09.9,2.9,0,3.98.96.77,14.46-.73,17.32-.04,1.33.32,1.52,3.77,1.66,5.04-.88-.87-1.71-2.54-2.43-3.04-2-1.38-14.73-2.33-16.55,1.04-.26-.7-5.74-3.23-4-6.99,2.22-1.16,9.2-1.68,12.51-2,1.61-.15,4.47-.59,5.47,1Z"/>
    <path class="cls-9" d="M97.53,13.39c-2.76-2.8-2-6.37-2-9.99h1c.5,1.98,1.66,8.94,1,9.99Z"/>
    <path class="cls-9" d="M93.54,3.4c-.66,1.58-4.34,1.58-5,0,1.65-.08,3.34,0,5,0Z"/>
    <path class="cls-7" d="M83.55,32.37v-1c2.8.41,1.74,1.71,2.67,1.99,6.8,2.03,4.45-11.25.3-10.55-2.27.38-5.48,2.78-8.96,1.58v-1c1.49-.47,3.19-.02,5.99-1,1.67-.58,2.1-2.79,4.97-1.54,6.54,2.87,2.78,22.06-4.97,11.53Z"/>
    <path class="cls-7" d="M82.55,30.37v1c-2.3-.18-4.68.13-6.99,0,.13-.31-.15-.83,0-1,2.23-.88,5.28-1.75,6.99,0Z"/>
    <path class="cls-15" d="M29.6,47.36c-2.54.76-4.87.76-6.99,0-.33-.03-.68.05-1,0-1.5-1.36-.86-1.81,1-1,2.4-.21,4.4-.88,5.99-2,12.37-6.68,12.82-27.88-2-31.97-.87-.28-.86-.62,0-1,19.02,1.33,17.46,28.51,3,35.96Z"/>
    <path class="cls-2" d="M25.6,11.39c.33-.01.67-.02,1,0v1l-6.99,3c-8.84,6.49-7.89,21.84,1,27.97,2.66.77,5.32,1.1,7.99,1,.61,3.29-3.57,1.81-5.99,2-13.71-1.61-17.3-18.61-10.34-29.21,1.88-2.86,6.27-8.31,9.34-5.76.87-.25,2.82.04,4,0Z"/>
    <path class="cls-6" d="M29.6,47.36c-2.96,1.52-3.93.84-6.99,1v-1c2.3.2,4.69-.14,6.99,0Z"/>
    <path class="cls-12" d="M21.61,47.36C5.14,44.98-1.24,24.73,11.1,13.37c1.66-1.53,3.86-3.39,6.08-3.92,1.4-.33,5.21-1.06,4.43,1.95-2.65.78-7.16,5.45-8.39,8.09-5.33,11.38-1.64,21.49,9.39,26.87-.45.04-.9.53-1,1Z"/>
    <path class="cls-1" d="M75.55,30.37c2.39-2.68,6.99-2.13,9.98-.99.27,1.68-1.88.93-2.99.99-2.32.11-4.67-.08-6.99,0Z"/>
  </g>
</svg>