<?xml version="1.0" encoding="UTF-8"?>
<svg id="Layer_2" data-name="Layer 2" xmlns="http://www.w3.org/2000/svg" viewBox="0 0 293.01 199.89">
  <defs>
    <style>
      .cls-1 {
        fill: #e0a528;
      }

      .cls-2 {
        fill: #ecb945;
      }

      .cls-3 {
        fill: #efb940;
      }

      .cls-4 {
        fill: #171e2f;
      }

      .cls-5 {
        fill: #e4bc5c;
      }

      .cls-6 {
        fill: #a0874d;
      }

      .cls-7 {
        fill: #77643b;
      }

      .cls-8 {
        fill: #e6af36;
      }

      .cls-9 {
        fill: #f8bb38;
      }

      .cls-10 {
        fill: #ab9151;
      }

      .cls-11 {
        fill: #efaa19;
      }

      .cls-12 {
        fill: #f5c85d;
      }

      .cls-13 {
        fill: #e9b43f;
      }

      .cls-14 {
        fill: #f3c14d;
      }

      .cls-15 {
        fill: #96804c;
      }

      .cls-16 {
        fill: #ebb642;
      }

      .cls-17 {
        fill: #efc258;
      }

      .cls-18 {
        fill: #675736;
      }

      .cls-19 {
        fill: #b59851;
      }

      .cls-20 {
        fill: #5e5135;
      }

      .cls-21 {
        fill: #f4c454;
      }

      .cls-22 {
        fill: #f4bc3e;
      }

      .cls-23 {
        fill: #5d4a27;
      }

      .cls-24 {
        fill: #f6c85b;
      }

      .cls-25 {
        fill: #f3c354;
      }

      .cls-26 {
        fill: #ac8f4e;
      }

      .cls-27 {
        fill: #f3c65e;
      }

      .cls-28 {
        fill: #f5c048;
      }

      .cls-29 {
        fill: #c1a155;
      }

      .cls-30 {
        fill: #f5c95e;
      }

      .cls-31 {
        fill: #f2c355;
      }

      .cls-32 {
        fill: #695935;
      }

      .cls-33 {
        fill: #eba618;
      }

      .cls-34 {
        fill: #f2b530;
      }

      .cls-35 {
        fill: #a98d4a;
      }

      .cls-36 {
        fill: #625942;
      }

      .cls-37 {
        fill: #c5942c;
      }

      .cls-38 {
        fill: #f4b42c;
      }

      .cls-39 {
        fill: #ba9c54;
      }

      .cls-40 {
        fill: #9e8449;
      }

      .cls-41 {
        fill: #f2b532;
      }

      .cls-42 {
        fill: #caa54e;
      }

      .cls-43 {
        fill: #655532;
      }

      .cls-44 {
        fill: #e9b745;
      }

      .cls-45 {
        fill: #5d5542;
      }

      .cls-46 {
        fill: #060f28;
      }

      .cls-47 {
        fill: #bb9745;
      }

      .cls-48 {
        fill: #efb22d;
      }

      .cls-49 {
        fill: #ecbf56;
      }

      .cls-50 {
        fill: #b08c3a;
      }

      .cls-51 {
        fill: #e8ba50;
      }

      .cls-52 {
        fill: #fdd063;
      }

      .cls-53 {
        fill: #4e4a3e;
      }

      .cls-54 {
        fill: #f2af21;
      }

      .cls-55 {
        fill: #f3c557;
      }

      .cls-56 {
        fill: #edbd50;
      }

      .cls-57 {
        fill: #f0ba41;
      }

      .cls-58 {
        fill: #f4b225;
      }

      .cls-59 {
        fill: #eeb73c;
      }

      .cls-60 {
        fill: #f5c24e;
      }

      .cls-61 {
        fill: #f5c85e;
      }

      .cls-62 {
        fill: #4a3e2b;
      }

      .cls-63 {
        fill: #efb434;
      }

      .cls-64 {
        fill: #5a4f3a;
      }

      .cls-65 {
        fill: #625943;
      }

      .cls-66 {
        fill: #eabf59;
      }

      .cls-67 {
        fill: #f3bf48;
      }

      .cls-68 {
        fill: #eaac27;
      }
    </style>
  </defs>
  <g id="Layer_1-2" data-name="Layer 1">
    <g>
      <path class="cls-14" d="M60.89,101.96c3.6-2.92,5.52-1.78,6.84,2.48l1.04-.54c1.06,5.67,4.04,10.75,8.95,15.26,5.21,5.44,6.17,6.88,10.13,12.73.97-.19,1.29.16.93,1.07l3.12,5.71c-.51,1.9-9.28,1.67-10.8.3-5.99-7.97-12.38-15.6-19.17-22.91-1.43.24-3.11-.03-5.04-.8-15.71,1.6-2.64-11.36,4.02-13.29Z"/>
      <path class="cls-11" d="M10.52,163.53c.57-.34,1.08-.58,1.33-.42,2.95,1.83,10.33,7.95,13.17,10.41,4.45,3.85,9.35,8.78,12.96,13.23,4.54,2.73,7.97,5.88,10.3,9.46.57-2.57,1.27-2.38,1.99.14,1.21,2.5-4.23,4.07-6.64,2.34l-20.22-19.24c-3.52-3.6-9.53-8.03-12.26-11.33-3.56-4.3-2.67-5.97-8.27-10.13-.85-.34-.81-.68.07-1,2.6-3.02,9.92,2.98,7.55,6.54Z"/>
      <path class="cls-63" d="M114.61,135.76c-3.95,3.44-7.66,6.85-11.73,10.2-2.24-2.78-.39-5.32,5.54-7.62-5.7,1.83-9.83,4.77-12.39,8.83,2.47-1.56,4.75-1.96,6.85-1.2-2.48,2.03-4.74,4.34-7.46,6.49-8.55,7.18-12.31,5.37-11.75-5.79-.83-1.74-1.02-3.1-.58-4.09.91-1.43,2.23-1.52,3.97-.25,3.31-2.97,6.4-3.92,9.26-2.83-.28-3.68,9.18-6.88,11.57-5.41,2.74,1.69,3.72,2.32.52,4.25.25-2.96,2.59-3.96,5.19-2.64.34-.85.68-.81,1,.07Z"/>
      <path class="cls-37" d="M136.13,57.15l-1-.07c-2.13,2.79-5.12-.54-5.77-3.41-1.45,1.32-1.94.7-.93-1.07-1.94.16-2.92-.24-2.92-1.21-1.13,4.21-1.62,8.62-.91,12.96,1.47,3.92,2.71,8.21,3.7,12.86l-1.76,2.29c1.58,6.08,2.14,12.46,1.67,19.14,2.23.63,2.7,3.34,1.44,8.11.82.39.8.72-.07,1,1.35.02,1.32,1.96.79,3.06,1.04,2.18,1.52,4.88,1.44,8.11,2.62.5,2.45,1.41-.14,1.99-.34.82-.67.78-1-.07-5.13-19.16-4.88-38.99-8.83-58.31.32-19.72,4.54-13.43,14.29-5.4Z"/>
      <path class="cls-3" d="M61.91,116.05c5.47,2.86,13.81,13.99,18.24,19.28.79.94,1.21,2.92,1.34,3.03.35.29,6.81-1.94,8.84.71l-1.57-6.12c2.2,1.47,4.43,2.96,6.7,4.47,2.46-1.7,3.29.5.86,2.06-3.12,1.61-6.39,2.71-9.02,5.28l-4.22-2.2c-1.85-.78-3.39-2.56-4.63-5.33-3.89-5.24-13.28-14.79-15.69-19.12-1.07-.76-1.36-1.44-.86-2.06Z"/>
      <path class="cls-29" d="M46.7,133.02c.85.34.81.68-.07,1l-2.1,1.21c-16.11-7.82-25.64-2.25-32.45,13.39l-2.51-.17c1.58,2.52-.82,4.47-3.2,2.78.31,2.28-1.17,2.23-3.13,1.78,1.49,1.48.82,2.51-.28,3.99l-.07,1c-.58-.43-2.39-.05-2.81-1.8-.96-4.01,6.19-7.5,8.66-10.31,2.84-3.22,4.8-7.93,7.97-11.28,9.4-9.93,19.16-7.83,29.98-1.58Z"/>
      <path class="cls-10" d="M258.06,17.61c-2.99,1.92-3.89,5.2-2.69,9.83.19.92.78,1.68.86,2.06,1.62,1.43,1.57,2.09-.14,1.99l-1-.07-1.59-.12c-3.06-12.78.55-18.53,10.82-17.26.21-4.03,11.7-5.23,14.21-1.15,2.44-9.14-1.06-11.25-10.5-6.3l-2.09-1.44-1.99-.14c3.62-1.61,12.11-6.1,15.65-4.76,4.05,1.53,4.7,14.74-.11,15.73-3,.62-4.2-2.64-7.53-2.41-2.89.2-8.8,3.35-13.9,4.05Z"/>
      <path class="cls-40" d="M292.06,47.03c.73,2.26.53,5.86-.56,7.97.62,1.6.48,3.6-.42,5.98-2.39,3.94-4.69,3.01-8.25,3.43-4.83,1.12-9.86,1.43-15.09.95-3.34.38-7.9,1.05-11.16,1.7-1.45.29-4.26,2.26-5.14,2.17-2.05-.35-3-1.09-2.85-2.2.48-1,1.83-1.24,4.06-.72.81-2.58,3.19-3.08,7.12-1.51l1.68-2.26c9.19.27,17.77-.97,25.74-3.73l1.96,1.04c.98-4.57.57-9.41-.02-14.02-1.45,1.26-1.98.6-.93-1.07-3.12,0-4.07-.74-2.85-2.2,2.79-2.01,6.41,1.17,6.7,4.47Z"/>
      <path class="cls-16" d="M168.69,35.4c.9-.56,2.25-.07,1.92,1.14,1.39.86,2.68,1.61,3.85,2.27.7-2.11,1.36-2.06,1.99.14l1,.07c.08,1.14-.11,1.48-1.14,1.92-1.38,1.1-2.15,3.67-2.29,7.7-2.18,8.67-6.99-1.24-8.62-5.72-1.53-4.23-1.61-9.25,3.28-7.53Z"/>
      <path class="cls-25" d="M149.7,92.15c-.34.85-.68.81-1-.07-2.46-2.77,2.03-6.94,5.29-6.43,7.43,8.35,14.24,10.72,20.41,7.11-3.46-2.73-4.87-5.12-4.21-7.19l1,.07c11.06,3.87,8.18,12.99-1.99,14.44-6.88.98-13.08-13.38-19.49-7.93Z"/>
      <path class="cls-6" d="M149.7,92.15c.13,4.47-12.62,9.93-12.85,10.75-1.9,6.65,8.32,11.46,5.44,16.75-1.63,2.99-10.63,6.95-11.62,1.22l1,.07c2.28-.82,4.53-1.82,6.73-2.99l-4.19-7.81c-1.73-6.64-2-11.92,5.97-10.64.56-4.14,4.24-7.62,8.53-7.41l1,.07Z"/>
      <path class="cls-64" d="M115.58,121.81l-.66.55c-6.82-9.87-10.18-11.31-10.09-4.31,2.74,1.49,2.92,2.92.65,5.05.86,5.22-1.17,8.32-5.75,10.61,1.08,1.78-2.56,4.11-4.27,3.71-2.95.78-5.16-2.11-6.7-4.47-.22-.33-.64-.65-.93-1.07,3.39-1.94,3.48,4.04,7.07,3.39,2.68-.49,8.56-8.67,8.62-11.8s-4.09-10.06.98-11.8c6.12-2.09,9.25,5.53,11.08,10.12Z"/>
      <path class="cls-2" d="M114.61,135.76l-1-.07c-1.86.83-3.94.14-6.22-2.07-3.25,1.05-5.8,1.08-7.66.09,1.86-3.87,6.23-5.69,5.75-10.61,3.51.3,3.54,3.33.65,5.05l.8.8c3.13-1.48,7.49-.27,8.96,2.88,1.39-.77,1.45-1.57.62-3.29-2.12-2.12-2.47-3.71-1.05-4.75-.42-.31-.37-.64.07-1,2.51-.04,5.53,6.06,5.26,7.72-.58,3.67-4.66,3.92-6.17,5.24Z"/>
      <path class="cls-43" d="M50.28,196.36c-1.39-2.43.88-3.95,3.2-2.78-1.49-1.26-1.12-2.37,1.12-3.35l.36-3.56c-1.43,1.28-1.97.62-.93-1.07-1.41,1.08-2.98-.75-1.85-2.13-.43-.34-.4-.67.07-1,1.42,1.14,4.19,1.73,5.19,4.4,2.2,5.83-8.57,16.33-14.91,12-4.72-3.23-14.46-14.66-19.11-19.41,5.23,3.17,10.22,7.86,14.65,12.07,2.67,2.54,5.4,8.26,9.32,7.5,1.71-.33,2.06-2.03,2.89-2.67Z"/>
      <path class="cls-15" d="M46.55,178.07l-1-.07c-3.29.72-6.06-4.02-3.57-6.26l-.03-2.39c10.36-5.65,14.83-25.46,4.85-32.97l-.18-2.37.07-1c.63.36,1.98.03,3.44,1.18.66.52,4.39,4.85,4.6,5.4.36.98.81,10.81.71,12.54-.36,6.27-2.25,10.85-6.17,15.6-3.65,4.42-8.34,3.51-2.72,10.32Z"/>
      <path class="cls-7" d="M249.21,44.03c2.52,1.46,2.13,4.82-.42,5.98,3.4,4.56,1.96,8.37-.38,12.84.48,1.71.55,3.1.19,4.17.18.31,2.67,2.18,2.85,2.2-11.04-.62-3.15-9.2-3.09-12.64.09-5.4-2.74-23.54-3.94-29.91.34-.85.68-.81,1,.07l1.98.97c-.62,5.86,0,11.3,1.82,16.32Z"/>
      <path class="cls-19" d="M263.95,5c.66.02,1.33.11,1.99.14.79,4.7-21.16,6.36-22.51,5.48-.36-.23-.61-.64-.82-1.11-1.45,2.43-.62,5.19,2.49,8.27,2.17,3.93,2.27,6.91.31,8.95l-1-.07c-.29-1.52-1.51-6.63-1.98-8.11-1.43-4.52-8.27-8.99,2.29-11.45,3.03-.71,16.16-2.22,19.23-2.11Z"/>
      <path class="cls-44" d="M171.19,85.64l-1-.07c-.69.18-1.39.32-2.08.32-4.37.04-27.11-20.61-31.83-25.3l-1.15-3.52,1,.07c11.62,9.56,23.71,18.6,35.06,28.49Z"/>
      <path class="cls-50" d="M176.09,29.9c.75.34.71.67-.07,1,.94,2.66.37,3.16-2.13,1.85l-4.13,1.71c1.28,1.32.65,1.6-1.07.93-.36.24-1.67.13-2.62.78-3.55,2.43,3.36,12.43,4.99,15.39,3.87-1.51,2.45-9.7,3.35-10.71.32-.36,1.55.23,1.9.08l-.07,1c-2.84,4.19.59,11.76-6.77,11.53-.7-5.16-6.16-9.74-5.99-15.04.16-4.98,8.89-6.8,12.6-8.51Z"/>
      <path class="cls-65" d="M213.31,27.5c.34-.85.68-.81,1,.07.66-.46,1.55-.86,2.08-.43,6.79,5.48-.77-15.84-5.6-10.18-3.71,2.96-6.69,3.87-8.95,2.73-.9.73-1.6,1.05-1.99-.14,3.17-2.34,8.51-5.63,12-7.21,1.04-.47,1.39-1.15,2.87-.65,2.41.81,8.78,13.73,8.58,16.05-.36,4.16-9.75,6.34-9.98-.23Z"/>
      <path class="cls-26" d="M214.31,27.57l-1-.07c-1.19-3.65-4.71-1.18-6.98-.49-2.46.76-5.76,1.63-7.25,3.5-.52.65-1.34.4-1.01,2.14.42,2.2,6.23,13.56,7.72,16.35l-.07,1c-3.5.46-5.16-5.36-5.42-8.39-3.35-1.22-8.54-10.94-3.15-12.24,1.22-1.61,2.95-2.49,5.19-2.64.64-5.28,17.34-7.73,11.96.84Z"/>
      <path class="cls-36" d="M205.8,49.01c1.31,2.45,5.14,6.41,6.75,9.58,3.32,6.55.25,4.62,6.35,10.35s3.39,10.66-4.23,10.74l-1-.07-.08-1.18c6.4-1.5,8.4-4.16,2.77-8.65-.84,2.57-2.67,1.74-4.14-.24-.59-.79-7.58-17.25-7.29-18.19.15-.48.45-.92.8-1.34l.07-1Z"/>
      <path class="cls-35" d="M60.96,100.97c.85.34.81.68-.07,1-.61.12-9.24,7.29-9.63,7.77-1.83,2.25-1.12,4.54,1.63,5.25,1.58.41,2.59-1.09,3.81-1.12.28,0,4.62,1.89,5.2,2.19.32.66.5,1.42.86,2.06-3.47-3.09-14.59,0-14.7-5.56-.06-2.71,10.23-11.09,12.97-12.58.51.34.48.67-.07,1Z"/>
      <path class="cls-42" d="M77.71,119.16c-2.43-2.54-8.52-6.89-9.8-10.77-.77-2.33,1.48-3.18-.19-3.94-1.32-4.27-3.16-5.22-5.54-2.84l-1.23-.64.07-1c9.1-4.95,7.85,4.59,11.42,11.13,1.54,2.82,4.55,4.68,5.26,8.06Z"/>
      <path class="cls-62" d="M181.58,37.3c-.04-2.29,6.9-5.59,7.05-.51,1.21.83,2.34,2.58,1.71,4.13,2.1,5.52,4.67,10.82,7.68,15.93l-.96,2.57-.07,1c-5.15-7.17-8.54-16.18-10.3-24.75-1.69,1.69-3.7,1.18-5.11,1.64Z"/>
      <path class="cls-18" d="M83.09,142.57c2.75,5.19.6,6.28,1.47,10.42,1.33,6.25,7.7.21,10.86-.54-1.54,1.22-2.66,3.51-4.95,4.53-8.88,3.94-6.38-5.33-7.65-10.41-.99-3.93-3.44-5.66-4.36-9.32,1.19,1.6,3.41,3.03,4.63,5.33Z"/>
      <path class="cls-32" d="M280.43,27.19c.05.64-.24,1.42-.14,1.99-2.38-1.65-4.71-1.82-6.98-.49.62,1.03.06,1.47-1.07.93-1.06,1.04-2.87,1.49-5.43,1.34-2.9,2.28-8.12,3.23-10.72.53-.06-.64.25-1.44.14-1.99,3.3,2.73,5.78.44,8.77-.14,1.46-.28,3.15.19,4.54-.16,3.83-.96,5.08-8,10.88-2.02Z"/>
      <path class="cls-39" d="M201.84,19.69c.72.42,1.33,1.07,1.14,1.82-.43,1.72-23.03,11.36-26.96,9.39l.07-1c7.01-3.24,16.64-8.1,23.76-10.36.46-.15,1.38.22,1.99.14Z"/>
      <path class="cls-20" d="M202.92,75.84c.89-.13,1.63.12,2.18.79-1.72,3.98.77,4.93,4.45,4.68.95-1.56,2.75-3.37,4.13-1.71l1,.07c-9.52,7.74-14.33,3.35-13.46-7.95-.44-1.21-.37-2.21.21-2.99,2.98.02,2.59,4.82,1.51,7.12Z"/>
      <path class="cls-23" d="M201.41,68.73c-.07,1-.13,1.99-.21,2.99l-4.22-11.31.07-1c3.15-.77,7.17,7.39,4.36,9.32Z"/>
      <path class="cls-53" d="M282.83,64.41c-3.88,3.46-10.29.67-15.09.95,4.97-.57,9.95-.34,15.09-.95Z"/>
      <path class="cls-45" d="M292.2,45.03l-.14,1.99c-2.25-3.79-2.62-3.85-6.7-4.47-.24.86-.58.8-1-.07,2.69-3.31,6.49-.69,7.83,2.55Z"/>
      <path class="cls-32" d="M258.06,17.61c-2.95,2.61-2.44,6.22-2.69,9.83-.74-3.57-2.5-9.11,2.69-9.83Z"/>
      <path class="cls-47" d="M52.26,182.48l-.07,1c-1.79,1.61-8.23-3.18-6.63-5.47l1,.07c1.51,1.83,3.98,3.02,5.7,4.4Z"/>
      <path class="cls-51" d="M181.72,35.31c.45-4.39,11.71-1.93,6.98.49.85.34.81.68-.07,1-.7-.65-.63-2.34-2.28-2.22-1.75.13-3.48,1.61-4.76,2.73-1.35.44-2.15,1.31-4.13,1.71-.31.06-.68-.12-1-.07-1.35-2.89,3.72-7.85,5.26-3.64Z"/>
      <path class="cls-53" d="M292.5,55.07c-.34.85-.68.81-1-.07l.56-7.97.14-1.99c1.32,3.18.73,6.6.3,10.04Z"/>
      <path class="cls-56" d="M115.58,121.81c.11.27-.17.7-.07,1s-.16.69-.07,1c-.61.71-1.34.99-2.21.76l-5.93-7.67-2.47,1.16c-.12-.83-1.97-2.06-.28-4.08,3.93-4.71,8.25,6.55,11.03,7.84Z"/>
      <path class="cls-45" d="M291.08,60.98l.42-5.98,1,.07c-.35,2.76.17,3.3-1.41,5.91Z"/>
      <rect class="cls-46" x="271.73" y="14.14" width="1.99" height="2.99" transform="translate(238.1 286.6) rotate(-86)"/>
      <path class="cls-49" d="M67.73,104.44c-.38-.17-1.45.25-1.84-.29-.68-.93,1.35-3.9-2.44-3.04-.45.1-.51,1.9-1.1,1.84-.53-.05-1.23-1.04-1.46-1l.07-1c3.57-2.42,7.36-1.26,6.77,3.48Z"/>
      <path class="cls-41" d="M3.24,153.01l2.09-.45c13.12,7.42,25.31,16.77,36.6,28.06,4.69,5.26,9.03,7.28,13.03,6.05,1.84,3.79.65,4.2-1.48,6.91l-2.14.87c-9.68-8.36-19.42-16.73-29.21-25.09-3.11,0-6.09-1.6-8.93-4.81l-2.68-1.01c-2.43-2.99-2.49-4.97-7.55-6.54-1.77-1.87-.81-2.53.28-3.99Z"/>
      <path class="cls-54" d="M22.13,169.35l27.73,23.46c1.09,1.69.36,2.71-1.57,3.41-.44-.21-.93-1.61-1.62-2.08-2.41-1.63-8.42-4.91-10.16-6.68-1.49-1.52,1.4-4.18-5.39-3.47l2.12-1.83c-6.86-.11-3.85-.3-4.42-2.4-.83-3.09-2.07-3.25-5.2-3.3-.1-.08,1.14-1.51.99-1.78-.38-.7-9.07-5.15-10.86-6.91-1.51-1.48-2.11-2.85-3.24-4.24,1.73-1.75.34-2.37,2.72-.99,3.26,1.89,6.19,4.44,8.89,6.81Z"/>
      <path class="cls-58" d="M22.13,169.35l31.35,24.22c-1.29,1.63-1.81,1.7-3.2,2.78-.6-.16-1.56.07-1.99-.14.92-4.51-3.22-4.89-5.46-6.96-6.99-6.46-13.57-13.66-20.7-19.91Z"/>
      <path class="cls-38" d="M108.42,138.34c-.59,2.88-5.28,3.95-5.54,7.62-4.03,2.54-8.25,4.21-12.67,6.21-1.18.53-.84,1.8-.93,1.85-1.73.93-2.16-5.74-1.48-7.1,1.95-.21.33,2.4.86,2.98.21.23,3.18.5,3.77.2.48-.25,2.2-6.46,5.73-9.01,4.07-2.94,6.48-1.75,10.25-2.75Z"/>
      <path class="cls-59" d="M113.61,135.69c-1.85,1.28-2.94,2.04-5.19,2.64.13-.63.07-1.34.13-1.99-6.79-2.15-8.03.98-12.23,3.15.22-.76-.88-1.95-.86-2.06.25-1.2,3.03-3.23,4.27-3.71.81-.31,8.1-2.4,8.53-2.29.76.19,3.81,3.72,5.35,4.26Z"/>
      <path class="cls-30" d="M135.13,57.08c11.39,9.05,22.05,21.09,35.06,28.49,2.41,3.3,10.58,6.88,2.99,10.52-7.42,3.56-14.57-4.28-19.71-8.66-1.94-.57-4.25,4.18-4.77,4.64-2.76,2.5-5.73,4.89-8.53,7.41-2.92,1.11-5.24,1.4-4.5-2.25,2.72-3.44,5.18-6.96,7.39-10.57l-.39-.86c2.91-2.33,3.26-3.26.88-6.12-2.89-5.11-7.08-7.96-12.58-8.56-.86-.18-1.36-.75-1.86-1.42-.77-1.05-2.01-15.28.24-16.05,1.74,1.23,4.85,2.68,5.77,3.41Z"/>
      <path class="cls-34" d="M129.03,72.68c.97,1.15,1.9,2.21,2.78,3.2,1.94.13,1.69,1.5-.14,1.99.22,5.39,1.56,10.16,4.01,14.3.78.12.73.79-.14,1.99.72,3.56-2.81,10.51-5.89,12.61.1-2.81-.99-5.4-1.44-8.11.47-6.69-.08-13.07-1.67-19.14-.44-5.15-1.87-9.87-1.94-15.16-.42-3.26-.81-7.1.7-9.97.34-.85.68-.81,1,.07l1.47.77c-.05,5.54.69,10.66,2.2,15.38l-.94,2.07Z"/>
      <path class="cls-25" d="M143.08,86.68c.91,2.7-1.8,2.79-2.01,3.36-.16.43.47,2.11-.39,4.01-1.05,2.31-6.83,5.59-.5,5.44-1.46,1.32-3.1,1.29-3.88,1.98-4.88,4.29,4.73,15.57,4.52,16.45-.49,2.02-7.02,5.78-9.15,3.01l.14-1.99c-.26-3.67-.34-7.35-.23-11.03-.27,1.98-1.47,1.79-1.99-.14.02-.32,0-.68.07-1,.91-4.3,3.04-9.35,5.89-12.61,1.5-2.91,4.42-6.74,7.53-7.48Z"/>
      <path class="cls-21" d="M128.43,52.61c.32.21.57.81.93,1.07.22,2.52.4,13.67,1.12,14.93.54.96,4.56,1.2,5.92,1.89,4.53,2.27,5.2,4.93,7.17,9.21-.43.59-1.09.54-1.99-.14-2.4,1.48-3.37.2-1.85-2.13l-2.78-3.2c-.69,1.44-1.52,1.42-1.99-.14-3.55,1.32-5.52.85-5.91-1.41-.19-.56-1.28-1.15-1.57-2.8-.85-4.83-.28-10.48-1.16-15.41-1.19-2.17-.02-3.41,2.13-1.85Z"/>
      <path class="cls-68" d="M128.22,98.66c-1.17-7.06-1.1-12.49-1.67-19.14,4.98,4.94,1.33,12.84,1.67,19.14Z"/>
      <path class="cls-13" d="M131.81,118.94c-1.05-2.13-1.22-5.66-1.44-8.11-.18-1.61.23-2.59,1.21-2.92.15-.59-.01-1.35.15-1.99l.98.07c-.28,4.31-.59,8.64-.9,12.95Z"/>
      <path class="cls-8" d="M125.3,54.39c-.3,3.14-.74,6.87-.7,9.97-1.47-3.32-.96-10.08.91-12.96,1.45.05,1.38,1.05-.21,2.99Z"/>
      <path class="cls-34" d="M131.58,107.91c-.26,1.03.25,2.43-1.21,2.92-.04-.45-.93-1.13-.79-3.06l1.99.14Z"/>
      <path class="cls-44" d="M128.43,52.61c-1.72-.49-2.26.13-2.13,1.85l-1-.07c.1-.99.12-2,.21-2.99,2.05-.53,2.39.87,2.92,1.21Z"/>
      <path class="cls-66" d="M280.29,29.18c.52,3.09,2.38,10.78-.87,12.5-2.69,1.42-5.5-1.64-8.21-1.81-3.92-.24-8.42,3.38-12.83,1.8-.72.62,1.55,11.2,2.15,11.75.53.49,10.89-.63,13.03.33,2.7,3.52-8.21,3.13-11.17,2.22-2.46,4.41-4.7-.58-5.68-3.77-.97-3.16-2.71-14.87,1.82-12.52.11-.46.25-.89.52-1.22.59-.75,16.77-1.72,18.79-1.32.44-3.84-.13-6.45-3.52-8.37-.34.85-.68.81-1-.07,2.79-3.07,4.14-2.04,6.98.49Z"/>
      <path class="cls-31" d="M288.21,44.76c-3.21,3.33-6.1,7.05-8.68,11.16-2.93,3.12-18.39,6.97-17.14.05,2.35-2.04,6.36.12,9.41-.53,1.29-.27,1.45-1.5,1.76-1.7,2.57-1.58,6.45-4.71,8.51-6.91,1.21-1.29,1.42-3.27,2.3-4.35.32,0,.68.02,1,.07.75.88,2.16,1.4,2.85,2.2Z"/>
      <path class="cls-24" d="M46.63,134.01c9.22,4.57,8.12,14.88,6.36,24-1.16,5.98-6.19,10.57-11,13.73-.9,5.51-9.47-1.74-7.62-5.54l-.23-2.44c20.14-15.64-4.23-32.54-13.98-9.45l-2.04.74c-.86,1.52-9.11-3.76-9.18-4.3-.1-.84.18-1.61.63-2.31,3.75-3.82,5.02-9.55,8.52-13.35,7.58-8.23,19.66-5.48,28.54-1.08Z"/>
      <path class="cls-22" d="M6.37,151.23c3.24.36,5.07.71,7.87,2.75,11.7,8.49,22.99,18.25,33.58,28.19,1.77,1.46,4.04,3.2,6.22,3.44.3.34.76.71.93,1.07l-1.76,3.87c-14.73-9.33-25.53-23.12-40.27-32.39l-9.7-5.14c1.52-2.03,2.74-1.44,3.13-1.78Z"/>
      <path class="cls-67" d="M9.57,148.45c2.1,2.69,5.76,4.42,8.55,6.61l2.36-.66c3.82,4.36,8.2,7.52,13.13,9.5l.75,2.31c.91.26,2.8,3.72,3.98,4.67,2.2,1.79,3.55.7,3.65.87,1.41,2.42.72,2.67,3.57,6.26,3.6,4.53,3.82,3.23,6.63,5.47.63.5,1.27,1.47,1.85,2.13-1.9,3.22-1.53,1.22-3,.27-12.7-8.17-21.23-19.15-34.05-27.47-1.63-1.06-3.14-3.47-4.86-4.23-2.4-1.06-6.54.28-5.76-2.95.9-.78,2.58-2.15,3.2-2.78Z"/>
      <path class="cls-12" d="M264.32,14.04c-9.69-1.33-13.48,3.67-11.39,15l-1.68.11c-1.8-1.25-1.84-3.96-1.57-6.12-.95-4.9-3.38-8.41-7.28-10.52-1.41-.49-.64-1.92.21-2.99,2.25-1.04,11.67-1.15,15.6-1.97,2.65-.55,5.18-1.71,7.74-2.4,3.2-.87,10-4.04,12.56-3,2.97,1.21,3.91,12.35.21,12.89-1.37.2-2.77-2.62-4.7-2.9-.52-.08-8.43,1.57-9.68,1.9Z"/>
      <path class="cls-31" d="M264.32,14.04c-.27.07-1.04,1.06-2.06,1.36-2.14.63-7.21.44-8.09,2.57-1.22,2.94-.99,10.67.92,13.45,1.59.5,2.54,1.24,2.85,2.2,4.53,4.21,13.08.9,16.36-4.86,6.18-2.42,6.01,7.2,5.21,11.38-5.83-4.11-16.86.94-20.99-.46-2.3.95-3.48,3.54-3.55,7.76-2.2-.15-3.38-1.68-3.55-4.6l.06-9.28c-1.85-.57-1.56-3.14-.25-4.41,3.77-4.67-1.66-11.25,3.03-15.36,3.3-2.89,6.32.25,10.05.25Z"/>
      <path class="cls-1" d="M272.25,29.62c2.35,2.03-1.66,4.71-4.8,3.66-1.38,3.35-7.79,3-9.5.35-1.06-.27-2.22-1.29-2.85-2.2l1,.07c5.03,2.05,10.61-1.84,16.15-1.87Z"/>
      <path class="cls-27" d="M258.52,39.68c-3.84,1.82-.99,14.31.95,15.59,1.02.68,2.34.41,2.92.7,1.01.51,1.65,1.98,3.17,2.01.54.01,10.11-1.57,10.61-1.77,3.34-1.31,6.33-12.42,12.04-11.46.3.34.73.66.93,1.07.6,4.59,1.01,9.43.02,14.02-.65.65-3.15,1.9-4.14,2.23-7.36,2.47-16.98,1.32-25.25,2.72-4.4.84-5.91-.45-4.53-3.87,2.1-2.6,2.05-5.63.38-8.44-2.9-.39-3.4-3.91-.65-5.05-.25-3.31-.65-6.7-.29-10.03,1.92-.64,3.04,1.99,3.84,2.27Z"/>
      <path class="cls-31" d="M259.77,64.8c-2.19.37-4.86,1.03-7.12,1.51-3.16-1.9-.32-6.99,1.6-9.16-.83-2.35-.38-3.9,1.37-4.66,5.48,3.26-3.82,12.31,4.15,12.31Z"/>
      <path class="cls-57" d="M252.66,66.3c-1.02.21-2.31,1.57-4.06.72-2.91-4.9,1.71-7.41,1.75-10.3.02-1.37-1.3-4.26-1.56-6.71,7.12-.9,4.66,8.75,2.35,13.06.9.92,1.41,2,1.52,3.24Z"/>
      <path class="cls-31" d="M289.16,59.84l-.02-14.02c1.07,2.14,1.92,12.14.02,14.02Z"/>
      <path class="cls-61" d="M201.84,19.69c2.7-1.33,10.99-7.16,13.41-5.63,1.54.97,6.35,11.45,6.16,13.53-.13,1.44-3.81,3.38-4.73,3.1-.54-.16-1.92-2.36-2.38-3.12-.51-.86-.34-3.61-2.35-4.07-.49-.11-7.79,2.79-9.61,3.24-2.19.19-3.93,1.07-5.19,2.64-1.82,4.11,1.33,8.54,3.15,12.24,1.25,3.95,1.16,5.66-2.13,1.85-1.69.87-3.26-1.97-1.78-3.13-2.3-5.2-10.34-10.43-14.67-5.03-.2.1-.98-.3-1.75.12-.73.4-1.97,3.11-3.51,3.52-1.94.33-.9.03-1.99-.14-1.25-.56-2.53-1.32-3.85-2.27-.74-.26-1.44-.46-1.92-1.14.37-.25.68-.72,1.07-.93l4.13-1.71c.75-.57,1.47-1.19,2.13-1.85,7.85-3.09,17-6.22,24.63-9.89.71-.34.98-1.22,1.19-1.32Z"/>
      <path class="cls-51" d="M170.62,36.53c2.67.95,4.67-.54,3.85,2.27-1.31-.21-2.67,1.47-3.85-2.27Z"/>
      <path class="cls-17" d="M115.44,123.8c.76,2.53,3.53,4.92,2.43,8.18-.66-.03-1.33-.07-1.99-.13-2.62-3.51-5.54-4.46-8.77-2.86l-.99-.83c.52-2.81-.42-3.38-.65-5.05-.23-1.69-.4-3.36-.65-5.05,1.99-10.09,7.08,3.89,10.61,5.75Z"/>
      <path class="cls-56" d="M106.13,128.16c2.3.31,2.83-2.92,5.69-2.21,1.11.28,5.49,3.81,4.07,5.9-3.72-.36-6.86-2.84-10.89-1.77-.38-.28,1.03-1.36,1.13-1.91Z"/>
      <path class="cls-60" d="M251.25,29.15c1.27,5.91,1.26,12.7,3.73,18.29.14,1.75.55,3.47.65,5.05.12,1.9.95,4.89.58,6.37-.16.65-1.7.51-2.03,1.32-.52,1.27-1.27,5.93-1.51,6.13-.87.71-3.59-1.82-3.69-2.9-.13-1.39,5.97-9.31-.18-13.39-.28-2.58.06-3.29.42-5.98-1.75-6.11-2.51-12.63-2.27-19.56l1.74-1.51c.34-.85.68-.81,1,.07.53,2.04,1.13,4.06,1.57,6.12Z"/>
      <path class="cls-57" d="M242.4,12.51c4.17,1.54,6.76,6.27,6.28,10.45.3,1.69.64,5.87.56,7.55-.15,3.2-3.61,7.48.24,9.53l1.48-6.9c.45,3.86-1.29,7.35-1.75,10.89-1.3-1.27-2.11-3.15-2.43-4.91-.62-3.47-.67-8.88-1.37-12.38-.56-2.81-1.16-6.58-1.84-9.16-.67-2.52-5.13-6.14-.96-8.06.12.83-.44,2.47-.21,2.99Z"/>
      <path class="cls-51" d="M173.89,32.75c-1.2.9-1.49,2.53-4.13,1.71,1.23-.64,2.13-2.07,4.13-1.71Z"/>
      <path class="cls-55" d="M205.73,50c2.55,4.58,6.82,16.56,8.26,18.6.79,1.12,2.27,1.03,2.37,1.17,7.78,5.48-.43,9.52-5.61,8.62l-1.37-.75c-.56-11.65-4.49-22.58-11.81-32.8l.6-1.37,1.91,1.13.22-2.99c1.69,3.43,4.09,6,5.42,8.39Z"/>
      <path class="cls-55" d="M202.35,26.73l-5.19,2.64c2.03-4.57,2.23-1.91,5.19-2.64Z"/>
      <path class="cls-5" d="M213.67,79.6c-.9.4-3.45,1.53-4.13,1.71-.85-.34-.81-.68.07-1-1.66-1.05-.77-2.54,1.14-1.92,3.75-2.66,12.32.37,5.61-8.62,8.47,4.6,3.11,7.23-2.69,9.83Z"/>
      <path class="cls-33" d="M190.34,40.92c.59-.02,1.16.02,1.65.24,1.73.8,11.62,19.38,12.84,22.69,1.37,3.72,3.98,13.75-1.91,12-.53-2.62-.76-4.36-1.51-7.12-1.38-5.06-2.76-5.7-4.36-9.32-2.58-5.86-5.96-12.15-6.72-18.5Z"/>
      <path class="cls-48" d="M188.62,36.79c.72-.75,1.95-.7,2.75-.1,7.3,5.39,21.05,33.96,17.31,42.43-.52,1.17-1.21-.32-.18.19.43.21.78.59,1.11,1.01l-.07,1c-6.46,1.78-5.68-.77-6.63-5.47,3.19-1.79,1.89-7.85,1.06-10.73-2.33-8.11-9.34-16.13-13.64-24.2-.68-1.27-2.05-2.16-1.71-4.13Z"/>
      <path class="cls-9" d="M274.31,28.76c-1.72,6.91-5.95,9.19-12.99,8.03-1.61-.27-4.12-.8-3.38-3.16,1.14.29,5.25.65,6.28.46,1.08-.2,1.13-2.36,2.51-2.71,1.64-.42,4.54.62,5.32.12.43-.27,0-1.61.2-1.88.26-.38.77-.6,1.07-.93l1,.07Z"/>
      <path class="cls-55" d="M196.39,40.34c-2.1.25-3.84-1.03-5.21-3.82-.87.06-1.92-.03-2.49-.72-.23-.17,1.32-2.01-2.35-2.27-3.26-.23-2.29,1.46-3.29,1.85-.48.18-1.08-.19-1.33-.06.34-1.7-2.26-2.89.69-2.96,6.77-.16,12.07.64,13.98,7.99Z"/>
      <path class="cls-44" d="M134.94,74.09c-.6.55-2.94,1.43-3.13,1.78-4.72.42-2.22-1.56-2.78-3.2,1.76,1.09,3.73.93,5.91,1.41Z"/>
      <path class="cls-4" d="M18.12,155.05c-.4-3.62,7.42-12.44,10.33-13.37,5.51-1.77,14.49.22,15.12,6.69.93,9.66-2.59,12.11-9.2,17.83-9.07-2.56-8.98-5.45-16.24-11.15Z"/>
      <path class="cls-52" d="M51.86,159.42c-3.07-1.81-1.57-7.56-1.14-10.47.18-1.24.98-6.13,2.33-6.47l-1.18,16.94Z"/>
      <path class="cls-31" d="M249.67,23.03l-1-.07c-1.23-6.85-4.96-7.42-6.28-10.45,6.49-.51,6.13,6.15,7.28,10.52Z"/>
      <path class="cls-28" d="M196.39,40.34c.5.69,1.14,2.12,1.78,3.13,3.03,4.77,10.25,18.97,11.56,24.12.85,3.35.85,7.34,1.02,10.81-.39.27-.7,1.45-1.14,1.92-3.31,1.3-4.35.06-3.77-3.28l1.91,1.15c1.66-7.54-1.37-14.21-4.53-20.87-1-2.1-9.21-16.45-10.01-17.02-.3-.22-1.76.79-1.84.69-.18-.25.21-2.01-.35-3.01-.68-1.23-2.12-.93-2.4-1.19l.07-1c.27.2,2.1-.71,3.04-.24.3.15,4.28,4.27,4.65,4.78Z"/>
      <polyline class="cls-4" points="142.49 79.3 142.26 79.77 143.34 80.33 143.58 79.66 137.47 74.83 136.16 73.38 134.96 74.05 131.83 75.84 131.66 78.06"/>
      <path class="cls-4" d="M138.67,78.69s.35,1.75.39,1.76,4.28-.12,4.28-.12l-.9-1.18-5.02.13c.21-.05,1.25-.59,1.25-.59Z"/>
      <path class="cls-4" d="M139.31,79.21c0-.06-.07-.15-.15-.25-.15-.18,1.96-.1,1.96-.1l.52.47-2.23.18-.27.19-.7-.7"/>
      <polyline class="cls-4" points="139.34 78.59 138.77 79.13 139.62 79.4 138.79 78.6"/>
    </g>
  </g>
</svg>