<svg width="59" height="59" viewBox="0 0 59 59" fill="none" xmlns="http://www.w3.org/2000/svg">
<circle cx="29.6266" cy="29.1266" r="28.7488" stroke="white" stroke-width="0.755776"/>
<path d="M34 20.25H25C23.6081 20.2515 22.2736 20.8051 21.2893 21.7893C20.3051 22.7736 19.7515 24.1081 19.75 25.5V34.5C19.7515 35.8919 20.3051 37.2264 21.2893 38.2107C22.2736 39.1949 23.6081 39.7485 25 39.75H34C35.3919 39.7485 36.7264 39.1949 37.7107 38.2107C38.6949 37.2264 39.2485 35.8919 39.25 34.5V25.5C39.2485 24.1081 38.6949 22.7736 37.7107 21.7893C36.7264 20.8051 35.3919 20.2515 34 20.25ZM29.5 34.5C28.61 34.5 27.74 34.2361 26.9999 33.7416C26.2599 33.2471 25.6831 32.5443 25.3425 31.7221C25.0019 30.8998 24.9128 29.995 25.0865 29.1221C25.2601 28.2492 25.6887 27.4474 26.318 26.818C26.9474 26.1887 27.7492 25.7601 28.6221 25.5865C29.495 25.4128 30.3998 25.5019 31.2221 25.8425C32.0443 26.1831 32.7471 26.7599 33.2416 27.4999C33.7361 28.24 34 29.11 34 30C33.9988 31.1931 33.5243 32.337 32.6806 33.1806C31.837 34.0243 30.6931 34.4988 29.5 34.5ZM35.125 25.5C34.9025 25.5 34.685 25.434 34.5 25.3104C34.315 25.1868 34.1708 25.0111 34.0856 24.8055C34.0005 24.6 33.9782 24.3738 34.0216 24.1555C34.065 23.9373 34.1722 23.7368 34.3295 23.5795C34.4868 23.4222 34.6873 23.315 34.9055 23.2716C35.1238 23.2282 35.35 23.2505 35.5555 23.3356C35.7611 23.4208 35.9368 23.565 36.0604 23.75C36.184 23.935 36.25 24.1525 36.25 24.375C36.25 24.6734 36.1315 24.9595 35.9205 25.1705C35.7095 25.3815 35.4234 25.5 35.125 25.5ZM32.5 30C32.5 30.5933 32.3241 31.1734 31.9944 31.6667C31.6648 32.1601 31.1962 32.5446 30.6481 32.7716C30.0999 32.9987 29.4967 33.0581 28.9147 32.9424C28.3328 32.8266 27.7982 32.5409 27.3787 32.1213C26.9591 31.7018 26.6734 31.1672 26.5576 30.5853C26.4419 30.0033 26.5013 29.4001 26.7284 28.8519C26.9554 28.3038 27.3399 27.8352 27.8333 27.5056C28.3266 27.1759 28.9067 27 29.5 27C30.2956 27 31.0587 27.3161 31.6213 27.8787C32.1839 28.4413 32.5 29.2044 32.5 30Z" fill="white"/>
</svg>
