<svg width="338" height="341" viewBox="0 0 338 341" fill="none" xmlns="http://www.w3.org/2000/svg">
<path d="M170.663 2.3737C169.174 4.64266 169.546 8.42425 171.78 10.6932C174.014 12.9622 176.247 12.9622 178.109 9.93689C179.598 7.66793 179.226 3.88634 176.992 1.61738C174.758 -0.65157 172.525 -0.65157 170.663 2.3737Z" fill="white" fill-opacity="0.06"/>
<path d="M205.864 2.99596C204.487 5.00483 205.175 8.01813 207.586 9.35737C213.44 12.7055 222.049 9.69218 220.327 4.67002C218.605 -0.686959 208.619 -1.69139 205.864 2.99596Z" fill="white" fill-opacity="0.06"/>
<path d="M123.161 11.4954C120.102 15.0406 123.84 20.0039 129.618 20.0039C132.338 20.0039 134.377 17.5223 134.377 14.6861C134.377 9.36824 127.239 7.2411 123.161 11.4954Z" fill="white" fill-opacity="0.06"/>
<path d="M245.84 12.0972C241.645 16.38 243.581 20.0039 250.358 20.0039C253.908 20.0039 256.49 18.3567 255.844 16.0506C254.231 11.4383 248.745 9.1322 245.84 12.0972Z" fill="white" fill-opacity="0.06"/>
<path d="M88.2119 25.3895C88.2119 29.3985 90.8403 31.403 94.9706 30.6012C102.856 28.9976 102.105 21.7815 94.2197 20.1779C90.4648 19.3761 88.2119 21.3806 88.2119 25.3895Z" fill="white" fill-opacity="0.06"/>
<path d="M150.345 26.6497C147.692 31.4919 154.657 41.5488 160.627 41.5488C166.928 41.5488 166.597 28.1396 159.963 25.1598C152.999 22.18 152.667 22.18 150.345 26.6497Z" fill="white" fill-opacity="0.06"/>
<path d="M188.958 30.2731C185.803 35.6551 193.516 44.625 201.579 44.625C205.786 44.625 208.24 42.1134 208.24 37.4491C208.24 33.5023 206.838 30.2731 205.085 30.2731C203.332 30.2731 199.476 29.1967 196.671 28.1203C193.866 27.0439 190.361 28.1203 188.958 30.2731Z" fill="white" fill-opacity="0.06"/>
<path d="M276.215 35.03C277.76 40.8376 284.871 41.9992 285.18 36.1915C285.18 33.8685 283.016 31.5454 279.924 31.1582C276.833 29.9967 275.287 31.5454 276.215 35.03Z" fill="white" fill-opacity="0.06"/>
<path d="M120.938 42.7721C118.471 45.5294 118.471 48.976 120.233 52.0779C123.052 56.5585 124.11 56.5585 129.044 51.7333C133.978 47.2527 133.978 45.874 129.749 42.4274C125.872 38.9808 123.757 39.3255 120.938 42.7721Z" fill="white" fill-opacity="0.06"/>
<path d="M57.7543 46.1887C58.077 49.7955 60.3355 52.3203 61.9487 52.3203C66.7884 51.9596 65.8205 43.6639 60.9808 41.8605C58.077 40.7784 56.7864 42.5819 57.7543 46.1887Z" fill="white" fill-opacity="0.06"/>
<path d="M240.852 47.376C242.122 55.0546 251.326 56.5172 251.326 48.473C251.326 45.5478 248.787 42.6226 245.613 41.8913C241.169 40.7944 239.9 42.257 240.852 47.376Z" fill="white" fill-opacity="0.06"/>
<path d="M88.2119 57.5146C88.2119 60.4366 89.9057 62.06 92.2769 61.4106C98.3744 59.4626 99.3907 52.3199 93.6319 52.3199C90.5832 52.3199 88.2119 54.5925 88.2119 57.5146Z" fill="white" fill-opacity="0.06"/>
<path d="M309.207 53.646C304.487 57.9288 306.666 61.5527 314.29 61.5527C318.283 61.5527 321.187 59.9055 320.461 57.5994C318.646 52.9871 312.474 50.681 309.207 53.646Z" fill="white" fill-opacity="0.06"/>
<path d="M157.005 60.6461C146.778 71.4069 157.005 90.4986 170.3 85.2918C177.8 82.1677 177.8 59.9518 170.3 57.1748C163.141 54.3979 163.482 54.3979 157.005 60.6461Z" fill="white" fill-opacity="0.06"/>
<path d="M201.837 70.5555C197.907 80.3806 203.266 87.3986 213.625 85.995C221.485 85.2932 223.628 83.1878 223.628 76.1698C223.628 69.1519 221.485 67.0465 213.625 66.3447C207.195 65.6429 203.266 67.0465 201.837 70.5555Z" fill="white" fill-opacity="0.06"/>
<path d="M273.207 69.0443C272.181 70.6564 273.549 73.8806 276.628 76.1375C281.075 79.3616 282.443 79.3616 285.18 75.4926C286.89 72.9133 288.258 70.0116 288.258 68.3995C288.258 65.1754 275.259 65.4978 273.207 69.0443Z" fill="white" fill-opacity="0.06"/>
<path d="M61.3343 73.7216C57.9182 82.5765 65.8892 89.9556 71.9624 84.0523C75.7582 80.3628 74.999 78.149 70.0646 73.3526C64.3709 67.8183 63.6118 67.8183 61.3343 73.7216Z" fill="white" fill-opacity="0.06"/>
<path d="M105.439 72.7157C92.8585 79.7387 100.047 96.9453 115.144 96.9453C130.6 96.9453 137.43 79.3876 124.49 72.3645C115.863 68.1506 113.347 68.1506 105.439 72.7157Z" fill="white" fill-opacity="0.06"/>
<path d="M25.1211 77.7099C25.1211 80.5823 27.6345 83.0957 30.5069 83.0957C33.3794 83.0957 35.8928 80.5823 35.8928 77.7099C35.8928 74.8374 33.3794 72.324 30.5069 72.324C27.6345 72.324 25.1211 74.8374 25.1211 77.7099Z" fill="white" fill-opacity="0.06"/>
<path d="M317.807 91.2564C319.61 96.0961 327.906 97.0641 328.267 92.2244C328.267 90.2885 325.742 88.3526 322.135 88.03C318.528 87.062 316.725 88.3526 317.807 91.2564Z" fill="white" fill-opacity="0.06"/>
<path d="M290.137 101.211C290.82 106.458 293.552 109.256 297.993 109.256C308.24 109.256 307.215 95.6146 296.968 94.2155C290.137 93.1662 289.112 94.2155 290.137 101.211Z" fill="white" fill-opacity="0.06"/>
<path d="M44.8179 99.2083C41.3766 102.753 45.5827 107.717 52.083 107.717C55.142 107.717 57.4362 105.235 57.4362 102.399C57.4362 97.0811 49.4064 94.954 44.8179 99.2083Z" fill="white" fill-opacity="0.06"/>
<path d="M11.2715 108.462C11.2715 116.348 18.7389 115.362 20.3622 107.148C21.0116 103.862 19.3882 101.563 16.4662 101.563C13.2195 101.563 11.2715 104.52 11.2715 108.462Z" fill="white" fill-opacity="0.06"/>
<path d="M131.853 106.63C116.355 117.637 124.276 146.188 142.529 146.188C158.716 146.188 172.492 118.669 160.783 109.038C152.517 102.158 139.774 101.126 131.853 106.63Z" fill="white" fill-opacity="0.06"/>
<path d="M242.482 106.375C240.085 112.388 249.331 126.184 255.496 126.184C260.975 126.184 266.112 110.973 262.345 105.314C259.263 99.6542 244.537 100.715 242.482 106.375Z" fill="white" fill-opacity="0.06"/>
<path d="M75.6998 110.082C69.0215 117.291 70.0759 129.185 77.8087 134.231C85.19 138.916 102.061 128.824 102.061 119.453C102.061 105.036 86.2444 99.6299 75.6998 110.082Z" fill="white" fill-opacity="0.06"/>
<path d="M190.813 114.85C184.678 124.615 185.4 133.683 192.978 140.31C206.689 152.517 229.783 144.495 229.783 127.405C229.783 109.967 200.194 100.201 190.813 114.85Z" fill="white" fill-opacity="0.06"/>
<path d="M35.8926 130.8C35.8926 134.236 38.1924 135.954 41.8065 135.267C48.706 133.892 48.0489 127.707 41.1494 126.332C37.8639 125.645 35.8926 127.363 35.8926 130.8Z" fill="white" fill-opacity="0.06"/>
<path d="M296.329 136.586C297.051 140.792 299.937 144.648 302.823 144.648C310.761 144.648 309.678 130.977 301.741 129.575C296.329 128.523 295.247 129.925 296.329 136.586Z" fill="white" fill-opacity="0.06"/>
<path d="M326.134 130.807C321.414 135.803 323.592 140.031 331.216 140.031C335.21 140.031 338.114 138.109 337.388 135.419C335.573 130.038 329.401 127.348 326.134 130.807Z" fill="white" fill-opacity="0.06"/>
<path d="M2.90591 139.349C0.290215 144.694 3.88679 150.803 9.7721 150.803C12.3878 150.803 14.3496 147.367 14.3496 143.167C14.3496 135.15 6.50249 132.477 2.90591 139.349Z" fill="white" fill-opacity="0.06"/>
<path d="M158.63 155.85C138.647 166.379 149.515 192.352 173.706 192.352C189.131 192.352 194.39 187.087 194.39 172.346C194.39 163.22 192.286 159.711 183.872 155.499C171.602 149.181 170.55 149.181 158.63 155.85Z" fill="white" fill-opacity="0.06"/>
<path d="M268.216 152.693C265.75 153.743 263.637 158.295 263.637 163.197C263.637 169.5 265.398 171.601 269.625 170.551C276.317 169.15 280.191 158.295 275.26 153.743C273.851 152.343 270.329 151.993 268.216 152.693Z" fill="white" fill-opacity="0.06"/>
<path d="M100.044 158.103C97.6302 160.511 95.9062 166.704 95.9062 171.865C95.9062 184.594 109.009 191.475 121.766 185.627C133.489 180.122 135.903 172.897 129.007 162.575C122.8 153.286 107.285 150.878 100.044 158.103Z" fill="white" fill-opacity="0.06"/>
<path d="M33.5848 162.283C32.5055 165.506 32.5055 169.087 33.9445 170.161C36.8226 173.384 47.2556 163.716 44.7372 160.135C41.8592 155.122 36.1031 156.196 33.5848 162.283Z" fill="white" fill-opacity="0.06"/>
<path d="M62.8737 162.686C57.9123 175.98 76.6949 184.473 85.5546 173.395C89.0985 168.964 89.0985 166.748 85.5546 162.317C79.53 154.931 65.7088 155.3 62.8737 162.686Z" fill="white" fill-opacity="0.06"/>
<path d="M219.1 164.842C206.261 178.964 209.731 193.449 226.388 197.794C233.675 199.605 237.839 198.157 244.433 191.276C256.925 178.24 255.537 169.187 240.269 160.496C229.858 155.065 227.776 155.427 219.1 164.842Z" fill="white" fill-opacity="0.06"/>
<path d="M295.339 173.024C291.724 177.443 292.085 178.915 296.424 180.756C303.655 183.334 309.801 179.652 309.801 172.656C309.801 166.029 301.124 166.029 295.339 173.024Z" fill="white" fill-opacity="0.06"/>
<path d="M325.298 175.425C327.546 182.735 337.5 183.889 337.5 176.964C337.5 173.117 334.61 170.808 330.757 170.808C326.904 170.808 324.656 172.732 325.298 175.425Z" fill="white" fill-opacity="0.06"/>
<path d="M2.94668 177.703C1.54858 178.754 0.5 181.906 0.5 184.708C0.5 189.963 9.58768 191.014 12.3839 186.11C14.8306 182.256 6.09242 174.55 2.94668 177.703Z" fill="white" fill-opacity="0.06"/>
<path d="M38.2355 192.049C36.8957 194.42 37.2307 197.468 39.2404 199.501C43.9299 204.243 54.3137 200.178 52.6389 194.42C50.6291 189 41.2502 187.306 38.2355 192.049Z" fill="white" fill-opacity="0.06"/>
<path d="M257.543 197.436C251.323 205.355 254.779 215.434 264.11 215.434C275.168 215.434 281.043 205.355 275.168 197.796C269.293 190.598 263.073 190.598 257.543 197.436Z" fill="white" fill-opacity="0.06"/>
<path d="M71.7248 204.987C69.4972 210.008 76.1801 220.051 81.7491 220.051C83.2342 220.051 87.3181 217.708 90.6595 214.695C95.1148 210.678 95.486 208.335 92.1446 204.652C86.5756 198.292 74.3237 198.627 71.7248 204.987Z" fill="white" fill-opacity="0.06"/>
<path d="M137.263 203.752C129.78 208.176 129.1 224.85 136.582 231.997C147.466 242.887 165.153 234.719 165.153 219.065C165.153 206.134 148.487 197.286 137.263 203.752Z" fill="white" fill-opacity="0.06"/>
<path d="M194.7 205.202C178.953 215.858 188.258 241.64 206.867 238.203C221.182 235.796 227.266 215.171 216.888 205.202C210.088 198.327 204.72 198.327 194.7 205.202Z" fill="white" fill-opacity="0.06"/>
<path d="M321.427 206.7C317.936 212.227 325.966 218.405 330.853 213.853C335.043 209.951 332.25 203.123 327.013 203.123C325.267 203.123 322.823 204.749 321.427 206.7Z" fill="white" fill-opacity="0.06"/>
<path d="M288.952 211.431C285.589 215.866 285.925 217.344 290.634 219.192C298.369 222.518 304.087 215.496 298.033 209.953C294.334 206.627 292.316 206.996 288.952 211.431Z" fill="white" fill-opacity="0.06"/>
<path d="M8.19434 219.089C8.19434 222.011 10.4942 223.634 13.7798 222.985C21.9937 221.361 22.9793 213.894 15.094 213.894C11.1513 213.894 8.19434 215.842 8.19434 219.089Z" fill="white" fill-opacity="0.06"/>
<path d="M46.3344 222.311C43.0039 226.024 42.6338 228.995 45.5943 231.965C50.035 236.421 57.4362 232.708 57.4362 225.653C57.4362 217.855 51.5153 215.998 46.3344 222.311Z" fill="white" fill-opacity="0.06"/>
<path d="M100.087 235.975C96.7908 244.352 101.186 252.365 109.245 252.365C119.135 252.365 122.431 241.074 114.739 235.247C106.314 229.055 102.651 229.419 100.087 235.975Z" fill="white" fill-opacity="0.06"/>
<path d="M235.157 241.844C231.614 248.697 231.968 250.861 237.637 254.828C246.495 261.32 257.125 251.943 251.101 242.565C245.432 233.188 240.118 233.188 235.157 241.844Z" fill="white" fill-opacity="0.06"/>
<path d="M64.0954 246.751C58.9403 253.155 64.0954 260.27 73.3747 258.135C81.9667 256.356 82.9977 249.241 75.4368 244.972C70.2816 242.126 67.5322 242.482 64.0954 246.751Z" fill="white" fill-opacity="0.06"/>
<path d="M271.997 246.339C269.042 253.074 276.429 259.1 284.186 256.264C291.204 253.783 288.618 243.149 280.492 241.731C277.168 241.022 273.105 243.149 271.997 246.339Z" fill="white" fill-opacity="0.06"/>
<path d="M312.25 243.804C307.413 248.389 310.177 255.443 316.741 255.443C320.542 255.443 323.651 254.033 323.651 252.269C323.651 247.684 314.668 240.982 312.25 243.804Z" fill="white" fill-opacity="0.06"/>
<path d="M19.8702 248.491C17.1413 253.344 20.8935 258.521 27.0336 258.521C30.1037 258.521 31.8092 256.256 31.127 253.021C29.7625 246.549 22.9402 243.96 19.8702 248.491Z" fill="white" fill-opacity="0.06"/>
<path d="M133.726 254.138C129.239 259.112 131.31 272.612 137.177 274.743C145.805 278.296 154.778 267.638 149.947 259.822C145.805 253.072 137.522 250.23 133.726 254.138Z" fill="white" fill-opacity="0.06"/>
<path d="M169.437 260.744C163.762 267.963 167.309 276.986 176.176 276.986C183.979 276.986 192.492 264.714 188.945 258.939C185.753 253.525 174.403 254.608 169.437 260.744Z" fill="white" fill-opacity="0.06"/>
<path d="M205.934 264.045C203.53 270.701 206.965 276.986 213.147 276.986C218.643 276.986 226.199 264.415 222.764 260.718C218.643 256.651 207.651 258.499 205.934 264.045Z" fill="white" fill-opacity="0.06"/>
<path d="M87.4777 269.335C86.1379 272.003 86.4729 275.432 88.4826 277.719C93.1721 283.054 103.556 278.481 101.881 272.003C99.8713 265.905 90.4924 264 87.4777 269.335Z" fill="white" fill-opacity="0.06"/>
<path d="M37.0322 273.226C35.5797 275.447 35.5797 278.039 36.6691 279.149C39.5742 282.111 49.7419 277.298 49.7419 272.856C49.7419 268.043 39.9373 268.043 37.0322 273.226Z" fill="white" fill-opacity="0.06"/>
<path d="M252.193 272.833C249.577 277.643 253.174 283.141 259.059 283.141C261.675 283.141 263.637 280.048 263.637 276.269C263.637 269.053 255.79 266.648 252.193 272.833Z" fill="white" fill-opacity="0.06"/>
<path d="M285.303 280.943C287.832 287.208 299.03 288.198 299.03 282.262C299.03 278.964 295.779 276.986 291.444 276.986C287.109 276.986 284.581 278.635 285.303 280.943Z" fill="white" fill-opacity="0.06"/>
<path d="M59.6997 285.776C55.4454 289.855 57.5725 296.992 62.8904 296.992C65.7266 296.992 68.2082 294.953 68.2082 292.234C68.2082 286.456 63.2449 282.717 59.6997 285.776Z" fill="white" fill-opacity="0.06"/>
<path d="M222.905 288.537C220.363 295.259 223.994 301.607 230.531 301.607C237.067 301.607 239.972 292.271 234.888 287.043C229.441 281.441 225.084 281.814 222.905 288.537Z" fill="white" fill-opacity="0.06"/>
<path d="M121.193 292.503C118.238 299.238 125.626 305.264 133.382 302.428C140.4 299.947 137.815 289.313 129.689 287.895C126.364 287.186 122.301 289.313 121.193 292.503Z" fill="white" fill-opacity="0.06"/>
<path d="M187.618 301.802C180.92 308.979 182.683 312.379 192.554 312.379C198.899 312.379 201.367 310.49 200.309 305.957C198.899 298.024 192.906 296.135 187.618 301.802Z" fill="white" fill-opacity="0.06"/>
<path d="M82.7504 304.961C79.827 309.623 86.7702 315.95 91.8862 313.286C94.0788 311.954 95.906 309.623 95.906 307.958C95.906 303.629 85.3085 301.298 82.7504 304.961Z" fill="white" fill-opacity="0.06"/>
<path d="M157.505 304.595C154.4 309.452 155.435 310.493 164.407 312.227C168.893 312.921 171.308 311.186 171.308 308.064C171.308 301.82 160.956 299.045 157.505 304.595Z" fill="white" fill-opacity="0.06"/>
<path d="M255.007 311.709C253.903 313.941 254.271 317.289 256.479 319.521C261.262 324.357 268.254 320.265 268.254 312.825C268.254 306.873 258.687 305.757 255.007 311.709Z" fill="white" fill-opacity="0.06"/>
<path d="M112.833 323.622C112.833 326.819 114.757 329.305 116.68 329.305C118.988 329.305 120.527 327.884 120.527 326.108C120.527 323.977 118.988 321.491 116.68 320.426C114.757 319.36 112.833 320.781 112.833 323.622Z" fill="white" fill-opacity="0.06"/>
<path d="M210.873 328.491C207.814 332.037 211.552 337 217.33 337C220.05 337 222.089 334.518 222.089 331.682C222.089 326.364 214.951 324.237 210.873 328.491Z" fill="white" fill-opacity="0.06"/>
<path d="M142.203 333.336C142.893 335.534 144.962 337 146.687 337C148.411 337 150.481 335.534 151.17 333.336C151.86 331.138 149.791 329.306 146.687 329.306C143.583 329.306 141.513 331.138 142.203 333.336Z" fill="white" fill-opacity="0.06"/>
<path d="M171.657 332.909C170.595 335.155 172.012 337.774 175.2 338.896C181.93 341.89 185.826 338.896 182.284 333.284C179.45 328.045 174.491 328.045 171.657 332.909Z" fill="white" fill-opacity="0.06"/>
</svg>
