<svg width="59" height="59" viewBox="0 0 59 59" fill="none" xmlns="http://www.w3.org/2000/svg">
<circle cx="29.6266" cy="29.1266" r="28.7488" stroke="white" stroke-width="0.755776"/>
<g clip-path="url(#clip0_701_1006)">
<path d="M20.0752 20.9802C20.0752 20.2058 20.7187 19.5781 21.5128 19.5781H38.2129C39.0069 19.5781 39.6504 20.2058 39.6504 20.9802V37.7513C39.6504 38.5257 39.0069 39.1534 38.2129 39.1534H21.5128C20.7187 39.1534 20.0752 38.5257 20.0752 37.7513V20.9802ZM26.1227 35.965V27.1256H23.1852V35.965H26.1227ZM24.6546 25.9181C25.6786 25.9181 26.316 25.2403 26.316 24.3912C26.2977 23.5238 25.6798 22.8643 24.6742 22.8643C23.6685 22.8643 23.0115 23.525 23.0115 24.3912C23.0115 25.2403 23.6489 25.9181 24.635 25.9181H24.6546ZM30.6593 35.965V31.0284C30.6593 30.7641 30.6789 30.4999 30.7572 30.3115C30.9688 29.7842 31.4521 29.2373 32.2645 29.2373C33.3276 29.2373 33.7522 30.0472 33.7522 31.2364V35.965H36.6897V30.8951C36.6897 28.179 35.2411 26.9164 33.3081 26.9164C31.7494 26.9164 31.0508 27.7728 30.6593 28.376V28.4066H30.6397L30.6593 28.376V27.1256H27.723C27.7597 27.9551 27.723 35.965 27.723 35.965H30.6593Z" fill="white"/>
</g>
<defs>
<clipPath id="clip0_701_1006">
<rect width="19.5752" height="19.5752" fill="white" transform="translate(20.0752 19.5781)"/>
</clipPath>
</defs>
</svg>
