<svg width="18" height="18" viewBox="0 0 18 18" fill="none" xmlns="http://www.w3.org/2000/svg">
<path d="M3.82659 8.10782C5.14987 10.7084 7.28183 12.8312 9.88245 14.1637L11.9041 12.142C12.1522 11.8939 12.5198 11.8112 12.8415 11.9214C13.8707 12.2615 14.9826 12.4452 16.1221 12.4452C16.6275 12.4452 17.041 12.8588 17.041 13.3642V16.5713C17.041 17.0767 16.6275 17.4903 16.1221 17.4903C7.49319 17.4903 0.5 10.4971 0.5 1.86817C0.5 1.36274 0.913526 0.949219 1.41895 0.949219H4.63526C5.14068 0.949219 5.55421 1.36274 5.55421 1.86817C5.55421 3.01685 5.738 4.11959 6.07801 5.14881C6.17909 5.47044 6.10558 5.82883 5.84827 6.08613L3.82659 8.10782Z" fill="white"/>
</svg>
