<svg width="15" height="21" viewBox="0 0 15 21" fill="none" xmlns="http://www.w3.org/2000/svg">
<path d="M7.76953 10.1172C7.10649 10.1172 6.47061 9.8538 6.00176 9.38495C5.53292 8.91611 5.26953 8.28023 5.26953 7.61719C5.26953 6.95415 5.53292 6.31826 6.00176 5.84942C6.47061 5.38058 7.10649 5.11719 7.76953 5.11719C8.43257 5.11719 9.06846 5.38058 9.5373 5.84942C10.0061 6.31826 10.2695 6.95415 10.2695 7.61719C10.2695 7.94549 10.2049 8.27058 10.0792 8.5739C9.95359 8.87721 9.76944 9.15281 9.5373 9.38495C9.30515 9.6171 9.02955 9.80125 8.72624 9.92689C8.42293 10.0525 8.09784 10.1172 7.76953 10.1172ZM7.76953 0.617188C5.91302 0.617188 4.13254 1.35469 2.81978 2.66744C1.50703 3.98019 0.769531 5.76067 0.769531 7.61719C0.769531 12.8672 7.76953 20.6172 7.76953 20.6172C7.76953 20.6172 14.7695 12.8672 14.7695 7.61719C14.7695 5.76067 14.032 3.98019 12.7193 2.66744C11.4065 1.35469 9.62605 0.617188 7.76953 0.617188Z" fill="white"/>
</svg>
